<svg id="OBJECTS" xmlns="http://www.w3.org/2000/svg" width="750" height="500" viewBox="0 0 750 500"><defs><style>.cls-1,.cls-31,.cls-33,.cls-35,.cls-36,.cls-40{fill:none;}.cls-2{fill:#bde3ff;}.cls-3{fill:#fff;}.cls-4{fill:#f3f3f3;}.cls-5{fill:#b84c25;}.cls-6{fill:#f59694;}.cls-7{fill:#a52e16;}.cls-8{fill:#191919;}.cls-9{fill:#b27bf7;}.cls-10{fill:#0f0865;}.cls-11{fill:#7482ff;}.cls-12{fill:#ffbe00;}.cls-13{fill:#576fff;}.cls-14{fill:#000d2a;}.cls-15{fill:#ffb639;}.cls-16{fill:#ffa000;}.cls-17{fill:#ffc999;}.cls-18{fill:#ff9570;}.cls-19{fill:#081116;}.cls-20{fill:#212223;}.cls-21{fill:#4343ff;}.cls-22{fill:#4d53ff;}.cls-23{fill:#1e1ee2;}.cls-24{fill:#e38500;}.cls-25{fill:#00204f;}.cls-26{fill:#7b99f1;}.cls-27{fill:#436fdd;}.cls-28{fill:#ffc4a6;}.cls-29{fill:#e49c00;}.cls-30{fill:#bdbdff;}.cls-31,.cls-33{stroke:#fff;}.cls-31,.cls-33,.cls-35,.cls-36,.cls-40{stroke-miterlimit:10;}.cls-32{fill:#ffa68f;}.cls-33{stroke-width:0.7469px;}.cls-34{fill:#1a1a1a;}.cls-35,.cls-36{stroke:#4d4dff;stroke-linecap:round;stroke-width:2.5835px;}.cls-36{stroke-dasharray:0 3.8603;}.cls-37,.cls-38{fill:#4d4dff;}.cls-38{font-size:30.1303px;font-family:Montserrat-Black, Montserrat Black;font-weight:800;}.cls-39{fill:#5ac8ff;}.cls-40{stroke:#2f24fe;}</style></defs><rect class="cls-1" width="750" height="500"/><path class="cls-2" d="M12.7941,500.1721h154.285q68.4159-.6706,136.8308-1.448c85.8008-.9576,171.3139,1.7612,257.1107.4668,26.2484-.3962,52.4857.9718,78.7347.7785,22.8307-.1685,49.3335,3.1959,69.7438-7.1333,8.6151-4.36,16.1442-11.16,21.8543-21.6942,21.7219-40.0769-9.5653-96.1546-43.3182-116.3338-17.8172-10.6524-39.3945-10.8147-57.8105-19.886-25.7293-12.6749-35.0187-40.0779-34.4-67.5356.79-35.0716,16.3045-67.8757,16.9853-103.0261C613.867,109.8175,555.3756,49.669,503.2286,61.5393c-38.8807,8.8506-49.8695,53.1394-85.7979,66.3568-46.3879,17.0641-94.823,4.7448-140.8116-6.0861-16.74-3.9423-35.2176-5.0775-50.1113,3.9971-32.3775,19.7281-43.7086,55.2247-40.7119,91.7008a236.9041,236.9041,0,0,0,10.5381,51.2688c8.7381,27.5574,39.2359,64.16,13.8233,91.6913-6.8973,7.4725-16.1606,12.2651-25.4864,16.2619C121.9473,403.6117,26.5715,413.2844,12.7941,495.4138Z"/><path class="cls-1" d="M253.9764,383.7745a64.9229,64.9229,0,0,0-6.9173-12.066v-.0565c-.0433-.0581-.0818-.1206-.1254-.1785v-.4562c-9.9338,12.0269-11.0115,31.4289-10.911,46.3732.0992,14.1859,1.2437,28.3575,2.3422,42.4963a15.3266,15.3266,0,0,0,1.7474,5.949c2.8305-31.152,11.1674-41.3851,15.468-44.6339-.709.0451-1.1564.12-1.1947.2377a57.3665,57.3665,0,0,0,2.6241-12.46c.1788-1.981.3967-3.9353.5321-5.8892a39.1088,39.1088,0,0,0-.8867-11.1917c-.099-.47-.212-.9371-.3275-1.4037A42.7548,42.7548,0,0,0,253.9764,383.7745Z"/><path class="cls-3" d="M253.9764,383.7745a42.7548,42.7548,0,0,1,2.3512,6.72,41.2224,41.2224,0,0,0-2.4766-7.1576,63.8057,63.8057,0,0,0-6.7919-11.6853v.0565A64.9229,64.9229,0,0,1,253.9764,383.7745Z"/><path class="cls-3" d="M317.02,387.7908l-.0115.0286Z"/><path class="cls-3" d="M316.4963,389.2058q-.2729.7518-.5253,1.5108C316.1378,390.21,316.3168,389.7078,316.4963,389.2058Z"/><path class="cls-4" d="M246.9337,371.0173v.4562c.0436.0579.0821.12.1254.1785v-4.8176h0v4.0187C247.0148,370.9058,246.9775,370.9642,246.9337,371.0173Z"/><path class="cls-4" d="M256.6551,391.8986c-.1045-.4692-.2069-.9383-.3275-1.4037C256.4431,390.9615,256.5561,391.4285,256.6551,391.8986Z"/><path class="cls-4" d="M315.971,390.7166c-.0641.195-.13.3891-.1923.5847Q315.8733,391.0083,315.971,390.7166Z"/><path class="cls-4" d="M317.02,387.7908a54.5672,54.5672,0,0,1,6.309-11.7641c.3033-.4271,1.8139-1.8768,1.8139-2.4083V373.38c0,.5409-1.5106,2.0149-1.8136,2.449A56.0277,56.0277,0,0,0,317.02,387.7908Z"/><path class="cls-4" d="M317.0088,387.8194c-.1772.46-.3464.9222-.5125,1.3864C316.6643,388.7426,316.83,388.2782,317.0088,387.8194Z"/><path class="cls-5" d="M246.9337,371.0173c.0438-.0531.0811-.1115.1252-.1643v-4.0187c-.0384-.0327-.088-.0732-.1252-.1049Z"/><path class="cls-4" d="M247.0591,342.3676l20.4663-8.9771a27.5138,27.5138,0,0,1,11.0521-2.3173h14.6649a28.7848,28.7848,0,0,1,11.342,2.3288l20.559,8.814V373.38l0,0c0,.5409-1.5107,2.0149-1.8136,2.449a56.0183,56.0183,0,0,0-6.3092,11.9618l-.0116.0286c-.1771.46-.3465.9222-.5126,1.3864q-.2727.7518-.5252,1.5108c-.0641.195-.13.3891-.1923.5846a72.5744,72.5744,0,0,0-2.9493,27.9046,2.9458,2.9458,0,0,0,.8768,2.2382q-1.5451-.0246-3.09-.0454c-.5537-.0079-1.1074-.0178-1.6612-.0244-8.9933-.1071-17.9871-.0914-26.9805-.0347q-6.5648.0411-13.1294.0815c-1.1769.0054-10.0155-.4264-13.2644-.2191-.7089.0452-1.1564.12-1.1947.2375a57.35,57.35,0,0,0,2.624-12.46c.1789-1.981.3969-3.9353.5322-5.8892a39.1124,39.1124,0,0,0-.8867-11.1917c-.1045-.4692-.2068-.9383-.3275-1.4037a41.2358,41.2358,0,0,0-2.4765-7.1576,63.8062,63.8062,0,0,0-6.792-11.6853V342.3676"/><path class="cls-6" d="M373.7864,274.7721c.774-5.1375,1.3785-10.3082,1.9433-15.4564l11.5668.5359a171.7622,171.7622,0,0,1-7.7356,54.2188c-3.8789,12.4439-9.267,24.5819-17.4163,34.7545a75.984,75.984,0,0,1-36.9,25.0014l-.1778-21.0806-.0444-5.27c-.01-1.156-.4169-3.0522-.01-4.1545.8229-2.2277,5.5311-2.9391,7.54-3.6456,15.17-5.3351,26.4724-18.6739,32.88-33.4234C369.7765,296.253,372.157,285.5863,373.7864,274.7721Z"/><path class="cls-5" d="M275.0423,309.1814c-.0519.28-.09.548-.1481.833.06-.2661.1346-.5394.19-.8026Z"/><path class="cls-5" d="M271.8883,320.7381l-.0375.11.06-.1013Z"/><path class="cls-7" d="M274.3512,312.3032l.02.0155c.19-.7771.3694-1.5493.5232-2.3043C274.7226,310.773,274.5537,311.5314,274.3512,312.3032Z"/><path class="cls-5" d="M297.6478,312.07c.0736-.039.1472-.0775.221-.1172l-.0122-.0641C297.7876,311.9507,297.7174,312.01,297.6478,312.07Z"/><path class="cls-5" d="M298.3036,311.5009c-.2248-1.1793-.43-2.29-.6074-3.2747-.1449.1267-.2968.2376-.4436.36.171.9607.375,2.0837.604,3.3031C298.0045,311.7571,298.1581,311.6376,298.3036,311.5009Z"/><path class="cls-3" d="M271.911,320.7466c.0307.01.0617.0234.0924.0342-.0285-.0689-.0458-.1136-.0458-.1136Z"/><path d="M343.8036,243.5679c-3.9932-2.51-8.5116-4.5347-11.2821-8.2957-2.8967-3.9322-3.7181-9.5507-7.834-12.18-4.4292-2.8291-10.41-.7376-15.4174-2.3344-4.283-1.3657-7.2873-5.2306-11.3082-7.2412a14.5755,14.5755,0,0,0-14.3941.9493c-3.2334,2.19-5.5428,5.6824-9.0831,7.3312-5.736,2.6716-12.3713-.335-18.692-.6323-8.276-.3894-17.139,5.3919-17.8989,13.6422-.2742,2.9774.4738,5.943.733,8.9219a12.4562,12.4562,0,0,1-1.05,6.8229c-1.3859,2.6422-3.6944,2.7717-6,4.18-1.757,1.0726-3.6547,3.0239-3.7988,5.1928-.1773,2.67,3.1115,10.039,3.4118,12.707.9558,8.4884-2.8776,10.8987-2.6732,19.31a23.61,23.61,0,0,0,8.0391,17.0448c5.1766,4.4828,12.1719,6.5633,17.0315,11.3879,1.6244,1.6126,3.0477,3.5555,5.1427,4.4775,2.5324,1.1144,5.4472.4884,8.161-.05a107.08,107.08,0,0,1,37.1268-.7916c4.2905.6635,8.5713,1.5912,12.9128,1.57s8.8539-1.0974,12.1089-3.97c3.6221-3.1968,5.2523-8.1815,8.8183-11.4405,3.985-3.642,10.4071-5.2807,11.9194-10.463,1.27-4.3528-1.7538-8.67-2.7988-13.0825-1.477-6.2367,1.063-12.6217,3.0733-18.7075s3.4172-13.1522.0295-18.593A18.7963,18.7963,0,0,0,343.8036,243.5679Z"/><path class="cls-6" d="M275.0423,309.1814l-.6911,15.1647s-2.6768,18.2541,11.75,18.9386c0,0,12.7966,1.9494,12.9436-16.4286l-.4944-17.6747Z"/><path class="cls-6" d="M319.0933,282.6992l-.0565-.0179c1.31-5.9394,2.6292-11.9861,2.1389-18.0485a32.2427,32.2427,0,0,0-16.5869-25.1734,32.754,32.754,0,0,0-42.3094,9.7788,30.7831,30.7831,0,0,0-5.7115,15.7771c-.3736,5.8867,1.0675,11.72,2.4977,17.4429a1.5657,1.5657,0,0,0-.3069-.03q-.1563-.0111-.3131-.0136a5.7841,5.7841,0,0,0-.6244.0241,6.2049,6.2049,0,0,0-1.2236.24,6.6815,6.6815,0,0,0-1.1587.4737,6.9372,6.9372,0,0,0-1.9717,1.538,6.5035,6.5035,0,0,0-.737,1.0092,6.0061,6.0061,0,0,0-.5206,1.1328,5.6488,5.6488,0,0,0-.2578,1.23,6.0623,6.0623,0,0,0,.0047,1.2783,6.4914,6.4914,0,0,0,.264,1.2529,6.7249,6.7249,0,0,0,.5011,1.1811,6.6367,6.6367,0,0,0,.7164,1.0631,6.2724,6.2724,0,0,0,.91.8988,5.8468,5.8468,0,0,0,.897.5939,6.4945,6.4945,0,0,0,7.4116-1.0649l-1.14.9951a25.4029,25.4029,0,0,0,5.78,15.6357,36.5474,36.5474,0,0,0,13.4465,10.1324,20.1622,20.1622,0,0,0,7.8477,2.1271c4.3315.0951,8.5253-1.9492,12.1794-4.0908a37.8845,37.8845,0,0,0,10.7226-9.1322l.07-.09a24.8107,24.8107,0,0,0,5.466-15.62,5.4,5.4,0,0,0,2.065-10.5237Z"/><path class="cls-8" d="M322.3026,265.5591c-.3661-2.406-.7334-4.8175-1.3166-7.1631-2.965-11.9257-11.8862-21.4925-22.224-23.8326-4.9972-1.1311-10.1491-.6821-15.2034.0116a31.282,31.282,0,0,0-9.8638,2.5925c-3.112,1.5492-5.8278,4.006-8.5056,6.4364a31.5569,31.5569,0,0,0-4.9317,5.224c-2.2433,3.2234-3.4168,7.2809-4.4089,11.285a29.2348,29.2348,0,0,0-.8677,10.9031,16.2358,16.2358,0,0,0,3.3237.2143c.08-.0027.1595-.003.2392-.0069.3247-.0154.6482-.0473.9721-.08a16.9057,16.9057,0,0,0,5.6461-1.6344c3.1546-1.5518,6.1881-4.1527,9.5946-3.8292,1.8918.18,3.6636,1.27,5.5587,1.39a6.1129,6.1129,0,0,0,5.092-2.4182c.6429-.8113,1.1314-1.7806,1.7836-2.5815a2.9732,2.9732,0,0,1,2.4824-1.3288c2.021.2521,2.8387,3.6536,4.833,4.1166,2.21.5129,3.9231-2.9081,6.1706-2.74,1.89.1417,2.887,2.6041,4.1933,4.2231a7.9418,7.9418,0,0,0,5.4923,2.8355,15.3951,15.3951,0,0,0,6.0533-.887c.7657-.2427,1.5638-.5,2.3635-.6958,1.6845-.4133,3.378-.5321,4.8028.4959A6.4176,6.4176,0,0,1,322.3026,265.5591Z"/><path class="cls-3" d="M270.0771,303.4888a.5958.5958,0,0,0,.5271-.8727l-11.2209-21.348a.5954.5954,0,1,0-1.0541.5539L269.55,303.17A.5946.5946,0,0,0,270.0771,303.4888Z"/><path class="cls-3" d="M306.7029,304.0237a.5958.5958,0,0,0,1.019-.0319l11.8222-21.0211a.5955.5955,0,0,0-1.038-.5838l-11.822,21.021A.5947.5947,0,0,0,306.7029,304.0237Z"/><path class="cls-3" d="M313.3607,292.7334a18.3239,18.3239,0,0,1-4.8759-.1941,20.839,20.839,0,0,1-6.9011-1.8405c-3.2835-1.5984-5.6508-4.4981-9.2258-5.578a10.4534,10.4534,0,0,0-9.4054,1.6693q-.1258.0977-.2488.1992c-4.7056,3.8781-10.9363,6.5073-17.3972,5.6181,0,0,.0263,1.6828.1041,3.3754l-.0189-.009q.0372.6972.0968,1.3951c.0154.2224.0318.4383.05.6371h.0129a63.1281,63.1281,0,0,0,1.5512,8.7836c.6841,2.7995,1.482,5.7845,3.49,8.0612,5.8051,6.5807,17.2271,7.9657,25.7013,5.9987,4.3177-1.0023,8.7827-2.7168,11.68-5.9354,3.1712-3.5236,3.8236-8.7095,4.5321-13.0709.04-.2465.18-2.4672.3411-4.0674A30.7109,30.7109,0,0,0,313.3607,292.7334Z"/><path class="cls-9" d="M310.9011,296.4591l-.0463-.7977a5.698,5.698,0,0,0,.7406-.0883l.15.7844A6.5881,6.5881,0,0,1,310.9011,296.4591Z"/><path class="cls-9" d="M309.1959,296.419c-.5543-.0485-1.107-.1207-1.6275-.1889l.0766-.7955c.5367.07,1.0768.1413,1.62.1885Zm-40.1545-.0058-.0036-.7986c.5286-.0022,1.0688-.0316,1.6045-.0878l.0837.7942C270.1628,296.38,269.5968,296.411,269.0414,296.4132Zm3.3506-.3476-.1588-.7825c.52-.1048,1.0456-.2358,1.5651-.3895l.2265.7656C273.4828,295.82,272.9338,295.9565,272.392,296.0656Zm33.5035-.0708c-.5848-.0977-1.1222-.2064-1.6427-.3334l.1889-.7763c.5009.1225,1.02.2277,1.5857.3218Zm-3.2614-.808a15.6724,15.6724,0,0,1-1.5651-.6386l.3422-.722a14.64,14.64,0,0,0,1.485.6057Zm-27.0192-.0722-.2906-.7442c.4947-.1921.9938-.4091,1.484-.6449l.3458.72C276.6453,294.69,276.1274,294.915,275.6149,295.1146Zm23.9692-1.382c-.4314-.2722-.8815-.5878-1.378-.9657l.4831-.6355c.4777.3632.91.6663,1.321.9256Zm-20.945-.0686-.3975-.6934q.7032-.4026,1.3779-.8535l.4439.665Q279.3655,293.2465,278.6391,293.664Zm2.7853-1.854-.4847-.6354q.6469-.4928,1.26-1.0241l.5223.6042Q282.0911,291.3009,281.4244,291.81Zm15.48-.074-.1524-.1234c-.3744-.3039-.7487-.6069-1.1285-.9015l.49-.631c.3842.2977.7621.6047,1.1417.9121l.1516.1235Zm-2.59-1.9724a11.8827,11.8827,0,0,0-1.3807-.7937l.3476-.7193a12.724,12.724,0,0,1,1.4733.8463Zm-10.3553-.0423-.4671-.6481a9.6059,9.6059,0,0,1,1.4779-.8752l.344.7211A8.7745,8.7745,0,0,0,283.9585,289.7213Zm7.5012-1.3138a8.81,8.81,0,0,0-1.5481-.2928l.0783-.7951a9.6545,9.6545,0,0,1,1.6874.32Zm-4.6705-.0344-.2085-.7709a9.5153,9.5153,0,0,1,1.6926-.2959l.066.7958A8.7488,8.7488,0,0,0,286.7892,288.3731Z"/><path class="cls-9" d="M267.3292,296.3321c-.2709-.0271-.541-.0611-.812-.1016l.1177-.79q.3877.0582.7728.0963Z"/><path class="cls-9" d="M306.9793,300.5008a17.2234,17.2234,0,0,1-2.2078-.1947l-.3886-.0508a14.37,14.37,0,0,1-5.1625-1.509,18.2941,18.2941,0,0,1-2.8558-2.0278,12.6739,12.6739,0,0,0-3.9217-2.4662,6.9665,6.9665,0,0,0-6.75,1.3119c-.0615.0509-.12.103-.1782.1556-2.3236,2.0968-7.1029,5.4775-13.0042,4.59l.0588-.3949c5.7409.8673,10.407-2.4422,12.6771-4.4909.0606-.0557.1248-.1114.189-.1657a7.3675,7.3675,0,0,1,7.1323-1.3852,13.1394,13.1394,0,0,1,4.0483,2.5353,18.0433,18.0433,0,0,0,2.7916,1.9855,14.0106,14.0106,0,0,0,5.0252,1.4648l.39.0513a10.501,10.501,0,0,0,3.1454.1078l.075.3922A5.645,5.645,0,0,1,306.9793,300.5008Z"/><path class="cls-9" d="M290.0158,309.0222a41.7159,41.7159,0,0,1-18.8726-4.3732l.1978-.3468a42.1616,42.1616,0,0,0,37.1642-.0061l.1747.3591A42.15,42.15,0,0,1,290.0158,309.0222Z"/><path class="cls-9" d="M290.4249,318.12a28.4422,28.4422,0,0,1-14.4427-4.3344l.2263-.3289c.1418.0967,14.1888,9.5428,26.7554.0053l.2407.3183A20.7032,20.7032,0,0,1,290.4249,318.12Z"/><path class="cls-6" d="M246.9337,366.7293c.0372.0318.0867.0722.1253.105V342.0037c0,.4121-4.2209,2.8678-4.6282,3.185-18.799,14.6329-25.7682,37.9707-24.557,60.621A139.1477,139.1477,0,0,0,219.4,420.1c.7306,4.624,1.6753,9.2119,2.7576,13.766,1.3141,5.5289,2.5237,11.091,4.2138,16.5215a70.4349,70.4349,0,0,0,3.0288,8.1583c1.0848,2.3934,2.5824,4.6564,3.0271,7.29.0117.0688.0124.1388.0224.2078h7.7773c-.0368-.07-.0787-.1376-.1146-.2076a15.3266,15.3266,0,0,1-1.7474-5.9491c-1.0985-14.1387-2.243-28.31-2.3422-42.4962-.1006-14.9443.9773-34.3463,10.911-46.3732Z"/><path class="cls-10" d="M310.6158,421.3986c-.5537-.0079-1.1074-.0178-1.6612-.0244-8.9933-.1071-17.9871-.0914-26.9805-.0347q-6.5648.0411-13.1294.0815c-1.1769.0054-10.0155-.4264-13.2644-.2191-3.8314,2.8943-10.8648,11.339-14.3578,35.1713l-.0044.0444a16.4555,16.4555,0,0,1-.2639,2.0526q-.14,1.0725-.2773,2.145c-.14,1.1063-.2566,2.2157-.3307,3.3285-.0739,1.1079-.0692,2.22-.1611,3.3266-.0644.7756-.1725,1.5468-.2478,2.3213q-.1512,1.5543-.3022,3.1085c-.0277.2846-.0669.5708-.0832.8563-.0076.1365-.1874,3.79-.2465,5.56l-.1365,6.2232q-.0027.2341-.0052.4695-.07,6.8009.1632,14.554H281.32l1.9463-23.1939v23.1939H324.75C326.305,464.506,323.5527,432.2133,310.6158,421.3986Z"/><path class="cls-11" d="M226.311,455.9268a12.8373,12.8373,0,0,1-.0952,2.2015c-1.0509,8.0216-2.4069,16.9311,2.7373,23.9646a38.0546,38.0546,0,0,0,4.292,3.5935,27.0345,27.0345,0,0,0,4.786,2.9229,11.44,11.44,0,0,0,3.757,1.028,3.2935,3.2935,0,0,0,1.9765-.317,1.8511,1.8511,0,0,0,.8337-1.72,3.8337,3.8337,0,0,0-1.0923-2.3427,25.9922,25.9922,0,0,1-5.2337-7.6423c-.2163-.5017-.4537-.9983-.6219-1.511a10.9262,10.9262,0,0,1-.6027-4.2722,6.8805,6.8805,0,0,1,.9848-3.5628,1.3414,1.3414,0,0,1,.6751-.4759,3.879,3.879,0,0,1,2.8156.7472,31.0221,31.0221,0,0,1,4.6426,3.2679c.7781.6948,1.2924,1.6868,2.315,2.1643a2.7844,2.7844,0,0,0,3.3608-1.1754c.6659-1.4234-1.5784-3.3143-2.4534-4.4192q-2.2187-2.8017-4.275-5.6959a74.0619,74.0619,0,0,1-5.2132-8.1618H226.16A13.8829,13.8829,0,0,1,226.311,455.9268Z"/><path class="cls-11" d="M389.79,268.9621l4.57-11.4691a3.3777,3.3777,0,0,0-1.3817-4.1353l-14.6849-8.9372a3.3852,3.3852,0,0,0-1.0929-.4266l-.0255-.0052c-1.4984-.3029-2.588-.7224-3.2749.6433l-1.3115,9.3289a4.8123,4.8123,0,0,0,.0106,1.41l.9646,6.1883a3.3787,3.3787,0,0,1,.0913,1.0757l-.4337,6.1691,2.9663.5705,9.8681,1.6615,2.5676.5822Z"/><polygon class="cls-3" points="374.379 218.387 373.248 221.371 373.085 231.312 366.628 246.921 364.34 244.808 362.839 236.004 370.889 216.872 374.379 218.387"/><polyline class="cls-12" points="371.244 217.026 372.277 214.647 375.216 215.923 374.183 218.302"/><polyline class="cls-12" points="368.775 241.731 369.686 242.127 374.175 231.786 373.085 231.313"/><polyline class="cls-12" points="374.175 231.786 374.544 230.936 379.173 232.946 374.068 244.705 369.439 242.695 369.686 242.127"/><path class="cls-12" d="M373.2386,221.9381a18.5014,18.5014,0,0,0,12.0439,2.2475s-3.7737,3.6232-12.1274,2.8671"/><path class="cls-3" d="M373.9,244.632l17.2556,13.5269s-1.0229.74,11.1288,7.5464c0,0,10.4442,5.4569,16.2369,2.537l8.8728-20.438s-.7476-4.7166-6.5674-6.8439l-15.816-5.9788a4.609,4.609,0,0,0-3.0253.1728l-10.3616,4.0421-12.4509-6.25Z"/><path class="cls-12" d="M387.1125,252.4741l5.231,4.459s-1.1787.5272,10.2367,6.8274c0,0,10.0486,5.1746,15.3593,2.7059l7.7947-17.9547s-.7936-4.2029-6.237-6.2152l-14.7961-5.6439a4.4532,4.4532,0,0,0-2.8023.089l-9.5244,3.3678-5.2619,12.3647"/><path class="cls-13" d="M381.3443,242.6454a1.6584,1.6584,0,0,0-1.9841,1.25s-1.0286,5.0606-1.5168,6.7095c-.1345.4542-.5041,1.388-.9051,2.3587a5.3876,5.3876,0,0,0-.3528,1.28L375.32,260.26l8.2688,3.3543c3.0285-4.4528.96-8.455-.4862-10.3952-.0208-.2637-.0382-.5276-.044-.7926a20.9266,20.9266,0,0,1,.1219-2.73l.3887-1.7137C384.1651,245.3566,383.149,243.0548,381.3443,242.6454Z"/><path class="cls-11" d="M382.7842,235.7421s-3.5122,4.583-.8263,5.7937c0,0,2.2129,1.0634,3.2757-1.6924,0,0,1.8922-4.4648-.4011-7.2985,0,0-1.423-1.98-3.1569-.6552a1.74,1.74,0,0,0-.3642,1.9923C381.45,234.2957,382.5824,235.3412,382.7842,235.7421Z"/><path class="cls-13" d="M384.442,232.373c2.2933,2.8337.4009,7.2984.4009,7.2984-.8383,2.1738-2.3882,1.9713-3.0071,1.7888.0436.0235.0749.0534.1225.0747,0,0,2.2129,1.0634,3.2757-1.6924,0,0,1.8923-4.4647-.4011-7.2984a3.0909,3.0909,0,0,0-1.3624-1.0177A3.3,3.3,0,0,1,384.442,232.373Z"/><path class="cls-11" d="M389.591,240.93a6.9727,6.9727,0,0,0-.1677-5.8343,3.8881,3.8881,0,0,1,4.258,1.4261s1.4809,2.407-.4474,6.6384c0,0-.9963,2.8458-2.9887,2.1622a4.4961,4.4961,0,0,1-1.9151-2.154A4.2859,4.2859,0,0,0,389.591,240.93Z"/><path class="cls-13" d="M392.7069,243.2072c1.9283-4.2314.4475-6.6386.4475-6.6386a3.5543,3.5543,0,0,0-2.9482-1.565,3.6571,3.6571,0,0,1,3.4595,1.552s1.4808,2.4071-.4474,6.6384c0,0-.8739,2.4948-2.6209,2.2508C392.0019,245.2058,392.7069,243.2072,392.7069,243.2072Z"/><path class="cls-11" d="M392.0327,244.9765a4.7105,4.7105,0,0,0,1.1887-1.7945,8.9928,8.9928,0,0,0,.9033-5.2016,3.8514,3.8514,0,0,1,2.4818,1.5986,3.5407,3.5407,0,0,1,.3012.9185,6.7477,6.7477,0,0,1-.7529,4.5785,8.5638,8.5638,0,0,1-.5533.8807,1.9118,1.9118,0,0,1-.7795.6237,2.2532,2.2532,0,0,1-2.3244-.7611,2.1667,2.1667,0,0,1-.2648-.3724C392.2058,245.3988,391.994,245.0089,392.0327,244.9765Z"/><path class="cls-13" d="M394.2573,246.32a1.9115,1.9115,0,0,0,.78-.6236,8.5824,8.5824,0,0,0,.5533-.8808,6.7493,6.7493,0,0,0,.753-4.5784,3.5465,3.5465,0,0,0-.3013-.9184,2.6883,2.6883,0,0,0-1.159-1.0849,3.15,3.15,0,0,1,1.7231,1.3467,3.5432,3.5432,0,0,1,.3012.9185,6.7491,6.7491,0,0,1-.7529,4.5785,8.581,8.581,0,0,1-.5533.8807,1.7121,1.7121,0,0,1-2.4913.3625A1.627,1.627,0,0,0,394.2573,246.32Z"/><path class="cls-11" d="M384.3787,241.1838a3.4222,3.4222,0,0,0,.8362-1.3106s1.6837-3.976-.0545-6.8052a2.7786,2.7786,0,0,1,3.2067.3621,7.2545,7.2545,0,0,1,1.2728,7.5226s-.7111,3.569-3.5217,2.4537A3.6785,3.6785,0,0,1,384.3787,241.1838Z"/><path class="cls-13" d="M389.118,240.9943c.0492-.1577.0943-.3128.137-.4619a7.5133,7.5133,0,0,0,.2-3.8784,7.6962,7.6962,0,0,0-1.1373-2.5446,3.8855,3.8855,0,0,0-.5055-.6483,2.5133,2.5133,0,0,0-1.6365-.71,2.5368,2.5368,0,0,1,2.1922.6795,4.8228,4.8228,0,0,1,.7591,1.0443,7.513,7.513,0,0,1,1.0091,2.8133,6.7979,6.7979,0,0,1-.0061,1.91,10.0039,10.0039,0,0,1-.5008,1.9078,3.72,3.72,0,0,1-1.7364,2.3609,1.9278,1.9278,0,0,1-.4428.128c-.1517.0246-.3209-.0092-.4666.02C388.2237,243.3684,388.7693,242.1136,389.118,240.9943Z"/><polygon class="cls-1" points="602.087 452.408 602.133 452.405 599.355 474.271 604.952 474.271 602.132 452.05 602.087 452.408"/><polygon class="cls-14" points="602.087 452.408 599.313 474.271 599.355 474.271 602.133 452.405 602.087 452.408"/><polygon class="cls-15" points="601.399 450.925 588.585 450.925 551.456 451.068 554.293 501.652 594.516 501.652 599.11 501.652 602.084 479.789 602.132 479.431 602.132 450.925 601.399 450.925"/><polygon class="cls-15" points="647.786 450.925 602.132 450.925 602.132 479.431 605.188 501.652 645.33 501.652 649.208 501.652 651.664 450.925 647.786 450.925"/><polygon class="cls-16" points="644.259 450.925 644.282 450.409 647.862 450.369 647.862 450.369 602.132 450.873 602.132 450.925 644.259 450.925"/><path class="cls-17" d="M623.7018,270.3008c.0007-.0976.0011-.1965.0016-.2909l-.0035.01C623.7,270.1089,623.7018,270.21,623.7018,270.3008Z"/><path class="cls-17" d="M623.7,269.98c0,.0125,0,.027,0,.0395l.0035-.01,0-.04Z"/><path class="cls-17" d="M578.1483,286.689l-.0264-.0173.0059.0109.0256.0159Z"/><path class="cls-18" d="M609.8815,287.36c-.2393.1447-.487.282-.7323.4215C609.3943,287.6417,609.6422,287.5045,609.8815,287.36Z"/><path class="cls-18" d="M616.88,281.558l-.007.008Z"/><path class="cls-18" d="M612.69,285.4369c-.1374.1053-.2721.2124-.4118.3156C612.4173,285.6492,612.5523,285.5422,612.69,285.4369Z"/><path class="cls-18" d="M615.884,282.6182c-.0419.0425-.0849.0842-.1269.1264C615.7991,282.7023,615.8421,282.6607,615.884,282.6182Z"/><path class="cls-18" d="M611.37,286.3958q-.2917.2-.59.3935C610.9786,286.66,611.1759,286.5291,611.37,286.3958Z"/><path class="cls-18" d="M578.6748,287.0223c-.1115-.066-.216-.1353-.3254-.2021.1015.0687.2014.1381.3111.2029a31.76,31.76,0,0,0,18.569,4.4348A31.7629,31.7629,0,0,1,578.6748,287.0223Z"/><path class="cls-18" d="M578.6748,287.0223a31.7629,31.7629,0,0,0,18.5547,4.4356,28.3693,28.3693,0,0,0,11.1457-3.2388c.264-.1407.5166-.2914.774-.4379.2453-.1395.493-.2768.7323-.4215.3055-.1849.6026-.3771.8986-.57q.2979-.1943.59-.3935c.3069-.2106.611-.4237.9075-.6433.14-.1032.2744-.21.4118-.3156a30.5715,30.5715,0,0,0,3.0676-2.6923c.042-.0422.085-.0839.1269-.1264q.5075-.5163.9891-1.0522l.007-.008a35.9171,35.9171,0,0,0,6.82-11.578v-.01a35.833,35.833,0,0,1-6.8185,11.5432l-.0152.0174q-.4782.5326-.9828,1.0454c-.0453.0459-.0916.0906-.137.1363a30.5671,30.5671,0,0,1-3.0568,2.6825c-.1391.1069-.276.2154-.4173.32-.2953.2186-.598.431-.9036.6406q-.2942.2016-.595.3966c-.2948.1924-.59.384-.8948.5683-.2424.1467-.4937.2858-.7423.4271-.2516.1429-.493.2948-.7508.4322a28.37,28.37,0,0,1-11.1595,3.24,31.7578,31.7578,0,0,1-18.57-4.4348c-.19-.1121-.3545-.2364-.5383-.3513l.03.056c.0682.0432.1355.0867.2011.1312C578.4588,286.887,578.5633,286.9563,578.6748,287.0223Z"/><path class="cls-18" d="M623.6467,277.3838c-.0075-2.7319-.0081-5.1213.0013-6.9472,0-.0911-.0024-.1917-.0018-.2812a35.8292,35.8292,0,0,1-6.82,11.5386l-.0069.0078q-.4812.5364-.9892,1.0523c-.0418.0425-.0847.084-.1268.1264a30.64,30.64,0,0,1-3.0674,2.6923c-.1372.1053-.2724.2123-.4119.3156-.2967.2195-.6005.4328-.9076.6433-.1942.1333-.3915.2639-.59.3935-.2962.1931-.5928.3856-.8986.57-.2393.1448-.4871.282-.7322.4215-.2544.1448-.4987.2982-.76.4371a28.3727,28.3727,0,0,1-11.16,3.24,31.762,31.762,0,0,1-18.5692-4.435c-.11-.0647-.21-.1342-.311-.2029-.0659-.04-.1309-.081-.1961-.1216h0l-.0255-.0158c.47.8392,3.1493,6.0765,2.7035,20.0371,2.8983,2.6788,20.7014,17.4826,42.9138-.3819l.1448,0C623.764,298.11,623.67,286.0388,623.6467,277.3838Z"/><path class="cls-18" d="M616.8731,281.566q-.4808.5366-.9891,1.0522Q616.3921,282.1022,616.8731,281.566Z"/><path class="cls-18" d="M615.7571,282.7446a30.5715,30.5715,0,0,1-3.0676,2.6923A30.63,30.63,0,0,0,615.7571,282.7446Z"/><path class="cls-18" d="M597.23,291.4579a28.3706,28.3706,0,0,0,11.16-3.24c.2609-.1389.5052-.2925.76-.4372-.2574.1465-.51.2972-.774.4379A28.3693,28.3693,0,0,1,597.23,291.4579Z"/><path class="cls-18" d="M610.78,286.7893c-.296.1933-.5931.3855-.8986.57C610.1872,287.1749,610.4839,286.9825,610.78,286.7893Z"/><path class="cls-18" d="M612.2777,285.7525c-.2965.22-.6006.4327-.9075.6433C611.6773,286.1853,611.981,285.972,612.2777,285.7525Z"/><path class="cls-18" d="M623.7,270.02c0-.0125,0-.027,0-.0395a35.9171,35.9171,0,0,1-6.82,11.578A35.8269,35.8269,0,0,0,623.7,270.02Z"/><path class="cls-18" d="M578.1483,286.689l.0051.01c.0653.0406.13.0814.196.1217C578.2838,286.7757,578.2165,286.7322,578.1483,286.689Z"/><path class="cls-6" d="M634.3061,240.4448a4.76,4.76,0,0,0-3.9753-2.4293,6.0871,6.0871,0,0,0-4.15,1.6535c-.0084-.0587-.0162-.1175-.0245-.1763l-.11.1947-.0345-.0306-.0173.0306s-.6446-.563-1.5794-1.5544l.0195-.0344c-3.0924-3.2887-9.3064-11.24-6.3815-19.5154-.575-.0769-1.2569-.2721-2.2209-.3847a13.7587,13.7587,0,0,0-9.1257,2.5116c-5.4063,3.5076-9.4677,9.3612-15.773,11.41-4.1994,1.3644-9.2091,1.9818-13.4325.4511a8.7231,8.7231,0,0,1-2.0218,5.1306h0c-.0607.0789-.12.1554-.1794.23h0a13.2486,13.2486,0,0,1-1.2715,1.38c-.0584.0539-.1.0915-.1.0915l-1.6078-2.8344a5.8409,5.8409,0,0,1-.2456-.5311,5.7537,5.7537,0,0,1-.4233-2.1366c-.1079-.0105-.209-.03-.3222-.0329a2.9457,2.9457,0,0,0-2.46,1.5033,6.7385,6.7385,0,0,0-.628,5.2369,6.0221,6.0221,0,0,0,3.2782,4.2453,4.0841,4.0841,0,0,0,.5537.1655c-3.2936,7.7323-11.2365,30.8678,6.0546,41.6636l-.0059-.0109.0264.0173c-.0094-.017-.0224-.0418-.03-.0561.1839.115.3489.2393.5384.3514a31.7584,31.7584,0,0,0,18.57,4.4348,28.3708,28.3708,0,0,0,11.1594-3.24c.2578-.1374.4993-.2893.7509-.4322.2486-.1414.5-.28.7422-.4271.3045-.1843.6-.3759.895-.5683q.3-.1959.5947-.3966c.3059-.21.6085-.4221.9038-.6406.1413-.1046.2782-.2131.4173-.32a30.5668,30.5668,0,0,0,3.0569-2.6825c.0454-.0457.0916-.09.1369-.1363q.5046-.5129.9828-1.0455l.0152-.0173A35.8363,35.8363,0,0,0,623.7,269.97v.01l.0039-.01,0,.04a52.8536,52.8536,0,0,0,2.9761-13.82,6.7115,6.7115,0,0,0,3.3439-.4218c3.2356-1.3148,4.6788-4.5106,5.2978-6.8608A10.89,10.89,0,0,0,634.3061,240.4448Z"/><path class="cls-19" d="M626.0117,239.6568l.0345.03.11-.1945-.01-.0734Z"/><path class="cls-19" d="M619.946,218.0008a9.6424,9.6424,0,0,0-.7548-.9968,9.424,9.424,0,0,0-1.108,1.4835c-.0115.032-.019.0638-.03.0957A2.11,2.11,0,0,0,619.946,218.0008Z"/><path class="cls-20" d="M623.43,214.7886a4.4119,4.4119,0,0,0-1.0621.1262l-.0107.0165A4.4159,4.4159,0,0,1,623.43,214.7886Z"/><path class="cls-20" d="M624.4345,238.0986l-.0195.0344c.9348.9915,1.58,1.5543,1.58,1.5543l.0172-.03C625.8654,239.5268,625.2594,238.9759,624.4345,238.0986Z"/><path class="cls-19" d="M630.4929,220.4523c-2.6579-4.3391-5.0789-5.6762-7.0632-5.6638a4.42,4.42,0,0,0-1.0727.1427l.0107-.0164a10.0156,10.0156,0,0,0,1.79-5.2455c.097-7.8227-10.4026-14.042-17.4367-13.1655-6.8942.859-13.6759,6.2536-19.486,9.79a5.0536,5.0536,0,0,1-2.1069.8765,2.4661,2.4661,0,0,1-.4589-.0027,3.6223,3.6223,0,0,1-2.8352-2.575,3.2477,3.2477,0,0,1-.1251-.9421c-.0008-1.27.4065-2.9419.4464-4.2465.05-1.31-.258-2.2636-1.6987-2.0939a13.1724,13.1724,0,0,0-5.1648,2.2266c-7.3839,4.7539-8.3469,14.6465-6.2474,22.4424a17.0361,17.0361,0,0,0,4.17,7.9433c.03.0294.0633.0532.0937.0822a7.2787,7.2787,0,0,0-1.1985,1.53,5.915,5.915,0,0,0-.4576,2.3663,5.7537,5.7537,0,0,0,.4233,2.1366,5.8409,5.8409,0,0,0,.2456.5311l1.6078,2.8344s.0416-.0376.1-.0915a13.2533,13.2533,0,0,0,1.2715-1.38h0c.06-.0743.1188-.1507.1794-.23h0a8.7221,8.7221,0,0,0,2.0218-5.1305c4.2234,1.5307,9.2331.9133,13.4325-.4511,6.3053-2.0485,10.3667-7.9021,15.773-11.41a13.7587,13.7587,0,0,1,9.1257-2.5116c.964.1126,1.6459.3078,2.2209.3847-2.9249,8.2749,3.2891,16.2267,6.3815,19.5154.8248.8773,1.4308,1.4282,1.5772,1.5582l.1348-.2374.01.0733,3.8193-6.7341A14.5859,14.5859,0,0,0,630.4929,220.4523Z"/><path class="cls-21" d="M604.7113,412.979c-1.7909-.842-3.5984-1.6459-5.4143-2.4293,1.3724-.58,2.735-1.1787,4.1192-1.7374.56-.226,1.1262-.44,1.6881-.6612,9.22,4.41,18.1408,9.4639,27.2673,14.0759q1.6688.8433,3.3507,1.6619-1.689-.8244-3.3661-1.6713c-9.1265-4.6121-18.0474-9.6662-27.2672-14.0762-.5622.2219-1.1285.4356-1.6883.6617-10.7721,4.3487-21.1477,9.4314-31.7776,14.044a192.7022,192.7022,0,0,1-25.0362,9.1618l-.6232-4.0654c3.376-.987,6.7083-2.0932,10.005-3.2829-3.35,1.1109-6.7388,2.1237-10.1833,2.9757l6.5519,47.627H589.06l13.14-.0544,47.546-.5237v0l.0518-.0005.0141-.0008h.8688l4.8712-37.1262a162.1505,162.1505,0,0,1-20.7246-9.0789C624.7528,423.3883,614.92,417.7785,604.7113,412.979Z"/><path class="cls-16" d="M648.3589,429.4751c-.3034-.1185-.6085-.2324-.9111-.3532C647.7506,429.2425,648.0555,429.3568,648.3589,429.4751Z"/><path class="cls-16" d="M645.36,428.265c-.4624-.1932-.9251-.3858-1.386-.5837C644.4352,427.8789,644.8975,428.072,645.36,428.265Z"/><path class="cls-16" d="M638.9549,425.4308q-1.1914-.5574-2.3757-1.13Q637.7641,424.8723,638.9549,425.4308Z"/><path class="cls-16" d="M570.0611,386.5446a31.59,31.59,0,0,0-3.7285.8188Q568.1928,386.9386,570.0611,386.5446Z"/><path class="cls-16" d="M642.1751,426.8955q-.8807-.3912-1.7577-.7919Q641.2945,426.5041,642.1751,426.8955Z"/><path class="cls-22" d="M590.5881,383.0092c-4.3466-.3154-8.6979-.5664-13.0541-.7946-1.936-.1017-4.4522-.6985-6.3333-.1643-.8968.2548-.5677.5906-.5073,1.4051.0428.5761-.0141,1.1558.0042,1.7321.0141.4054.0162.81.0244,1.2157q2.15-.4473,4.308-.8608Q582.7654,384.0711,590.5881,383.0092Z"/><path class="cls-23" d="M600.2986,405.9238c-8.7375,3.7521-17.29,7.8465-26.01,11.6306-5.9851,2.5972-12.08,5.037-18.32,7.1062-3.2967,1.19-6.629,2.2959-10.005,3.2829l.6232,4.0654a192.7022,192.7022,0,0,0,25.0362-9.1618c10.63-4.6126,21.0055-9.6953,31.7776-14.044.56-.2261,1.1261-.44,1.6883-.6617-.421-.2013-.839-.4086-1.2612-.6071Q602.0721,406.7089,600.2986,405.9238Z"/><path class="cls-23" d="M637.47,399.5576c2.31-.1183,3.1906-.7683,3.0309-2.9388-.0585-.7917-.0963-1.5833-.1338-2.3748-.08.0058-.1484.0164-.232.0207a75.3788,75.3788,0,0,0-16.6263,3.1744,171.6888,171.6888,0,0,0-17.4422,6.071c-1.9352.7813-3.8544,1.5921-5.7676,2.4137q1.7721.7875,3.5292,1.61c.4222.1985.84.4058,1.2612.6071,5.1495-2.0318,10.3885-3.889,15.7539-5.4094A75.3732,75.3732,0,0,1,637.47,399.5576Z"/><path class="cls-23" d="M600.2986,405.9238c-.1374-.0609-.2738-.1242-.4112-.1848-9.6664,4.1283-19.1134,8.6628-28.7512,12.8451-4.98,2.1611-10.03,4.2223-15.1675,6.0765,6.24-2.0692,12.3345-4.509,18.32-7.1062C583.009,413.77,591.5611,409.6759,600.2986,405.9238Z"/><path class="cls-23" d="M606.0662,403.51a171.6888,171.6888,0,0,1,17.4422-6.071,75.3788,75.3788,0,0,1,16.6263-3.1744c.0836-.0043.152-.0149.232-.0207-.0106-.2231-.0283-.4464-.0379-.67a87.5216,87.5216,0,0,0-16.0384,3.2864,185.4469,185.4469,0,0,0-18.8363,6.5563c-1.8665.7537-3.7191,1.5329-5.5667,2.3219.1374.0606.2738.1239.4112.1848C602.2118,405.1022,604.131,404.2914,606.0662,403.51Z"/><path class="cls-24" d="M655.5517,437.5581l.0142.0051,1.549-5.0568c-.2256-.0672-.4482-.1439-.6732-.2126-.0655-.02-.1308-.0406-.1963-.0607Z"/><path class="cls-23" d="M648.3589,429.4751c-.3034-.1183-.6083-.2326-.9111-.3532-.6985-.2787-1.3933-.5668-2.0877-.8569-.4626-.193-.9249-.3861-1.386-.5837q-.9016-.3876-1.799-.7858-.8811-.3906-1.7577-.7919c-.4882-.2232-.9763-.4454-1.4625-.6728q-1.1917-.5566-2.3757-1.13c-.2853-.1378-.572-.2727-.8569-.4117q-1.6812-.82-3.3507-1.6619c-9.1265-4.612-18.0474-9.6661-27.2673-14.0759-.5619.2216-1.1284.4352-1.6881.6612-1.3842.5587-2.7468,1.1572-4.1192,1.7374,1.8159.7834,3.6234,1.5873,5.4143,2.4293,10.2088,4.8,20.0415,10.4093,30.1158,15.5a162.1505,162.1505,0,0,0,20.7246,9.0789l.6937-5.325Q652.2546,431.0051,648.3589,429.4751Z"/><path class="cls-24" d="M656.2454,432.2331c.0655.02.1308.0407.1963.0607-.0656-.02-.1306-.0419-.1962-.062Z"/><path class="cls-24" d="M647.4478,429.1219c-.6986-.2783-1.3932-.5674-2.0877-.8569C646.0545,428.5551,646.7493,428.8432,647.4478,429.1219Z"/><path class="cls-24" d="M656.2454,432.2331v-.0013c-2.66-.8189-5.2881-1.744-7.8866-2.7567Q652.2561,430.9966,656.2454,432.2331Z"/><path class="cls-24" d="M640.4174,426.1036c-.4882-.2229-.9761-.4457-1.4625-.6728C639.4411,425.6582,639.9292,425.88,640.4174,426.1036Z"/><path class="cls-24" d="M643.9741,427.6813q-.9016-.3869-1.799-.7858Q643.0726,427.2942,643.9741,427.6813Z"/><path class="cls-24" d="M636.5792,424.3006c-.2853-.1377-.572-.2728-.8569-.4117C636.0072,424.0279,636.2939,424.1628,636.5792,424.3006Z"/><path class="cls-17" d="M658.7581,385.3281l-.0358.3742.0374-.3732Z"/><path class="cls-17" d="M570.5051,386.5713V386.45c-.1482.0309-.2958.0638-.444.0951C570.3008,386.5212,570.46,386.5261,570.5051,386.5713Z"/><path class="cls-17" d="M552.813,390.9568c-.403.1249-3.1152.898-4.9674,1.5195-.0673.1218-.1412.2422-.1984.3666,0,0,12.0855-3.7647,18.6854-5.4795-2.1175.4837-4.2283.9914-6.3256,1.5415Q556.384,389.8549,552.813,390.9568Z"/><path class="cls-21" d="M636.4135,299.7517l-12.0977.0173-.1449,0c-22.2124,17.8645-40.0155,3.0607-42.9138.3819-.2727-.252-.4166-.3994-.4166-.3994H566.5644s-24.2641,8.4339-35.4222,21.44l.0138.1007a37.9707,37.9707,0,0,1,3.0748-3.1841l11.8671,75.1184a5.0571,5.0571,0,0,1,1.7478-.75c1.8522-.6215,4.5643-1.3946,4.9673-1.5195q3.5679-1.1068,7.194-2.0519c2.0973-.55,4.2081-1.0578,6.3256-1.5415a31.5948,31.5948,0,0,1,3.7286-.8188c.1481-.0313.2957-.0642.4439-.0951.0726-.0151.1445-.0313.2169-.0463-.0081-.4052-.01-.81-.0244-1.2158-.0183-.5763.0385-1.1559-.0042-1.7321-.06-.8144-.3895-1.15.5073-1.405,1.8811-.5342,4.3973.0626,6.3331.1643,4.3565.2282,8.7077.4792,13.0544.7946q7.7319-1.0643,15.5124-1.8063c9.7317-.9448,19.4813-1.4713,29.254-1.9106,2.1566-.097,4.96-.668,7.0548-.157.9989.2435.6324.5648.5651,1.3437-.0474.5512.0154,1.1056-.0045,1.6569a80.3494,80.3494,0,0,0,.196,9.19c.0094.1274.0027.2327.0049.35.6692.1946,1.34.3847,2.0065.5883q3.2524.9933,6.4582,2.1451c.5584.2019,6.0645,2.0191,6.0287,2.3735.0015-.0158.4184-4.38,1.0568-11.0689l.0011-.0118c.012-.1242.0239-.2485.0359-.3742,2.0842-21.8288,6.4355-67.4075,6.6243-69.3857C653.4941,305.9489,636.4135,299.7517,636.4135,299.7517Z"/><path class="cls-22" d="M682.11,355.4665c-1.786-13.37-4.4128-27.2288-13.7919-37.22-.155-.165-1.1065-.8132-1.8838-1.3984a6.0643,6.0643,0,0,1-.9835-.8484l-.0683-.0574c-.1888,1.9782-4.54,47.5569-6.6243,69.3857l.0016.001c-.0127.1272-.0248.2477-.0375.3732-.6391,6.6955-1.0564,11.0649-1.0579,11.0807.0358-.3544-5.47-2.1716-6.0287-2.3735q-3.2026-1.1568-6.4582-2.1451c-.6668-.2036-1.3373-.3937-2.0065-.5883.0327,1.8056-.8069,2.4248-2.8042,2.5679.0375.7915.0753,1.5831.1338,2.3747.16,2.1706-.7213,2.8206-3.0309,2.9389a75.3674,75.3674,0,0,0-16.6267,3.1744c-5.3654,1.52-10.6044,3.3775-15.7539,5.4094,9.22,4.41,18.1406,9.4641,27.2672,14.0762q1.6766.8472,3.3661,1.6713c.2849.1389.5715.2739.857.4117q1.1844.5721,2.3756,1.13c.4864.2271.9743.45,1.4624.6728q.8769.4011,1.7578.7919.8976.3981,1.799.7858c.4609.1979.9236.39,1.3861.5836.6944.29,1.389.5787,2.0876.8569.3026.1209.6077.2348.9111.3533,2.5986,1.0127,5.2265,1.9378,7.8866,2.7567.0656.02.1306.0419.1962.0619,1.78.5438,3.5688,1.0558,5.38,1.4927,4.0045.966,8.4608,1.4436,12.2364-.1338a11.0947,11.0947,0,0,0,3.5069-2.32,12.0684,12.0684,0,0,0,1.0452-1.1729c.1122-.1424.2089-.2962.315-.4434.199-.276.3964-.5535.5745-.8447.1158-.1892.2191-.3866.3262-.5817.1448-.2632.2877-.5276.4175-.8.1056-.2221.2026-.4489.2984-.6765.1081-.2562.2125-.5144.3088-.7769.0917-.2506.1791-.5032.26-.7588.0784-.245.1512-.4926.22-.7415.0775-.2786.1536-.5577.22-.84.0529-.2239.0982-.45.1445-.6756.0635-.3106.1281-.6209.18-.9342.03-.18.0517-.3612.0778-.5419.0515-.3583.1049-.7166.1425-1.0759v-.0011c.0527-.503.0973-1.0064.1249-1.5071.5659-10.3.29-20.7583.7366-31.1024C683.4234,377.0594,683.5432,366.1957,682.11,355.4665Z"/><path class="cls-25" d="M542.53,428.3968c.9247-.1915,1.8394-.4124,2.7567-.6262l-.0188-.0145q-1.6583.4026-3.3326.7573C542.1333,428.4746,542.333,428.4375,542.53,428.3968Z"/><path class="cls-22" d="M643.166,391.3262a80.3494,80.3494,0,0,1-.196-9.19c.02-.5513-.0429-1.1057.0045-1.6569.0673-.7789.4338-1.1-.5651-1.3437-2.0953-.511-4.8982.06-7.0548.157-9.7727.4393-19.5223.9658-29.254,1.9106q-7.7742.7548-15.5124,1.8063-7.8164,1.0756-15.5582,2.5332-2.1586.4107-4.308.8608c-.0724.015-.1443.0312-.2169.0463v.1218c-.045-.0452-.2043-.05-.4439-.0267q-1.8687.3939-3.7286.8188c-6.6,1.7148-18.5959,5.15-18.5959,5.15.0573-.1244.0416.0851.109-.0367a5.0571,5.0571,0,0,0-1.7478.75l-11.8671-75.1184a37.9707,37.9707,0,0,0-3.0748,3.1841c-7.9686,9.2-10.5106,20.99-12.2882,32.4161-1.5963,10.2623-1.4633,20.6531-.9438,30.9807.4974,9.894.19,19.8967.82,29.7489.2774,4.3379,1.65,8.8678,5.1867,11.8346,4.7468,3.9807,11.5888,3.5792,17.5366,2.347.1567-.0324.3107-.073.4673-.1061q1.6744-.3544,3.3327-.7573c.1722-.0417.3462-.0773.5178-.12,3.4445-.852,6.8331-1.8648,10.1833-2.9757,5.1378-1.8542,10.1874-3.9154,15.1675-6.0763,9.6378-4.1825,19.0848-8.717,28.7514-12.8453,1.8473-.789,3.7-1.5683,5.5666-2.3219a185.4214,185.4214,0,0,1,18.8363-6.5563,87.5182,87.5182,0,0,1,16.0384-3.2864c.01.2232.0271.4465.0378.67,1.9973-.1431,2.8369-.7623,2.8042-2.5679C643.1687,391.5589,643.1754,391.4536,643.166,391.3262Z"/><path class="cls-6" d="M642.44,380.29v6.1384c.0477,1.3791.1177,2.7579.2191,4.1371.0138.1856.0072.343.0071.5089a2.8531,2.8531,0,0,0,.3473.4591c.224.0674.45.1291.6741.1978q3.6363,1.11,7.2207,2.3984c.6244.2254,6.78,2.2574,6.7406,2.6535.0019-.0176.4886-4.8686,1.2356-12.3072.0134-.1389.0266-.2778.04-.4184C653.6687,380.6207,642.44,380.29,642.44,380.29Z"/><path class="cls-6" d="M546.0529,393.22c2.0215-.6784,4.9817-1.522,5.4216-1.6584q3.8941-1.2083,7.8519-2.24c2.2891-.6,4.5928-1.1545,6.9039-1.6824a34.5051,34.5051,0,0,1,4.0695-.8937c.1617-.0341.3229-.07.4847-.1038v-3.921S550.1358,385.8271,546.0529,393.22Z"/><path class="cls-3" d="M567.4077,261.2827a21.0747,21.0747,0,0,0,5.3994-.207,23.7834,23.7834,0,0,0,7.6416-1.9619c3.6359-1.7038,6.2574-4.7947,10.2161-5.9459a11.9388,11.9388,0,0,1,10.4147,1.7795q.1395.1041.2755.2122c5.2105,4.134,12.11,6.9366,19.2643,5.9886,0,0-.0291,1.7939-.1151,3.598.0055-.0034.0207-.0056.0209-.01q-.0412.7432-.1072,1.4872c-.0172.2371-.0352.4671-.055.679h-.0143a64.9945,64.9945,0,0,1-1.7178,9.3629c-.7576,2.984-1.641,6.1659-3.8646,8.5927-6.4281,7.0146-19.0759,8.491-28.46,6.3942-4.7811-1.0683-9.7254-2.8959-12.9332-6.3268-3.5116-3.7559-4.234-9.2837-5.0187-13.9327-.0442-.2628-.1987-2.63-.3775-4.3356C567.8217,265.6926,567.199,261.726,567.4077,261.2827Z"/><path class="cls-9" d="M570.1312,265.2542a7.4428,7.4428,0,0,1-.9363-.1089l.1693-.8364a6.6138,6.6138,0,0,0,.8189.0956Z"/><path class="cls-9" d="M572.0193,265.2109l-.0761-.848c.6081-.0507,1.2126-.1272,1.7827-.2l.1261.843C573.26,265.0813,572.6394,265.1594,572.0193,265.2109Zm44.4582-.0065c-.62-.0034-1.2472-.0367-1.8656-.0991l.0933-.8463c.5873.059,1.185.0906,1.7757.094Zm-3.71-.37c-.6011-.1181-1.2092-.2644-1.8068-.4341l.2522-.8164c.5717.163,1.1539.3026,1.7308.4157Zm-37.0926-.074-.1451-.84c.5942-.0947,1.1782-.207,1.7551-.3425l.2107.8264C576.8974,264.545,576.2894,264.6622,575.6744,264.76Zm3.61-.8622-.29-.8049a16.4847,16.4847,0,0,0,1.6445-.646l.38.77A17.912,17.912,0,0,1,579.2847,263.8982Zm29.9169-.0782q-.8654-.3241-1.7049-.7142l.3835-.7666q.8084.3743,1.6427.6876Zm-26.5381-1.4716-.4733-.72c.46-.2794.938-.602,1.4632-.9869l.5354.6784C583.643,261.719,583.1437,262.0557,582.6635,262.3484Zm23.1905-.0748q-.8033-.444-1.5772-.94l.4906-.7084q.7461.48,1.5253.9105Zm-3.087-1.9772q-.7358-.5424-1.4337-1.1248l.577-.6436q.6815.5649,1.3957,1.0933Zm-17.1375-.0756-.5563-.66.1383-.109c.43-.3359.8585-.6717,1.2938-.996l.5423.6735c-.43.32-.855.6518-1.2782.9826Zm2.8692-2.1027-.4872-.71a14.4081,14.4081,0,0,1,1.6291-.9029l.3869.7665A13.4512,13.4512,0,0,0,588.4987,258.1181Zm11.4631-.0474a9.7157,9.7157,0,0,0-1.4994-.8547l.38-.7682a10.7931,10.7931,0,0,1,1.6375.9312Zm-8.3037-1.3993-.2418-.82a11.1618,11.1618,0,0,1,1.8691-.3391l.0864.848A10.0639,10.0639,0,0,0,591.6581,256.6714Zm5.1736-.0366a10.12,10.12,0,0,0-1.7171-.2884l.0727-.8481a11.0929,11.0929,0,0,1,1.8724.3134Z"/><path class="cls-9" d="M618.381,265.1187l-.09-.8464c.2851-.0283.57-.0632.8569-.1039l.1312.8413C618.9787,265.0538,618.68,265.09,618.381,265.1187Z"/><path class="cls-9" d="M574.4739,269.5618a6.437,6.437,0,0,1-1.1781-.0965l.0829-.4174a12.0908,12.0908,0,0,0,3.4773-.1147l.4388-.0549a15.9683,15.9683,0,0,0,5.564-1.5614,20.08,20.08,0,0,0,3.0885-2.1151,14.6528,14.6528,0,0,1,4.4861-2.7046,8.4025,8.4025,0,0,1,7.8977,1.4782c.0691.0567.1382.1156.2073.1746,2.5151,2.1842,7.67,5.7152,14.0386,4.7882l.0657.4207c-6.5521.95-11.8276-2.6589-14.4-4.8921q-.0959-.0847-.1969-.1662a7.9454,7.9454,0,0,0-7.4745-1.3993,14.1364,14.1364,0,0,0-4.3461,2.6314,20.2829,20.2829,0,0,1-3.1595,2.16,16.401,16.401,0,0,1-5.716,1.6079l-.437.0549A19.7879,19.7879,0,0,1,574.4739,269.5618Z"/><path class="cls-9" d="M593.2577,278.6451A48.1767,48.1767,0,0,1,572.591,273.99l.1935-.3825a48.2811,48.2811,0,0,0,41.152.0067l.2211.3692A47.6036,47.6036,0,0,1,593.2577,278.6451Z"/><path class="cls-9" d="M592.8051,288.3428a23.5137,23.5137,0,0,1-14.1509-4.6261l.266-.3392c13.916,10.1633,29.473.0964,29.6268-.0058l.2522.3509A32.33,32.33,0,0,1,592.8051,288.3428Z"/><path class="cls-3" d="M620.1366,263.1132a.6761.6761,0,0,1-.3153-.01.6263.6263,0,0,1-.4494-.784l7.4347-24.7557a.6684.6684,0,0,1,.8162-.4385.6262.6262,0,0,1,.4494.784l-7.4347,24.7555A.6549.6549,0,0,1,620.1366,263.1132Z"/><polygon class="cls-26" points="148.571 462.942 104.035 462.942 104.035 500.591 144.983 500.591 148.571 462.942"/><polygon class="cls-26" points="190.09 500.591 189.513 462.942 146.808 462.942 149.547 500.591 190.09 500.591"/><path class="cls-27" d="M104.0352,466.7448V480.57s15.4743,2.9771,16.09-13.8249Z"/><path class="cls-27" d="M189.513,465.9842v15.5529s-17.4084,3.3492-18.1014-15.5529Z"/><polygon class="cls-6" points="130.804 310.233 130.804 339.032 159.975 339.032 159.187 310.233 130.804 310.233"/><path class="cls-12" d="M188.4443,383.5278c.1989-5.6648.994-3.3791.994-3.3791.0906.2652.1943.5287.2919.793-.8585-15.421-2.6639-30.8111-2.2615-46.2534a61.0562,61.0562,0,0,0-6.2169-2.7644,51.3324,51.3324,0,0,0-7.7653-2.72c-2.5737-.7941-5.1741-1.5015-7.7906-2.1407a54.82,54.82,0,0,1-5.409-1.3837,2.112,2.112,0,0,0-.95-.1836c-.799.1015-.9671,1.7322-1.3419,2.3228a6.96,6.96,0,0,1-2.24,2.15,13.8251,13.8251,0,0,1-4.2063,1.5691c-5.8645,1.3476-13.7163,1.324-18.2207-3.3075a9.19,9.19,0,0,1-1.1875-1.4926c-.3478-.5512-.5094-1.315-1.22-1.4633a6.9717,6.9717,0,0,0-2.4358.1765,77.324,77.324,0,0,0-13.408,4.0478,91.3871,91.3871,0,0,0-9.5875,4.0476c.2414,7.54-.76,15.1335-.9647,22.6644-.22,8.0916-.29,16.191-1.141,24.2468.0182-.0144.0354-.0312.0537-.0456,1.0073,1.5567.5984,3.8526.5981,5.8325V467.208c31.0076,13.5162,86.1982,2.3853,86.1982,2.3853Z"/><path class="cls-28" d="M159.26,313.5217l.1716,4.9494c-8.5225,3.7968-14.6428,3.2545-14.6428,3.2545a26.9477,26.9477,0,0,1-13.9935-3.768l.0514-2.9443Z"/><path class="cls-12" d="M186.7943,336.9975s33.3542,8.2711,37.5533,43.44c.79,8.0683-.0007,18.4485-5.6293,24.7179a12.2377,12.2377,0,0,1-7.0773,3.7359c-3.8623.6419-7.8365-.3444-11.4395-1.6831,0,0-10.9576-4.0681-14.304-27.2956Z"/><path class="cls-29" d="M186.0427,372.9827l-.0139-.0126s-4.7241,5.84,1.9027,20.275l-.0806-4.1391a66.5161,66.5161,0,0,1-1.9534-9.1807Z"/><path class="cls-12" d="M105.8663,337.49s-33.3541,8.271-37.5534,43.44c-.79,8.0683.0008,18.4487,5.6294,24.7179a12.2366,12.2366,0,0,0,7.0774,3.7358c3.8621.642,7.8364-.3442,11.4394-1.683,0,0,10.9575-4.0681,14.3039-27.2957Z"/><path class="cls-29" d="M106.618,373.4748l.0138-.0125s4.7242,5.84-1.9027,20.2749l.0807-4.1391a66.4967,66.4967,0,0,0,1.9532-9.1807Z"/><path class="cls-6" d="M115.0789,276.9234a6.8213,6.8213,0,1,1-6.8212-6.8213A6.8213,6.8213,0,0,1,115.0789,276.9234Z"/><circle class="cls-6" cx="181.5493" cy="276.9234" r="6.8213"/><path class="cls-6" d="M180.8523,269.9432c.8962,6.7442-.5975,17.9845-.5975,17.9845-4.0885,16.8478-19.7325,33.0777-36.936,32.0534-15.8711-.9449-28.231-15.915-33.4679-31.09,0,0-2.1907-14.1307-.9957-19.2692V242.9662h71.9971Z"/><path class="cls-29" d="M219.9671,381.6735a37.1509,37.1509,0,0,1-8.89,6.7081,37.8444,37.8444,0,0,1-13.3225,4.4109c.2106.2976.4273.5717.6467.8342l.0028-.0006a11.088,11.088,0,0,0,1.82,1.7573c-1.6483.0011-4.008-.1211-4.008-.1211a5.7269,5.7269,0,0,0,4.4553.44c2.5113,1.7,3.2059,1.7,5.4144,1.362-2.7176.0646-3.4983-.38-6.1138-3.4377a40.1253,40.1253,0,0,0,19.3995-10.1748s1.1923,3.5535-1.712,7.8751C222.003,386.5205,219.9671,381.6735,219.9671,381.6735Z"/><path class="cls-29" d="M74.4069,380.9709a37.1481,37.1481,0,0,0,8.89,6.7081A37.8462,37.8462,0,0,0,96.619,392.09c-.2107.2975-.4274.5715-.6468.834l-.002,0a11.1294,11.1294,0,0,1-1.82,1.7571c1.6484.0011,4.0079-.1211,4.0079-.1211a5.7271,5.7271,0,0,1-4.4552.44c-2.5113,1.7-3.2058,1.7-5.4143,1.362,2.7174.0646,3.4982-.38,6.1136-3.4376a40.1238,40.1238,0,0,1-19.4-10.175s-1.1923,3.5536,1.712,7.8752C72.3709,385.8178,74.4069,380.9709,74.4069,380.9709Z"/><path class="cls-3" d="M170.9975,293.5436a19.413,19.413,0,0,1-5.1669-.2058,22.0853,22.0853,0,0,1-7.3129-1.95c-3.48-1.694-5.9882-4.7667-9.7766-5.911a11.0777,11.0777,0,0,0-9.9665,1.7688q-.1337.1038-.2636.2111c-4.9866,4.11-11.5891,6.8959-18.4356,5.9534,0,0,.0279,1.7834.11,3.5768l-.02-.0093q.0393.7389.1026,1.4783c.0164.2357.0336.4643.0525.6752h.0138a66.86,66.86,0,0,0,1.6438,9.3077c.725,2.9665,1.57,6.13,3.6984,8.5424,6.1514,6.9735,18.2551,8.4411,27.2351,6.3565,4.5753-1.062,9.307-2.8788,12.3767-6.2894,3.3605-3.734,4.052-9.2294,4.8027-13.8512.0423-.261.19-2.6143.3614-4.31C170.6015,297.9276,171.1974,293.9843,170.9975,293.5436Z"/><path class="cls-30" d="M168.8635,297.21l-.0448-.3675c.1194-.0145.2374-.0333.3523-.0557l.0709.3632C169.1182,297.1732,168.9916,297.1936,168.8635,297.21Z"/><path class="cls-30" d="M167.8254,297.27c-.16,0-.3226-.0036-.4845-.01l.0144-.37c.2488.01.4962.0123.7357.0065l.0087.37C168.0092,297.2681,167.9181,297.27,167.8254,297.27Zm-1.24-.06q-.3777-.0326-.7509-.0774l.0434-.3676c.2444.0282.4919.0543.7393.076Zm-42.5327-.0044-.0014-.37q.3711-.0021.7386-.0209l.0188.37Q124.4324,297.2025,124.0529,297.2051Zm-.7552-.0115q-.3765-.0143-.7545-.0456l.03-.3691c.2475.0211.4933.0349.7386.0443Zm2.2636-.0623-.0333-.3689q.3688-.0338.7349-.0832l.0493.3674C126.0626,297.08,125.8131,297.1089,125.5613,297.1313Zm39.53-.0919-.7423-.0976.0478-.3675.7421.0977Zm-38.0324-.1085-.0636-.3645q.3645-.064.7262-.1419l.0783.3618Q127.43,296.8666,127.0587,296.9309Zm36.5465-.0917q-.3733-.0555-.743-.1209l.0651-.3646c.2423.0434.4869.0824.7328.1193Zm-35.0707-.2266-.0926-.3587q.3591-.0922.7139-.1977l.1057.3546Q128.9,296.5182,128.5345,296.6126Zm33.5869-.0347q-.37-.0771-.7357-.1663l.0883-.36q.3593.0889.7226.1635Zm-1.4663-.36q-.3625-.1041-.7213-.2228l.1172-.3516q.3516.1171.7068.2184Zm-30.6738-.0333-.1187-.3515q.3506-.1183.6989-.249l.13.3459Q130.339,296.0644,129.9813,296.1844Zm29.2414-.4433q-.3513-.1338-.7-.2866l.149-.3386q.34.1488.6829.2793Zm-27.83-.09-.1417-.3415q.3417-.142.68-.2966l.1534.3371Q131.74,295.5066,131.3926,295.6513Zm26.4441-.5152c-.1432-.0708-.2858-.1438-.429-.22-.081-.0434-.162-.0876-.2415-.1323l.1808-.3228q.117.0652.2351.1281.2094.1116.42.2155Zm-25.0711-.1084-.1649-.3313q.3332-.1648.66-.3407l.1751.3269C133.2149,294.8012,132.9906,294.9163,132.7656,295.0277Zm23.75-.6323c-.2127-.1345-.4233-.2741-.6293-.4189l.2126-.3037q.3027.2127.6149.41Zm-22.4213-.0781-.1837-.3212c.2156-.1238.4276-.25.6387-.3791l.1939.3154Q134.4223,294.13,134.0945,294.3173Zm21.1814-.782c-.2012-.15-.3993-.3025-.5976-.4572l.2286-.2923q.2931.23.59.4529Zm-19.8966-.0058-.2026-.31q.31-.2028.6157-.4151l.2112.3037Q135.6943,293.3246,135.3793,293.53Zm1.2363-.8594-.22-.2981c.2-.1475.398-.2973.5931-.4484l.2272.2921Q136.9189,292.447,136.6156,292.67Zm17.4746-.0592c-.1939-.1564-.3884-.3141-.5817-.4724l.2344-.2866c.1932.1584.3864.3148.58.471Zm-16.2868-.864-.2344-.2863q.2888-.2367.5679-.48l.2432.2806Q138.0956,291.5069,137.8034,291.7469Zm15.1243-.0758q-.2908-.2343-.5852-.463l.2271-.2922q.2973.231.5895.4658Zm-13.987-.9064-.2446-.2777.1512-.1311c.1441-.1215.29-.238.4376-.3509l.2243.2952c-.1432.1085-.2836.2221-.4224.3387Zm12.8106-.0044q-.2993-.2191-.6047-.429l.2084-.3053c.2077.1411.4123.2872.6149.4363Zm-1.2254-.83c-.21-.1281-.4224-.2517-.6394-.3689l.1765-.3256q.3342.18.6568.3791Zm-10.4163-.0514-.2011-.3111q.3224-.2084.6562-.3877l.1765.3255Q140.4189,289.68,140.11,289.8792Zm9.1193-.6431c-.2221-.1013-.4478-.1938-.6786-.28l.1288-.3473q.3591.1333.7032.29Zm-7.8294-.0528-.15-.3385q.3482-.1554.7068-.2822l.1243.3487C141.85,288.993,141.6231,289.0842,141.4,289.1833Zm6.4534-.4537c-.2357-.0664-.4737-.1236-.7125-.172l.0738-.3632q.3711.0749.74.1794Zm-5.0738-.0375-.0956-.3574q.3681-.0988.743-.17l.0681.3646C143.2542,288.5741,143.0156,288.6291,142.7791,288.6921Zm3.6365-.2539c-.2431-.03-.4876-.0514-.7307-.0622l.0173-.37c.2533.0123.5065.0333.76.0651Zm-2.1955-.0159-.0405-.3689c.2525-.0268.5056-.0449.76-.0529l.0116.37C144.7069,288.3788,144.4624,288.3955,144.22,288.4223Z"/><path class="cls-30" d="M121.7641,297.0655q-.1855-.0228-.37-.0514l.0535-.366c.1208.0173.2424.0347.3631.05Z"/><path class="cls-30" d="M164.2369,301.6707a18.1561,18.1561,0,0,1-2.325-.2051l-.4152-.0538a15.1378,15.1378,0,0,1-5.4346-1.588,19.3346,19.3346,0,0,1-3.0092-2.1376,13.693,13.693,0,0,0-4.19-2.6319,7.489,7.489,0,0,0-7.2519,1.41c-.0664.0547-.1293.1109-.1924.1681-2.4478,2.2083-7.4771,5.7741-13.6942,4.8377l.0319-.2136c6.1279.9255,11.0993-2.6007,13.5177-4.7837.0647-.0589.1311-.1169.1983-.1733a7.7077,7.7077,0,0,1,7.4578-1.45,13.8785,13.8785,0,0,1,4.2577,2.67,19.1531,19.1531,0,0,0,2.9749,2.115,14.9316,14.9316,0,0,0,5.36,1.5643l.4161.0539a11.1357,11.1357,0,0,0,3.3632.1135l.04.2117A5.957,5.957,0,0,1,164.2369,301.6707Z"/><path class="cls-30" d="M146.1339,310.7205a45.0886,45.0886,0,0,1-8.0034-.7153,40.7406,40.7406,0,0,1-11.8187-3.9257l.1075-.1865a40.5107,40.5107,0,0,0,11.7575,3.9021A44.67,44.67,0,0,0,165.898,305.89l.0941.1932A44.9093,44.9093,0,0,1,146.1339,310.7205Z"/><path class="cls-30" d="M146.1339,317.7126a45.0691,45.0691,0,0,1-8.0034-.7154,40.7443,40.7443,0,0,1-11.8187-3.9255l.1075-.1866a40.5018,40.5018,0,0,0,11.7575,3.902,44.6712,44.6712,0,0,0,27.7212-3.9054l.0941.1933A44.9121,44.9121,0,0,1,146.1339,317.7126Z"/><path class="cls-31" d="M170.058,294.8142s11.74-13.3793,23.5293-5.6731a8.0687,8.0687,0,0,1,1.072.8889,13.4779,13.4779,0,0,1,2.175,2.6327,11.9619,11.9619,0,0,1,1.6776,4.2981,12.7931,12.7931,0,0,1-.4211,5.8851,21.1983,21.1983,0,0,1-4.6107,8.0218,7.5892,7.5892,0,0,1-1.8926,1.6286c-.6813.3732-1.4129.6406-2.1243.9488q-1.395.6046-2.8287,1.1148a33.8734,33.8734,0,0,1-7.1793,1.7653,17.639,17.639,0,0,1-7.64-.5481,29.7966,29.7966,0,0,1-4.4195-2.2554"/><path class="cls-31" d="M120.848,297.27s-11.8735-16.186-23.6635-8.48a8.081,8.081,0,0,0-1.0718.8889,13.4713,13.4713,0,0,0-2.1751,2.6327A11.9562,11.9562,0,0,0,92.26,296.61a12.7929,12.7929,0,0,0,.4209,5.8851,20.5541,20.5541,0,0,0,2.9663,5.9765,12.6525,12.6525,0,0,0,3.1876,3.3213,23.564,23.564,0,0,0,5.3024,2.4163,33.8714,33.8714,0,0,0,7.1793,1.7651,17.6357,17.6357,0,0,0,7.64-.548,39.8357,39.8357,0,0,0,5.1431-2.5441"/><path class="cls-6" d="M218.6991,383.5971l-19.1207-45.4662-.013.0039c-.6382-1.5163-1.4663-2.9744-2.0359-4.51a12.4394,12.4394,0,0,1-.5057-4.4444,59.4265,59.4265,0,0,0,.1589-7.3216c-.2311-2.1751-.0481-4.5563-1.0625-6.5674-.9634-1.91-3.0379-2.4668-5.0007-2.765-.969-.147-1.9572-.1116-2.9266-.2734a4.5715,4.5715,0,0,1-1.1142-.2945,1.9224,1.9224,0,0,1-.49-.3067,1.4572,1.4572,0,0,0-.7661-.3935,5.7394,5.7394,0,0,0-.6466-.0823,5.1005,5.1005,0,0,0-1.7241.1623,2.0786,2.0786,0,0,0-.5113.177,3.2617,3.2617,0,0,0-1.5339,1.9336c-.0607.2673-.0782.4355-.2875.5387a2.9166,2.9166,0,0,1-1.3172.16,2.5978,2.5978,0,0,0-2.1027.6766,3.06,3.06,0,0,0-.5057,1.7429,1.5842,1.5842,0,0,1-1.26,1.4993,2.2611,2.2611,0,0,0-1.3893.7982,3.81,3.81,0,0,0-.5189,2.4033c.0064.6617-.8728.99-1.2455,1.4188a2.0124,2.0124,0,0,0-.398,1.92,18.7616,18.7616,0,0,0,7.6761,9.3864c2.3969,1.5387,5.411,3.6091,6.0829,6.5813l.5471,2.0335.2139.7956.0266-.0106,13.3,49.53,9.7673-3.4406Z"/><path class="cls-32" d="M189.8711,316.7425a16.9257,16.9257,0,0,1-2.2356-4.1467c-.4836-.1462-.2653,1.3492-.2653,1.3492,2.2709,5.2538,5.7566,5.1136,5.7566,5.1136a4.7725,4.7725,0,0,1-3.0539-2.0532Z"/><path class="cls-6" d="M75.6748,382.8945l19.1208-45.4662.0129.004c.6382-1.5163,1.4662-2.9743,2.0359-4.51a12.44,12.44,0,0,0,.5056-4.4446,59.426,59.426,0,0,1-.1588-7.3216c.2311-2.175.0481-4.5561,1.0624-6.5674.9635-1.91,3.0378-2.4666,5.0007-2.7648.969-.1473,1.9573-.1117,2.9267-.2736a4.5669,4.5669,0,0,0,1.1142-.2945,1.9112,1.9112,0,0,0,.49-.3068,1.4575,1.4575,0,0,1,.7663-.3933,5.73,5.73,0,0,1,.6464-.0824,5.1028,5.1028,0,0,1,1.7241.1622,2.0867,2.0867,0,0,1,.5113.177,3.2632,3.2632,0,0,1,1.534,1.9338c.0606.2673.0782.4353.2875.5386a2.9175,2.9175,0,0,0,1.3171.16,2.5986,2.5986,0,0,1,2.1029.6765,3.0605,3.0605,0,0,1,.5055,1.743,1.5844,1.5844,0,0,0,1.26,1.4994,2.2613,2.2613,0,0,1,1.3892.7982,3.8087,3.8087,0,0,1,.519,2.4032c-.0064.6618.8728.99,1.2456,1.4188a2.0119,2.0119,0,0,1,.3979,1.92,18.7593,18.7593,0,0,1-7.6761,9.3864c-2.3969,1.5387-5.411,3.609-6.0828,6.5813l-.5471,2.0336-.2139.7956-.0266-.0106-13.3,49.53L84.3782,388.78Z"/><path class="cls-33" d="M97.6434,310.8547a33.4856,33.4856,0,0,0,7.7721,4.391"/><path class="cls-32" d="M104.5028,316.04a16.9232,16.9232,0,0,0,2.2355-4.1468c.4837-.1462.2653,1.3493.2653,1.3493-2.2708,5.2539-5.7566,5.1134-5.7566,5.1134a4.7717,4.7717,0,0,0,3.054-2.0531Z"/><path class="cls-33" d="M188.21,313.9661s3.7278-1.4794,4.4221-2.2234"/><path d="M106.096,270.0622l.596,8.0615,2.6921-.1148L108.94,267.605s10.201-15.6115,7.534-25.428l-4.8-7.1023s-5.24,4.5329-5.709,11.1105S106.096,270.0622,106.096,270.0622Z"/><path d="M183.4264,269.9183l-.2517,8.08H180.48V267.5846s-10.8573-15.1625-8.6109-25.0838l4.4926-7.3s5.4286,4.3055,6.1773,10.8571S183.4264,269.9183,183.4264,269.9183Z"/><path class="cls-34" d="M110.4094,244.1761s52.6469,29.4555,77.3042-6.3856-58.1916-18.9986-58.1916-18.9986l.8677-2.2176s-25.1879,2.7207-22.2751,22.7826Z"/><line class="cls-35" x1="344.0178" y1="421.0143" x2="344.0178" y2="421.0143"/><line class="cls-36" x1="347.878" y1="421.0143" x2="500.3585" y2="421.0143"/><line class="cls-35" x1="502.2887" y1="421.0143" x2="502.2887" y2="421.0143"/><polygon class="cls-37" points="352.578 431.58 354.34 429.688 345.009 421.017 354.34 412.343 352.578 410.451 341.216 421.017 352.578 431.58"/><polygon class="cls-37" points="493.729 431.58 491.966 429.688 501.297 421.017 491.966 412.343 493.729 410.451 505.09 421.017 493.729 431.58"/><text class="cls-38" transform="translate(400.4825 411.0038)">2m</text><path class="cls-39" d="M485.2843,320.9438a9.4311,9.4311,0,0,0-3.9472,1.0641,20.2853,20.2853,0,0,0-1.2725-5.7646,9.4311,9.4311,0,0,0,4.0262-.6988,3.1061,3.1061,0,1,0-2.748-5.5714,9.4275,9.4275,0,0,0-3.0049,2.7692,20.2815,20.2815,0,0,0-5.3445-5.7617,9.4308,9.4308,0,0,0,2.9916-2.788,3.1063,3.1063,0,1,0-5.3476-3.1622A9.43,9.43,0,0,0,469.6357,305a20.52,20.52,0,0,0-6.2506-1.789,9.4342,9.4342,0,0,0,1.2484-3.8978,3.1063,3.1063,0,0,0-6.2109-.144,9.43,9.43,0,0,0,1.064,3.9473,20.2876,20.2876,0,0,0-5.7646,1.2725,9.432,9.432,0,0,0-.6986-4.0266,3.1065,3.1065,0,0,0-5.572,2.7483,9.4332,9.4332,0,0,0,2.77,3.0051,20.2833,20.2833,0,0,0-5.7619,5.3444,9.4325,9.4325,0,0,0-2.7877-2.9916,3.1064,3.1064,0,0,0-3.1627,5.3475,9.43,9.43,0,0,0,3.9693,1.0017,20.5217,20.5217,0,0,0-1.7889,6.25,9.4329,9.4329,0,0,0-3.8977-1.2484,3.1064,3.1064,0,0,0-.1441,6.2111,9.4309,9.4309,0,0,0,3.9474-1.0639,20.2875,20.2875,0,0,0,1.2724,5.7645,9.4323,9.4323,0,0,0-4.0264.6988,3.1062,3.1062,0,0,0,2.7481,5.5715,9.4288,9.4288,0,0,0,3.0051-2.7691,20.2848,20.2848,0,0,0,5.3443,5.7617,9.43,9.43,0,0,0-2.9914,2.7879,3.1063,3.1063,0,1,0,5.3476,3.1624,9.4318,9.4318,0,0,0,1.0018-3.9691,20.5175,20.5175,0,0,0,6.25,1.7889,9.4309,9.4309,0,0,0-1.2482,3.8975,3.1063,3.1063,0,1,0,6.2109.144,9.4307,9.4307,0,0,0-1.064-3.9469,20.292,20.292,0,0,0,5.7644-1.2723,9.4309,9.4309,0,0,0,.6988,4.0261,3.1063,3.1063,0,0,0,5.5718-2.7482,9.4294,9.4294,0,0,0-2.7691-3.0049,20.2883,20.2883,0,0,0,5.7615-5.3443,9.4264,9.4264,0,0,0,2.7878,2.9912,3.1064,3.1064,0,0,0,3.1625-5.3476,9.4333,9.4333,0,0,0-3.9691-1.0018,20.5173,20.5173,0,0,0,1.7888-6.25,9.43,9.43,0,0,0,3.8977,1.2483,3.1063,3.1063,0,0,0,.144-6.211Z"/><path class="cls-39" d="M530.854,225.2718a7.5728,7.5728,0,0,0-3.1712.8549,16.3036,16.3036,0,0,0-1.0224-4.6315,7.5771,7.5771,0,0,0,3.2348-.5615,2.4955,2.4955,0,1,0-2.2079-4.476,7.5731,7.5731,0,0,0-2.4142,2.2248,16.2954,16.2954,0,0,0-4.2938-4.6291,7.5756,7.5756,0,0,0,2.4035-2.24,2.4957,2.4957,0,1,0-4.2965-2.5406,7.56,7.56,0,0,0-.7942,3.1942,16.4819,16.4819,0,0,0-5.0322-1.4427,7.5809,7.5809,0,0,0,1.0029-3.1316,2.4957,2.4957,0,0,0-4.99-.1156,7.5781,7.5781,0,0,0,.8549,3.1713,16.2994,16.2994,0,0,0-4.6313,1.0223,7.5739,7.5739,0,0,0-.5615-3.2349,2.4956,2.4956,0,0,0-4.4764,2.2078,7.5752,7.5752,0,0,0,2.2251,2.4145,16.2972,16.2972,0,0,0-4.6293,4.2937,7.5747,7.5747,0,0,0-2.24-2.4034,2.4957,2.4957,0,1,0-2.5408,4.2963,7.5558,7.5558,0,0,0,3.1943.7943,16.4781,16.4781,0,0,0-1.4426,5.0322,7.5769,7.5769,0,0,0-3.1315-1.003,2.4957,2.4957,0,0,0-.1157,4.99,7.5736,7.5736,0,0,0,3.1713-.8549,16.3067,16.3067,0,0,0,1.0222,4.6314,7.5771,7.5771,0,0,0-3.2348.5615,2.4955,2.4955,0,1,0,2.208,4.4761,7.5737,7.5737,0,0,0,2.4142-2.2247,16.2948,16.2948,0,0,0,4.2937,4.629,7.5786,7.5786,0,0,0-2.4034,2.24,2.4957,2.4957,0,1,0,4.2963,2.5408,7.5572,7.5572,0,0,0,.7945-3.1942,16.49,16.49,0,0,0,5.0322,1.4426,7.5758,7.5758,0,0,0-1.0029,3.1313,2.4957,2.4957,0,1,0,4.99.1156,7.5818,7.5818,0,0,0-.8549-3.171,16.3017,16.3017,0,0,0,4.6313-1.0221,7.5778,7.5778,0,0,0,.5613,3.2346,2.4958,2.4958,0,0,0,4.4766-2.208,7.5772,7.5772,0,0,0-2.2247-2.4142,16.297,16.297,0,0,0,4.6288-4.2938,7.5732,7.5732,0,0,0,2.24,2.4032,2.4956,2.4956,0,1,0,2.5408-4.2962,7.56,7.56,0,0,0-3.1944-.7943,16.49,16.49,0,0,0,1.4428-5.0322,7.5738,7.5738,0,0,0,3.1314,1.0029,2.4957,2.4957,0,1,0,.1156-4.99Z"/><path class="cls-39" d="M468.1284,140.8546a11.9222,11.9222,0,0,0-4.99,1.3452,25.6547,25.6547,0,0,0-1.6087-7.288,11.9244,11.9244,0,0,0,5.09-.8835,3.9269,3.9269,0,1,0-3.4743-7.0436,11.9192,11.9192,0,0,0-3.799,3.501,25.6435,25.6435,0,0,0-6.7568-7.2844,11.9174,11.9174,0,0,0,3.7821-3.5248,3.9271,3.9271,0,1,0-6.7608-3.9977,11.8936,11.8936,0,0,0-1.25,5.0262,25.94,25.94,0,0,0-7.9187-2.27,11.9273,11.9273,0,0,0,1.5783-4.9277,3.9273,3.9273,0,1,0-7.8524-.1822,11.9214,11.9214,0,0,0,1.3453,4.99,25.6559,25.6559,0,0,0-7.2881,1.6086,11.9193,11.9193,0,0,0-.8834-5.09,3.9272,3.9272,0,0,0-7.0441,3.4743,11.9226,11.9226,0,0,0,3.5013,3.7993,25.6425,25.6425,0,0,0-7.2845,6.7568,11.9234,11.9234,0,0,0-3.5243-3.7822,3.9273,3.9273,0,1,0-3.9983,6.7608,11.89,11.89,0,0,0,5.0265,1.25,25.9332,25.9332,0,0,0-2.27,7.9187,11.9276,11.9276,0,0,0-4.9278-1.5784,3.9273,3.9273,0,0,0-.182,7.8525,11.92,11.92,0,0,0,4.99-1.3453,25.66,25.66,0,0,0,1.6086,7.288,11.923,11.923,0,0,0-5.09.8835,3.9271,3.9271,0,1,0,3.4745,7.0438,11.9222,11.9222,0,0,0,3.799-3.5009,25.6478,25.6478,0,0,0,6.7565,7.2843,11.9252,11.9252,0,0,0-3.7819,3.5248,3.9272,3.9272,0,1,0,6.7606,3.9981,11.8924,11.8924,0,0,0,1.25-5.0265,25.94,25.94,0,0,0,7.9187,2.27,11.9248,11.9248,0,0,0-1.5782,4.9274,3.9272,3.9272,0,1,0,7.8523.182,11.9289,11.9289,0,0,0-1.3452-4.99,25.6477,25.6477,0,0,0,7.2878-1.6083,11.9207,11.9207,0,0,0,.8834,5.09,3.9273,3.9273,0,0,0,7.0443-3.4746,11.92,11.92,0,0,0-3.5008-3.7989,25.6427,25.6427,0,0,0,7.2838-6.7568,11.9185,11.9185,0,0,0,3.5247,3.7819,3.9272,3.9272,0,0,0,3.9982-6.7607,11.8956,11.8956,0,0,0-5.0265-1.25,25.9491,25.9491,0,0,0,2.27-7.9187,11.9228,11.9228,0,0,0,4.9276,1.5782,3.9273,3.9273,0,1,0,.182-7.8524Z"/><path class="cls-39" d="M70.6779,299.6827a6.8112,6.8112,0,0,0-2.851.7685,14.6545,14.6545,0,0,0-.919-4.1636,6.8124,6.8124,0,0,0,2.9081-.5048,2.2435,2.2435,0,1,0-1.9849-4.024,6.8091,6.8091,0,0,0-2.1705,2,14.6476,14.6476,0,0,0-3.86-4.1615,6.8107,6.8107,0,0,0,2.1608-2.0138A2.2436,2.2436,0,0,0,60.0988,285.3a6.7958,6.7958,0,0,0-.7141,2.8716,14.8163,14.8163,0,0,0-4.524-1.297,6.8122,6.8122,0,0,0,.9017-2.8153,2.2437,2.2437,0,0,0-4.4861-.104,6.8115,6.8115,0,0,0,.7686,2.851,14.662,14.662,0,0,0-4.1637.919,6.81,6.81,0,0,0-.5047-2.9082,2.2436,2.2436,0,1,0-4.0242,1.985,6.81,6.81,0,0,0,2,2.1705,14.6525,14.6525,0,0,0-4.1617,3.86,6.8138,6.8138,0,0,0-2.0134-2.1607,2.2437,2.2437,0,0,0-2.2843,3.8625,6.7943,6.7943,0,0,0,2.8718.714,14.8113,14.8113,0,0,0-1.2969,4.524,6.8118,6.8118,0,0,0-2.8153-.9017,2.2436,2.2436,0,0,0-.104,4.486,6.807,6.807,0,0,0,2.851-.7685,14.6611,14.6611,0,0,0,.9189,4.1637,6.813,6.813,0,0,0-2.9081.5047,2.2435,2.2435,0,0,0,1.985,4.0241,6.81,6.81,0,0,0,2.1705-2,14.6514,14.6514,0,0,0,3.86,4.1615,6.8118,6.8118,0,0,0-2.1606,2.0137,2.2436,2.2436,0,1,0,3.8624,2.2841,6.7985,6.7985,0,0,0,.7142-2.8716,14.8165,14.8165,0,0,0,4.5239,1.297,6.81,6.81,0,0,0-.9016,2.815,2.2436,2.2436,0,1,0,4.486.104,6.8152,6.8152,0,0,0-.7686-2.8508,14.65,14.65,0,0,0,4.1636-.9189,6.8115,6.8115,0,0,0,.5047,2.9079,2.2437,2.2437,0,1,0,4.0244-1.985,6.81,6.81,0,0,0-2-2.17,14.65,14.65,0,0,0,4.1614-3.86,6.8079,6.8079,0,0,0,2.0136,2.1605,2.2436,2.2436,0,0,0,2.2842-3.8623,6.7939,6.7939,0,0,0-2.8717-.7141,14.8247,14.8247,0,0,0,1.297-4.524,6.81,6.81,0,0,0,2.8151.9016,2.2436,2.2436,0,1,0,.104-4.486Z"/><path class="cls-39" d="M129.9327,155.9312a9.93,9.93,0,0,0-4.1562,1.12,21.3627,21.3627,0,0,0-1.34-6.07,9.9306,9.9306,0,0,0,4.2394-.7359,3.27,3.27,0,1,0-2.8937-5.8661,9.9282,9.9282,0,0,0-3.1639,2.9157,21.36,21.36,0,0,0-5.6273-6.0668,9.9245,9.9245,0,0,0,3.15-2.9355,3.2707,3.2707,0,1,0-5.6306-3.33,9.9048,9.9048,0,0,0-1.041,4.1861,21.6049,21.6049,0,0,0-6.5951-1.8907,9.931,9.931,0,0,0,1.3144-4.1041,3.2708,3.2708,0,1,0-6.54-.1516,9.93,9.93,0,0,0,1.1205,4.1563,21.3632,21.3632,0,0,0-6.07,1.34,9.9288,9.9288,0,0,0-.7357-4.24,3.2707,3.2707,0,0,0-5.8666,2.8936,9.9278,9.9278,0,0,0,2.9159,3.1642,21.3577,21.3577,0,0,0-6.0668,5.6273,9.932,9.932,0,0,0-2.9352-3.15,3.2709,3.2709,0,1,0-3.33,5.6307,9.9035,9.9035,0,0,0,4.1865,1.0409,21.5951,21.5951,0,0,0-1.8906,6.5951,9.9331,9.9331,0,0,0-4.1041-1.3146,3.2708,3.2708,0,0,0-.1516,6.54,9.9248,9.9248,0,0,0,4.156-1.12,21.3757,21.3757,0,0,0,1.34,6.07,9.9317,9.9317,0,0,0-4.2395.7359,3.2706,3.2706,0,1,0,2.8938,5.8663,9.9281,9.9281,0,0,0,3.164-2.9156,21.3594,21.3594,0,0,0,5.6272,6.0666,9.93,9.93,0,0,0-3.15,2.9357,3.2708,3.2708,0,1,0,5.6306,3.33,9.9044,9.9044,0,0,0,1.0411-4.1863,21.6063,21.6063,0,0,0,6.5951,1.8906,9.933,9.933,0,0,0-1.3145,4.1038,3.2708,3.2708,0,1,0,6.54.1517,9.9355,9.9355,0,0,0-1.1205-4.1559,21.3636,21.3636,0,0,0,6.07-1.34,9.927,9.927,0,0,0,.7358,4.2392,3.2708,3.2708,0,0,0,5.8667-2.8938,9.9288,9.9288,0,0,0-2.9156-3.1639,21.3589,21.3589,0,0,0,6.0664-5.6273,9.9245,9.9245,0,0,0,2.9354,3.15,3.2708,3.2708,0,0,0,3.33-5.6306,9.9075,9.9075,0,0,0-4.1863-1.0409,21.6141,21.6141,0,0,0,1.8907-6.5951,9.9305,9.9305,0,0,0,4.104,1.3145,3.2708,3.2708,0,0,0,.1516-6.54Z"/><path class="cls-39" d="M255.4907,193.6056a8.1992,8.1992,0,0,0-3.4315.9251,17.6357,17.6357,0,0,0-1.1062-5.0115,8.1972,8.1972,0,0,0,3.5-.6075,2.7,2.7,0,1,0-2.389-4.8433,8.1951,8.1951,0,0,0-2.6123,2.4074,17.6321,17.6321,0,0,0-4.6461-5.0089,8.1947,8.1947,0,0,0,2.6006-2.4239,2.7,2.7,0,1,0-4.6488-2.7488,8.176,8.176,0,0,0-.86,3.4561,17.8385,17.8385,0,0,0-5.4451-1.561,8.1993,8.1993,0,0,0,1.0852-3.3885,2.7,2.7,0,1,0-5.3994-.1252,8.1967,8.1967,0,0,0,.925,3.4315,17.642,17.642,0,0,0-5.0114,1.1063,8.1967,8.1967,0,0,0-.6075-3.5,2.7,2.7,0,0,0-4.8437,2.389,8.1978,8.1978,0,0,0,2.4076,2.6126A17.6326,17.6326,0,0,0,220,185.3607a8.1978,8.1978,0,0,0-2.4233-2.6008,2.7005,2.7005,0,1,0-2.7494,4.6489,8.1757,8.1757,0,0,0,3.4564.8595,17.8271,17.8271,0,0,0-1.5609,5.4451,8.201,8.201,0,0,0-3.3885-1.0854,2.7005,2.7005,0,0,0-.1252,5.4,8.1963,8.1963,0,0,0,3.4315-.925,17.6424,17.6424,0,0,0,1.1061,5.0114,8.2006,8.2006,0,0,0-3.5.6075,2.7,2.7,0,1,0,2.3891,4.8435,8.198,8.198,0,0,0,2.6123-2.4073,17.6342,17.6342,0,0,0,4.646,5.0088,8.1994,8.1994,0,0,0-2.6,2.4237,2.7,2.7,0,1,0,4.6488,2.7493,8.1782,8.1782,0,0,0,.86-3.4563,17.8393,17.8393,0,0,0,5.4451,1.561,8.1991,8.1991,0,0,0-1.0852,3.3882,2.7,2.7,0,1,0,5.3995.1251,8.2036,8.2036,0,0,0-.9251-3.4311,17.64,17.64,0,0,0,5.0113-1.106,8.1965,8.1965,0,0,0,.6075,3.5,2.7005,2.7005,0,0,0,4.8438-2.3893,8.1987,8.1987,0,0,0-2.4073-2.6122,17.6322,17.6322,0,0,0,5.0086-4.6461,8.1954,8.1954,0,0,0,2.4237,2.6006,2.7,2.7,0,0,0,2.7492-4.6489,8.18,8.18,0,0,0-3.4564-.8595,17.8414,17.8414,0,0,0,1.5611-5.4451,8.1962,8.1962,0,0,0,3.3883,1.0852,2.7,2.7,0,1,0,.1252-5.3995Z"/><path class="cls-39" d="M695.2066,284.0548a5.1255,5.1255,0,0,0-2.145.5782,11.0215,11.0215,0,0,0-.6916-3.1325,5.125,5.125,0,0,0,2.1881-.38,1.6879,1.6879,0,1,0-1.4935-3.0274,5.1239,5.1239,0,0,0-1.6329,1.5047,11.0239,11.0239,0,0,0-2.9043-3.131,5.1251,5.1251,0,0,0,1.6258-1.5151,1.6881,1.6881,0,1,0-2.9061-1.7184,5.1142,5.1142,0,0,0-.5372,2.16,11.1518,11.1518,0,0,0-3.4037-.9758,5.125,5.125,0,0,0,.6782-2.118,1.688,1.688,0,1,0-3.375-.0784,5.1229,5.1229,0,0,0,.5782,2.1451,11.0253,11.0253,0,0,0-3.1327.6915,5.1237,5.1237,0,0,0-.38-2.1881,1.688,1.688,0,1,0-3.0277,1.4934,5.123,5.123,0,0,0,1.5049,1.6331,11.0231,11.0231,0,0,0-3.1312,2.9042,5.1251,5.1251,0,0,0-1.5148-1.6257,1.6881,1.6881,0,1,0-1.7186,2.906,5.1094,5.1094,0,0,0,2.1605.5372,11.1486,11.1486,0,0,0-.9756,3.4037,5.1293,5.1293,0,0,0-2.1182-.6784,1.6881,1.6881,0,0,0-.0782,3.3752,5.1218,5.1218,0,0,0,2.145-.5782,11.0266,11.0266,0,0,0,.6914,3.1327,5.1242,5.1242,0,0,0-2.1879.38,1.688,1.688,0,1,0,1.4934,3.0277,5.1255,5.1255,0,0,0,1.6329-1.5048,11.025,11.025,0,0,0,2.9042,3.131,5.1239,5.1239,0,0,0-1.6256,1.515,1.6881,1.6881,0,1,0,2.906,1.7185,5.1126,5.1126,0,0,0,.5373-2.16,11.1524,11.1524,0,0,0,3.4037.9757,5.1258,5.1258,0,0,0-.6783,2.118,1.688,1.688,0,1,0,3.3751.0782,5.1278,5.1278,0,0,0-.5782-2.1449,11.02,11.02,0,0,0,3.1325-.6913,5.1224,5.1224,0,0,0,.38,2.1878,1.688,1.688,0,1,0,3.0277-1.4934,5.1251,5.1251,0,0,0-1.5047-1.633,11.0216,11.0216,0,0,0,3.1309-2.9041,5.1235,5.1235,0,0,0,1.515,1.6255,1.6881,1.6881,0,0,0,1.7186-2.906,5.114,5.114,0,0,0-2.1606-.5373,11.153,11.153,0,0,0,.9758-3.4037,5.1237,5.1237,0,0,0,2.118.6784,1.6881,1.6881,0,1,0,.0783-3.3752Z"/><path class="cls-39" d="M741.3959,188.0347a7.5774,7.5774,0,0,0-3.1713.8548,16.2962,16.2962,0,0,0-1.0224-4.6313,7.5789,7.5789,0,0,0,3.2349-.5614,2.4955,2.4955,0,1,0-2.2079-4.4761,7.5735,7.5735,0,0,0-2.4142,2.2249,16.2968,16.2968,0,0,0-4.2938-4.6291,7.5778,7.5778,0,0,0,2.4035-2.24,2.4957,2.4957,0,0,0-4.2964-2.5405,7.5566,7.5566,0,0,0-.7944,3.1941,16.4839,16.4839,0,0,0-5.0322-1.4427,7.5781,7.5781,0,0,0,1.0029-3.1314,2.4957,2.4957,0,1,0-4.99-.1157,7.5754,7.5754,0,0,0,.8549,3.1712,16.3035,16.3035,0,0,0-4.6314,1.0223,7.5761,7.5761,0,0,0-.5614-3.2349A2.4957,2.4957,0,0,0,711,173.707a7.5765,7.5765,0,0,0,2.225,2.4143,16.2941,16.2941,0,0,0-4.6292,4.2937,7.5785,7.5785,0,0,0-2.24-2.4035,2.4958,2.4958,0,1,0-2.5409,4.2964,7.5578,7.5578,0,0,0,3.1944.7942,16.4789,16.4789,0,0,0-1.4426,5.0322,7.5786,7.5786,0,0,0-3.1316-1.0031,2.4957,2.4957,0,0,0-.1156,4.99,7.5759,7.5759,0,0,0,3.1712-.8548,16.3122,16.3122,0,0,0,1.0222,4.6312,7.5769,7.5769,0,0,0-3.2347.5615,2.4956,2.4956,0,1,0,2.2079,4.4762,7.5776,7.5776,0,0,0,2.4142-2.2248,16.2989,16.2989,0,0,0,4.2937,4.629,7.5768,7.5768,0,0,0-2.4033,2.24,2.4956,2.4956,0,1,0,4.2962,2.5407,7.5572,7.5572,0,0,0,.7945-3.1942,16.4854,16.4854,0,0,0,5.0322,1.4426,7.5811,7.5811,0,0,0-1.0029,3.1313,2.4957,2.4957,0,1,0,4.99.1157,7.5833,7.5833,0,0,0-.8549-3.1711,16.3009,16.3009,0,0,0,4.6312-1.022,7.5744,7.5744,0,0,0,.5615,3.2345,2.4957,2.4957,0,0,0,4.4765-2.208,7.5762,7.5762,0,0,0-2.2248-2.4141,16.2971,16.2971,0,0,0,4.6289-4.2937,7.5709,7.5709,0,0,0,2.24,2.4032,2.4956,2.4956,0,1,0,2.5407-4.2962,7.56,7.56,0,0,0-3.1943-.7943,16.4915,16.4915,0,0,0,1.4427-5.0322,7.576,7.576,0,0,0,3.1314,1.003,2.4957,2.4957,0,1,0,.1157-4.99Z"/><line class="cls-40" x1="380.6396" y1="213.9766" x2="409.4439" y2="196.4797"/><line class="cls-40" x1="370.9685" y1="208.1597" x2="378.4354" y2="175.2951"/><line class="cls-40" x1="375.669" y1="211.0211" x2="395.6843" y2="181.7368"/></svg>