<svg id="Layer_1" data-name="Layer 1" xmlns="http://www.w3.org/2000/svg" width="1460" height="990" viewBox="0 0 1460 990"><defs><style>.cls-1{fill:#c8dde8;}.cls-2{fill:#c18c46;}.cls-3{fill:#ffaf31;}.cls-4{fill:#f4da90;}.cls-5{fill:#daa3a3;}.cls-6{fill:#f6c2c9;}.cls-7{fill:#f7d2d7;}.cls-8{fill:#3a3838;}.cls-9{fill:#673a32;}</style></defs><ellipse class="cls-1" cx="1226.5665" cy="846.1041" rx="213.1401" ry="34.2926"/><ellipse class="cls-2" cx="1224.4711" cy="837.044" rx="68.2007" ry="9.0023"/><rect class="cls-2" x="1156.2704" y="819.0397" width="136.4014" height="18.0044"/><path class="cls-3" d="M1292.6718,819.04c0,4.9718-30.5345,9.0021-68.2007,9.0021s-68.2007-4.03-68.2007-9.0021,30.5344-9.0023,68.2007-9.0023S1292.6718,814.0679,1292.6718,819.04Z"/><path class="cls-4" d="M1285.9727,822.9353c-9.8852,3.3334-20.253,4.5474-30.5144,5.6368-10.2918,1.0579-20.6255,1.3787-30.9512,1.4455-10.326-.06-20.6595-.381-30.9517-1.4338-10.2619-1.0889-20.6291-2.3016-30.5164-5.6294a138.6427,138.6427,0,0,0,15.3251,1.7362c5.1144.4228,10.24.697,15.3688.8574,10.2558.3327,20.5134.5466,30.7739.5177,10.2606.0326,20.5182-.1841,30.7743-.5155q7.6931-.2426,15.3684-.8628A137.2569,137.2569,0,0,0,1285.9727,822.9353Z"/><path class="cls-2" d="M1293.1876,819.04c0,4.9718-30.5344,9.0021-68.2006,9.0021s-68.2008-4.03-68.2008-9.0021,30.5346-9.0023,68.2008-9.0023S1293.1876,814.0679,1293.1876,819.04Z"/><rect class="cls-2" x="1156.7862" y="801.0352" width="136.4014" height="18.0045"/><path class="cls-3" d="M1293.1876,801.0352c0,4.9717-30.5344,9.0022-68.2006,9.0022s-68.2008-4.0305-68.2008-9.0022,30.5346-9.0021,68.2008-9.0021S1293.1876,796.0634,1293.1876,801.0352Z"/><path class="cls-4" d="M1286.4885,804.9308c-9.885,3.3333-20.2529,4.5475-30.5143,5.6366-10.2919,1.0581-20.6256,1.3789-30.9512,1.4457-10.3259-.06-20.6595-.3808-30.9518-1.4338-10.2619-1.0886-20.6291-2.3017-30.5163-5.6294a138.5459,138.5459,0,0,0,15.3252,1.7363c5.1142.4228,10.24.697,15.3688.8575,10.2556.3323,20.5133.5464,30.7738.5178,10.2606.0324,20.5182-.1843,30.7742-.5155q7.6932-.2429,15.3686-.863A137.2536,137.2536,0,0,0,1286.4885,804.9308Z"/><path class="cls-2" d="M1288.7988,801.0352c0,4.9717-30.5346,9.0022-68.2008,9.0022s-68.2006-4.0305-68.2006-9.0022,30.5344-9.0021,68.2006-9.0021S1288.7988,796.0634,1288.7988,801.0352Z"/><rect class="cls-2" x="1152.3974" y="783.0308" width="136.4014" height="18.0044"/><ellipse class="cls-3" cx="1220.598" cy="783.0308" rx="68.2007" ry="9.0023"/><path class="cls-4" d="M1282.1,786.9265c-9.8851,3.3333-20.253,4.5473-30.5144,5.6367-10.2918,1.058-20.6255,1.3787-30.9512,1.4455-10.3258-.06-20.6595-.381-30.9517-1.4338-10.2619-1.0889-20.6291-2.3015-30.5164-5.6294a138.6222,138.6222,0,0,0,15.3253,1.7362c5.1142.4228,10.24.697,15.3688.8575,10.2556.3326,20.5133.5466,30.7738.5179,10.2607.0323,20.5181-.1844,30.7742-.5158q7.6931-.2426,15.3686-.8628A137.2323,137.2323,0,0,0,1282.1,786.9265Z"/><ellipse class="cls-2" cx="1229.9025" cy="783.0308" rx="68.2007" ry="9.0023"/><rect class="cls-2" x="1161.7017" y="765.0264" width="136.4014" height="18.0044"/><path class="cls-3" d="M1298.1032,765.0264c0,4.9718-30.5344,9.0022-68.2007,9.0022s-68.2008-4.03-68.2008-9.0022,30.5346-9.0022,68.2008-9.0022S1298.1032,760.0547,1298.1032,765.0264Z"/><path class="cls-4" d="M1291.404,768.9221c-9.8852,3.3332-20.253,4.5473-30.5144,5.6364-10.2916,1.0583-20.6253,1.3791-30.9511,1.4457-10.3259-.06-20.66-.3808-30.9518-1.4338-10.2619-1.0886-20.6291-2.3017-30.5163-5.6294a138.5729,138.5729,0,0,0,15.3252,1.7364c5.1142.4227,10.24.697,15.3688.8574,10.2557.3323,20.5133.5465,30.7738.5178,10.2607.0325,20.5182-.1842,30.7742-.5155q7.6932-.2427,15.3686-.8629A137.3,137.3,0,0,0,1291.404,768.9221Z"/><path class="cls-2" d="M1288.65,765.0264c0,4.9718-30.5346,9.0022-68.2008,9.0022s-68.2008-4.03-68.2008-9.0022,30.5346-9.0022,68.2008-9.0022S1288.65,760.0547,1288.65,765.0264Z"/><rect class="cls-2" x="1152.2482" y="747.0219" width="136.4016" height="18.0045"/><ellipse class="cls-3" cx="1220.449" cy="747.0219" rx="68.2008" ry="9.0023"/><path class="cls-4" d="M1281.9506,750.9176c-9.8853,3.3333-20.253,4.5473-30.5144,5.6367-10.2918,1.058-20.6255,1.3788-30.9512,1.4456-10.3258-.06-20.66-.381-30.9517-1.4338-10.2619-1.0887-20.6293-2.3016-30.5164-5.6294a138.5244,138.5244,0,0,0,15.3252,1.7362c5.1142.423,10.24.697,15.3687.8577,10.2558.3323,20.5134.5463,30.774.5176,10.2605.0324,20.5181-.1844,30.774-.5158q7.6934-.2424,15.3686-.8624A137.302,137.302,0,0,0,1281.9506,750.9176Z"/><ellipse class="cls-2" cx="1224.332" cy="747.0219" rx="68.2008" ry="9.0023"/><rect class="cls-2" x="1156.1312" y="729.0176" width="136.4016" height="18.0044"/><path class="cls-3" d="M1292.5328,729.0176c0,4.9718-30.5346,9.0021-68.2008,9.0021s-68.2008-4.03-68.2008-9.0021,30.5345-9.0023,68.2008-9.0023S1292.5328,724.0458,1292.5328,729.0176Z"/><path class="cls-4" d="M1285.8336,732.9132c-9.8852,3.3332-20.253,4.5474-30.5144,5.6365-10.2918,1.0583-20.6255,1.379-30.9512,1.4456-10.326-.06-20.6595-.3808-30.9517-1.4337-10.2619-1.0887-20.6293-2.3016-30.5164-5.63a138.5738,138.5738,0,0,0,15.3251,1.7364c5.1143.4229,10.24.697,15.3688.8574,10.2558.3324,20.5134.5468,30.7739.5178,10.2606.0325,20.5182-.1842,30.7741-.5155q7.6933-.2427,15.3686-.8627A137.3281,137.3281,0,0,0,1285.8336,732.9132Z"/><path class="cls-2" d="M1297.1222,729.0176c0,4.9718-30.5344,9.0021-68.2006,9.0021s-68.2008-4.03-68.2008-9.0021,30.5345-9.0023,68.2008-9.0023S1297.1222,724.0458,1297.1222,729.0176Z"/><rect class="cls-2" x="1160.7208" y="711.0131" width="136.4014" height="18.0045"/><path class="cls-3" d="M1297.1222,711.0131c0,4.9718-30.5344,9.0022-68.2006,9.0022s-68.2008-4.03-68.2008-9.0022,30.5345-9.0021,68.2008-9.0021S1297.1222,706.0413,1297.1222,711.0131Z"/><path class="cls-4" d="M1290.423,714.9087c-9.885,3.3334-20.2528,4.5474-30.5142,5.6368-10.2919,1.058-20.6256,1.3787-30.9512,1.4455-10.326-.06-20.6595-.381-30.9519-1.4338-10.2618-1.0886-20.6291-2.3016-30.5162-5.6294a138.5172,138.5172,0,0,0,15.3251,1.7362c5.1143.4231,10.24.6971,15.3688.8577,10.2556.3324,20.5134.5463,30.7738.5177,10.2607.0323,20.5183-.1844,30.7742-.5158q7.6934-.2425,15.3686-.8625A137.2958,137.2958,0,0,0,1290.423,714.9087Z"/><path class="cls-2" d="M1295.7508,711.0131c0,4.9718-30.5346,9.0022-68.2008,9.0022s-68.2008-4.03-68.2008-9.0022,30.5346-9.0021,68.2008-9.0021S1295.7508,706.0413,1295.7508,711.0131Z"/><rect class="cls-2" x="1159.3492" y="693.0087" width="136.4016" height="18.0044"/><ellipse class="cls-3" cx="1227.55" cy="693.0087" rx="68.2008" ry="9.0023"/><path class="cls-4" d="M1289.0516,696.9044c-9.8851,3.3335-20.253,4.5473-30.5144,5.6367-10.2919,1.058-20.6254,1.3787-30.9512,1.4457-10.3259-.06-20.6595-.3811-30.9518-1.4341-10.2619-1.0886-20.6291-2.3016-30.5163-5.6293a138.5724,138.5724,0,0,0,15.3252,1.7362c5.1142.423,10.24.697,15.3687.8575,10.2557.3326,20.5134.5467,30.7739.5178,10.2608.0324,20.5184-.1843,30.7741-.5155q7.6934-.2426,15.3688-.8628A137.3479,137.3479,0,0,0,1289.0516,696.9044Z"/><ellipse class="cls-2" cx="1226.4523" cy="693.0087" rx="68.2007" ry="9.0023"/><rect class="cls-2" x="1158.2516" y="675.0044" width="136.4014" height="18.0044"/><path class="cls-3" d="M1294.653,675.0044c0,4.9717-30.5346,9.0021-68.2008,9.0021s-68.2006-4.03-68.2006-9.0021,30.5344-9.0023,68.2006-9.0023S1294.653,670.0326,1294.653,675.0044Z"/><path class="cls-4" d="M1287.9538,678.9c-9.8851,3.3333-20.253,4.5473-30.5144,5.6367-10.2917,1.058-20.6254,1.3787-30.9512,1.4455-10.3258-.06-20.6595-.381-30.9517-1.4338-10.2618-1.0886-20.6291-2.3015-30.5164-5.6294a138.5235,138.5235,0,0,0,15.3253,1.7362c5.1143.4231,10.24.6972,15.3688.8578,10.2556.3323,20.5134.5463,30.7739.5176,10.26.0326,20.518-.1844,30.7741-.5155q7.6931-.243,15.3685-.8628A137.3,137.3,0,0,0,1287.9538,678.9Z"/><path class="cls-2" d="M1290.2239,675.0044c0,4.9717-30.5346,9.0021-68.2008,9.0021s-68.2007-4.03-68.2007-9.0021,30.5344-9.0023,68.2007-9.0023S1290.2239,670.0326,1290.2239,675.0044Z"/><rect class="cls-2" x="1153.8224" y="656.9999" width="136.4014" height="18.0045"/><ellipse class="cls-3" cx="1222.0231" cy="656.9999" rx="68.2007" ry="9.0023"/><path class="cls-4" d="M1283.5247,660.8955c-9.8852,3.3335-20.253,4.5473-30.5144,5.6367-10.2918,1.058-20.6255,1.3788-30.9512,1.4457-10.3258-.06-20.6595-.3811-30.9517-1.4341-10.2619-1.0886-20.6291-2.3015-30.5164-5.6292a138.6214,138.6214,0,0,0,15.3251,1.7362c5.1144.4229,10.24.697,15.369.8576,10.2556.3324,20.5132.5466,30.7738.5176,10.2605.0325,20.5182-.1842,30.7742-.5155q7.6932-.2426,15.3684-.8628A137.2544,137.2544,0,0,0,1283.5247,660.8955Z"/><ellipse class="cls-2" cx="1222.8602" cy="656.9999" rx="68.2007" ry="9.0023"/><rect class="cls-2" x="1154.6594" y="638.9955" width="136.4014" height="18.0044"/><path class="cls-3" d="M1291.0608,638.9955c0,4.9718-30.5344,9.0021-68.2006,9.0021s-68.2008-4.03-68.2008-9.0021,30.5346-9.0023,68.2008-9.0023S1291.0608,634.0237,1291.0608,638.9955Z"/><path class="cls-4" d="M1284.3618,642.891c-9.8851,3.3333-20.253,4.5473-30.5144,5.6367-10.2919,1.058-20.6254,1.3788-30.9513,1.4456-10.3258-.06-20.6593-.3809-30.9517-1.4338-10.2619-1.0887-20.6291-2.3016-30.5163-5.6294a138.5217,138.5217,0,0,0,15.3252,1.7362c5.1142.423,10.24.6973,15.3688.8577,10.2556.3323,20.5133.5463,30.7738.5176,10.2607.0327,20.5182-.184,30.7742-.5155q7.6932-.2424,15.3686-.8627A137.2794,137.2794,0,0,0,1284.3618,642.891Z"/><path class="cls-2" d="M1298.9193,638.9955c0,4.9718-30.5344,9.0021-68.2007,9.0021s-68.2008-4.03-68.2008-9.0021,30.5346-9.0023,68.2008-9.0023S1298.9193,634.0237,1298.9193,638.9955Z"/><rect class="cls-2" x="1162.5178" y="620.991" width="136.4014" height="18.0045"/><path class="cls-3" d="M1298.9193,620.991c0,4.9718-30.5344,9.0022-68.2007,9.0022s-68.2008-4.03-68.2008-9.0022,30.5346-9.0021,68.2008-9.0021S1298.9193,616.0192,1298.9193,620.991Z"/><path class="cls-4" d="M1292.22,624.8866c-9.8852,3.3335-20.253,4.5474-30.5144,5.6368-10.2916,1.058-20.6253,1.3787-30.9511,1.4457-10.3259-.06-20.66-.3812-30.9518-1.4338-10.2619-1.089-20.6291-2.3018-30.5164-5.63a138.6222,138.6222,0,0,0,15.3253,1.7362c5.1142.4229,10.24.697,15.3688.8576,10.2557.3325,20.5133.5466,30.7738.5176,10.2607.0325,20.5182-.1842,30.7742-.5155q7.6932-.2424,15.3686-.8627A137.2538,137.2538,0,0,0,1292.22,624.8866Z"/><path class="cls-2" d="M1292.4042,620.991c0,4.9718-30.5344,9.0022-68.2006,9.0022s-68.2008-4.03-68.2008-9.0022,30.5345-9.0021,68.2008-9.0021S1292.4042,616.0192,1292.4042,620.991Z"/><rect class="cls-2" x="1156.0028" y="602.9866" width="136.4014" height="18.0044"/><ellipse class="cls-3" cx="1224.2035" cy="602.9866" rx="68.2007" ry="9.0023"/><path class="cls-4" d="M1285.705,606.8821c-9.8851,3.3334-20.2528,4.5475-30.5144,5.6368-10.2916,1.058-20.6254,1.3787-30.951,1.4456-10.326-.06-20.66-.3809-30.9517-1.4339-10.2619-1.0886-20.6293-2.3016-30.5164-5.6294a138.5723,138.5723,0,0,0,15.325,1.7365c5.1144.4228,10.24.697,15.3689.8574,10.2558.3324,20.5132.5463,30.7738.5177,10.2607.0326,20.5183-.1841,30.7742-.5155q7.6933-.2425,15.3686-.8628A137.2487,137.2487,0,0,0,1285.705,606.8821Z"/><ellipse class="cls-2" cx="1230.2236" cy="602.9866" rx="68.2007" ry="9.0023"/><rect class="cls-2" x="1162.0229" y="584.9823" width="136.4014" height="18.0044"/><path class="cls-3" d="M1298.4243,584.9823c0,4.9718-30.5345,9.0021-68.2007,9.0021s-68.2007-4.03-68.2007-9.0021,30.5344-9.0023,68.2007-9.0023S1298.4243,580.0105,1298.4243,584.9823Z"/><path class="cls-4" d="M1291.7252,588.8779c-9.8852,3.3334-20.253,4.5472-30.5144,5.6366-10.2918,1.058-20.6255,1.3787-30.9511,1.4457-10.3259-.06-20.66-.3811-30.9518-1.4338-10.2619-1.0889-20.6293-2.3017-30.5163-5.6294a138.6191,138.6191,0,0,0,15.325,1.736c5.1143.423,10.24.697,15.3688.8576,10.2558.3325,20.5134.5466,30.774.518,10.2606.0323,20.5182-.1844,30.7742-.5158q7.6932-.2425,15.3686-.8628A137.23,137.23,0,0,0,1291.7252,588.8779Z"/><path class="cls-2" d="M1289.5342,584.9823c0,4.9718-30.5346,9.0021-68.2008,9.0021s-68.2006-4.03-68.2006-9.0021,30.5344-9.0023,68.2006-9.0023S1289.5342,580.0105,1289.5342,584.9823Z"/><rect class="cls-2" x="1153.1328" y="566.9778" width="136.4014" height="18.0045"/><ellipse class="cls-3" cx="1221.3334" cy="566.9778" rx="68.2007" ry="9.0023"/><path class="cls-4" d="M1282.835,570.8736c-9.8851,3.333-20.253,4.5473-30.5144,5.6364-10.2917,1.0583-20.6254,1.379-30.9512,1.4457-10.3259-.06-20.6595-.3808-30.9518-1.434-10.2617-1.0886-20.6291-2.3015-30.5163-5.6294a138.5491,138.5491,0,0,0,15.3252,1.7365c5.1142.4228,10.24.697,15.3688.8575,10.2557.3323,20.5133.5464,30.7738.5176,10.2608.0326,20.5184-.1841,30.7741-.5155q7.6937-.2425,15.3688-.8628A137.3238,137.3238,0,0,0,1282.835,570.8736Z"/><ellipse class="cls-2" cx="1230.6509" cy="566.9778" rx="68.2008" ry="9.0023"/><rect class="cls-2" x="1162.4501" y="548.9734" width="136.4016" height="18.0044"/><path class="cls-3" d="M1298.8517,548.9734c0,4.9718-30.5346,9.0021-68.2008,9.0021s-68.2008-4.03-68.2008-9.0021,30.5346-9.0022,68.2008-9.0022S1298.8517,544.0016,1298.8517,548.9734Z"/><path class="cls-4" d="M1292.1525,552.8691c-9.8853,3.3333-20.253,4.5471-30.5144,5.6365-10.2917,1.0582-20.6254,1.3789-30.9512,1.4457-10.3258-.06-20.66-.3811-30.9517-1.4338-10.2618-1.0886-20.6292-2.3017-30.5164-5.6294a138.5,138.5,0,0,0,15.3252,1.7361c5.1142.4231,10.24.697,15.3688.8577,10.2557.3323,20.5133.5465,30.7739.5178,10.2605.0323,20.5181-.1844,30.774-.5158q7.6934-.2425,15.3687-.8626A137.2762,137.2762,0,0,0,1292.1525,552.8691Z"/><path class="cls-2" d="M1292.6148,548.9734c0,4.9718-30.5345,9.0021-68.2008,9.0021s-68.2006-4.03-68.2006-9.0021,30.5344-9.0022,68.2006-9.0022S1292.6148,544.0016,1292.6148,548.9734Z"/><rect class="cls-2" x="1156.2134" y="530.9689" width="136.4014" height="18.0045"/><path class="cls-3" d="M1292.6148,530.9689c0,4.9718-30.5345,9.0023-68.2008,9.0023s-68.2006-4.03-68.2006-9.0023,30.5344-9.0021,68.2006-9.0021S1292.6148,525.9971,1292.6148,530.9689Z"/><path class="cls-4" d="M1285.9157,534.8647c-9.8852,3.3332-20.2531,4.5473-30.5145,5.6364-10.2917,1.0583-20.6254,1.3791-30.9512,1.4457-10.3257-.06-20.6594-.3808-30.9517-1.4338-10.2618-1.0888-20.6291-2.3017-30.5164-5.63a138.5776,138.5776,0,0,0,15.3253,1.7365c5.1143.4227,10.24.697,15.3688.8574,10.2556.3323,20.5134.5466,30.7739.5176,10.26.0327,20.518-.184,30.774-.5155q7.6932-.2424,15.3686-.8627A137.304,137.304,0,0,0,1285.9157,534.8647Z"/><path class="cls-2" d="M1296.8327,530.9689c0,4.9718-30.5345,9.0023-68.2008,9.0023s-68.2006-4.03-68.2006-9.0023,30.5344-9.0021,68.2006-9.0021S1296.8327,525.9971,1296.8327,530.9689Z"/><rect class="cls-2" x="1160.4313" y="512.9645" width="136.4014" height="18.0044"/><ellipse class="cls-3" cx="1228.632" cy="512.9645" rx="68.2007" ry="9.0023"/><path class="cls-4" d="M1290.1336,516.86c-9.8852,3.3333-20.253,4.5472-30.5145,5.6366-10.2917,1.0581-20.6254,1.3789-30.9512,1.4457-10.3259-.06-20.6594-.3812-30.9518-1.4338-10.2617-1.0887-20.6291-2.3018-30.5162-5.6294a138.4742,138.4742,0,0,0,15.3251,1.736c5.1142.4231,10.24.6973,15.3688.8577,10.2557.3324,20.5133.5465,30.7738.5178,10.2608.0324,20.5184-.1844,30.7742-.5158q7.6935-.2424,15.3687-.8626A137.2581,137.2581,0,0,0,1290.1336,516.86Z"/><ellipse class="cls-2" cx="1226.9867" cy="512.9645" rx="68.2007" ry="9.0023"/><rect class="cls-2" x="1158.786" y="494.9602" width="136.4014" height="18.0044"/><path class="cls-3" d="M1295.1874,494.96c0,4.9718-30.5345,9.0021-68.2006,9.0021s-68.2008-4.03-68.2008-9.0021,30.5345-9.0023,68.2008-9.0023S1295.1874,489.9884,1295.1874,494.96Z"/><path class="cls-4" d="M1288.4883,498.8558c-9.8852,3.3334-20.2529,4.5474-30.5145,5.6368-10.2916,1.058-20.6254,1.3787-30.951,1.4455-10.326-.06-20.66-.381-30.9519-1.4339-10.2617-1.0888-20.6291-2.3018-30.5162-5.6293a138.6409,138.6409,0,0,0,15.325,1.7362c5.1144.4228,10.24.697,15.3688.8574,10.2559.3327,20.5133.5466,30.774.5177,10.2606.0326,20.5182-.1841,30.7741-.5155q7.6934-.2425,15.3686-.8628A137.276,137.276,0,0,0,1288.4883,498.8558Z"/><ellipse class="cls-2" cx="1139.2838" cy="849.9419" rx="68.2007" ry="9.0023"/><rect class="cls-2" x="1071.083" y="831.9374" width="136.4014" height="18.0045"/><path class="cls-3" d="M1207.4844,831.9374c0,4.9718-30.5344,9.0023-68.2006,9.0023s-68.2008-4.03-68.2008-9.0023,30.5346-9.0021,68.2008-9.0021S1207.4844,826.9656,1207.4844,831.9374Z"/><path class="cls-4" d="M1200.7854,835.8331c-9.8851,3.3335-20.253,4.5473-30.5144,5.6367-10.2919,1.058-20.6254,1.3787-30.9514,1.4457-10.3257-.06-20.6593-.3811-30.9516-1.4338-10.2619-1.0889-20.6291-2.3017-30.5163-5.63a138.57,138.57,0,0,0,15.3252,1.7362c5.1142.423,10.24.697,15.3687.8576,10.2557.3325,20.5134.5466,30.7739.5178,10.2606.0323,20.5182-.1844,30.7741-.5156q7.6934-.2426,15.3687-.8628A137.2816,137.2816,0,0,0,1200.7854,835.8331Z"/><path class="cls-2" d="M1203.3106,831.9374c0,4.9718-30.5346,9.0023-68.2008,9.0023s-68.2008-4.03-68.2008-9.0023,30.5346-9.0021,68.2008-9.0021S1203.3106,826.9656,1203.3106,831.9374Z"/><rect class="cls-2" x="1066.909" y="813.9331" width="136.4016" height="18.0044"/><ellipse class="cls-3" cx="1135.1098" cy="813.9331" rx="68.2008" ry="9.0023"/><path class="cls-4" d="M1196.6113,817.8289c-9.885,3.333-20.2529,4.5472-30.5143,5.6364-10.2917,1.0583-20.6254,1.379-30.9512,1.4455-10.3259-.06-20.6595-.3808-30.9517-1.4338-10.2618-1.0886-20.6291-2.3015-30.5164-5.6294a138.5972,138.5972,0,0,0,15.3252,1.7365c5.1144.4228,10.24.697,15.3688.8575,10.2557.3323,20.5133.5463,30.7738.5176,10.2606.0326,20.5182-.1841,30.7743-.5155q7.6931-.2425,15.3685-.8628A137.371,137.371,0,0,0,1196.6113,817.8289Z"/><ellipse class="cls-2" cx="1133.7541" cy="813.9331" rx="68.2008" ry="9.0023"/><rect class="cls-2" x="1065.5533" y="795.9287" width="136.4016" height="18.0044"/><path class="cls-3" d="M1201.9549,795.9287c0,4.9718-30.5345,9.0021-68.2008,9.0021s-68.2008-4.03-68.2008-9.0021,30.5346-9.0022,68.2008-9.0022S1201.9549,790.9569,1201.9549,795.9287Z"/><path class="cls-4" d="M1195.2558,799.8242c-9.8854,3.3335-20.2531,4.5473-30.5145,5.6367-10.2917,1.058-20.6254,1.3788-30.9512,1.4457-10.3257-.06-20.66-.3811-30.9517-1.4338-10.2618-1.0887-20.6292-2.3017-30.5164-5.63a138.5,138.5,0,0,0,15.3252,1.7362c5.1142.4231,10.24.697,15.3688.8577,10.2557.3323,20.5133.5465,30.774.5176,10.2605.0324,20.518-.1843,30.774-.5156q7.6932-.2425,15.3686-.8626A137.2341,137.2341,0,0,0,1195.2558,799.8242Z"/><path class="cls-2" d="M1198.595,795.9287c0,4.9718-30.5345,9.0021-68.2007,9.0021s-68.2008-4.03-68.2008-9.0021,30.5345-9.0022,68.2008-9.0022S1198.595,790.9569,1198.595,795.9287Z"/><rect class="cls-2" x="1062.1935" y="777.9242" width="136.4016" height="18.0045"/><path class="cls-3" d="M1198.595,777.9242c0,4.9718-30.5345,9.0023-68.2007,9.0023s-68.2008-4.0305-68.2008-9.0023,30.5345-9.0021,68.2008-9.0021S1198.595,772.9524,1198.595,777.9242Z"/><path class="cls-4" d="M1191.8959,781.82c-9.8852,3.333-20.253,4.5472-30.5144,5.6364-10.2919,1.0583-20.6255,1.3791-30.9513,1.4456-10.3259-.06-20.6594-.3809-30.9518-1.4338-10.2618-1.0887-20.6291-2.3016-30.5162-5.6294a138.5659,138.5659,0,0,0,15.3251,1.7365c5.1143.4227,10.24.697,15.3688.8574,10.2556.3323,20.5134.5466,30.7738.5176,10.2607.0327,20.5183-.184,30.7742-.5155q7.6935-.2424,15.3686-.8627A137.3485,137.3485,0,0,0,1191.8959,781.82Z"/><path class="cls-2" d="M1205.8612,777.9242c0,4.9718-30.5345,9.0023-68.2007,9.0023s-68.2007-4.0305-68.2007-9.0023,30.5344-9.0021,68.2007-9.0021S1205.8612,772.9524,1205.8612,777.9242Z"/><rect class="cls-2" x="1069.4598" y="759.9198" width="136.4014" height="18.0044"/><ellipse class="cls-3" cx="1137.6605" cy="759.9198" rx="68.2007" ry="9.0023"/><path class="cls-4" d="M1199.1621,763.8155c-9.8852,3.3333-20.253,4.5472-30.5144,5.6366-10.2918,1.058-20.6255,1.3787-30.9513,1.4457-10.3257-.06-20.6594-.3812-30.9516-1.4338-10.2619-1.0888-20.6293-2.3018-30.5163-5.6294a138.4751,138.4751,0,0,0,15.325,1.736c5.1143.4231,10.24.6973,15.3688.8578,10.2558.3323,20.5133.5464,30.774.5176,10.2606.0325,20.5182-.1843,30.774-.5157q7.6935-.2424,15.3688-.8626A137.2563,137.2563,0,0,0,1199.1621,763.8155Z"/><ellipse class="cls-2" cx="1140.6449" cy="759.9198" rx="68.2007" ry="9.0023"/><rect class="cls-2" x="1072.4442" y="741.9153" width="136.4014" height="18.0045"/><path class="cls-3" d="M1208.8456,741.9153c0,4.9718-30.5344,9.0023-68.2006,9.0023s-68.2008-4.03-68.2008-9.0023,30.5346-9.0021,68.2008-9.0021S1208.8456,736.9436,1208.8456,741.9153Z"/><path class="cls-4" d="M1202.1466,745.8111c-9.8851,3.3334-20.253,4.5474-30.5144,5.6368-10.2919,1.058-20.6255,1.3787-30.9514,1.4455-10.3257-.06-20.6593-.381-30.9516-1.4341-10.2619-1.0886-20.6292-2.3016-30.5163-5.6291a138.639,138.639,0,0,0,15.3252,1.7362c5.1142.4228,10.24.697,15.3687.8574,10.2556.3327,20.5134.5467,30.7739.5177,10.2606.0326,20.5182-.1841,30.7741-.5155q7.6934-.2426,15.3686-.8628A137.33,137.33,0,0,0,1202.1466,745.8111Z"/><path class="cls-2" d="M1200.743,741.9153c0,4.9718-30.5344,9.0023-68.2006,9.0023s-68.2008-4.03-68.2008-9.0023,30.5346-9.0021,68.2008-9.0021S1200.743,736.9436,1200.743,741.9153Z"/><rect class="cls-2" x="1064.3416" y="723.911" width="136.4014" height="18.0044"/><ellipse class="cls-3" cx="1132.5424" cy="723.911" rx="68.2007" ry="9.0023"/><path class="cls-4" d="M1194.0439,727.8066c-9.885,3.3334-20.2529,4.5472-30.5143,5.6366-10.2919,1.0582-20.6256,1.3789-30.9514,1.4457-10.3257-.06-20.6593-.3811-30.9516-1.4338-10.2619-1.0886-20.6291-2.3017-30.5163-5.6294a138.4975,138.4975,0,0,0,15.3252,1.7361c5.1142.423,10.24.6972,15.3688.8577,10.2556.3323,20.5133.5464,30.7738.5178,10.2606.0325,20.5182-.1844,30.7741-.5155q7.6933-.243,15.3687-.8629A137.28,137.28,0,0,0,1194.0439,727.8066Z"/><ellipse class="cls-2" cx="1136.2018" cy="723.911" rx="68.2007" ry="9.0023"/><rect class="cls-2" x="1068.001" y="705.9066" width="136.4014" height="18.0044"/><path class="cls-3" d="M1204.4024,705.9066c0,4.9718-30.5345,9.0021-68.2006,9.0021s-68.2008-4.03-68.2008-9.0021,30.5346-9.0022,68.2008-9.0022S1204.4024,700.9348,1204.4024,705.9066Z"/><path class="cls-4" d="M1197.7033,709.8023c-9.8852,3.3333-20.253,4.5473-30.5144,5.6367-10.2916,1.058-20.6255,1.3787-30.9511,1.4455-10.3259-.06-20.66-.3809-30.9518-1.4339-10.2619-1.0888-20.6291-2.3017-30.5163-5.6293a138.6223,138.6223,0,0,0,15.325,1.7362c5.1144.4228,10.24.697,15.369.8575,10.2557.3326,20.5132.5466,30.7738.5176,10.2606.0326,20.5182-.1841,30.7742-.5155q7.6932-.2426,15.3686-.8628A137.2531,137.2531,0,0,0,1197.7033,709.8023Z"/><path class="cls-2" d="M1207.6411,705.9066c0,4.9718-30.5344,9.0021-68.2007,9.0021s-68.2007-4.03-68.2007-9.0021,30.5345-9.0022,68.2007-9.0022S1207.6411,700.9348,1207.6411,705.9066Z"/><rect class="cls-2" x="1071.2397" y="687.9021" width="136.4014" height="18.0045"/><path class="cls-3" d="M1207.6411,687.9021c0,4.9718-30.5344,9.0023-68.2007,9.0023s-68.2007-4.03-68.2007-9.0023S1101.7742,678.9,1139.44,678.9,1207.6411,682.93,1207.6411,687.9021Z"/><path class="cls-4" d="M1200.9419,691.7978c-9.8851,3.3333-20.2528,4.5471-30.5144,5.6366-10.2916,1.0581-20.6255,1.3788-30.9511,1.4456-10.3259-.06-20.66-.3808-30.9516-1.4338-10.2619-1.0886-20.6293-2.3017-30.5164-5.6294a138.4966,138.4966,0,0,0,15.325,1.7361c5.1143.4231,10.24.6973,15.3689.8577,10.2557.3323,20.5132.5465,30.7738.5178,10.2607.0325,20.5183-.1842,30.7742-.5155q7.6932-.243,15.3686-.8629A137.2772,137.2772,0,0,0,1200.9419,691.7978Z"/><path class="cls-2" d="M1207.7356,687.9021c0,4.9718-30.5345,9.0023-68.2008,9.0023s-68.2007-4.03-68.2007-9.0023,30.5345-9.0021,68.2007-9.0021S1207.7356,682.93,1207.7356,687.9021Z"/><rect class="cls-2" x="1071.3341" y="669.8978" width="136.4016" height="18.0044"/><ellipse class="cls-3" cx="1139.5348" cy="669.8978" rx="68.2008" ry="9.0023"/><path class="cls-4" d="M1201.0365,673.7934c-9.8852,3.3333-20.253,4.5473-30.5144,5.6367-10.2918,1.058-20.6255,1.3788-30.9513,1.4456-10.3259-.06-20.6594-.381-30.9518-1.4338-10.2617-1.089-20.6291-2.3016-30.5162-5.6294a138.6372,138.6372,0,0,0,15.3251,1.7362c5.1142.4227,10.24.697,15.3688.8574,10.2557.3326,20.5133.5466,30.7738.5176,10.2607.0327,20.5183-.184,30.7742-.5155q7.6935-.2424,15.3686-.8627A137.2777,137.2777,0,0,0,1201.0365,673.7934Z"/><ellipse class="cls-2" cx="1131.1355" cy="669.8978" rx="68.2008" ry="9.0023"/><rect class="cls-2" x="1062.9347" y="651.8932" width="136.4016" height="18.0045"/><path class="cls-3" d="M1199.3363,651.8932c0,4.9718-30.5346,9.0023-68.2008,9.0023s-68.2008-4.03-68.2008-9.0023,30.5345-9.0021,68.2008-9.0021S1199.3363,646.9215,1199.3363,651.8932Z"/><path class="cls-4" d="M1192.6371,655.7889c-9.8852,3.3333-20.253,4.5475-30.5144,5.6366-10.2919,1.0581-20.6255,1.3789-30.9512,1.4457-10.326-.06-20.6595-.3809-30.9519-1.4338-10.2618-1.0887-20.6291-2.3018-30.5162-5.6294a138.5469,138.5469,0,0,0,15.3251,1.7363c5.1143.4228,10.24.697,15.3688.8575,10.2556.3323,20.5134.5464,30.7739.5177,10.2608.0325,20.5182-.1842,30.7741-.5155q7.6933-.2427,15.3688-.8627A137.3039,137.3039,0,0,0,1192.6371,655.7889Z"/><path class="cls-2" d="M1203.7413,651.8932c0,4.9718-30.5346,9.0023-68.2008,9.0023s-68.2006-4.03-68.2006-9.0023,30.5344-9.0021,68.2006-9.0021S1203.7413,646.9215,1203.7413,651.8932Z"/><rect class="cls-2" x="1067.3399" y="633.8889" width="136.4014" height="18.0044"/><ellipse class="cls-3" cx="1135.5406" cy="633.8889" rx="68.2007" ry="9.0023"/><path class="cls-4" d="M1197.0421,637.7845c-9.8851,3.3334-20.253,4.5474-30.5144,5.6368-10.2917,1.058-20.6254,1.3787-30.9512,1.4455-10.3258-.06-20.6595-.381-30.9517-1.4338-10.2618-1.0889-20.6292-2.3016-30.5164-5.6294a138.6472,138.6472,0,0,0,15.3252,1.7362c5.1142.4228,10.24.697,15.3688.8574,10.2557.3327,20.5133.5467,30.774.518,10.2606.0323,20.518-.1844,30.774-.5158q7.6932-.2425,15.3687-.8628A137.2534,137.2534,0,0,0,1197.0421,637.7845Z"/><ellipse class="cls-2" cx="1322.1214" cy="849.9419" rx="68.2007" ry="9.0023"/><rect class="cls-2" x="1253.9206" y="831.9374" width="136.4014" height="18.0045"/><path class="cls-3" d="M1390.322,831.9374c0,4.9718-30.5344,9.0023-68.2006,9.0023s-68.2008-4.03-68.2008-9.0023,30.5346-9.0021,68.2008-9.0021S1390.322,826.9656,1390.322,831.9374Z"/><path class="cls-4" d="M1383.623,835.8331c-9.8853,3.3335-20.2531,4.5473-30.5145,5.6367-10.2916,1.058-20.6253,1.3787-30.9511,1.4457-10.3258-.06-20.66-.3811-30.9518-1.4338-10.2619-1.0889-20.6291-2.3017-30.5164-5.63a138.5769,138.5769,0,0,0,15.3253,1.7362c5.1142.423,10.24.697,15.3688.8576,10.2557.3325,20.5133.5466,30.774.5178,10.26.0323,20.518-.1844,30.774-.5156q7.6932-.2426,15.3686-.8628A137.2816,137.2816,0,0,0,1383.623,835.8331Z"/><path class="cls-2" d="M1385.7357,831.9374c0,4.9718-30.5346,9.0023-68.2008,9.0023s-68.2006-4.03-68.2006-9.0023,30.5344-9.0021,68.2006-9.0021S1385.7357,826.9656,1385.7357,831.9374Z"/><rect class="cls-2" x="1249.3343" y="813.9331" width="136.4014" height="18.0044"/><ellipse class="cls-3" cx="1317.5349" cy="813.9331" rx="68.2007" ry="9.0023"/><path class="cls-4" d="M1379.0365,817.8289c-9.8851,3.333-20.253,4.5472-30.5144,5.6364-10.2918,1.0583-20.6253,1.379-30.9512,1.4455-10.3258-.06-20.6595-.3808-30.9517-1.4338-10.2619-1.0886-20.6291-2.3015-30.5164-5.6294a138.5962,138.5962,0,0,0,15.3253,1.7365c5.1142.4228,10.24.697,15.3688.8575,10.2556.3323,20.5133.5463,30.7738.5176,10.2605.0326,20.5181-.1841,30.7742-.5155q7.6932-.2425,15.3684-.8628A137.3718,137.3718,0,0,0,1379.0365,817.8289Z"/><ellipse class="cls-2" cx="1316.3259" cy="813.9331" rx="68.2008" ry="9.0023"/><rect class="cls-2" x="1248.1251" y="795.9287" width="136.4016" height="18.0044"/><path class="cls-3" d="M1384.5267,795.9287c0,4.9718-30.5346,9.0021-68.2008,9.0021s-68.2008-4.03-68.2008-9.0021,30.5346-9.0022,68.2008-9.0022S1384.5267,790.9569,1384.5267,795.9287Z"/><path class="cls-4" d="M1377.8274,799.8242c-9.8852,3.3335-20.2529,4.5473-30.5143,5.6367-10.2917,1.058-20.6254,1.3788-30.9512,1.4457-10.3259-.06-20.66-.3811-30.9517-1.4338-10.2618-1.0887-20.6292-2.3017-30.5164-5.63a138.5,138.5,0,0,0,15.3252,1.7362c5.1142.4231,10.24.697,15.3688.8577,10.2557.3323,20.5133.5465,30.7738.5176,10.2606.0324,20.5182-.1843,30.7741-.5156q7.6933-.2425,15.3687-.8626A137.2305,137.2305,0,0,0,1377.8274,799.8242Z"/><path class="cls-2" d="M1394.4376,795.9287c0,4.9718-30.5345,9.0021-68.2006,9.0021s-68.2008-4.03-68.2008-9.0021,30.5346-9.0022,68.2008-9.0022S1394.4376,790.9569,1394.4376,795.9287Z"/><rect class="cls-2" x="1258.0362" y="777.9242" width="136.4014" height="18.0045"/><path class="cls-3" d="M1394.4376,777.9242c0,4.9718-30.5345,9.0023-68.2006,9.0023s-68.2008-4.0305-68.2008-9.0023,30.5346-9.0021,68.2008-9.0021S1394.4376,772.9524,1394.4376,777.9242Z"/><path class="cls-4" d="M1387.7385,781.82c-9.8852,3.333-20.253,4.5472-30.5145,5.6364-10.2917,1.0583-20.6253,1.3791-30.9512,1.4456-10.3257-.06-20.6594-.3809-30.9516-1.4338-10.2619-1.0887-20.6292-2.3016-30.5164-5.6294a138.5722,138.5722,0,0,0,15.3253,1.7365c5.1142.4227,10.24.697,15.3687.8574,10.2556.3323,20.5134.5466,30.7739.5176,10.2606.0327,20.5182-.184,30.7741-.5155q7.6934-.2424,15.3686-.8627A137.3494,137.3494,0,0,0,1387.7385,781.82Z"/><path class="cls-2" d="M1386.1441,777.9242c0,4.9718-30.5346,9.0023-68.2008,9.0023s-68.2006-4.0305-68.2006-9.0023,30.5344-9.0021,68.2006-9.0021S1386.1441,772.9524,1386.1441,777.9242Z"/><rect class="cls-2" x="1249.7427" y="759.9198" width="136.4014" height="18.0044"/><ellipse class="cls-3" cx="1317.9434" cy="759.9198" rx="68.2007" ry="9.0023"/><path class="cls-4" d="M1379.4449,763.8155c-9.8851,3.3333-20.253,4.5472-30.5144,5.6366-10.2917,1.058-20.6254,1.3787-30.9512,1.4457-10.3258-.06-20.6595-.3812-30.9517-1.4338-10.2618-1.0888-20.6292-2.3018-30.5164-5.6294a138.4787,138.4787,0,0,0,15.3252,1.736c5.1142.4231,10.24.6973,15.3688.8578,10.2557.3323,20.5133.5464,30.774.5176,10.2606.0325,20.518-.1843,30.7739-.5157q7.6934-.2424,15.3688-.8626A137.2536,137.2536,0,0,0,1379.4449,763.8155Z"/><ellipse class="cls-2" cx="1324.1214" cy="759.9198" rx="68.2007" ry="9.0023"/><rect class="cls-2" x="1255.9207" y="741.9153" width="136.4014" height="18.0045"/><path class="cls-3" d="M1392.3221,741.9153c0,4.9718-30.5344,9.0023-68.2006,9.0023s-68.2008-4.03-68.2008-9.0023,30.5345-9.0021,68.2008-9.0021S1392.3221,736.9436,1392.3221,741.9153Z"/><path class="cls-4" d="M1385.6231,745.8111c-9.8851,3.3334-20.253,4.5474-30.5144,5.6368-10.2919,1.058-20.6255,1.3787-30.9512,1.4455-10.3259-.06-20.6595-.381-30.9519-1.4341-10.2618-1.0886-20.6291-2.3016-30.5162-5.6291a138.64,138.64,0,0,0,15.3251,1.7362c5.1143.4228,10.24.697,15.3688.8574,10.2556.3327,20.5134.5467,30.7739.5177,10.2606.0326,20.5182-.1841,30.7741-.5155q7.6933-.2426,15.3686-.8628A137.3276,137.3276,0,0,0,1385.6231,745.8111Z"/><ellipse class="cls-1" cx="551.5665" cy="851.0525" rx="529.8339" ry="116.7287"/><path class="cls-5" d="M870.3965,713.1V847.7592s-.1667,40.9832-64.5688,41.715-104.6533-98.7987-104.6533-98.7987Z"/><path class="cls-6" d="M963.2645,279.3693s112.526-171.7164,33.0414-239.4178S733.4749,130.463,715.3122,149.2959,963.2645,279.3693,963.2645,279.3693Z"/><path class="cls-7" d="M720.7865,160.34a2.8543,2.8543,0,0,1,.5489-.805c18.15-18.8084,201.5126-177.0329,280.9908-109.3376a76.0778,76.0778,0,0,1,13.0631,14.3081,75.8468,75.8468,0,0,0-19.1009-24.5536C916.81-27.7433,733.4839,130.481,715.2977,149.2892,713.0289,151.6678,715.2245,155.4732,720.7865,160.34Z"/><path class="cls-5" d="M936.3793,285.6418s123.178-162.26,58.0386-225.347S778.0254,162.1736,749.1426,197.6171,936.3793,285.6418,936.3793,285.6418Z"/><path class="cls-6" d="M104.4658,556.1932c27.92,47.6429,46.9111,117.7169,47.7893,204.7329.11,10.0629.5489,19.0644,1.3542,27.1881v.0734c5.9278,62.0234,31.25,70.6953,68.9026,76.9894,42.63,7.0991,64.8048-32.1279,64.8048-32.1279l36.3724-73.2937,11.5631-23.3095S76.5462,508.5868,104.4658,556.1932Z"/><path class="cls-6" d="M164.849,240.0127l-27.2334-54.9865a13.6828,13.6828,0,0,0-23.0909,5.7313c-6.0144,20.8-8.682,54.8592,18.153,91.2781C176.2647,341.19,164.849,240.0127,164.849,240.0127Z"/><path class="cls-6" d="M78.3758,424.2789c0,222.0044,211.8681,402.0007,473.2455,402.0007s473.2821-179.9963,473.2821-402.0007c0-206.3062-182.96-376.3129-418.54-399.3294-4.3912-.4391-8.8188-.8416-13.283-1.1347q-20.4732-1.5918-41.4588-1.5732c-6.8428,0-13.6489.11-20.3819.4025-1.5.0366-3.0006.1095-4.4641.1827-.6953,0-1.354.0366-2.0491.0732q-18.4975.8237-36.5555,2.9277C256.7987,52.1737,78.3758,220.4974,78.3758,424.2789Z"/><path class="cls-5" d="M195.873,689.3522C282.5964,773.2944,409.8453,828.7313,551.64,828.7313c141.8676,0,269.153-55.4736,355.913-139.5255C815.2672,758.7307,689.83,801.47,551.6213,801.47,413.5227,801.47,288.1581,758.8041,195.873,689.3522Z"/><path class="cls-7" d="M78.3758,424.2789c0,4.0984.073,8.16.22,12.2217,6.367-198.732,182.4481-361.3835,409.5753-387.2539q18.0579-2.0859,36.5555-2.9276c.6951-.0362,1.3538-.0728,2.0491-.0728,1.4635-.0734,2.964-.1466,4.4641-.1832,6.733-.2929,13.5391-.4029,20.3819-.4029q20.9671,0,41.4588,1.5736c4.4642.2927,8.8918.6956,13.283,1.1343,231.2987,22.6145,411.8805,186.9126,418.3208,388.1325.1463-4.0618.2195-8.1233.2195-12.2217,0-206.3062-182.96-376.3129-418.54-399.3294-4.3912-.4391-8.8188-.8416-13.283-1.1347q-20.4732-1.5918-41.4588-1.5732c-6.8428,0-13.6489.11-20.3819.4025-1.5.0366-3.0006.1095-4.4641.1827-.6953,0-1.354.0366-2.0491.0732q-18.4975.8237-36.5555,2.9277C256.7987,52.1737,78.3758,220.4974,78.3758,424.2789Z"/><path class="cls-7" d="M738.9728,541.52c22.87-46.0328,77.3923-78.4534,140.9893-78.4534,46.0329,0,87.3454,16.9789,115.3015,43.8373-25.0288-35.5674-69.2686-59.2057-119.6559-59.2057C810.181,447.698,755.1464,487.4731,738.9728,541.52Z"/><path d="M858.9066,324.0156c3.0834,13.2348,14.9941,27.2834,25.1005,24.9287s14.582-20.2206,11.4985-33.4553-13.7758-22.055-23.8824-19.7S855.8232,310.7809,858.9066,324.0156Z"/><path d="M714.4453,347.2787c4.5565,14.1023,18.78,28.285,29.5492,24.8056s14.0054-23.3035,9.449-37.4058-16.98-22.7138-27.7492-19.2343S709.889,333.1764,714.4453,347.2787Z"/><path class="cls-8" d="M720.7836,333.795c.286,4.3061,3.2965,9.321,6.5848,9.1028s5.6093-5.5873,5.3233-9.8936-3.1834-7.62-6.4717-7.4016S720.4977,329.4888,720.7836,333.795Z"/><path class="cls-8" d="M864.5905,313.1967c.2859,4.3062,3.2964,9.3212,6.5847,9.1028s5.6093-5.5873,5.3235-9.8934-3.1834-7.62-6.4717-7.4016S864.3047,308.8905,864.5905,313.1967Z"/><path class="cls-6" d="M383.5538,832.39c.2561,3.8789.5489,7.6114.9148,11.1974.0732.5857.1463,1.2078.1829,1.8662.0366.4391.0732.8415.11,1.2811.11.8416.22,1.6465.2927,2.4513,0,.1466.0365.2932.0365.4025,7.5379,63.9629,32.6769,84.4911,99.4574,92.5778,38.83,4.707,65.0478-5.0908,81.0187-15.1978a72.5662,72.5662,0,0,0,25.17-27.5667l56.2807-106.531L383.5538,734.3237S378.4311,754.8151,383.5538,832.39Z"/><path class="cls-6" d="M354.1338,347.8014s22.5406,43.5447,63.0482,6.0011a123.6368,123.6368,0,0,0,10.941-11.6731c47.35-57.047,12.7341-142.3428,73.8793-166.75,41.2394-16.43,79.2586-7.6476,99.2744-9.77a12.2189,12.2189,0,0,0,5.3426-1.8295,12.6778,12.6778,0,0,0,1.5367-20.1257c-31.5423-27.7-150.7961-122.9128-231.7011-54.1561C282.4864,169.3783,354.1338,347.8014,354.1338,347.8014Z"/><path class="cls-7" d="M354.1338,347.8014s-38.9705-185.43,34.0307-249.046c57.9252-50.4785,160.9319-1.0608,208.7944,35.4213-42.5567-34.7624-147.2466-106.922-220.504-44.6788C282.4864,169.3783,354.1338,347.8014,354.1338,347.8014Z"/><path class="cls-5" d="M417.182,353.8025a123.6368,123.6368,0,0,0,10.941-11.6731c47.35-57.047,12.7341-142.3428,73.8793-166.75,41.2394-16.43,79.2586-7.6476,99.2744-9.77a12.2189,12.2189,0,0,0,5.3426-1.8295C469.9476,47.6363,428.8547,84.0091,398.1539,129.09,370.2708,170.0005,400.6057,294.9627,417.182,353.8025Z"/><path class="cls-9" d="M707.3573,91.7752C658.3238,46.06,523.4987,13.9742,435.5563,34.4285c80.21-6.5038,168.1878,7.5673,235.9667,64.1589Z"/><path class="cls-7" d="M430.9162,880.3967a64.0572,64.0572,0,0,1-9.856-21.1194,95.5837,95.5837,0,0,1-2.7557-22.5606c-.0922-7.6779.2818-15.4761.5614-23.4458.1424-3.99.2476-8.01.2821-12.0756l-.011-11.925c-.09-15.7182.2909-31.6558-.0652-47.6033-.23-15.9594-.8158-31.9617-2.6227-48.0824a362.0964,362.0964,0,0,0-8.1686,47.559,455.4514,455.4514,0,0,0-2.98,48.1473l.5414,23.8991a191.5743,191.5743,0,0,0,1.7376,24.4237,77.5976,77.5976,0,0,0,7.1758,24.1186A49.5594,49.5594,0,0,0,430.9162,880.3967Z"/><path class="cls-7" d="M194.277,809.9784a29.3139,29.3139,0,0,1-7.41-10.514,58.2339,58.2339,0,0,1-3.7857-12.2534,170.223,170.223,0,0,1-2.94-25.689c-.8844-17.32-.8155-34.8013-1.2349-52.3585-.7834-35.0422-3.0164-70.8838-13.76-105.51-5.5768-17.2762-13.1438-33.3643-20.6282-49.2032-7.518-15.8294-15.0757-31.4289-21.4513-47.4326-6.3415-16-11.4157-32.4481-14.1089-49.4279a179.4121,179.4121,0,0,1-.6819-51.8633,149.8506,149.8506,0,0,0-6.0816,52.5932c1.0444,17.8624,5.1194,35.4835,10.7144,52.3783,5.5473,16.9439,12.6513,33.2035,19.7437,49.1952,7.0693,15.9937,14.2253,31.7934,19.2968,47.9158,10.3706,32.3991,13.26,67.179,16.2093,101.9058,1.4337,17.4152,2.62,34.97,5.2533,52.5082A147.2335,147.2335,0,0,0,179.41,788.24a56.795,56.795,0,0,0,5.675,12.1851A29.1559,29.1559,0,0,0,194.277,809.9784Z"/><path class="cls-5" d="M153.6093,788.1876c5.9278,62.0234,31.25,70.6953,68.9026,76.9894,42.63,7.0991,64.8048-32.1279,64.8048-32.1279l36.3724-73.2937h0s-28.9809-13.7222-33.8477.9147c-4.9032,14.6368-10.4669,94.6989-68.3051,87.577C156.1584,840.1969,153.8287,790.6755,153.6093,788.1876Z"/><path class="cls-5" d="M385.0906,849.5887c7.5379,63.9629,32.6769,84.4911,99.4574,92.5778,38.9251,4.7184,65.1759-5.1388,81.1356-15.272a72.7336,72.7336,0,0,0,24.9569-27.1725l56.3764-105.1755s-19.2475,2.2582-30.0421.52c-17.8317-2.8711-24.02,67.4139-61.4748,106.1171-21.9552,22.6871-57.2232,21.7874-96.603,13.1732C412.059,904.111,389.6646,881.0579,385.0906,849.5887Z"/><path class="cls-2" d="M969.4157,729.1475c22.04,45.98,21.1922,100.5861-2.72,139.5211-8.5537,13.928-21.4019,24.7038-36.1656,31.7171l-18.885,8.971a86.3166,86.3166,0,0,1-49.0376,7.8224c-41.5352-5.8807-82.9676-34.9595-107.1916-85.4834-24.4151-50.9929-20.8523-101.9711,1.13-138.08a86.488,86.488,0,0,1,36.9359-32.891l18.3965-8.7389a86.7082,86.7082,0,0,1,51.0552-7.546C906.7912,651.5827,948.0174,684.5059,969.4157,729.1475Z"/><path class="cls-3" d="M979.8461,724.1683c27.34,57.068,19.3978,127.1136-24.4606,161.7618-53.6017,42.3454-138.6191,17.5471-178.0441-64.7479s-5.4725-164.0882,61.1171-179.323C892.9441,629.3937,952.5065,667.1,979.8461,724.1683Z"/><path class="cls-4" d="M824.6359,880.685a143.6258,143.6258,0,0,1-35.2252-35.6211A177.5409,177.5409,0,0,1,766.8971,800.01a154.8524,154.8524,0,0,1-7.7374-49.7793,139.489,139.489,0,0,1,2.9386-25.048,115.6823,115.6823,0,0,1,7.99-23.7926,130.6849,130.6849,0,0,0-6.2285,24.13,139.1972,139.1972,0,0,0-1.8857,24.7212,160.3137,160.3137,0,0,0,8.3958,48.63,185.96,185.96,0,0,0,21.36,44.6211,170.485,170.485,0,0,0,32.9055,37.1924Z"/><path class="cls-2" d="M917.3444,867.48l-10.2192-21.5125c-12.2381,4.9892-25.7377,6.4083-34.8619,4.6312l-7.2469-29.0245c9.9392,1.6612,22.6983,1.4295,34.2549-4.06,10.1375-4.8156,14.71-13.0884,10.4063-22.1485-4.0851-8.5994-12.3556-11.3248-28.2053-10.7433-22.9073.8955-41.267-4.2554-51.7006-26.2193-9.4617-19.918-5.855-40.7794,10.9154-54.5753l-10.2149-21.5031,17.4364-8.2831L857.37,693.96c12.2356-4.9761,21.743-5.6067,29.3364-4.774l6.9989,28.0355c-5.8138-.3-16.47-1.6206-29.2724,4.461-11.5638,5.4932-12.288,13.61-9.2757,19.9507,3.551,7.475,12.0333,9.2637,30.5941,9.3261,25.684-.5427,40.1363,7.854,49.8125,28.2236,9.5756,20.1576,6.5366,42.6808-11.758,56.93l10.9678,23.0887Z"/><path class="cls-2" d="M917.3444,867.48l-10.2192-21.5125c-12.2381,4.9892-25.7377,6.4083-34.8619,4.6312l-7.2469-29.0245c9.9392,1.6612,22.6983,1.4295,34.2549-4.06,10.1375-4.8156,14.71-13.0884,10.4063-22.1485-4.0851-8.5994-12.3556-11.3248-28.2053-10.7433-22.9073.8955-41.267-4.2554-51.7006-26.2193-9.4617-19.918-5.855-40.7794,10.9154-54.5753l-10.2149-21.5031,17.4364-8.2831L857.37,693.96c12.2356-4.9761,21.743-5.6067,29.3364-4.774l6.9989,28.0355c-5.8138-.3-16.47-1.6206-29.2724,4.461-11.5638,5.4932-12.288,13.61-9.2757,19.9507,3.551,7.475,12.0333,9.2637,30.5941,9.3261,25.684-.5427,40.1363,7.854,49.8125,28.2236,9.5756,20.1576,6.5366,42.6808-11.758,56.93l10.9678,23.0887Z"/><ellipse class="cls-5" cx="838.8825" cy="578.7455" rx="141.4894" ry="126.8525"/><ellipse class="cls-6" cx="875.5966" cy="574.5383" rx="141.4895" ry="126.8525"/><path class="cls-5" d="M920.2725,535.6094c.417,10.1939,3.412,19.9149,11.1963,19.5966s13.5923-12.8674,13.1755-23.0612-7.0655-18.2-14.85-17.8812S919.8557,525.4156,920.2725,535.6094Z"/><path class="cls-5" d="M870.4311,539.8257c1.3014,10.1191-.0181,20.2051-7.7454,21.1989s-15.5606-10.4013-16.862-20.52,3.9077-19.1277,11.6351-20.1217S869.13,529.7065,870.4311,539.8257Z"/></svg>