<svg id="Layer_1" data-name="Layer 1" xmlns="http://www.w3.org/2000/svg" width="450" height="450" viewBox="0 0 450 450"><defs><style>.cls-1{fill:#bde3ff;}.cls-2{fill:#e5e5e5;}.cls-3{fill:#316091;}.cls-10,.cls-30,.cls-4,.cls-5{fill:#fff;}.cls-5{opacity:0.7;}.cls-10,.cls-16,.cls-18,.cls-23,.cls-28,.cls-30,.cls-32,.cls-35,.cls-5,.cls-8{isolation:isolate;}.cls-6{fill:#41343e;}.cls-7{fill:#4b3c48;}.cls-8{fill:#bdaca0;opacity:0.91;}.cls-9{fill:#d6dfde;}.cls-10{opacity:0.25;}.cls-11{fill:#0d4352;}.cls-12{fill:#a1afb6;}.cls-13{fill:#bdc5c5;}.cls-14{fill:#f28b2c;}.cls-15{fill:#30262e;}.cls-16{fill:#8d96aa;opacity:0.76;}.cls-17{fill:#fafafa;}.cls-18,.cls-23,.cls-32,.cls-34{fill:#97abbd;}.cls-18{opacity:0.22;}.cls-19,.cls-32{opacity:0.65;}.cls-20{fill:#6a7784;}.cls-21{fill:#dce5e5;}.cls-22{fill:#c2cccd;}.cls-23,.cls-28{opacity:0.51;}.cls-24{fill:#f2f2f2;}.cls-25{fill:#bf8827;}.cls-26{fill:#49525b;}.cls-27{fill:#8b9cad;}.cls-28{fill:#8fa1b2;}.cls-29{fill:#f7b83a;}.cls-30{opacity:0.67;}.cls-31{fill:#675263;}.cls-33{fill:#c0dcdf;}.cls-35{fill:#7c8697;opacity:0.88;}</style></defs><circle class="cls-1" cx="223.4735" cy="223.4326" r="192.2728"/><g id="Layer_1-2" data-name="Layer 1"><rect class="cls-2" x="95.0207" y="126.6596" width="290.0745" height="222.5983" transform="translate(-41.2544 50.5673) rotate(-11.0795)"/><rect class="cls-3" x="115.8924" y="147.5268" width="248.3376" height="180.8617" transform="translate(-41.2515 50.564) rotate(-11.0787)"/><path class="cls-4" d="M244.4567,196.92l7.0322,35.9187-2.8661.5612-7.0347-35.9211a1.4613,1.4613,0,1,1,2.8647-.5789Z"/><path class="cls-4" d="M184.3835,248.86a8.3121,8.3121,0,0,1,2.5279,12.8964,7.4487,7.4487,0,0,1,4.4227,5.8354,7.5444,7.5444,0,0,1-4.9311,9.0036l1.0121,5.1541a1.467,1.467,0,0,1-1.1609,1.7126l-17.9087,3.5064,6.0318,30.8124a1.46,1.46,0,0,1-2.8661.5636l-6.315-32.2489a1.4647,1.4647,0,0,1,1.1538-1.7126l17.9112-3.5088-.9785-5.0151a1.4629,1.4629,0,0,1,1.151-1.7126c.5109-.1077,4.9793-1.17,4.0342-5.996-.9522-4.8734-5.478-4.1371-5.9985-4.0317a1.4643,1.4643,0,0,1-.5658-2.8733c.5155-.103,4.9814-1.163,4.0413-5.9935-.9571-4.8737-5.483-4.14-6.0056-4.0367a1.4591,1.4591,0,1,1-.5614-2.8636c.5134-.1078,4.9863-1.17,4.0367-6.0006-.9522-4.8737-5.4782-4.1349-5.9986-4.03a1.4728,1.4728,0,0,1-1.7124-1.1535l-.9785-5.02-17.9137,3.5088a1.4632,1.4632,0,0,1-1.7175-1.1513l-3.7868-19.3481a1.4652,1.4652,0,0,1,1.1535-1.7125l18.0938-3.5424.5612,2.8639-16.6644,3.2618,3.2309,16.4818,17.9111-3.504a1.4561,1.4561,0,0,1,1.714,1.1412l.001.0052,1.01,5.1566a7.5462,7.5462,0,0,1,7.9674,6.4828A7.43,7.43,0,0,1,184.3835,248.86Z"/><path class="cls-4" d="M181.8867,210.6586l2.5832-1.9933-3.149-.8706,22.732-4.4515a1.4622,1.4622,0,0,1,1.715,1.1538l8.133,41.5574-2.8686.5612L203.1751,206.49Z"/><path class="cls-4" d="M254.717,249.3113l7.4208,37.8949a1.4659,1.4659,0,0,1-1.1561,1.7151l-38.6912,7.5742a1.4727,1.4727,0,0,1-1.7172-1.1514l-8.8383-45.1406,2.871-.5658,8.5576,43.7109,35.8251-7.0152-7.14-36.4585Z"/><path class="cls-4" d="M222.2952,296.4906,170.703,306.5952a1.4594,1.4594,0,0,1-.5637-2.8639l51.5971-10.1019a1.4576,1.4576,0,1,1,.5588,2.8612Z"/><path class="cls-4" d="M243.3053,198.63l-38.6912,7.5767a1.4589,1.4589,0,1,1-.5587-2.8639l38.6887-7.5789a1.46,1.46,0,1,1,.5612,2.8661Z"/><path class="cls-4" d="M166.9134,287.2519l-19.35,3.7871a1.4579,1.4579,0,0,1-1.7076-1.1513l-10.1-51.5972a1.4573,1.4573,0,0,1,1.1465-1.71l19.35-3.7893a1.4589,1.4589,0,0,1,.5768,2.86l-.0178.0035-17.909,3.5113,9.5336,48.7286,17.9161-3.5138a1.4627,1.4627,0,0,1,.5612,2.871Z"/><path class="cls-4" d="M150.4986,203.413a1.4465,1.4465,0,0,1-1.3142-.4031l-16.6906-16.8224a1.4585,1.4585,0,0,1,2.0561-2.0692l.016.0162,15.1485,15.261,8.2673-19.8468a1.4585,1.4585,0,1,1,2.6935,1.12l-9.1117,21.8736A1.4485,1.4485,0,0,1,150.4986,203.413Z"/><path class="cls-4" d="M156.8115,235.6548a1.4608,1.4608,0,0,1-1.7151-1.1489l-6.31-32.2468A1.4588,1.4588,0,1,1,151.65,201.7h0l6.315,32.24a1.4572,1.4572,0,0,1-1.1453,1.7132Z"/><path class="cls-4" d="M150.4986,203.413a1.463,1.463,0,0,1-1.7123-1.1539l-3.7871-19.3479a1.4584,1.4584,0,0,1,2.8637-.5541L151.65,201.7A1.4613,1.4613,0,0,1,150.4986,203.413Z"/><path class="cls-4" d="M186.1248,316.9658,160.33,322.017a1.46,1.46,0,0,1-.5612-2.8661h0l25.79-5.0488a1.46,1.46,0,0,1,.6362,2.85q-.0348.0078-.07.0138Z"/><path class="cls-4" d="M180.9419,324.684l-12.9012,2.523a1.4626,1.4626,0,0,1-.5612-2.8708l12.8988-2.5233a1.463,1.463,0,0,1,.5636,2.8711Z"/><path class="cls-4" d="M185.5994,197.472a1.4544,1.4544,0,0,0-1.15,1.7051l.0015.0074,1.3311,6.809L168,201.0719a1.4626,1.4626,0,0,0-1.8228,1.6885l3.5786,18.2713a1.4526,1.4526,0,0,0,1.698,1.1563l.0143-.0028a1.4226,1.4226,0,0,0,.614-.2758l14.6089-11.2678,1.3333,6.8117a1.4625,1.4625,0,0,0,2.8711-.559h0l-3.5784-18.271a1.4565,1.4565,0,0,0-1.7065-1.1535Zm-1.13,11.1933-2.5832,1.9933-9.7232,7.4878-2.6669-13.6255,11.8243,3.2738Z"/><path class="cls-4" d="M268.3808,220.0746a1.4774,1.4774,0,0,0-1.4055.2183l-11.3685,8.7639L243.0487,231.52a1.4536,1.4536,0,0,0-1.1526,1.7022l.0015.0078,3.7871,19.3384a1.4611,1.4611,0,0,0,1.7125,1.156l12.56-2.4584,13.8316,3.8279a1.4993,1.4993,0,0,0,.6668.0289,1.5789,1.5789,0,0,0,.72-.3576,1.4767,1.4767,0,0,0,.4317-1.36l-6.3126-32.2347A1.4567,1.4567,0,0,0,268.3808,220.0746ZM258.3,248.6111l-10.03,1.9642-3.2282-16.4747,10.0349-1.9618Zm13.9875,3.0434-11.0111-3.053-3.444-17.5708,9.049-6.9843Z"/><path class="cls-4" d="M226.514,242.0922a1.4558,1.4558,0,0,1-1.1386,1.7152l-.01.002-25.7925,5.0487a1.4582,1.4582,0,0,1-.5739-2.8594l.01-.002L224.804,240.95a1.4462,1.4462,0,0,1,1.7069,1.1267Z"/><path class="cls-4" d="M227.7828,248.5487a1.459,1.459,0,0,1-1.1549,1.71l-.0011,0L200.8344,255.31a1.46,1.46,0,1,1-.5612-2.8661l25.7973-5.0485a1.4581,1.4581,0,0,1,1.7117,1.15Z"/><path class="cls-4" d="M207.5546,204.1444a3.2846,3.2846,0,1,1-3.8547-2.5921l.0028-.0005a3.28,3.28,0,0,1,3.8507,2.5863Z"/><path class="cls-4" d="M155.9671,214.2441a3.311,3.311,0,1,1-.0009-.0044Z"/><path class="cls-4" d="M159.7567,233.5945a3.2723,3.2723,0,1,1-.0015-.0078Z"/><path class="cls-4" d="M169.9067,285.4266a3.2881,3.2881,0,1,1-3.859-2.5944l.0024,0a3.2845,3.2845,0,0,1,3.8557,2.59Z"/><path class="cls-4" d="M173.6482,304.5324a3.2795,3.2795,0,1,1-.0006-.0031Z"/><path class="cls-4" d="M225.2333,294.4327a3.2868,3.2868,0,1,1-.003-.0152Z"/><rect class="cls-4" x="286.3699" y="150.2962" width="51.6492" height="9.8285" transform="translate(-24.0068 62.8829) rotate(-11.0787)"/><rect class="cls-4" x="248.6891" y="159.8551" width="29.3905" height="9.8269" transform="translate(-26.7641 53.7106) rotate(-11.0844)"/><rect class="cls-5" x="266.5783" y="170.4421" width="74.7793" height="5.8599" transform="translate(-27.649 61.6377) rotate(-11.0782)"/><polygon class="cls-5" points="273.809 192.666 343.183 179.086 342.058 173.332 272.686 186.921 273.809 192.666"/><rect class="cls-5" x="293.4126" y="188.2591" width="51.6533" height="5.8608" transform="translate(-30.794 64.9205) rotate(-11.0809)"/><rect class="cls-5" x="277.8053" y="199.9852" width="69.3887" height="5.8604" transform="translate(-33.1672 63.8287) rotate(-11.0784)"/><rect class="cls-5" x="295.8343" y="228.8667" width="57.128" height="5.8593" transform="translate(-38.5028 66.6704) rotate(-11.0811)"/><rect class="cls-5" x="303.2233" y="238.3605" width="51.6509" height="5.8596" transform="translate(-40.2402 67.7399) rotate(-11.0809)"/><rect class="cls-5" x="310.8689" y="247.8299" width="45.9147" height="5.8568" transform="translate(-41.9677 68.8281) rotate(-11.0799)"/><rect class="cls-5" x="307.1483" y="258.3983" width="51.6482" height="5.8608" transform="translate(-44.0036 68.8386) rotate(-11.0765)"/><rect class="cls-5" x="305.7484" y="268.7465" width="55.0452" height="5.8557" transform="translate(-45.9909 69.0987) rotate(-11.078)"/><polygon class="cls-6" points="54.72 142.978 110.424 129.594 149.87 171.135 133.612 226.066 77.913 239.456 38.466 197.911 54.72 142.978"/><path class="cls-7" d="M173.19,143.1958a64.0476,64.0476,0,1,1-43.24-79.5893l.0018.0005a64.0442,64.0442,0,0,1,43.24,79.584Z"/><path class="cls-8" d="M147.8533,177.944l-14.2442,48.1266-35.1728,8.4522-41.32-76.1065a64.0481,64.0481,0,0,0,88.046,21.2654q1.367-.835,2.6908-1.7377Z"/><path class="cls-9" d="M148.0019,155.965a9.6711,9.6711,0,0,1-12.0183,6.5284h0L71.07,143.287a9.6823,9.6823,0,0,1-6.5309-12.0208L75.5506,94.0738a9.6712,9.6712,0,0,1,12.0161-6.5306l64.9107,19.2111a9.6646,9.6646,0,0,1,6.5343,12.0047l-.0034.0114Z"/><path class="cls-10" d="M155.1637,94.2514a3.0935,3.0935,0,0,1-3.84,2.0721L94.27,79.4411a3.08,3.08,0,0,1-.6019-5.6674,4.5247,4.5247,0,0,1,.7915-.2662A54.17,54.17,0,0,1,154.1538,90.99a.3722.3722,0,0,1,.0889.1007,10.5254,10.5254,0,0,1,.7172.921A3.01,3.01,0,0,1,155.1637,94.2514Z"/><path class="cls-10" d="M131.4314,174.4376a3.083,3.083,0,0,0-2.0879-3.8276l-.0083-.0024-57.044-16.8824a3.0762,3.0762,0,0,0-3.5879,4.4251,4.5332,4.5332,0,0,0,.513.6573,54.1519,54.1519,0,0,0,59.596,17.8129.4711.4711,0,0,0,.1319-.0383c.3478-.1009.7314-.2279,1.1008-.3743A3.0247,3.0247,0,0,0,131.4314,174.4376Z"/><rect class="cls-11" x="75.5071" y="107.7704" width="9.2633" height="7.4162" transform="translate(-49.4884 156.7166) rotate(-73.527)"/><path class="cls-4" d="M78.5368,109.4669a1.7352,1.7352,0,0,1,1.0553-1.223,2.4183,2.4183,0,0,1,1.58.0046,2.2619,2.2619,0,0,1,1.2688.8972,1.4889,1.4889,0,0,1,.252,1.3,2.5418,2.5418,0,0,1-.7533,1.1609,11.1494,11.1494,0,0,1-1.3191.8827c-.1847.1127-.458.2878-.825.5251l-.3047.2016c-.199.13-.3525.2351-.4556.3046-.0479.0457-.072.067-.0769.084l2.4705.7314-.2808.9546-4.0052-1.1848.2638-.8993a2.3513,2.3513,0,0,1,.3765-.2736c.12-.0767.2446-.1631.391-.2447l.4364-.2709c.25-.1488.6452-.3814,1.19-.71a7.2034,7.2034,0,0,0,1.2088-.88,1.7348,1.7348,0,0,0,.4654-.7122.7.7,0,0,0-.07-.5661.876.876,0,0,0-.5324-.391.8034.8034,0,0,0-.8945.247,1.0374,1.0374,0,0,0-.18.3527l-.07.2446-1.2422-.3647Z"/><rect class="cls-11" x="83.9855" y="110.2816" width="9.2611" height="7.4116" transform="translate(-45.852 166.5638) rotate(-73.4931)"/><path class="cls-4" d="M87.2214,117.094l1.4725-4.9889-1.0744-.319.2038-.6835a2.3628,2.3628,0,0,0,.9355-.0047,1.5615,1.5615,0,0,0,.76-.3718l.8756.2591-1.9164,6.48Z"/><rect class="cls-11" x="92.4631" y="112.7918" width="9.2626" height="7.4147" transform="translate(-42.1582 176.5663) rotate(-73.5241)"/><path class="cls-4" d="M97.1123,114.0311l-.41,1.3935a1.2656,1.2656,0,0,1,.6211-.163,1.4518,1.4518,0,0,1,.4389.067,1.6117,1.6117,0,0,1,1.0961.8156,1.6575,1.6575,0,0,1,.0167,1.1944l-.4052,1.3935a1.5016,1.5016,0,0,1-.9451,1.0025,2.2556,2.2556,0,0,1-1.5421.0263,2.1917,2.1917,0,0,1-1.2472-.8706,1.4279,1.4279,0,0,1-.2016-1.24l.0481-.1557,1.2327.29-.0408.23a.6192.6192,0,0,0,.2542.6378.7172.7172,0,0,0,.2159.1031c.5182.1535.8274.0192.95-.4l.4726-1.5831a.5882.5882,0,0,0-.1248-.5516.641.641,0,0,0-.3308-.1894.63.63,0,0,0-.5541.0526.619.619,0,0,0-.2495.3286l-.0526.18-1.2569-.3743,1.0482-3.5376,3.6864,1.0937-.29.9738Z"/><rect class="cls-11" x="100.9526" y="115.2989" width="9.2622" height="7.4157" transform="translate(-38.455 186.5593) rotate(-73.5464)"/><path class="cls-4" d="M103.2834,119.2525l3.4443-3.4393,1.2639.3718-1.216,4.1012.8058.2375-.2925.9856-.8034-.24-.415,1.3957-1.2639-.3715.4148-1.3985-2.228-.6594Zm2.2305.6644.5973-2.0218-1.6381,1.71Z"/><rect class="cls-11" x="109.4314" y="117.811" width="9.2633" height="7.4125" transform="translate(-34.7936 196.4738) rotate(-73.5398)"/><path class="cls-4" d="M114.983,120.008l.0457-.1606a.5635.5635,0,0,0-.0386-.4485.6727.6727,0,0,0-.4173-.2974.6876.6876,0,0,0-.5059.0216.6182.6182,0,0,0-.2879.3549l-.3814,1.2975a1.8948,1.8948,0,0,1,2.1586.7962,1.6,1.6,0,0,1,.0479,1.1993l-.3284,1.1128-.0073-.0023a1.45,1.45,0,0,1-.89.8633,2.384,2.384,0,0,1-2.6815-.8345,1.4428,1.4428,0,0,1-.2038-1.2425l1.0457-3.5376a1.455,1.455,0,0,1,.5516-.7628,1.7051,1.7051,0,0,1,1.0193-.3141,2.0343,2.0343,0,0,1,.7844.0935,2.1236,2.1236,0,0,1,1.2447.8754,1.42,1.42,0,0,1,.2112,1.2353l-.0432.1439Zm-2.2522,3.0076a.5819.5819,0,0,0,.0361.4413.6849.6849,0,0,0,.4293.3095.6112.6112,0,0,0,.5084-.0337.54.54,0,0,0,.2783-.3453l.3524-1.1968a.57.57,0,0,0-.12-.542.6263.6263,0,0,0-.3311-.1943.6352.6352,0,0,0-.5563.0528.57.57,0,0,0-.247.3262Z"/><rect class="cls-11" x="117.9112" y="120.319" width="9.261" height="7.4162" transform="translate(-31.1743 206.3108) rotate(-73.5052)"/><path class="cls-4" d="M124.0706,126.39a1.4116,1.4116,0,0,1-.9139.9259,2.379,2.379,0,0,1-1.5467.0263l-.0961-.0288a2.31,2.31,0,0,1-1.2808-.8753,1.3921,1.3921,0,0,1-.2591-1.2592l.17-.5852a1.4475,1.4475,0,0,1,.8274-.8969,2.1117,2.1117,0,0,1,.6019-.156,1.7046,1.7046,0,0,1-.5877-.9114,1.3543,1.3543,0,0,1,.0457-.65l.1031-.3453a1.372,1.372,0,0,1,.7892-.8969,2.1263,2.1263,0,0,1,1.5541-.05l.096.0263a2.1559,2.1559,0,0,1,1.2806.89,1.3809,1.3809,0,0,1,.1751,1.1825l-.1032.35a1.3238,1.3238,0,0,1-.765.866,2.2582,2.2582,0,0,1-.542.1461,1.9428,1.9428,0,0,1,.6523.993,1.2507,1.2507,0,0,1-.0288.66Zm-.24-3.6719a.8229.8229,0,0,0-.29-.993,1.0014,1.0014,0,0,0-.2783-.1294.9614.9614,0,0,0-.5732-.0145.6454.6454,0,0,0-.3262.2208,1.1856,1.1856,0,0,0-.1871.4244,1.0856,1.0856,0,0,0-.01.6621,1.0183,1.0183,0,0,0,1.3216.374.944.944,0,0,0,.3435-.5443Zm-.8827,2.84a.8729.8729,0,0,0-.1127-.878.9482.9482,0,0,0-.4222-.223.7163.7163,0,0,0-.77.13,1.1231,1.1231,0,0,0-.2709.5034l-.0935.3095a.6214.6214,0,0,0,.1078.5924.8864.8864,0,0,0,.4725.3335.8114.8114,0,0,0,.83-.1776.5471.5471,0,0,0,.1631-.2807Z"/><rect class="cls-12" x="79.6101" y="104.7052" width="2.8704" height="7.4162" transform="translate(-45.8995 155.3899) rotate(-73.527)"/><rect class="cls-12" x="77.7971" y="110.8356" width="2.8689" height="7.4172" transform="matrix(0.2836, -0.959, 0.959, 0.2836, -53.0782, 158.0431)"/><rect class="cls-12" x="88.0915" y="107.2149" width="2.8694" height="7.4181" transform="translate(-42.2138 165.3632) rotate(-73.5452)"/><rect class="cls-12" x="86.2781" y="113.3441" width="2.8674" height="7.4192" transform="translate(-49.4398 167.8903) rotate(-73.4924)"/><rect class="cls-12" x="96.572" y="109.7263" width="2.8713" height="7.4153" transform="matrix(0.2839, -0.9588, 0.9588, 0.2839, -38.5851, 175.201)"/><rect class="cls-12" x="94.754" y="115.8581" width="2.8677" height="7.4147" transform="translate(-45.7481 177.8935) rotate(-73.5241)"/><rect class="cls-12" x="105.0538" y="112.2352" width="2.8727" height="7.4162" transform="translate(-34.8908 185.1851) rotate(-73.527)"/><rect class="cls-12" x="103.2438" y="118.3655" width="2.8655" height="7.4166" transform="translate(-42.0467 187.8877) rotate(-73.5464)"/><rect class="cls-12" x="113.5358" y="114.7542" width="2.8712" height="7.4139" transform="translate(-31.2402 195.1007) rotate(-73.5186)"/><rect class="cls-12" x="111.7214" y="120.8766" width="2.8667" height="7.4148" transform="translate(-38.3788 197.8148) rotate(-73.5452)"/><rect class="cls-12" x="122.0137" y="117.2544" width="2.8701" height="7.4173" transform="translate(-27.5788 205.0007) rotate(-73.5106)"/><rect class="cls-12" x="120.2003" y="123.3834" width="2.8693" height="7.4165" transform="translate(-34.7619 207.6359) rotate(-73.5052)"/><rect class="cls-11" x="115.992" y="111.3463" width="8.6995" height="53.6406" transform="translate(-46.2933 214.3565) rotate(-73.5156)"/><rect class="cls-13" x="119.2737" y="113.8031" width="3.0641" height="48.9979" transform="translate(-46.0884 214.9038) rotate(-73.5174)"/><polygon class="cls-14" points="127.179 141.786 139.886 145.544 140.759 142.608 128.045 138.845 127.179 141.786"/><path class="cls-11" d="M145.1623,119.3461a1.866,1.866,0,0,1-.084.6859,2.2186,2.2186,0,1,1-1.4988-2.7564l.0021.0006a2.4544,2.4544,0,0,1,.3743.1439l9.2507-5.0654Z"/><path class="cls-7" d="M107.0251,164.0046a6.5047,6.5047,0,1,1-4.3915-8.0875A6.5047,6.5047,0,0,1,107.0251,164.0046Z"/><path class="cls-15" d="M86.5329,226.2386a4.5136,4.5136,0,1,1,.0008-.0027Z"/><path class="cls-7" d="M129.069,89.5074a6.5044,6.5044,0,1,1-4.3915-8.085A6.5044,6.5044,0,0,1,129.069,89.5074Z"/><rect class="cls-12" x="88.4396" y="123.8678" width="5.1582" height="34.7788" transform="translate(-70.2632 188.4392) rotate(-73.5109)"/><rect class="cls-12" x="119.2289" y="141.03" width="5.1602" height="18.6768" transform="translate(-56.9461 224.4946) rotate(-73.5129)"/><rect class="cls-12" x="90.4846" y="86.3518" width="5.1609" height="23.4201" transform="translate(-27.3878 159.4487) rotate(-73.5025)"/><rect class="cls-12" x="109.9443" y="98.4888" width="5.1604" height="10.6623" transform="translate(-18.933 182.3008) rotate(-73.5334)"/><rect class="cls-12" x="124.9515" y="100.9432" width="5.1588" height="14.636" transform="matrix(0.2837, -0.9589, 0.9589, 0.2837, -12.4613, 199.8406)"/><path class="cls-16" d="M159.0754,113.71,94.2223,94.5152c-6.8642-2.0314-10.04-.1678-12.0207,6.5309L69.83,142.8481A9.6686,9.6686,0,0,1,64.518,131.29L75.5218,94.1075a9.6646,9.6646,0,0,1,12.0021-6.539l.0189.0056,64.9083,19.2089A9.6392,9.6392,0,0,1,159.0754,113.71Z"/><path class="cls-15" d="M65.5373,111.99a5.7581,5.7581,0,1,1,.0011-.0037Z"/><path class="cls-15" d="M168.7,142.517a5.8207,5.8207,0,1,1,.0008-.0028Z"/><rect class="cls-17" x="98.1471" y="286.8249" width="101.807" height="101.8111" transform="translate(-199.1357 460.3852) rotate(-85.5924)"/><polygon class="cls-18" points="203.717 290.895 195.893 392.398 94.381 384.568 203.717 290.895"/><g class="cls-19"><path class="cls-20" d="M182.6783,376.9813,109.8072,371.36l5.62-72.876L188.3,304.108Zm-70.3407-7.79,68.1676,5.2573,5.2647-68.175-68.175-5.2573Z"/></g><path class="cls-21" d="M102.2139,283.06,94.383,384.5725l101.51,7.8284,7.827-101.5058Zm80.4644,93.9362L109.8072,371.37l5.62-72.8855L188.3,304.108Z"/><path class="cls-22" d="M173.7417,339.6382a23.9859,23.9859,0,0,1-.3453,2.6406,24.7652,24.7652,0,0,1-49.0955-3.7895,24.1825,24.1825,0,0,1,.0622-2.6623,24.9916,24.9916,0,0,1,.3455-2.6454,24.3764,24.3764,0,0,1,4.0222-9.5936c.0982-.1561.2159-.3.3237-.4534a24.7525,24.7525,0,0,1,44.6872,16.5036Z"/><path class="cls-23" d="M172.9718,331.4666a22.4177,22.4177,0,0,0-36.6741-.6668,22.142,22.142,0,0,0-3.9357,9.095,21.0638,21.0638,0,0,0-.3024,2.4007,22.8893,22.8893,0,0,0-.0695,2.3961,22.4816,22.4816,0,0,0,7.1953,15.7671,24.7818,24.7818,0,0,1-14.93-21.9719,24.2019,24.2019,0,0,1,.0648-2.6647,25.25,25.25,0,0,1,.3453-2.6478,24.7679,24.7679,0,0,1,46.4285-6.66A24.0734,24.0734,0,0,1,172.9718,331.4666Z"/><path class="cls-24" d="M173.8041,336.9734l-3.4536-.2687.7867-10.1837A24.7425,24.7425,0,0,1,173.8041,336.9734Z"/><path class="cls-24" d="M173.394,342.2788a24.6727,24.6727,0,0,1-4.24,9.9173l.7867-10.1835Z"/><path class="cls-24" d="M129.0474,323.1345l-.7963,10.3252-3.5425-.2781A24.4847,24.4847,0,0,1,129.0474,323.1345Z"/><path class="cls-24" d="M127.8432,338.7651l-.7962,10.3276a24.4924,24.4924,0,0,1-2.7485-10.6034Z"/><path class="cls-23" d="M173.8041,336.9734l-.6955-.0552a22.9234,22.9234,0,0,0-2.1537-8.0515l.1823-2.3457A24.7421,24.7421,0,0,1,173.8041,336.9734Z"/><path class="cls-23" d="M129.0474,323.1345l-.4271,5.5645a21.76,21.76,0,0,0-1.6716,4.6575l-2.24-.1749A24.4832,24.4832,0,0,1,129.0474,323.1345Z"/><path class="cls-23" d="M127.3132,345.658l-.2662,3.4347a24.4942,24.4942,0,0,1-2.7485-10.6034l2.0075.1559c-.0145.3213-.0145.6307-.0024.9352A22.41,22.41,0,0,0,127.3132,345.658Z"/><rect class="cls-25" x="147.1359" y="315.816" width="6.7005" height="3.9777" transform="translate(-177.9167 443.4932) rotate(-85.6048)"/><rect class="cls-25" x="144.1349" y="355.6879" width="6.6994" height="3.9775" transform="translate(-220.4394 477.3271) rotate(-85.6064)"/><path class="cls-26" d="M141.5623,337.1532a3.7421,3.7421,0,1,1,.0007-.01Z"/><path class="cls-26" d="M164.0713,338.89a3.7121,3.7121,0,1,1,.0014-.0176Z"/><path class="cls-27" d="M152.3406,338.6715a3.3509,3.3509,0,1,1-3.0895-3.5933l.0053,0A3.3609,3.3609,0,0,1,152.3406,338.6715Z"/><path class="cls-28" d="M151.3526,338.2879l-.0433.6162a.4283.4283,0,0,1-.46.391l-1.1727-.0912-.0887,1.1728a.434.434,0,0,1-.46.3959l-.6139-.05a.4229.4229,0,0,1-.3942-.45l.0007-.0085.0911-1.1751L147.0354,339a.4248.4248,0,0,1-.3935-.4539v-.0019l.0481-.6162a.4286.4286,0,0,1,.46-.391l1.1728.0911.0911-1.1705a.4278.4278,0,0,1,.4554-.3983l.0026,0,.614.0481a.4362.4362,0,0,1,.3959.46l-.0936,1.17,1.17.0911a.4268.4268,0,0,1,.3945.4568Z"/><rect class="cls-29" x="342.7628" y="76.063" width="36.096" height="74.8359" transform="translate(48.9681 327.5288) rotate(-51.9248)"/><rect class="cls-2" x="318.7275" y="84.4138" width="19.4177" height="7.4131" transform="translate(56.5505 292.3597) rotate(-51.9326)"/><rect class="cls-7" x="321.3501" y="86.4908" width="36.0946" height="20.4334" transform="translate(54.0052 304.2991) rotate(-51.9361)"/><rect class="cls-30" x="362.8332" y="74.2581" width="7.1682" height="63.2996" transform="translate(56.9338 328.8385) rotate(-51.8876)"/><polygon class="cls-31" points="232.985 380.265 228.514 380.809 220.043 369.662 221.744 365.486 232.985 380.265"/><rect class="cls-4" x="225.4771" y="351.1053" width="18.5452" height="32.3209" transform="translate(-174.4258 217.0426) rotate(-37.254)"/><rect class="cls-32" x="237.0569" y="348.1128" width="3.2632" height="32.3204" transform="translate(-171.8076 218.8084) rotate(-37.2529)"/><rect class="cls-32" x="233.1168" y="351.1072" width="3.2588" height="32.3196" transform="translate(-174.4244 217.0329) rotate(-37.2529)"/><rect class="cls-32" x="229.1772" y="354.0987" width="3.2615" height="32.3243" transform="translate(-177.0101 215.1807) rotate(-37.2418)"/><path class="cls-4" d="M279.5359,313.0036a7.9593,7.9593,0,0,1-.7027-11.2292h0a7.9619,7.9619,0,0,1,11.2293-.7051l27.8935,24.6172a7.9585,7.9585,0,0,1,.7,11.2245h0a7.95,7.95,0,0,1-11.2208.7059l-.0037-.0032Z"/><path class="cls-4" d="M294.538,301.5968a7.9568,7.9568,0,0,1-.7026-11.227h0a7.95,7.95,0,0,1,11.2206-.7085l.0039.0034,12.4621,10.9944a7.9491,7.9491,0,0,1,.705,11.2195l-.0023.0026h0a7.9627,7.9627,0,0,1-11.2317.7051Z"/><path class="cls-33" d="M247.5507,344.2335a7.018,7.018,0,0,1,1.34-9.8312l7.337-5.5763,7.3655-13.8989a7.0173,7.0173,0,1,1,12.4238,6.5283l-.0217.041-8.085,15.2611a7.0154,7.0154,0,0,1-1.9572,2.3025l-8.56,6.5165A7.0281,7.0281,0,0,1,247.5507,344.2335Z"/><path class="cls-33" d="M261.0058,361.9289a7.0188,7.0188,0,0,1,1.3377-9.8355l.0006,0,8.5672-6.514a6.8849,6.8849,0,0,1,2.072-1.0865l20.5522-6.6962a7.0177,7.0177,0,0,1,4.3483,13.3448l-19.4177,6.3317-7.6246,5.7947a7.0185,7.0185,0,0,1-9.8352-1.3379Z"/><rect class="cls-4" x="248.4372" y="328.1577" width="17.9549" height="43.6874" transform="translate(-159.3359 227.1915) rotate(-37.2473)"/><polygon class="cls-34" points="263.493 372.823 251.904 374.509 232.328 348.764 237.046 338.036 263.493 372.823"/><path class="cls-4" d="M302.2945,349.5412a7.8811,7.8811,0,0,1-4.78,1.6044l-.0167-.0024a7.8642,7.8642,0,0,1-5.2646-1.981l-8.5719-7.5693-13.4767-11.8747-5.84-5.1565a7.9213,7.9213,0,0,1-2.6525-6.7277,7.8293,7.8293,0,0,1,1.9548-4.5043,7.6807,7.6807,0,0,1,1.17-1.0887,6.8752,6.8752,0,0,1,.9834-.6236,7.9739,7.9739,0,0,1,6.056-.6668l.0983.0359a7.9557,7.9557,0,0,1,1.7772.7916,8.5428,8.5428,0,0,1,1.1418.8419l4.298,3.8062L302.76,337.2347a7.9436,7.9436,0,0,1,.7149,11.2112l-.012.0136A7.7256,7.7256,0,0,1,302.2945,349.5412Z"/><path class="cls-33" d="M289.23,325.3026l-10.14-8.9532-3.2857-2.9,1.0121-7.3966a7.9285,7.9285,0,0,0,2.6383,6.8809l10.2291,9.0277Z"/><path class="cls-33" d="M303.6951,313.1043l-12.846-11.3253.9522-7.0226a7.9511,7.9511,0,0,0,2.6576,6.766l9.6488,8.5119Z"/><path class="cls-35" d="M186.2662,156.2528a63.9314,63.9314,0,0,1-25.3344,34.7459l-14.2537,48.1338-30.5774,7.332L94.93,251.5587l-3.02-15.4675,11.1263-2.6861,30.575-7.3392,14.2562-48.1337a63.8617,63.8617,0,0,0,25.3368-34.7388c.5683-1.94,1.0553-3.9021,1.4269-5.8425l14.1892-2.7726A64.5718,64.5718,0,0,1,186.2662,156.2528Z"/><polygon class="cls-35" points="216.69 303.854 212.613 356.753 212.591 356.753 198.429 359.526 202.789 302.779 216.69 303.854"/><polygon class="cls-35" points="373.918 166.741 336.688 137.574 320.606 124.973 325.761 118.408 319.923 113.846 324.482 108.009 324.504 108.009 324.547 107.989 330.341 112.546 336.314 117.219 369.27 143.016 373.918 166.741"/><path class="cls-35" d="M305.2492,338.6l-1.1223.2159a7.748,7.748,0,0,0-1.3673-1.5829L289.235,325.2908l.11-.7267.3527-2.6,6.4108,5.6625-.3524,2.6Z"/><path class="cls-35" d="M277.4036,336.1077l-2.9739,5.5979a7.1748,7.1748,0,0,1-1.9405,2.2905l-1.825,1.3861-4.7826.9284-3.456-4.562,3.5233-2.6886a7.1014,7.1014,0,0,0,1.9619-2.312l3.2571-6.1471Z"/><path class="cls-35" d="M319.4576,335.8245a7.9628,7.9628,0,0,0-1.4943-10.1355l-14.2562-12.5823.3981-3.0579,2.8829,2.53a7.952,7.952,0,1,0,10.5339-11.9154h0l-8.6391-7.6246a7.46,7.46,0,0,1,2.71,1.5662l12.4479,10.99a7.9522,7.9522,0,1,1-10.4843,11.9594l-.0447-.0394-2.8637-2.5326-.4175,3.0628,14.2515,12.5773a7.8983,7.8983,0,0,1,2.3575,3.7486Z"/></g></svg>