<svg id="Layer_1" data-name="Layer 1" xmlns="http://www.w3.org/2000/svg" width="2889.6842" height="2107.5377" viewBox="0 0 2889.6842 2107.5377"><defs><style>.cls-1{fill:#ffa71e;}.cls-2{fill:#fff;}.cls-3{fill:#ffd517;}.cls-4{fill:#ffe13e;}.cls-5{fill:#343434;}</style></defs><path class="cls-1" d="M1537.4205,17.5031h-13.4816c-79.2711,0-157.0292,19.3242-228.34,53.9452-132.4779,64.3166-318.9237,100.087-554.1739,10.5867-25.1907-9.5836-52.215,8.8544-52.215,35.8066V992.0025c0,622.5483,328.6849,848.9431,841.4691,1108.6411l.001.0006.001-.0006c512.7842-259.698,841.469-486.0928,841.469-1108.6411V117.8416c0-26.952-27.0244-45.39-52.2151-35.8066-235.25,89.5-421.6958,53.73-554.1739-10.5869C1694.45,36.8271,1616.6914,17.5031,1537.4205,17.5031Z"/><path class="cls-2" d="M1523.1572,1959.3111c-220.1593-114.1787-391.7378-218.6777-513.4849-357.5768-136.9951-156.3063-198.0916-344.3521-198.0916-609.73V232.4085l19.9088,4.4973c62.1879,14.0373,124.336,21.1555,184.7316,21.1555a755.9519,755.9519,0,0,0,332.8242-76.532c56.9219-27.64,115.7639-41.6578,174.8926-41.6578h13.48c59.1288,0,117.9707,14.0174,174.9007,41.6578a755.9006,755.9006,0,0,0,332.8242,76.532c60.3954,0,122.5435-7.1182,184.7314-21.1555l19.9088-4.4973V992.0041c0,265.3781-61.0965,453.4318-198.1,609.73-121.7547,138.9071-293.3332,243.4062-513.5005,357.5768l-7.5127,3.8957Z"/><path class="cls-3" d="M1530.67,1944.8277c-226.437-117.429-392.4706-221.2111-508.7285-353.8484C887.7423,1437.8677,827.8965,1253.136,827.8965,992.0041V252.8191c63.5184,14.34,126.4393,21.558,188.3246,21.558a772.1221,772.1221,0,0,0,339.9463-78.1692c54.6913-26.557,111.1353-40.0206,167.77-40.0206h13.48c56.6352,0,113.0792,13.4636,167.7706,40.0206a772.13,772.13,0,0,0,339.9543,78.1692c61.8853,0,124.806-7.2179,188.3244-21.558v739.185c0,261.1319-59.8456,445.8636-194.0524,598.9752C1923.1485,1723.6246,1757.1387,1827.3906,1530.67,1944.8277Z"/><path class="cls-4" d="M993.4143,1556.2843,2075.6237,273.7253c-10.1843.3864-20.3518.6518-30.4814.6518a782.63,782.63,0,0,1-121.6632-9.5108l-999.35,1184.3618A721.0779,721.0779,0,0,0,993.4143,1556.2843Z"/><path class="cls-4" d="M2233.4667,750.3367V304.9207L1089.887,1660.2112c65.11,59.8021,142.4144,114.6685,232.9279,169.3669Z"/><path class="cls-4" d="M2233.4667,877.2276V807.9313L1355.1856,1848.8092q19.311,11.2867,39.3862,22.6174Z"/><path class="cls-5" d="M1503.9173,1249.7474a67.1057,67.1057,0,0,1-46.7031-18.9332L1217.7418,998.5678a67.1849,67.1849,0,0,1,93.4058-96.595l188.9671,183.2677L1854.03,683.7931a67.1764,67.1764,0,1,1,100.65,88.9955l-400.4375,454.2257a67.0936,67.0936,0,0,1-47.7027,22.6839C1505.6627,1249.7309,1504.7859,1249.7474,1503.9173,1249.7474Z"/><path class="cls-1" d="M1495.3774,1232.5183a65.2857,65.2857,0,0,1-45.4022-18.3792L1217.1727,988.69a65.2645,65.2645,0,0,1,90.8042-93.768l183.7038,177.9041,344.0572-389.6984a65.2637,65.2637,0,0,1,97.8469,86.3908l-389.2841,440.9321a65.262,65.262,0,0,1-46.374,22.02C1497.0743,1232.5025,1496.2217,1232.5183,1495.3774,1232.5183Z"/></svg>