<svg xmlns="http://www.w3.org/2000/svg" xmlns:xlink="http://www.w3.org/1999/xlink" width="200" height="200" viewBox="0 0 200 200"><defs><style>.cls-1{isolation:isolate;}.cls-2{fill:url(#linear-gradient);}.cls-3{fill:url(#linear-gradient-2);}.cls-4{fill:url(#linear-gradient-3);}.cls-5{fill:url(#linear-gradient-4);}.cls-6{fill:url(#linear-gradient-5);}.cls-7{fill:url(#linear-gradient-6);}.cls-8{fill:#fff;}.cls-9{fill:#565689;}.cls-10,.cls-34{fill:#7f7fc6;}.cls-11{fill:#ffac73;}.cls-12{fill:#ff9a00;}.cls-13{fill:#f9ed32;}.cls-14{fill:#c3ddff;}.cls-15{fill:#ccc755;}.cls-16{fill:#b3b3b3;}.cls-17{fill:#155263;}.cls-18{fill:#123f49;}.cls-19{fill:#1b687a;}.cls-20{fill:#13bc2f;}.cls-21{fill:#cce70c;}.cls-22{fill:#ea8500;}.cls-23{fill:#283149;}.cls-24{fill:#ccc;mix-blend-mode:multiply;}.cls-25{fill:#ef3554;}.cls-26{fill:#7f4a88;}.cls-27{fill:#2b2b3a;opacity:0.22;}.cls-28{fill:#723344;}.cls-29{fill:#fff3f6;}.cls-30{fill:#fcb15d;}.cls-31{fill:#4a266a;}.cls-32{fill:#414042;}.cls-33{fill:#eac7bb;}.cls-34{opacity:0.47;}.cls-35{fill:#fcb72b;}.cls-36{fill:#f4f4f4;}.cls-37{fill:#fae3d9;}.cls-38{fill:#ce3254;}</style><linearGradient id="linear-gradient" x1="99.0439" y1="24.3872" x2="99.0439" y2="162.502" gradientUnits="userSpaceOnUse"><stop offset="0.0108" stop-color="#fee000"/><stop offset="0.184" stop-color="#fdd801"/><stop offset="0.4602" stop-color="#fbc003"/><stop offset="0.8029" stop-color="#f79b07"/><stop offset="1" stop-color="#f5820a"/></linearGradient><linearGradient id="linear-gradient-2" x1="161.638" y1="67.1983" x2="178.1602" y2="67.1983" gradientUnits="userSpaceOnUse"><stop offset="0.0108" stop-color="#fee000"/><stop offset="0.2017" stop-color="#fedb00"/><stop offset="0.4122" stop-color="#fcce02"/><stop offset="0.6319" stop-color="#fab804"/><stop offset="0.8566" stop-color="#f79a07"/><stop offset="1" stop-color="#f5820a"/></linearGradient><linearGradient id="linear-gradient-3" x1="1.5301" y1="134.3442" x2="134.2698" y2="134.3442" gradientUnits="userSpaceOnUse"><stop offset="0.0108" stop-color="#fee000"/><stop offset="0.0218" stop-color="#fede00"/><stop offset="0.2025" stop-color="#fbbd04"/><stop offset="0.3884" stop-color="#f8a306"/><stop offset="0.5794" stop-color="#f69108"/><stop offset="0.7789" stop-color="#f5860a"/><stop offset="1" stop-color="#f5820a"/></linearGradient><linearGradient id="linear-gradient-4" x1="66.699" y1="133.1951" x2="199" y2="133.1951" gradientUnits="userSpaceOnUse"><stop offset="0" stop-color="#f5820a"/><stop offset="0.1725" stop-color="#f68809"/><stop offset="0.408" stop-color="#f79a07"/><stop offset="0.6799" stop-color="#fab604"/><stop offset="0.977" stop-color="#fede00"/><stop offset="0.9892" stop-color="#fee000"/></linearGradient><linearGradient id="linear-gradient-5" x1="80.1989" y1="34.0744" x2="97.7949" y2="34.0744" xlink:href="#linear-gradient-2"/><linearGradient id="linear-gradient-6" x1="96.9104" y1="157.9136" x2="96.9104" y2="168.9698" gradientUnits="userSpaceOnUse"><stop offset="0.0108" stop-color="#fee000"/><stop offset="0.0925" stop-color="#fdd601"/><stop offset="0.5015" stop-color="#f9a906"/><stop offset="0.8175" stop-color="#f68c09"/><stop offset="1" stop-color="#f5820a"/></linearGradient></defs><g class="cls-1"><g id="Layer_1" data-name="Layer 1"><path class="cls-2" d="M37.9134,159.7018c-26.3005-21.3175,11.524-30.9878-7.5129-47.6226s-8.4445-72.94,23.0161-75.322c33.2244-2.5155,35.7649,24.5334,48.18,4.4462,11.731-18.9809,53.03-29.671,51.1824,11.4331s35.3962,27.0388,21.1339,52.0945,9.2,51.0832-1.7152,57.771Z"/><path class="cls-3" d="M165.5119,55.8944c-13.0069,1.7825,10.7708,27.95,12.4367,21.66S171.07,55.1328,165.5119,55.8944Z"/><path class="cls-4" d="M133.0969,151.8291C87.902,146.1578,82.0955,119.3176,58.92,129.3328s-17.7848-26.83-39.6454-23.5861c-21.6857,3.2182-20.4324,46.95-12.37,53.9713s83.88,1.0769,83.88,1.0769,39.83.1758,42.3712-2.9451a4.631,4.631,0,0,0-.0587-6.0207"/><path class="cls-5" d="M67.7937,153.2575c45.0358-6.8237,50.157-33.8033,73.58-24.3833s17.096-27.2758,39.032-24.5909c21.7606,2.6634,21.6212,46.4125,13.74,53.6379s-83.8254,3.2186-83.8254,3.2186-39.8129,1.193-42.4324-1.862a4.6311,4.6311,0,0,1-.0945-6.02"/><path class="cls-6" d="M93.5717,42.3187c11.5369-9.333-3.3885-22.01-11.1578-15.0876S89.49,45.6207,93.5717,42.3187Z"/><path class="cls-7" d="M187.2269,163.4418c0,3.053-40.4361,5.528-90.3166,5.528s-90.3164-2.475-90.3164-5.528,40.436-5.5282,90.3164-5.5282S187.2269,160.3887,187.2269,163.4418Z"/><circle class="cls-8" cx="27.5507" cy="87.888" r="1.048"/><path class="cls-8" d="M69.9646,40.76a1.0479,1.0479,0,1,1-1.4781-.0913A1.05,1.05,0,0,1,69.9646,40.76Z"/><path class="cls-8" d="M33.7329,78.5456a.67.67,0,1,1-.67-.6709A.67.67,0,0,1,33.7329,78.5456Z"/><circle class="cls-8" cx="165.5225" cy="86.4673" r="0.3618"/><path class="cls-8" d="M72.8853,47.2373a.3616.3616,0,1,1-.51-.0315A.3623.3623,0,0,1,72.8853,47.2373Z"/><path class="cls-8" d="M125.9361,39.4851a.3615.3615,0,1,1-.3615-.362A.3618.3618,0,0,1,125.9361,39.4851Z"/><path class="cls-8" d="M104.2788,44.9912a1.0472,1.0472,0,1,1-1.0471-1.0487A1.0479,1.0479,0,0,1,104.2788,44.9912Z"/><path class="cls-8" d="M172.98,66.2792a.3615.3615,0,1,1-.3614-.3621A.3617.3617,0,0,1,172.98,66.2792Z"/><circle class="cls-8" cx="163.7293" cy="59.3636" r="1.048"/><polygon class="cls-9" points="117.812 33.201 132.088 23.351 129.133 34.358 117.812 33.201"/><polygon class="cls-10" points="132.088 23.351 121.242 22.896 117.812 33.201 132.088 23.351"/><polygon class="cls-8" points="134.991 31.852 124.824 38.867 119.203 30.695 129.369 23.68 134.991 31.852"/><polygon class="cls-11" points="132.088 23.351 138.275 32.345 123.999 42.196 117.812 33.201 128.042 32.782 132.088 23.351"/><path class="cls-8" d="M55.74,57.5557V54.1864H53.0606a6.9141,6.9141,0,0,0-.8356-2.014l1.8977-1.9006-2.3775-2.3812-1.8977,1.9006a7.0462,7.0462,0,0,0-2.011-.8369V46.2707H44.4778v2.6836a7.1433,7.1433,0,0,0-2.0163.8369l-1.8923-1.9006-2.3776,2.3812,1.8924,1.9006a7.0535,7.0535,0,0,0-.83,2.014H36.5743v3.3693h2.6794a7.1191,7.1191,0,0,0,.83,2.014l-1.8924,1.8952,2.3776,2.3812,1.8923-1.8952a7.1283,7.1283,0,0,0,2.0163.8315v2.6835h3.3587V62.7824a7.0317,7.0317,0,0,0,2.011-.8315l1.8977,1.8952,2.3775-2.3812L52.225,59.57a6.9772,6.9772,0,0,0,.8356-2.014ZM46.1545,60.061a4.19,4.19,0,1,1,4.1835-4.19A4.1862,4.1862,0,0,1,46.1545,60.061Z"/><path class="cls-8" d="M32.2823,134.5419v-3.9971H29.1035a8.204,8.204,0,0,0-.9913-2.3894l2.2513-2.2548-2.82-2.8248-2.2514,2.2548a8.3547,8.3547,0,0,0-2.3856-.9929v-3.1836H18.9214v3.1836a8.4734,8.4734,0,0,0-2.3921.9929l-2.2449-2.2548-2.82,2.8248,2.2449,2.2548a8.3721,8.3721,0,0,0-.985,2.3894H9.5452v3.9971h3.1786a8.4472,8.4472,0,0,0,.985,2.3894L11.4639,139.18l2.82,2.8249,2.2449-2.2484a8.459,8.459,0,0,0,2.3921.9865v3.1836H22.906v-3.1836a8.3409,8.3409,0,0,0,2.3856-.9865l2.2514,2.2484,2.82-2.8249-2.2513-2.2483a8.2763,8.2763,0,0,0,.9913-2.3894Zm-11.3718,2.9723a4.9708,4.9708,0,1,1,4.9631-4.9708A4.9662,4.9662,0,0,1,20.9105,137.5142Z"/><path class="cls-8" d="M195.4213,122.099v4.2931a1.0362,1.0362,0,0,1-1.035,1.044H184.0294l-2.8039,2.61,1.0644-2.61h-.0221a1.0378,1.0378,0,0,1-1.0423-1.044V122.099a1.0424,1.0424,0,0,1,1.0423-1.0439h12.1185A1.0408,1.0408,0,0,1,195.4213,122.099Z"/><path class="cls-8" d="M189.0015,146.37a3.575,3.575,0,1,1-3.5751-3.5805A3.5777,3.5777,0,0,1,189.0015,146.37Z"/><path class="cls-8" d="M192.77,139.2928a1.3527,1.3527,0,1,1-1.3527-1.3548A1.3537,1.3537,0,0,1,192.77,139.2928Z"/><circle class="cls-12" cx="87.1332" cy="60.2848" r="1.751"/><circle class="cls-12" cx="106.3116" cy="52.26" r="1.751"/><circle class="cls-12" cx="165.98" cy="92.8093" r="1.751"/><path class="cls-12" d="M157.0293,95.5814a1.05,1.05,0,1,1-1.0495-1.05A1.05,1.05,0,0,1,157.0293,95.5814Z"/><path class="cls-12" d="M129.2865,52.8523a.8859.8859,0,1,1-.8859-.8858A.8859.8859,0,0,1,129.2865,52.8523Z"/><path class="cls-12" d="M25.4818,84.5877a.8859.8859,0,1,1-.8858-.8859A.8858.8858,0,0,1,25.4818,84.5877Z"/><path class="cls-12" d="M66.6778,60.78a.8859.8859,0,1,1-.8858-.8859A.8858.8858,0,0,1,66.6778,60.78Z"/><path class="cls-12" d="M150.4188,60.78a.8859.8859,0,1,1-.8859-.8859A.8859.8859,0,0,1,150.4188,60.78Z"/><circle class="cls-13" cx="57.5005" cy="37.4537" r="6.6855"/><circle class="cls-13" cx="53.4859" cy="28.7102" r="3.8271"/><path class="cls-14" d="M42.2414,78.76a5.7232,5.7232,0,1,0,5.1112,5.1115A5.7244,5.7244,0,0,0,42.2414,78.76Zm-.0472,8.8071a3.1592,3.1592,0,1,1,2.5785-2.5786A3.1619,3.1619,0,0,1,42.1942,87.5668Z"/><path class="cls-14" d="M43.356,84.0547a1.743,1.743,0,1,1-1.2983-1.2982A1.7454,1.7454,0,0,1,43.356,84.0547Z"/><rect class="cls-14" x="40.7575" y="76.7265" width="1.8032" height="2.4901"/><rect class="cls-14" x="40.7575" y="89.6897" width="1.8032" height="2.4901"/><rect class="cls-14" x="45.3407" y="78.625" width="1.8032" height="2.4901" transform="translate(70.0207 -9.3049) rotate(45)"/><rect class="cls-14" x="36.1744" y="87.7913" width="1.8032" height="2.4901" transform="translate(73.8209 -0.1372) rotate(45.0021)"/><rect class="cls-14" x="47.2391" y="83.2081" width="1.8032" height="2.4901" transform="translate(132.5939 36.3125) rotate(90)"/><rect class="cls-14" x="34.2759" y="83.2081" width="1.8032" height="2.4901" transform="translate(119.6307 49.2756) rotate(90)"/><rect class="cls-14" x="45.3407" y="87.7913" width="1.8033" height="2.4901" transform="translate(141.8988 119.2964) rotate(135)"/><rect class="cls-14" x="36.1744" y="78.625" width="1.8032" height="2.4902" transform="translate(119.7693 110.13) rotate(135)"/><path class="cls-15" d="M169.6124,75.2881a4.6345,4.6345,0,1,0,4.1391,4.1392A4.6354,4.6354,0,0,0,169.6124,75.2881Zm-.0381,7.1318a2.5583,2.5583,0,1,1,2.088-2.0881A2.56,2.56,0,0,1,169.5743,82.42Z"/><path class="cls-15" d="M170.515,79.5759a1.4114,1.4114,0,1,1-1.0513-1.0514A1.4133,1.4133,0,0,1,170.515,79.5759Z"/><rect class="cls-15" x="168.4109" y="73.6417" width="1.4602" height="2.0165"/><rect class="cls-15" x="168.4109" y="84.1391" width="1.4602" height="2.0165"/><rect class="cls-15" x="171.8441" y="75.4571" width="2.0165" height="1.4603" transform="translate(-3.2452 144.5398) rotate(-45)"/><rect class="cls-15" x="164.4213" y="82.8799" width="2.0166" height="1.4602" transform="translate(-10.6687 141.4631) rotate(-44.9993)"/><rect class="cls-15" x="173.3814" y="79.1684" width="2.0165" height="1.4603"/><rect class="cls-15" x="162.884" y="79.1684" width="2.0165" height="1.4603"/><rect class="cls-15" x="172.1222" y="82.6017" width="1.4602" height="2.0165" transform="translate(-8.4968 146.7055) rotate(-44.9974)"/><rect class="cls-15" x="164.6994" y="75.1789" width="1.4602" height="2.0165" transform="translate(-5.4186 139.293) rotate(-45.0007)"/><path class="cls-8" d="M88.0374,83.1676l-.8347-.2192a15.6738,15.6738,0,0,1,.5506-1.6861l.8051.3128A14.8773,14.8773,0,0,0,88.0374,83.1676Z"/><path class="cls-8" d="M89.9646,78.7007l-.7453-.4358a29.9222,29.9222,0,0,1,1.8412-2.7618l.6921.516A28.9721,28.9721,0,0,0,89.9646,78.7007Zm3.834-5.1888-.6457-.5724c.7027-.7933,1.4677-1.5989,2.2746-2.3943l.6061.6146C95.2406,71.9417,94.4887,72.7329,93.7986,73.5119Zm4.6149-4.5629-.57-.6492c.8118-.7124,1.6633-1.4218,2.5312-2.1085l.5353.677C100.0541,67.5456,99.2139,68.2458,98.4135,68.949Zm5.0957-4.0382-.5033-.7014c.8844-.634,1.8-1.2587,2.7217-1.8572l.4705.7242C105.2871,63.6673,104.3826,64.2848,103.5092,64.9108Zm5.4591-3.5408-.435-.7452c.9535-.5573,1.9243-1.0926,2.8849-1.5917l.3979.7663C110.8681,60.2918,109.91,60.82,108.9683,61.37Zm5.7723-2.989-.3549-.7874c1.0305-.4641,2.0574-.8881,3.0517-1.26l.3027.8085C116.763,57.5072,115.7539,57.9241,114.7406,58.381Zm6.0737-2.2534-.2352-.83a29.63,29.63,0,0,1,3.2385-.7334l.14.8514A28.9657,28.9657,0,0,0,120.8143,56.1276Z"/><path class="cls-8" d="M128.7923,55.2715a12.3765,12.3765,0,0,0-1.6612-.1223l.0076-.8632a13.1926,13.1926,0,0,1,1.7784.1315Z"/><polygon class="cls-16" points="126.448 52.679 129.619 58.394 142.753 51.854 129.143 51.184 126.448 52.679"/><polygon class="cls-8" points="128.129 49.357 142.753 51.854 126.448 52.679 128.129 49.357"/><polygon class="cls-8" points="142.753 51.854 126.192 58.053 126.242 54.102 142.753 51.854"/><path class="cls-17" d="M116.4648,157.6318c6.1941-17.845,27.4311-21.6794,27.4311-21.6794s-4.8668,19.6148-13.568,25.8089h-14.6Z"/><path class="cls-18" d="M120.6926,161.7613s6.2925-12.7815,12.9782-16.2228a61.2264,61.2264,0,0,0-10.4219,16.1244Z"/><path class="cls-19" d="M147.3424,161.7765c7.6331-8.7179,3.5741-19.2525,3.5741-19.2525s-18.87,7.4812-22.1616,19.2045Z"/><polygon class="cls-17" points="136.526 161.809 144.099 152.601 139.575 161.843 136.526 161.809"/><path class="cls-20" d="M131.8133,161.7348l-.438-.1248a48.3369,48.3369,0,0,1,14.964-23.2712l.2961.3461A47.8837,47.8837,0,0,0,131.8133,161.7348Z"/><path class="cls-20" d="M146.2485,142.7919a4.0258,4.0258,0,0,1-1.6973-.953,4.6818,4.6818,0,0,1-.647-.71,4.2189,4.2189,0,0,1,.8681-.3936,3.5447,3.5447,0,0,1,1.9328-.0848,3.7278,3.7278,0,0,1,1.6408,1.0464,5.1032,5.1032,0,0,1,.6034.7464A4.2547,4.2547,0,0,1,146.2485,142.7919Z"/><path class="cls-20" d="M139.9489,140.9376a3.4769,3.4769,0,0,0,1.0115,1.676,4.6114,4.6114,0,0,0,.7508.5982,4.7608,4.7608,0,0,0,.361-.8916,4.2746,4.2746,0,0,0,.1419-1.9786,3.7444,3.7444,0,0,0-.9215-1.7339,4.2636,4.2636,0,0,0-.7152-.6418,5.2136,5.2136,0,0,0-.4516.9319A3.797,3.797,0,0,0,139.9489,140.9376Z"/><path class="cls-20" d="M143.9037,138.3189a2.7394,2.7394,0,0,0,1.0155,1.5962,3.12,3.12,0,0,0,.2853-.5652,2.7719,2.7719,0,0,0,.1977-1.2821,2.81,2.81,0,0,0-.954-1.6323,3.2788,3.2788,0,0,0-.3315.5735A2.4536,2.4536,0,0,0,143.9037,138.3189Z"/><path class="cls-20" d="M146.8635,137.1105a2.7936,2.7936,0,0,0-.7807,1.7417,2.9638,2.9638,0,0,0,1.7722-.6313,2.914,2.914,0,0,0,.8271-1.6965A2.8672,2.8672,0,0,0,146.8635,137.1105Z"/><path class="cls-20" d="M143.4518,146.8283a5.0636,5.0636,0,0,1-2.1974-.9392,5.75,5.75,0,0,1-.8869-.7781,4.4971,4.4971,0,0,1,1.0158-.5875,4.05,4.05,0,0,1,2.3379-.3478,4.6245,4.6245,0,0,1,2.1288,1.085,6.4434,6.4434,0,0,1,.8287.8391,4.8332,4.8332,0,0,1-.9695.4464A4.6553,4.6553,0,0,1,143.4518,146.8283Z"/><path class="cls-20" d="M135.5093,145.4624a4.2325,4.2325,0,0,0,1.4884,1.897,5.6726,5.6726,0,0,0,1.0063.6135,6.9182,6.9182,0,0,0,.301-1.1451,5.3727,5.3727,0,0,0-.1043-2.4374,4.6245,4.6245,0,0,0-1.363-1.9965,5.1394,5.1394,0,0,0-.9606-.6837,6.5828,6.5828,0,0,0-.4278,1.2205A4.5719,4.5719,0,0,0,135.5093,145.4624Z"/><path class="cls-20" d="M139.8925,151.8464a5.0537,5.0537,0,0,1-2.3083-.63,5.73,5.73,0,0,1-.9844-.6485,5.4862,5.4862,0,0,1,.9186-.7258,4.2144,4.2144,0,0,1,2.27-.6652,4.6126,4.6126,0,0,1,2.26.7829,6.4,6.4,0,0,1,.9357.7164,6.2469,6.2469,0,0,1-.8921.5815A4.8946,4.8946,0,0,1,139.8925,151.8464Z"/><path class="cls-20" d="M131.8348,151.5826a4.2667,4.2667,0,0,0,1.7374,1.6758,5.6854,5.6854,0,0,0,1.082.47,5.98,5.98,0,0,0,.1282-1.1821,5.0006,5.0006,0,0,0-.4362-2.4,4.592,4.592,0,0,0-1.6169-1.7862,5.1508,5.1508,0,0,0-1.0462-.5459,5.1451,5.1451,0,0,0-.2535,1.2692A4.4813,4.4813,0,0,0,131.8348,151.5826Z"/><path class="cls-20" d="M137.1721,157.0347a5.1107,5.1107,0,0,1-2.3782-.3241,5.7275,5.7275,0,0,1-1.0609-.5126,4.7285,4.7285,0,0,1,2.9882-1.7925,4.5847,4.5847,0,0,1,2.3344.4758,6.4517,6.4517,0,0,1,1.0228.5884A5.3329,5.3329,0,0,1,137.1721,157.0347Z"/><path class="cls-20" d="M129.1524,157.8422a4.22,4.22,0,0,0,1.9378,1.4267,5.6976,5.6976,0,0,0,1.1358.3209,6.13,6.13,0,0,0-.77-3.5061,4.6656,4.6656,0,0,0-1.8518-1.5635,5.1439,5.1439,0,0,0-1.1086-.4028,6.6392,6.6392,0,0,0-.0766,1.2975A4.4335,4.4335,0,0,0,129.1524,157.8422Z"/><path class="cls-19" d="M52.34,162.3914c-8.1114-13.7156-3.2446-32.2979-3.2446-32.2979s13.1257,3.687,19.32,31.708Z"/><path class="cls-17" d="M62.8112,161.9489c-2.95-12.5848-7.718-18.4348-7.718-18.4348s5.4839,11.9813,6.0739,18.5687Z"/><path class="cls-17" d="M57.2546,162.1545c-3.3428-14.1579-16.9109-18.8773-16.9109-18.8773s.59,12.29,6.2924,18.9757Z"/><polygon class="cls-18" points="53.678 162.142 45.862 149.901 51.982 162.142 53.678 162.142"/><path class="cls-17" d="M76.06,162.27c-2.7434-11.6189-13.8782-15.492-13.8782-15.492s.4841,10.086,5.164,15.5727Z"/><polygon class="cls-18" points="73.125 162.26 66.71 152.215 71.733 162.26 73.125 162.26"/><path class="cls-21" d="M41.37,162.1986l-.4137.1437a37.7522,37.7522,0,0,0-16.6289-20.0456l.2191-.3792A38.188,38.188,0,0,1,41.37,162.1986Z"/><path class="cls-21" d="M28.6448,141.3559a3.36,3.36,0,0,1-.58,1.8034,4.449,4.449,0,0,1-.5726.7249,5.0883,5.0883,0,0,1-.5249-.7707,3.8953,3.8953,0,0,1-.5919-1.8143,3.6636,3.6636,0,0,1,.4556-1.84,4.0364,4.0364,0,0,1,.5193-.7655,4.7176,4.7176,0,0,1,.6439.7889A3.4775,3.4775,0,0,1,28.6448,141.3559Z"/><path class="cls-21" d="M27.5936,147.5851a4.0217,4.0217,0,0,0,1.5461-1.0722,4.52,4.52,0,0,0,.5595-.7365,4.3618,4.3618,0,0,0-.8774-.2851,3.1363,3.1363,0,0,0-1.8476.0964,3.6389,3.6389,0,0,0-1.4664,1.168,5.0327,5.0327,0,0,0-.5048.7734,3.8132,3.8132,0,0,0,.8167.1873A3.6112,3.6112,0,0,0,27.5936,147.5851Z"/><path class="cls-21" d="M24.9169,144.494a2.9072,2.9072,0,0,0,1.2365-1.3318,2.86,2.86,0,0,0-.59-.1279,2.0842,2.0842,0,0,0-1.2056.1841,2.8106,2.8106,0,0,0-1.1743,1.3887,2.6611,2.6611,0,0,0,.5637.0793A2.4045,2.4045,0,0,0,24.9169,144.494Z"/><path class="cls-21" d="M23.08,142.2532a2.8333,2.8333,0,0,0,1.7937.11,2.6373,2.6373,0,0,0-1.1782-1.3993,2.6855,2.6855,0,0,0-1.822-.0392A2.7365,2.7365,0,0,0,23.08,142.2532Z"/><path class="cls-21" d="M33.2918,144.2421a4.0273,4.0273,0,0,1-.995,2.101,5.4426,5.4426,0,0,1-.8163.7861,8.1426,8.1426,0,0,1-.5242-1.0126,5.2976,5.2976,0,0,1-.441-2.3123,4.4375,4.4375,0,0,1,.82-2.1762,4.8345,4.8345,0,0,1,.7455-.8544,6.4925,6.4925,0,0,1,.6948,1.06A4.47,4.47,0,0,1,33.2918,144.2421Z"/><path class="cls-21" d="M30.9447,151.6291a5.0071,5.0071,0,0,0,2.0622-1.0173,5.54,5.54,0,0,0,.8149-.79,2.3388,2.3388,0,0,0-.27-.1729,5.7918,5.7918,0,0,0-.7366-.337,3.77,3.77,0,0,0-2.257-.1956,4.4358,4.4358,0,0,0-1.9684,1.1758,6.3517,6.3517,0,0,0-.7437.8564,4.4644,4.4644,0,0,0,.9384.3555A4.5921,4.5921,0,0,0,30.9447,151.6291Z"/><path class="cls-21" d="M38.0251,149.3447a4.032,4.032,0,0,1-1.3265,1.9047,5.4645,5.4645,0,0,1-.9361.6408,5.78,5.78,0,0,1-.3418-1.0917,4.9905,4.9905,0,0,1-.0523-2.3518,4.452,4.452,0,0,1,1.1692-2.0067,4.8591,4.8591,0,0,1,.8782-.719,5.1644,5.1644,0,0,1,.4993,1.1657A4.2564,4.2564,0,0,1,38.0251,149.3447Z"/><path class="cls-21" d="M34.4877,156.2369a4.9555,4.9555,0,0,0,2.2-.6588,5.524,5.524,0,0,0,.9339-.6425,5.2135,5.2135,0,0,0-.8937-.679,4.0454,4.0454,0,0,0-2.195-.5662,4.477,4.477,0,0,0-2.1437.8393,6.3308,6.3308,0,0,0-.8746.7206,6.9456,6.9456,0,0,0,.8633.5077A4.7271,4.7271,0,0,0,34.4877,156.2369Z"/><path class="cls-21" d="M41.6926,154.8769a3.9817,3.9817,0,0,1-1.6055,1.6644,5.4811,5.4811,0,0,1-1.0273.4829,5.7087,5.7087,0,0,1-.1763-1.1251,5.3243,5.3243,0,0,1,.3229-2.3314,4.4816,4.4816,0,0,1,1.4815-1.803,4.8222,4.8222,0,0,1,.9794-.57A5.2331,5.2331,0,0,1,41.6926,154.8769Z"/><path class="cls-21" d="M37.0889,161.1087a5.0348,5.0348,0,0,0,2.2861-.2964,5.4987,5.4987,0,0,0,1.0257-.4809,4.4308,4.4308,0,0,0-2.8579-1.7207,4.3923,4.3923,0,0,0-2.2348.4782,6.3622,6.3622,0,0,0-.9791.5712,4.346,4.346,0,0,0,.76.6405A4.8242,4.8242,0,0,0,37.0889,161.1087Z"/><path class="cls-12" d="M64.6,162.381h0a4.1971,4.1971,0,0,1-1.2507-5.8024l6.9743-10.807,7.0531,4.5516L70.4022,161.13A4.197,4.197,0,0,1,64.6,162.381Z"/><path class="cls-12" d="M130.4436,162.381h0a4.1972,4.1972,0,0,0,1.2507-5.8024l-6.9743-10.807-7.0532,4.5516,6.9745,10.8071A4.197,4.197,0,0,0,130.4436,162.381Z"/><path class="cls-22" d="M77.3769,150.319l-5.1135,7.9273a50.0967,50.0967,0,0,1-6.967-4.6839l5.0293-7.7924Z"/><path class="cls-22" d="M129.7509,153.5624a51.3713,51.3713,0,0,1-6.9668,4.6839l-5.1136-7.9273,7.0512-4.549Z"/><path class="cls-12" d="M134.7962,95.8577,111.82,72.8811l3.0635-3.0636a16.2471,16.2471,0,0,1,22.9767,0h0a16.2471,16.2471,0,0,1,0,22.9767Z"/><path class="cls-22" d="M141.2177,87.8947a16.1225,16.1225,0,0,1-3.3613,4.903l-3.0581,3.058L111.8168,72.8825l3.0664-3.0665a15.7079,15.7079,0,0,1,2.4515-2.0133A46.9607,46.9607,0,0,1,141.2177,87.8947Z"/><path class="cls-12" d="M60.2474,94.5941,83.224,71.6174,80.16,68.5539a16.2469,16.2469,0,0,0-22.9766,0h0a16.2471,16.2471,0,0,0,0,22.9767Z"/><path class="cls-22" d="M53.8258,86.6311a16.1238,16.1238,0,0,0,3.3613,4.9029l3.0581,3.058L83.2267,71.6189,80.16,68.5524a15.7246,15.7246,0,0,0-2.4515-2.0134A46.96,46.96,0,0,0,53.8258,86.6311Z"/><circle class="cls-23" cx="97.5217" cy="113.0962" r="46.8341" transform="translate(-34.6185 182.6678) rotate(-76.9959)"/><path class="cls-8" d="M136.61,113.1087h-.8462a39.8106,39.8106,0,0,1,.6347,4.0571,39.0866,39.0866,0,0,1-77.7492-.0076c-.0378-.3324-.068-.6648-.0907-1.0048q-.0339-.34-.0453-.68c-.0529-.7858-.0756-1.5715-.0756-2.3723A39.0836,39.0836,0,0,1,97.52,74.0113h.204a39.0956,39.0956,0,0,1,38.8859,39.09Z"/><path class="cls-24" d="M136.6085,113.1v.0084a40.3052,40.3052,0,0,1-.2106,4.0605A39.0926,39.0926,0,0,0,97.7218,82.1324H97.52a39.0828,39.0828,0,0,0-38.87,35.0284,37.9534,37.9534,0,0,1-.2107-4.06A39.0828,39.0828,0,0,1,97.52,74.0114h.2022A39.0905,39.0905,0,0,1,136.6085,113.1Z"/><rect class="cls-23" x="96.1679" y="72.3435" width="2.7078" height="5.7166"/><rect class="cls-23" x="96.1679" y="148.1325" width="2.7078" height="5.7166"/><rect class="cls-23" x="131.7155" y="111.7424" width="6.5589" height="2.7078"/><rect class="cls-23" x="56.769" y="111.7424" width="6.5589" height="2.7078"/><rect class="cls-23" x="129.6199" y="129.1212" width="1.0229" height="4.8737" transform="translate(-48.4831 179.9169) rotate(-60.4617)"/><rect class="cls-23" x="64.4004" y="92.1973" width="1.0229" height="4.8737" transform="translate(-49.4209 104.4934) rotate(-60.4814)"/><rect class="cls-23" x="116.148" y="142.8771" width="1.0229" height="4.8737" transform="translate(-57.8254 79.8875) rotate(-30.6877)"/><rect class="cls-23" x="77.8724" y="78.4416" width="1.0229" height="4.8737" transform="translate(-30.313 51.3767) rotate(-30.7124)"/><rect class="cls-23" x="76.6229" y="145.1946" width="4.8737" height="1.023" transform="translate(-86.6851 142.6459) rotate(-60.4581)"/><rect class="cls-23" x="113.5467" y="79.9752" width="4.8737" height="1.0229" transform="translate(-11.1964 141.7691) rotate(-60.486)"/><rect class="cls-23" x="62.867" y="131.7227" width="4.8737" height="1.0229" transform="translate(-58.347 51.8542) rotate(-30.6914)"/><rect class="cls-23" x="127.3025" y="93.4471" width="4.8737" height="1.0229" transform="translate(-29.7892 79.4272) rotate(-30.7078)"/><rect class="cls-25" x="101.4707" y="112.1147" width="22.8359" height="1.715"/><rect class="cls-26" x="81.1198" y="108.0524" width="1.2636" height="29.7818" transform="translate(140.6236 -12.4541) rotate(57.1219)"/><circle class="cls-27" cx="97.5217" cy="115.5333" r="5.63"/><path class="cls-28" d="M103.1517,113.0962a5.63,5.63,0,1,1-5.63-5.63A5.63,5.63,0,0,1,103.1517,113.0962Z"/><path class="cls-29" d="M99.9587,113.0962a2.437,2.437,0,1,1-2.437-2.437A2.437,2.437,0,0,1,99.9587,113.0962Z"/><rect class="cls-25" x="83.1928" y="92.6635" width="28.4321" height="1.715" transform="translate(3.8879 190.9299) rotate(-90)"/><circle class="cls-26" cx="50.7349" cy="112.0811" r="17.1905"/><circle class="cls-8" cx="50.7349" cy="112.0811" r="12.5923"/><circle class="cls-26" cx="50.7349" cy="112.0811" r="9.6719"/><circle class="cls-8" cx="50.735" cy="112.0811" r="5.4884"/><circle class="cls-26" cx="50.735" cy="112.0811" r="3.4462"/><path class="cls-8" d="M51.6739,112.23a1.0431,1.0431,0,1,1-1.0431-1.0431A1.0431,1.0431,0,0,1,51.6739,112.23Z"/><polygon class="cls-30" points="34.398 97.57 33.862 94.726 30.389 92.047 30.918 94.557 34.398 97.57"/><polygon class="cls-30" points="33.92 97.726 31.026 97.726 27.75 94.809 30.565 94.809 33.92 97.726"/><path class="cls-31" d="M48.0389,109.7678c-.1134.1306-.42.052-.6806-.1746L30.2873,94.77c-.2609-.2267-.3816-.5187-.2682-.6492s.42-.0518.6806.1748l17.0709,14.823C48.0317,109.3449,48.1524,109.6371,48.0389,109.7678Z"/><polygon class="cls-30" points="50.631 112.081 48.524 108.669 46.84 110.474 50.631 112.081"/><path class="cls-20" d="M75.7074,162.7328l-.4314.05q-1.524-13.1941-4.1327-26.2326l.4259-.0854Q74.1857,149.5047,75.7074,162.7328Z"/><path class="cls-20" d="M74.7464,138.9309a4.1179,4.1179,0,0,1-2.5658.986,4.2144,4.2144,0,0,1,1.0528-2.5439,4.1445,4.1445,0,0,1,2.558-1.0066A4.1705,4.1705,0,0,1,74.7464,138.9309Z"/><path class="cls-20" d="M69.8006,142.78a4.1969,4.1969,0,0,0,2.7484-.0023,4.0966,4.0966,0,0,0-1.9031-1.9758,4.1684,4.1684,0,0,0-2.7472.0241A4.1508,4.1508,0,0,0,69.8006,142.78Z"/><path class="cls-20" d="M69.9407,138.4977a2.7437,2.7437,0,0,0,1.803-.0252,2.6894,2.6894,0,0,0-1.2643-1.2824,2.7332,2.7332,0,0,0-1.803.0347A2.7318,2.7318,0,0,0,69.9407,138.4977Z"/><path class="cls-20" d="M70.3614,135.5677a2.7361,2.7361,0,0,0,1.09,1.4336,2.2814,2.2814,0,0,0-.8134-3.213A2.7252,2.7252,0,0,0,70.3614,135.5677Z"/><path class="cls-20" d="M76.2723,143.7648a5.0432,5.0432,0,0,1-3.1675,1.161,5.1894,5.1894,0,0,1,1.3379-3.1039,5.081,5.081,0,0,1,3.156-1.1922A5.1123,5.1123,0,0,1,76.2723,143.7648Z"/><path class="cls-20" d="M70.1243,148.388a5.16,5.16,0,0,0,3.3719.0567,5.01,5.01,0,0,0-2.2932-2.4633,5.1172,5.1172,0,0,0-3.3712-.0237A5.0889,5.0889,0,0,0,70.1243,148.388Z"/><path class="cls-20" d="M77.311,150.09a5.0426,5.0426,0,0,1-3.19,1.098,5.1878,5.1878,0,0,1,1.4-3.0769A5.0809,5.0809,0,0,1,78.7,146.9818,5.112,5.112,0,0,1,77.311,150.09Z"/><path class="cls-20" d="M71.073,154.59a5.157,5.157,0,0,0,3.37.1237A5.0155,5.0155,0,0,0,72.2,152.2056a5.12,5.12,0,0,0-3.371-.09A5.0871,5.0871,0,0,0,71.073,154.59Z"/><path class="cls-20" d="M78.1843,156.1346a5.04,5.04,0,0,1-3.2088,1.0374,5.1957,5.1957,0,0,1,1.4562-3.05,5.0848,5.0848,0,0,1,3.2008-1.0693A5.107,5.107,0,0,1,78.1843,156.1346Z"/><path class="cls-20" d="M71.8621,160.5162a5.1609,5.1609,0,0,0,3.3677.1872,5.01,5.01,0,0,0-2.1961-2.55,5.1146,5.1146,0,0,0-3.3669-.1543A5.0959,5.0959,0,0,0,71.8621,160.5162Z"/><circle class="cls-23" cx="62.6101" cy="146.909" r="6.1085"/><path class="cls-29" d="M62.6362,141.8112H62.61a5.0978,5.0978,0,1,0,5.0983,5.0994V146.91A5.0985,5.0985,0,0,0,62.6362,141.8112Z"/><rect class="cls-25" x="62.8108" y="145.5257" width="3.7084" height="0.2236" transform="translate(-64.1553 51.8443) rotate(-30)"/><path class="cls-27" d="M67.7081,146.91v.0011a5.2517,5.2517,0,0,1-.0274.53,5.0988,5.0988,0,0,0-5.0445-4.57H62.61a5.0975,5.0975,0,0,0-5.07,4.5687,4.9739,4.9739,0,0,1-.0274-.53,5.0975,5.0975,0,0,1,5.0972-5.0983h.0264A5.0985,5.0985,0,0,1,67.7081,146.91Z"/><rect class="cls-23" x="62.4335" y="141.5937" width="0.3532" height="0.7456"/><rect class="cls-23" x="62.4335" y="151.4787" width="0.3532" height="0.7456"/><rect class="cls-23" x="67.0699" y="146.7324" width="0.8555" height="0.3532"/><rect class="cls-23" x="57.2948" y="146.7324" width="0.8555" height="0.3532"/><rect class="cls-23" x="66.7966" y="148.9991" width="0.1334" height="0.6357" transform="translate(-96.0108 133.8811) rotate(-60.4636)"/><rect class="cls-23" x="58.2901" y="144.1831" width="0.1334" height="0.6357" transform="translate(-96.1393 124.0801) rotate(-60.4791)"/><rect class="cls-23" x="65.0395" y="150.7932" width="0.1334" height="0.6357" transform="translate(-68.0182 54.409) rotate(-30.6964)"/><rect class="cls-23" x="60.0473" y="142.389" width="0.1334" height="0.6357" transform="translate(-64.484 50.7597) rotate(-30.7317)"/><rect class="cls-23" x="59.8843" y="151.0955" width="0.6357" height="0.1334" transform="translate(-100.9859 128.9643) rotate(-60.4434)"/><rect class="cls-23" x="64.7002" y="142.5891" width="0.6357" height="0.1334" transform="translate(-91.1594 128.9956) rotate(-60.4993)"/><rect class="cls-23" x="58.0901" y="149.3384" width="0.6357" height="0.1334" transform="translate(-68.0858 50.7506) rotate(-30.6964)"/><rect class="cls-23" x="66.4943" y="144.3462" width="0.6357" height="0.1334" transform="translate(-64.3598 54.3414) rotate(-30.6964)"/><rect class="cls-25" x="59.2564" y="145.7791" width="2.9785" height="0.2237" transform="matrix(-0.866, -0.5, 0.5, -0.866, 40.4052, 302.6087)"/><rect class="cls-26" x="63.0141" y="142.6835" width="0.1648" height="3.8844" transform="translate(94.5371 299.2519) rotate(-167.923)"/><path class="cls-27" d="M63.3444,147.2269a.7343.7343,0,1,1-.7343-.7344A.7343.7343,0,0,1,63.3444,147.2269Z"/><path class="cls-23" d="M63.3444,146.909a.7343.7343,0,1,1-.7343-.7344A.7344.7344,0,0,1,63.3444,146.909Z"/><path class="cls-29" d="M62.9279,146.909a.3179.3179,0,1,1-.3178-.3179A.3179.3179,0,0,1,62.9279,146.909Z"/><path class="cls-32" d="M50.1305,139.51l.4489-1.1395.7165.5439a7.3737,7.3737,0,0,0,.4748-1.8215c.5352.19,2.633.5525,2.633.5525,1.1826-2.0373-1.4375-3.0225-2.8366-2.7913-1.174.3108-1.7906.7108-1.9633,1.7726A6.9748,6.9748,0,0,0,50.1305,139.51Z"/><path class="cls-33" d="M54.4033,137.6417s-.2881.8886.0708,1.36.5372.4787.5372.4787a2.9722,2.9722,0,0,0-.7732.973,1.3465,1.3465,0,0,1-1.55.7648c-.804-.12-.8939-.3065-.8939-.3065l-.683,1.4866a6.1318,6.1318,0,0,1-1.3416-1.6935l.5021-1.624s-.5825-1.0185.0693-1.2192.9546,1.0526.9546,1.0526l.42-1.8623Z"/><path class="cls-34" d="M51.7938,140.9116a5.9882,5.9882,0,0,1-1.5225-1.8309l-.2182.7055s1.0116,1.2181,1.6387,1.3015Z"/><path class="cls-33" d="M59.7066,153.2953l1.4959.4725a1.2021,1.2021,0,0,0,1.5041-.7714l.1447-.4411-.578-.37-.2-.3722h-.4579l-1.5165.3734Z"/><path class="cls-32" d="M61.2306,161.3039l1.5106,2.2242H67.985a3.43,3.43,0,0,0-2.7528-1.3991,2.658,2.658,0,0,1-2.491-1.6339l-1.458.6043"/><path class="cls-23" d="M48.6243,153.5246l5.35-3.8026a2.7939,2.7939,0,0,1,2.7085-.2953h0a2.7934,2.7934,0,0,1,1.41,1.3248l5.1651,10.3479-2.0272.2045-5.9842-7.7793-4.7012,3.9544Z"/><path class="cls-32" d="M42.811,160.7993h-2.3l-2.0778,1.9723s.3591.529,1.4586.1246A20.2969,20.2969,0,0,1,43.62,162.29Z"/><path class="cls-23" d="M47.6983,152.1865l.1642.1937,7.7784,7.4955a1.6835,1.6835,0,0,1,.5153,1.2123h0a1.6836,1.6836,0,0,1-1.6836,1.6836H42.811v-1.9723l7.456-.68-4.3095-3.1935a5.12,5.12,0,0,1-2.0561-3.7167l.1607-1.0228Z"/><path class="cls-35" d="M50.0181,140.5153h-.1746a3.1809,3.1809,0,0,0-2.3866,1.0778l-1.59,1.8037a3.9868,3.9868,0,0,0-.9534,2.0556l-1.0918,7.4222,4.7844.4241a.9826.9826,0,0,0,1.0694-.9764l.0033-1.4215a11.6738,11.6738,0,0,1,1.3412-5.4052l.3843-.7311.1993-1.4165a2.4507,2.4507,0,0,0-.8544-2.221Z"/><polygon class="cls-24" points="50.412 146.85 50.022 148.084 47.698 143.291 50.412 146.85"/><polygon class="cls-35" points="50.462 141.227 54.615 149.373 60.301 152.186 59.897 153.393 52.769 151.078 47.698 143.559 48.164 141.639 50.462 141.227"/><path class="cls-21" d="M119.6265,162.7576l-.4146-.009a41.14,41.14,0,0,1,8.3166-23.74l.33.2507A40.7268,40.7268,0,0,0,119.6265,162.7576Z"/><path class="cls-21" d="M128.3209,142.9823a4.2535,4.2535,0,0,1-2.4123-1.0152,3.82,3.82,0,0,1,.6934-.5215,3.2143,3.2143,0,0,1,1.7011-.4523,3.3936,3.3936,0,0,1,1.662.6131,4.6859,4.6859,0,0,1,.6818.5467A3.8683,3.8683,0,0,1,128.3209,142.9823Z"/><path class="cls-21" d="M122.3541,142.5923a3.1493,3.1493,0,0,0,1.2355,1.2851,4.2073,4.2073,0,0,0,.7876.3792,4.3333,4.3333,0,0,0,.1415-.8646,3.9325,3.9325,0,0,0-.2688-1.7881,3.8767,3.8767,0,0,0-1.9255-1.7876,4.7834,4.7834,0,0,0-.2191.9223A3.46,3.46,0,0,0,122.3541,142.5923Z"/><path class="cls-21" d="M125.3562,139.4672a2.4872,2.4872,0,0,0,1.2156,1.2209,2.8561,2.8561,0,0,0,.1431-.5587,2.1794,2.1794,0,0,0-1.2376-2.4482,3.0138,3.0138,0,0,0-.1856.5763A2.2343,2.2343,0,0,0,125.3562,139.4672Z"/><path class="cls-21" d="M127.7591,137.8137a2.5391,2.5391,0,0,0-.36,1.7017,2.7061,2.7061,0,0,0,1.4552-.9029,2.6575,2.6575,0,0,0,.4134-1.6679A2.6112,2.6112,0,0,0,127.7591,137.8137Z"/><path class="cls-21" d="M126.66,147.1094a4.6443,4.6443,0,0,1-2.141-.385,5.2387,5.2387,0,0,1-.9466-.5083,4.0314,4.0314,0,0,1,.7811-.7286,3.6564,3.6564,0,0,1,2.0035-.78,4.2107,4.2107,0,0,1,2.1073.5384,5.91,5.91,0,0,1,.9047.5788,4.35,4.35,0,0,1-.7675.5845A4.2459,4.2459,0,0,1,126.66,147.1094Z"/><path class="cls-21" d="M119.3343,147.5408a3.8312,3.8312,0,0,0,1.7159,1.3711,5.1609,5.1609,0,0,0,1.02.3323,6.411,6.411,0,0,0,.0275-1.0781,4.9479,4.9479,0,0,0-.5967-2.1425,4.2139,4.2139,0,0,0-1.6189-1.4932,4.6431,4.6431,0,0,0-.9928-.4089,6.0533,6.0533,0,0,0-.1312,1.1777A4.1621,4.1621,0,0,0,119.3343,147.5408Z"/><path class="cls-21" d="M124.5641,152.2708a4.634,4.634,0,0,1-2.1773-.0675,5.2216,5.2216,0,0,1-1.01-.3636,4.9836,4.9836,0,0,1,.6582-.8379,3.815,3.815,0,0,1,1.8692-1.0656,4.2018,4.2018,0,0,1,2.1661.2229,5.8831,5.8831,0,0,1,.979.4391,5.7233,5.7233,0,0,1-.6655.6953A4.4789,4.4789,0,0,1,124.5641,152.2708Z"/><path class="cls-21" d="M117.3784,153.7722a3.8654,3.8654,0,0,0,1.9012,1.1049,5.1714,5.1714,0,0,0,1.0592.1786,5.4591,5.4591,0,0,0-.1446-1.0737,4.579,4.579,0,0,0-.9029-2.0318,4.1808,4.1808,0,0,0-1.8126-1.2372,4.6638,4.6638,0,0,0-1.0429-.2591,4.6614,4.6614,0,0,0,.0459,1.185A4.0729,4.0729,0,0,0,117.3784,153.7722Z"/><path class="cls-21" d="M123.2916,157.42a4.6907,4.6907,0,0,1-2.1727.2385,5.2207,5.2207,0,0,1-1.0506-.2172,4.27,4.27,0,0,1,2.2457-2.2371,4.175,4.175,0,0,1,2.1666-.0845,5.9224,5.9224,0,0,1,1.0325.2979A4.8582,4.8582,0,0,1,123.2916,157.42Z"/><path class="cls-21" d="M116.3936,159.9264a3.82,3.82,0,0,0,2.032.8214,5.1827,5.1827,0,0,0,1.0745.0248,5.6436,5.6436,0,0,0-1.4676-2.9249,4.2522,4.2522,0,0,0-1.9831-.9716,4.6489,4.6489,0,0,0-1.0687-.109,6.12,6.12,0,0,0,.221,1.171A4.03,4.03,0,0,0,116.3936,159.9264Z"/><path class="cls-26" d="M157.52,76.9727,128.9321,90.865a1.7981,1.7981,0,0,1-2.403-.8314h0a1.7979,1.7979,0,0,1,.8312-2.403l28.5875-13.8923a1.7979,1.7979,0,0,1,2.403.8312h0A1.7981,1.7981,0,0,1,157.52,76.9727Z"/><path class="cls-26" d="M181.7043,126.74,153.117,140.6321a1.7981,1.7981,0,0,1-2.4031-.8313h0a1.798,1.798,0,0,1,.8312-2.4031l28.5875-13.8922a1.7979,1.7979,0,0,1,2.403.8312h0A1.798,1.798,0,0,1,181.7043,126.74Z"/><path class="cls-36" d="M156.2028,106.3735a3.5113,3.5113,0,0,0,2.28,1.8681l6.1654,1.5962a20.6581,20.6581,0,0,1,13.3979,10.9675l1.46,3.0042-13.4617,6.7976-.0523.0285-.0524.0224-13.6653,6.385-1.46-3.0041a20.6609,20.6609,0,0,1-.3419-17.3123l2.5523-5.8326a3.5149,3.5149,0,0,0-2.34-4.8153l-6.163-1.5974a20.6607,20.6607,0,0,1-13.4-10.9663l-1.46-3.0041,13.4643-6.7989.05-.0273.0547-.0236,13.663-6.3838,1.46,3.0041a20.6582,20.6582,0,0,1,.3443,17.3111l-2.5548,5.8338A3.5117,3.5117,0,0,0,156.2028,106.3735Z"/><path class="cls-12" d="M152.2659,103.9074s7.3662,14.2061,8.4184,19.2249c.5622,2.6808-5.7472,4.9783-5.99,13.7206L178.25,124.63a18.488,18.488,0,0,0-11.4136-3.1569c-5.6549.4624-12.3849-17.7274-13.842-19.1035S152.2659,103.9074,152.2659,103.9074Z"/><path class="cls-12" d="M158.8225,117.547c2.9141,7.8922-4.0473,5.14-5.99,9.2683s.8905,9.309,1.9833,9.5518,8.8637-10.8064,8.8637-10.8064l-4.8569-8.0137"/><path class="cls-8" d="M159.2273,109.4117c8.8232,3.2379,13.68,6.3949,15.7037,10.0374s-.8094.5667-3.8854-1.8617-5.1-3.4-7.3662-5.1S159.2273,109.4117,159.2273,109.4117Z"/><path class="cls-32" d="M150.551,123.4966c1.27,1.1891,1.0029,2.12.6544,2.61,0,0-1.9854.3942-2.5258.4052a6.9,6.9,0,0,1,.19,1.7806l-1.4455-.4226a2.5244,2.5244,0,0,1-.4828-1.7359,2.33,2.33,0,0,1,1.5023-1.8363c.7451-.22,1.8419.2175,2.04-.7735Z"/><path class="cls-37" d="M151.2054,126.1067s.0447.8887.5239,1.1868.6405.244.6405.244a2.83,2.83,0,0,0-.3589,1.1283,1.2826,1.2826,0,0,1-1.1211,1.2062c-.7563.1659-.9.03-.9.03l-.1044,1.5549a5.84,5.84,0,0,1-1.7682-1.0531l-.1032-1.616s-.8638-.7094-.3513-1.1088,1.2064.6136,1.2064.6136l-.257-1.8Z"/><path class="cls-34" d="M149.99,129.9019a5.7053,5.7053,0,0,1-1.9758-1.1142l.0449.702s1.3132.7417,1.9.6035Z"/><path class="cls-32" d="M167.8808,154.45l1.6711,1.6861s3.46-1.8479,4.3878-2.4194-1.8929-.9813-2.7778-.4335a3.5983,3.5983,0,0,1-2.4925-.0153Z"/><path class="cls-32" d="M144.8148,160.3993l-1.2632,2.6866s4.2054-.0389,5.2927-.1165-.2728-1.6365-1.9007-1.6386c-1.0409-.0013-.8246-1.1962-.8246-1.1962Z"/><polygon class="cls-23" points="155.13 141.86 163.234 144.988 169.327 153.092 168.091 154.945 162.795 148.688 154.292 146.12 152.37 153.301 146.27 160.696 144.54 160.696 149.002 152.642 149.565 141.851 155.13 141.86"/><path class="cls-25" d="M150.279,131.1838l-2.1615-.78h0a2.1227,2.1227,0,0,0-.929,2.188l1.3181,10.3769a.8885.8885,0,0,0,1.0886.752L155.13,141.86l-4.0615-9.7812Z"/><path class="cls-38" d="M153.9783,139.0866s-3.8228-2.1382-4.4681-3.0437c0,0,3.0133,4.023,5.0144,4.36Z"/><path class="cls-37" d="M159.7737,137.7938s1.4267-.2731,1.9124-.3946.2124-1.3963-.1821-1.6088-1.0018.1518-1.0018.1518-.1214-.3947-.3339-.1518a6.6021,6.6021,0,0,0-.5767,1.1535Z"/><path class="cls-25" d="M149.9351,132.2177l5.1856,4.569a1.6808,1.6808,0,0,0,1.3782.3983s2.2305-.3729,3.1374-.5052c.3014-.0439.3162,1.1767.3162,1.1767l-3.3865,1.8751a1.68,1.68,0,0,1-1.76-.0813l-5.2956-3.6074-.8787-2.3818Z"/><path class="cls-12" d="M158.0864,90.9679a18.371,18.371,0,0,1-1.4641,5.7192l-2.5506,5.8314a5.6517,5.6517,0,0,0-.4814,2.5879,5.77,5.77,0,0,0-2.34-1.2211l-6.16-1.5958a18.3536,18.3536,0,0,1-10.9632-8.0373C141.29,96.103,149.2659,86.0748,158.0864,90.9679Z"/><path class="cls-8" d="M153.7229,100.4671c3.1453-7.7585,4.5533-13.4574,2.4284-17.7679s-1.5177-1.882-1.0928,2.2463a37.1684,37.1684,0,0,1-.4249,10.3815C154.1479,98.12,152.8123,102.7134,153.7229,100.4671Z"/></g></g></svg>