<svg id="Capa_1" data-name="Capa 1" xmlns="http://www.w3.org/2000/svg" width="15cm" height="15cm" viewBox="0 0 425.1973 425.1982"><defs><style>.cls-1{fill:#bfe1f5;}.cls-2{fill:#b0afb5;}.cls-3{fill:#5c5b5f;}.cls-4{fill:#89878c;}.cls-5{fill:#fac300;}.cls-6{fill:#342e2d;}.cls-7{fill:#434041;}.cls-8{fill:#737277;}.cls-9{fill:#1f140f;}.cls-10{fill:#28201e;}.cls-11{fill:#e0040b;}.cls-12{opacity:0.1;}.cls-13{fill:#fff;}.cls-14{fill:#c3c5ca;}.cls-15{fill:#f5ab00;}.cls-16{fill:#f29c00;}</style></defs><path class="cls-1" d="M0,311.783H90.3914q40.083-.3929,80.1655-.8483c50.2684-.5611,100.3682,1.0318,150.6343.2734,15.3782-.2321,30.75.5694,46.1285.4561,13.3759-.0987,28.9032,1.8724,40.861-4.1792a29.4272,29.4272,0,0,0,12.8038-12.71c12.7263-23.48-5.604-56.3344-25.3789-68.1569-10.4386-6.2409-23.08-6.336-33.87-11.6506-15.0741-7.4259-20.5165-23.4806-20.1541-39.5673.4629-20.5475,9.5524-39.7666,9.9513-60.36.6192-31.9553-33.6493-67.1946-64.2008-60.24-22.7792,5.1853-29.2172,31.1329-50.2667,38.8766-27.1774,9.9974-55.5542,2.78-82.4977-3.5657-9.8075-2.31-20.6331-2.9747-29.3589,2.3418-18.9691,11.5582-25.6077,32.3547-23.852,53.7251a138.8011,138.8011,0,0,0,6.174,30.037c5.1194,16.1451,22.9873,37.59,8.0987,53.7194-4.0409,4.378-9.468,7.1858-14.9318,9.5275C63.95,255.2109,8.0718,260.8778,0,308.9952Z"/><path class="cls-2" d="M167.0825,200.0088l6.9893,29.4464s11.703-10.8222,8.01-26.3861c-3.6948-15.5639-19.3047-21.1462-23.51-20.882L137.1736,91.8s16.2445-9.7255,11.7671-28.5839a28.1805,28.1805,0,0,0-19.1646-20.6077l6.9893,29.4484L110.5133,78.29,103.518,48.8414a26.5744,26.5744,0,0,0-8.0041,26.3862c3.9891,16.8028,19.1146,20.39,23.558,20.9l21.3523,90.3689s-16.2164,9.8356-11.6169,29.2183c3.8749,16.3305,19.0125,19.9733,19.0125,19.9733l-7.0393-29.6726Z"/><path class="cls-3" d="M148.6905,181.24a7.0174,7.0174,0,0,1-8.3825-5.286l-16.45-69.9953a6.9514,6.9514,0,1,1,13.5324-3.1805l16.4525,69.9973A7.0124,7.0124,0,0,1,148.6905,181.24Z"/><path class="cls-4" d="M129.754,100.669a3.7759,3.7759,0,0,0-2.774,4.5574l16.4525,69.9974a3.7428,3.7428,0,1,0,7.2855-1.7152l-16.45-69.9954A3.7746,3.7746,0,0,0,129.754,100.669Z"/><path class="cls-4" d="M107.3089,83.15,142.1,74.8914,134.922,44.6543a23.8426,23.8426,0,0,0-4.9958-2.08L136.92,72.0212l-26.2541,6.2307-6.9973-29.4445a22.6409,22.6409,0,0,0-3.5867,3.9231Z"/><path class="cls-3" d="M106.7785,83.9683,142.94,75.3877l-7.1875-30.2771-.8326-.4563,7.18,30.2371-34.7926,8.2562-7.2235-30.4051c-.18.2442-.36.5023-.5424.7665Z"/><path class="cls-4" d="M170.2869,195.147l-34.7905,8.2583,7.18,30.2351a23.9283,23.9283,0,0,0,4.9958,2.0816L140.68,206.2755l26.2521-6.2307,6.9973,29.4444a22.5418,22.5418,0,0,0,3.5867-3.923Z"/><path class="cls-3" d="M170.8194,194.3264l-36.1616,8.5846,7.1855,30.2751.8326.4543-7.1775-30.237,34.7906-8.2564,7.2255,30.4052c.18-.2441.3623-.5.5443-.7645Z"/><path class="cls-3" d="M194.5935,181.0783c-.3923-6.8912.2642-69.3288.2642-69.3288l-5.6943-.0321s-.11,65.3218-.3824,69.3269c-.4723,6.8912-1.7853,10.7583-1.8133,15.4938l-.1222,21.1021,9.2611.0541.12-21.1021C196.2548,191.8545,194.9837,187.9716,194.5935,181.0783Z"/><path class="cls-5" d="M209.4028,67.2435c.2762-7.1735-.044-46.3734-.044-46.3734s.5083-5.9465-4.4475-8.35A32.69,32.69,0,0,0,192.562,9.4354h0a32.6765,32.6765,0,0,0-12.3855,2.9422c-4.98,2.3459-4.5415,8.2984-4.5415,8.2984s-.7706,39.1939-.5764,46.3714c.1921,7.1774,1.7894,10.0416,4.5775,17.86,2.7841,7.82-2.594,16.4325-2.594,16.4325-1.7674,1.263-2.27,5.314-1.7754,8.9688.6985,5.1359,10.12,7.1935,15.1116,7.5278.5163.036,1.0407.044,1.5632.042h0c.5224.008,1.0428.004,1.5632-.026,4.9918-.2762,14.4049-2.23,15.1936-7.3516.5364-3.4946.082-7.7039-1.6734-8.9889,0,0-5.278-8.6766-2.4018-16.4606C207.4973,77.2652,209.1286,74.4189,209.4028,67.2435Z"/><path class="cls-6" d="M196.0005,73.11a6.91,6.91,0,0,1-6.9553,6.8732h0A6.9162,6.9162,0,0,1,182.172,73.03l.3083-53.5489a6.9136,6.9136,0,0,1,6.9532-6.8733h0a6.9141,6.9141,0,0,1,6.8753,6.9533Z"/><path class="cls-6" d="M202.3514,107.0719l-.052,9.0689c3.2584-1.1549,6.0186-2.9643,6.4288-5.64.5405-3.4946.0841-7.7059-1.6693-8.9868,0,0-.1741-.2863-.4362-.7927A6.9174,6.9174,0,0,0,202.3514,107.0719Z"/><path class="cls-6" d="M202.8538,19.5992l-.3083,53.5468a6.9158,6.9158,0,0,0,4.1972,6.3968,33.928,33.928,0,0,0,2.6921-12.2993c.2762-7.1735-.0441-46.3734-.0441-46.3734s.39-4.59-2.8782-7.3335A6.913,6.913,0,0,0,202.8538,19.5992Z"/><path class="cls-6" d="M195.8064,107.0359a6.9144,6.9144,0,1,0-13.8286-.08l-.0519,9.181a33.7484,33.7484,0,0,0,8.4524,1.6993c.5163.036,1.0407.044,1.5632.042.5224.008,1.0428.004,1.5632-.026.6764-.036,1.4351-.1061,2.2417-.2061Z"/><path class="cls-4" d="M251.4508,58.2066l-5.8484-5.7724-2.0535-19.2306s-10.5962,5.9705-12.5357,30.5712Z"/><polygon class="cls-7" points="251.275 58.659 245.282 52.74 243.167 33.448 244.277 32.403 246.391 52.206 252.091 57.834 251.275 58.659"/><path class="cls-4" d="M238.0046,224.4675,256.849,93.6237,235.24,90.0168,210.5616,219.8839l.0421.008a13.87,13.87,0,0,0,27.3608,4.5675Z"/><path class="cls-2" d="M281.3757,48.6513c-5.7484-6.3769-21.33-18.1579-21.33-18.1579l3.5707,18.9645-6.6691,7.3457-31.1617,7.7679L235.17,90.169l21.59,3.6027,23.8063-30.0849S287.1221,55.03,281.3757,48.6513Z"/><rect class="cls-8" x="237.1867" y="65.7607" width="19.7186" height="16.9142" transform="translate(-10.7673 65.7126) rotate(-14.8319)"/><path class="cls-7" d="M242.78,81.9427a1.1029,1.1029,0,0,1-.7847,1.353h0a1.1081,1.1081,0,0,1-1.353-.7865L237.4061,70.28a1.1045,1.1045,0,0,1,.7846-1.353h0a1.1061,1.1061,0,0,1,1.3531.7846Z"/><path class="cls-7" d="M246.2889,81.016a1.106,1.106,0,0,1-.7866,1.351h0a1.1051,1.1051,0,0,1-1.351-.7866l-3.2385-12.2293a1.106,1.106,0,0,1,.7846-1.353h0a1.1081,1.1081,0,0,1,1.353.7866Z"/><path class="cls-7" d="M249.7956,80.0853a1.11,1.11,0,0,1-.7866,1.353h0a1.1075,1.1075,0,0,1-1.353-.7846l-3.2385-12.2313a1.1027,1.1027,0,0,1,.7866-1.351h0a1.1063,1.1063,0,0,1,1.353.7845Z"/><path class="cls-7" d="M253.3022,79.1566a1.11,1.11,0,0,1-.7865,1.353h0a1.108,1.108,0,0,1-1.353-.7866l-3.2385-12.2293a1.1071,1.1071,0,0,1,.7866-1.353h0a1.105,1.105,0,0,1,1.3509.7866Z"/><path class="cls-7" d="M256.807,78.23a1.103,1.103,0,0,1-.7867,1.351h0a1.1045,1.1045,0,0,1-1.351-.7866L251.4309,66.565a1.103,1.103,0,0,1,.7846-1.3511h0a1.1006,1.1006,0,0,1,1.351.7846Z"/><path class="cls-3" d="M233.9955,222.0856c-.5044,3.0123-1.4531,9.9315-10.66,8.3944l.008-.04c-8.41-1.4031-7.7659-8.3343-7.2616-11.3446l23.0216-117.64a5.613,5.613,0,0,1,6.525-4.5153h0a5.6129,5.6129,0,0,1,4.7036,6.3908Z"/><path class="cls-4" d="M244.9859,100.8311a2.8384,2.8384,0,0,0-3.2945,2.28l-22.345,116.0364c-.7646,4.5876.6164,6.8553,4.6335,7.5258l.9407.1561a5.5694,5.5694,0,0,0,3.7129-.7025c1.6052-1.1109,1.9874-3.4166,2.24-4.94l1.0889-6.531,15.39-110.5423A2.8485,2.8485,0,0,0,244.9859,100.8311Z"/><polygon class="cls-3" points="226.13 65.632 225.851 64.511 256.733 56.813 263.066 49.836 259.323 29.925 260.696 31.008 264.307 50.186 257.351 57.85 226.13 65.632"/><path class="cls-3" d="M325.6054,44.1579l1.2169-.5765-.9727-.3-1.5572-.4784-1.5411-.4764L300.2981,72.1413l-5.6544,18.3659s4.4215,5.23,5.8486,6.7872c4.3112,4.6956,7.5817-4.3833,7.5817-4.3833l8.4465-25.0451.006.006.8907-1.8475-1.1189-1.1268.8947-1.395-.9187-1.4372,1.5332-.7926-.5585-1.327,1.3851-.4283-.0781-2.07,1.4771.0821.2843-1.7374,1.5772.45.5665-1.6493,1.1388-.5483-.6806-1.169,1.221-.5824-.6845-1.1629,1.2209-.5784-.6825-1.1669,1.221-.5825-.6825-1.1628,1.2188-.5805-.6825-1.1649,1.2189-.5765Z"/><path class="cls-3" d="M328.5577,45.0666l-.6825-1.1609.9727.2983,1.5572.48,1.5411.4744,1.7934,37.28-5.6563,18.364s-6.5991,1.8394-8.6526,2.3217c-6.2067,1.4592-3.8049-7.8879-3.8049-7.8879l7.1054-25.4575h-.006l.3-2.0255,1.5591-.3022.0461-1.6593,1.5672-.6725-.8206-1.5172,1.2069-.7806-.9028-1.1348,1.2291-1.6674-1.2671-.7625.7406-1.5952-1.5571-.5164.46-1.6813-.6345-1.0948,1.2209-.5844-.6825-1.167,1.219-.5784L325.73,50.875l1.219-.58-.6825-1.167,1.2188-.5784-.68-1.1648,1.2189-.5805-.6825-1.1629Z"/><polygon class="cls-3" points="307.151 115.853 317.988 116.053 318.078 106.804 307.239 106.604 307.151 115.853"/><path class="cls-5" d="M322.8113,125.9743,318.47,115.0379l-12.3634-.3322-2.572,8.3824s8.8148,11.829.1642,39.4c-7.0494,22.4671-25.9678,55.124-16.2864,58.1063,11.1485,3.4326,30.197-41.7359,30.7014-74.667C318.1137,145.9275,316.4764,128.5,322.8113,125.9743Z"/><polygon class="cls-3" points="303.485 114.724 294.412 108.793 299.541 101.095 308.614 107.026 303.485 114.724"/><path class="cls-5" d="M284.8423,114.2814l9.7414-6.597,10.41,6.677-2.5879,8.3785s-13.9426,4.8217-22.301,32.4827c-6.8092,22.5412-9.5373,60.184-19.2187,57.2016-11.15-3.4326-1.4911-51.4912,16.6167-79.0022C277.5027,133.422,288.6592,119.9356,284.8423,114.2814Z"/><polygon class="cls-9" points="318.016 111.085 328.083 100.803 333.74 82.439 331.886 82.993 323.045 101.792 318.006 107.468 318.016 111.085"/><polygon class="cls-9" points="297.136 104.816 294.596 90.651 300.25 72.287 301.469 73.786 298.204 94.304 299.179 101.832 297.136 104.816"/><path class="cls-3" d="M324.1984,99.8724A13.508,13.508,0,1,1,315.2635,82.99,13.5063,13.5063,0,0,1,324.1984,99.8724Z"/><path class="cls-9" d="M318.2918,98.055a7.1614,7.1614,0,1,1-4.7375-8.9508A7.1606,7.1606,0,0,1,318.2918,98.055Z"/><path class="cls-9" d="M317.8935,151.91c-6.1066,22.6873-21.17,45.8469-27.6631,55.8766-3.8549,5.9546-3.8849,10.0957-3.0123,12.7117a2.6052,2.6052,0,0,0,.2542.114C297.9623,223.843,315.44,184.0526,317.8935,151.91Z"/><path class="cls-9" d="M274.4444,138.5318c-7.7139,22.191-8.2863,49.8141-8.56,61.7592-.1622,7.0914-2.466,10.53-4.6616,12.2033a2.7627,2.7627,0,0,1-.2742-.05C250.46,209.2157,258.39,166.4872,274.4444,138.5318Z"/><rect class="cls-10" x="80.6006" y="297.1769" width="31.7682" height="10.2478"/><rect class="cls-10" x="330.3911" y="297.1769" width="31.7682" height="10.2478"/><rect class="cls-11" x="69.37" y="188.558" width="304.0198" height="106.3891"/><rect class="cls-6" x="64.9305" y="174.6294" width="312.8988" height="20.8379"/><rect class="cls-10" x="64.9305" y="192.3929" width="312.8988" height="7.856"/><rect class="cls-6" x="69.3179" y="282.1174" width="304.124" height="20.0413"/><polygon class="cls-7" points="377.829 174.651 64.931 174.651 81.691 153.643 361.068 153.643 377.829 174.651"/><polygon class="cls-6" points="165.009 166.137 165.009 119.884 182.174 119.884 175.705 136.991 182.174 166.137 165.009 166.137"/><polygon class="cls-6" points="277.821 166.137 277.821 119.884 260.656 119.884 267.125 136.991 260.656 166.137 277.821 166.137"/><rect class="cls-7" x="164.9389" y="119.8896" width="112.864" height="17.1651"/><rect class="cls-11" x="184.7119" y="118.6727" width="78.9562" height="19.727"/><rect class="cls-11" x="184.714" y="137.5351" width="5.1639" height="2.5939"/><rect class="cls-11" x="192.0895" y="137.5351" width="5.164" height="2.5939"/><rect class="cls-11" x="199.4672" y="137.5351" width="5.164" height="2.5939"/><rect class="cls-11" x="206.8428" y="137.5351" width="5.164" height="2.5939"/><rect class="cls-11" x="214.2204" y="137.5351" width="5.164" height="2.5939"/><rect class="cls-11" x="221.5961" y="137.5351" width="5.164" height="2.5939"/><rect class="cls-11" x="228.9737" y="137.5351" width="5.164" height="2.5939"/><rect class="cls-11" x="236.3493" y="137.5351" width="5.1639" height="2.5939"/><rect class="cls-11" x="243.727" y="137.5351" width="5.164" height="2.5939"/><rect class="cls-11" x="251.1026" y="137.5351" width="5.1639" height="2.5939"/><rect class="cls-11" x="258.4802" y="137.5351" width="5.1639" height="2.5939"/><g class="cls-12"><rect class="cls-13" x="75.4346" y="206.876" width="9.7354" height="70.1975"/><rect class="cls-13" x="95.59" y="206.876" width="9.7354" height="70.1975"/><rect class="cls-13" x="115.7433" y="206.876" width="9.7354" height="70.1975"/><rect class="cls-13" x="135.8967" y="206.876" width="9.7354" height="70.1975"/><rect class="cls-13" x="156.0501" y="206.876" width="9.7354" height="70.1975"/><rect class="cls-13" x="176.2054" y="206.876" width="9.7354" height="70.1975"/><rect class="cls-13" x="196.3588" y="206.876" width="9.7354" height="70.1975"/><rect class="cls-13" x="216.5122" y="206.876" width="9.7354" height="70.1975"/><rect class="cls-13" x="236.6656" y="206.876" width="9.7354" height="70.1975"/><rect class="cls-13" x="256.8209" y="206.876" width="9.7354" height="70.1975"/><rect class="cls-13" x="276.9744" y="206.876" width="9.7354" height="70.1975"/><rect class="cls-13" x="297.1277" y="206.876" width="9.7354" height="70.1975"/><rect class="cls-13" x="317.2811" y="206.876" width="9.7354" height="70.1975"/><rect class="cls-13" x="337.4365" y="206.876" width="9.7354" height="70.1975"/><rect class="cls-13" x="357.5899" y="206.876" width="9.7354" height="70.1975"/></g><rect class="cls-6" x="309.7653" y="217.2539" width="47.7825" height="2.8862"/><rect class="cls-4" x="316.3204" y="182.9038" width="35.6332" height="33.6376"/><rect class="cls-3" x="319.6009" y="185.4477" width="3.8949" height="28.5517"/><rect class="cls-3" x="328.0413" y="185.4477" width="3.895" height="28.5517"/><rect class="cls-3" x="336.4817" y="185.4477" width="3.8969" height="28.5517"/><rect class="cls-3" x="344.9221" y="185.4477" width="3.897" height="28.5517"/><polygon class="cls-3" points="316.33 216.523 351.917 216.523 353.423 221.529 314.825 221.529 316.33 216.523"/><path class="cls-6" d="M314.0846,220.9327a2.3559,2.3559,0,0,1-2.3558,2.3559h0a2.3559,2.3559,0,0,1-2.3558-2.3559V185.47a2.3559,2.3559,0,0,1,2.3558-2.3559h0a2.3559,2.3559,0,0,1,2.3558,2.3559Z"/><path class="cls-6" d="M358.9909,220.9327a2.3559,2.3559,0,0,1-2.3558,2.3559h0a2.3559,2.3559,0,0,1-2.3558-2.3559V185.47a2.3559,2.3559,0,0,1,2.3558-2.3559h0a2.3559,2.3559,0,0,1,2.3558,2.3559Z"/><path class="cls-14" d="M358.3724,190.2774a1.6283,1.6283,0,1,1-1.6273-1.6273A1.6276,1.6276,0,0,1,358.3724,190.2774Z"/><polygon class="cls-7" points="357.009 190.013 357.79 190.277 357.009 190.544 356.745 191.322 356.481 190.544 355.7 190.277 356.481 190.013 356.745 189.235 357.009 190.013"/><path class="cls-14" d="M358.3724,218.659a1.6283,1.6283,0,1,1-1.6273-1.6272A1.6276,1.6276,0,0,1,358.3724,218.659Z"/><polygon class="cls-7" points="357.009 218.395 357.79 218.659 357.009 218.923 356.745 219.704 356.481 218.923 355.7 218.659 356.481 218.395 356.745 217.616 357.009 218.395"/><path class="cls-14" d="M313.316,190.2774a1.6283,1.6283,0,1,1-1.6292-1.6273A1.628,1.628,0,0,1,313.316,190.2774Z"/><polygon class="cls-7" points="311.953 190.013 312.732 190.277 311.953 190.544 311.689 191.322 311.423 190.544 310.644 190.277 311.423 190.013 311.689 189.235 311.953 190.013"/><path class="cls-14" d="M313.316,218.659a1.6283,1.6283,0,1,1-1.6292-1.6272A1.628,1.628,0,0,1,313.316,218.659Z"/><polygon class="cls-7" points="311.953 218.395 312.732 218.659 311.953 218.923 311.689 219.704 311.423 218.923 310.644 218.659 311.423 218.395 311.689 217.616 311.953 218.395"/><rect class="cls-6" x="84.1613" y="217.2539" width="47.7824" height="2.8862"/><rect class="cls-4" x="90.7162" y="182.9038" width="35.6332" height="33.6376"/><rect class="cls-3" x="93.9967" y="185.4477" width="3.897" height="28.5517"/><rect class="cls-3" x="102.4371" y="185.4477" width="3.897" height="28.5517"/><rect class="cls-3" x="110.8776" y="185.4477" width="3.8969" height="28.5517"/><rect class="cls-3" x="119.3181" y="185.4477" width="3.8969" height="28.5517"/><polygon class="cls-3" points="90.726 216.523 126.315 216.523 127.819 221.529 89.221 221.529 90.726 216.523"/><path class="cls-6" d="M88.4805,220.9327a2.3559,2.3559,0,0,1-2.3557,2.3559h0a2.3559,2.3559,0,0,1-2.3559-2.3559V185.47a2.3559,2.3559,0,0,1,2.3559-2.3559h0a2.3559,2.3559,0,0,1,2.3557,2.3559Z"/><path class="cls-6" d="M133.3868,220.9327a2.3555,2.3555,0,0,1-2.3538,2.3559h0a2.3563,2.3563,0,0,1-2.3578-2.3559V185.47a2.3563,2.3563,0,0,1,2.3578-2.3559h0a2.3555,2.3555,0,0,1,2.3538,2.3559Z"/><path class="cls-14" d="M132.77,190.2774a1.6283,1.6283,0,1,1-1.6293-1.6273A1.6294,1.6294,0,0,1,132.77,190.2774Z"/><polygon class="cls-7" points="131.405 190.013 132.186 190.277 131.405 190.544 131.141 191.322 130.877 190.544 130.098 190.277 130.877 190.013 131.141 189.235 131.405 190.013"/><path class="cls-14" d="M132.77,218.659a1.6283,1.6283,0,1,1-1.6293-1.6272A1.6294,1.6294,0,0,1,132.77,218.659Z"/><polygon class="cls-7" points="131.405 218.395 132.186 218.659 131.405 218.923 131.141 219.704 130.877 218.923 130.098 218.659 130.877 218.395 131.141 217.616 131.405 218.395"/><path class="cls-14" d="M87.7119,190.2774a1.6282,1.6282,0,1,1-1.6272-1.6273A1.6276,1.6276,0,0,1,87.7119,190.2774Z"/><polygon class="cls-7" points="86.349 190.013 87.128 190.277 86.349 190.544 86.085 191.322 85.818 190.544 85.04 190.277 85.818 190.013 86.085 189.235 86.349 190.013"/><path class="cls-14" d="M87.7119,218.659a1.6282,1.6282,0,1,1-1.6272-1.6272A1.6276,1.6276,0,0,1,87.7119,218.659Z"/><polygon class="cls-7" points="86.349 218.395 87.128 218.659 86.349 218.923 86.085 219.704 85.818 218.923 85.04 218.659 85.818 218.395 86.085 217.616 86.349 218.395"/><polygon class="cls-4" points="249.021 325.034 199.647 372.396 194.245 373.513 195.29 367.853 244.664 320.491 249.021 325.034"/><path class="cls-7" d="M200.7241,371.3515c-.5323-1.259-.26-3.1485.3743-5.18a3.1611,3.1611,0,0,0-.7225-3.21l-1.325,1.2709a17.584,17.584,0,0,1-.4723,3.959c-.5105,2.3938.156,3.5888,1.0867,4.1752Z"/><path class="cls-7" d="M207.8256,364.54c-.5364-1.259-.26-3.1464.3723-5.178a3.1748,3.1748,0,0,0-.7226-3.2124l-1.325,1.2709a17.5059,17.5059,0,0,1-.4744,3.9611c-.51,2.3938.1562,3.5887,1.0888,4.1751Z"/><path class="cls-7" d="M214.921,357.733c-.53-1.2629-.2582-3.15.3783-5.1819a3.1686,3.1686,0,0,0-.7266-3.2085l-1.321,1.267a17.7458,17.7458,0,0,1-.4763,3.9611c-.51,2.3958.1561,3.5907,1.0888,4.1772Z"/><path class="cls-7" d="M222.02,350.9218c-.5324-1.2609-.2582-3.1464.3762-5.18a3.1618,3.1618,0,0,0-.7245-3.21l-1.321,1.2711a17.743,17.743,0,0,1-.4763,3.959c-.51,2.3938.1541,3.5907,1.0888,4.1771Z"/><path class="cls-7" d="M229.12,344.1127c-.5324-1.261-.2582-3.15.3763-5.18a3.1747,3.1747,0,0,0-.7225-3.2124l-1.323,1.2689a17.7886,17.7886,0,0,1-.4784,3.963c-.5084,2.3939.1581,3.5868,1.0888,4.1773Z"/><path class="cls-7" d="M236.2213,337.3015c-.5345-1.259-.26-3.15.3763-5.18a3.1766,3.1766,0,0,0-.7266-3.21L234.55,330.18a17.7947,17.7947,0,0,1-.4783,3.963c-.5084,2.3938.1581,3.5887,1.0888,4.1752Z"/><path class="cls-4" d="M199.6473,372.3962s-4.8577,1.6833-5.4021,1.1169c-.5444-.57,1.0448-5.66,1.0448-5.66"/><polygon class="cls-7" points="239.512 344.797 229.286 354.605 223.031 353.766 214.811 344.927 213.844 338.508 224.07 328.699 239.512 344.797"/><polygon class="cls-6" points="218.376 326.079 216.74 327.648 216.652 327.732 216.062 330.412 218.828 329.922 218.224 332.666 220.99 332.178 220.383 334.92 223.151 334.427 222.547 337.171 225.313 336.683 224.71 339.425 227.475 338.935 226.87 341.681 229.638 341.192 229.032 343.937 231.802 343.446 231.195 346.19 233.966 345.7 233.359 348.446 236.127 347.954 235.523 350.7 238.287 350.211 237.684 352.955 240.126 352.523 240.374 352.285 240.392 352.305 250.296 342.808 226.642 318.151 218.376 326.079"/><rect class="cls-15" x="233.7674" y="298.3282" width="32.3946" height="41.971" transform="translate(-151.4691 261.9158) rotate(-43.8084)"/><path class="cls-6" d="M285.8591,329.6616s5.9285,9.3072,14.447,1.135c8.5185-8.17,17.4153-7.7079,21.3623-3.5908,3.951,4.1191,11.669,7.896,23.45-3.4067C345.1183,323.7991,311.2585,272.5821,285.8591,329.6616Z"/><path class="cls-5" d="M309.7013,253.81c-5.142-2.0656-17.7235-4.2633-27.9474,5.5423L232.8567,306.62l29.2382,30.4772c3.1,1.5132,7.9541,7.82,16.3325-.2161,11.9251-11.4387,27.9734-27.0147,27.9734-27.0147s13.0038-.8426,32.0364,9.7094c0,0,25.3593,20.8339,35.319,29.0062,7.0454,5.7844,26.228-13.3,20.2674-21.0781C394.0236,327.504,353.769,271.5173,309.7013,253.81Z"/><path class="cls-6" d="M322.4871,281.3508c15.1555,7.2735,44.0795,21.5084,50.2062,34.7165,4.5315,9.7694,11.685,10.454,18.6443,7.862-9.3272-12.1453-41.74-51.98-77.4671-68.3261C312.5434,260.9032,310.2,275.4563,322.4871,281.3508Z"/><path class="cls-16" d="M291.5274,267.8345a1.8668,1.8668,0,0,1-.054,2.642l-41.884,40.1787a1.8692,1.8692,0,0,1-2.644-.0561h0a1.8686,1.8686,0,0,1,.0541-2.642l41.8859-40.1787a1.8686,1.8686,0,0,1,2.642.0561Z"/><path class="cls-16" d="M296.2951,272.8023a1.8711,1.8711,0,0,1-.0541,2.644L254.3551,315.625a1.8686,1.8686,0,0,1-2.642-.0561h0a1.8686,1.8686,0,0,1,.054-2.642l41.8859-40.1787a1.8705,1.8705,0,0,1,2.6421.0541Z"/><path class="cls-16" d="M301.0627,277.7721a1.8717,1.8717,0,0,1-.0561,2.646l-41.8839,40.1767a1.8685,1.8685,0,0,1-2.642-.0541h0a1.8735,1.8735,0,0,1,.054-2.646L298.4186,277.72a1.8692,1.8692,0,0,1,2.6441.0521Z"/><path class="cls-16" d="M305.83,282.7419a1.8713,1.8713,0,0,1-.0561,2.644L263.89,325.5625a1.871,1.871,0,0,1-2.6441-.054h0a1.8686,1.8686,0,0,1,.054-2.642l41.886-40.1786a1.8728,1.8728,0,0,1,2.6441.054Z"/></svg>