<svg xmlns="http://www.w3.org/2000/svg" width="3000" height="2000" viewBox="0 0 3000 2000"><defs><style>.cls-1{isolation:isolate;}.cls-2{fill:#5a67d8;}.cls-11,.cls-12,.cls-16,.cls-2,.cls-20,.cls-33,.cls-34,.cls-37,.cls-6,.cls-8{opacity:0.5;}.cls-11,.cls-12,.cls-16,.cls-2,.cls-27,.cls-30,.cls-31,.cls-33,.cls-34,.cls-6,.cls-8{mix-blend-mode:multiply;}.cls-3{fill:#999898;}.cls-4{fill:#636363;}.cls-5,.cls-6{fill:#ffcd95;}.cls-27,.cls-7,.cls-8{fill:#2fab44;}.cls-11,.cls-9{fill:#344ee1;}.cls-10{fill:#142cba;}.cls-12{fill:#4070cf;}.cls-13{fill:#b2b2b2;}.cls-14{fill:#cd463d;}.cls-15{fill:#b1271b;}.cls-17,.cls-20{fill:#404040;}.cls-18{fill:#fff;}.cls-19{fill:#e3b786;}.cls-20,.cls-37,.cls-41{mix-blend-mode:screen;}.cls-21{fill:#301541;}.cls-22{fill:#30a976;}.cls-23{fill:#363aac;}.cls-24{fill:#aa241f;}.cls-25{fill:#969696;}.cls-26{fill:#ccc;}.cls-27,.cls-41{opacity:0.4;}.cls-28{fill:#14216e;}.cls-29,.cls-31,.cls-34{fill:#ffa86f;}.cls-30{fill:#f09e68;}.cls-30,.cls-31{opacity:0.65;}.cls-32,.cls-33{fill:#2569a2;}.cls-35,.cls-41{fill:#b15e1c;}.cls-36{fill:#241b11;}.cls-37{fill:#2c1403;}.cls-38{fill:#0f3658;}.cls-39{fill:#e3b27a;}.cls-40{fill:#0b2c4a;}.cls-42{fill:#494949;}.cls-43{fill:#666;}.cls-44{fill:#a1a1a1;}.cls-45{fill:#858585;}.cls-46{fill:#e1e1e1;}.cls-47{fill:#7377ff;}.cls-48{fill:#5154e3;}.cls-49{fill:#87848f;}.cls-50{fill:#3aa944;}.cls-51{fill:#1e8c29;}.cls-52{fill:#515151;}</style></defs><g class="cls-1"><g id="Ñëîé_1" data-name="Ñëîé 1"><circle class="cls-2" cx="193.5284" cy="1756.0346" r="111.6002" transform="translate(-1185.0208 651.1759) rotate(-45)"/><circle class="cls-2" cx="2465.2228" cy="273.8709" r="118.7517"/><circle class="cls-2" cx="1483.8945" cy="50.3199" r="41.7616"/><path class="cls-2" d="M2810.241,1119.0537c-41.0907-120.38-101.0473-233.3852-167.9437-320.8786-84.4668-110.4735-196.1738-196.2879-320.3739-227.9913-72.2919-18.4476-104.13-14.1339-124.19-105.8795-34.1749-156.3-132.1394-299.0131-264.5362-351.604-76.23-30.28-162.05-25.8034-235.39,9.8812a290.3473,290.3473,0,0,0-100.6208,80.4628c-29.7153,37.4942-48.9035,69.9114-97.588,75.8946-29.7706,3.6587-59.8635-1.5307-89.802-4.1763-219.2433-19.3745-441.59,109.8079-556.5331,323.3418-17.4542,32.4254-37.0209,77.38-69.08,93.6594-38.682,19.6422-93.9793,6.6871-136.7514,15.5644A487.4779,487.4779,0,0,0,450.0884,798.28c-125.19,96.07-202.9094,257.8353-171.2049,435.0322,22.8833,127.8954,97.8088,240.7111,194.2735,310.26,36.4182,26.2564,62.8642,40.2467,80.1065,85.6218,20.3532,53.5617,38.646,106.6014,72.6454,151.3944,48.7258,64.1946,118.7484,101.4,188.8471,127.8995,216.8161,81.9635,448.6634,78.046,675.7867,84.7891,274.7883,8.1582,562.1291,30.5483,810.61-100.0964,61.255-32.2062,106.0882-45.0692,173.36-41.7938,199.4,9.7085,374.476-133.08,390.7009-370.3741C2873.1537,1364.8836,2850.9608,1238.3474,2810.241,1119.0537Z"/><circle class="cls-2" cx="425.8458" cy="428.8998" r="79.5765" transform="translate(-91.7509 740.9788) rotate(-76.2921)"/><g id="_2" data-name="2"><path class="cls-3" d="M1000.5534,544.2136c-5.333,5.7236-336.8477,1431.4881-336.8477,1431.4881H713.31L1042.5262,544.2136Z"/><path class="cls-4" d="M974.26,544.2136c-5.3328,5.7236-336.8477,1431.4881-336.8477,1431.4881h49.604L1016.233,544.2136Z"/><path class="cls-3" d="M1213.5091,544.2136c-5.3333,5.7236-336.848,1431.4881-336.848,1431.4881h49.6042L1255.4815,544.2136Z"/><path class="cls-4" d="M1185.755,544.2136c-5.3328,5.7236-336.8477,1431.4881-336.8477,1431.4881h49.6039L1227.7278,544.2136Z"/><polygon class="cls-3" points="930.586 1747.571 739.399 1745.53 757.259 1715.685 939.232 1715.685 930.586 1747.571"/><polygon class="cls-3" points="988.927 1488.054 799.353 1487.401 817.213 1457.556 999.185 1457.556 988.927 1488.054"/><polygon class="cls-3" points="1047.489 1224.682 860.674 1224.221 878.534 1194.376 1058.838 1194.376 1047.489 1224.682"/><polygon class="cls-3" points="1107.034 970.303 919.259 970.388 937.119 940.543 1119.092 940.543 1107.034 970.303"/><polygon class="cls-3" points="1153.348 736.462 971.375 736.462 989.236 706.616 1171.208 706.616 1153.348 736.462"/><path class="cls-3" d="M996.3131,544.2136c-2.3917,5.7236,398.8013,1431.4881,398.8013,1431.4881h49.604L1038.2856,544.2136Z"/><path class="cls-4" d="M970.02,544.2136c-2.3916,5.7236,398.8015,1431.4881,398.8015,1431.4881h49.6039L1011.9923,544.2136Z"/><path class="cls-3" d="M1209.2686,544.2136c-2.3918,5.7236,398.8014,1431.4881,398.8014,1431.4881h49.6039L1251.241,544.2136Z"/><path class="cls-4" d="M1181.5145,544.2136c-2.3915,5.7236,398.8014,1431.4881,398.8014,1431.4881H1629.92L1223.4873,544.2136Z"/><polygon class="cls-3" points="1545.997 1745.288 1352.521 1745.53 1355.043 1715.685 1537.016 1715.685 1545.997 1745.288"/><polygon class="cls-3" points="1476.344 1484.321 1282.552 1484.215 1285.074 1454.37 1467.047 1454.37 1476.344 1484.321"/><polygon class="cls-3" points="1397.96 1223.655 1205.893 1224.221 1208.416 1194.376 1388.719 1194.376 1397.96 1223.655"/><polygon class="cls-3" points="1326.043 970.077 1134.031 970.388 1136.554 940.543 1318.527 940.543 1326.043 970.077"/><polygon class="cls-3" points="1259.262 736.579 1065.932 736.462 1068.455 706.616 1250.428 706.616 1259.262 736.579"/><rect class="cls-3" x="610.8221" y="1945.1451" width="134.4684" height="46.8986"/><rect class="cls-4" x="610.8221" y="1945.1451" width="70.117" height="46.8986"/><rect class="cls-3" x="823.3787" y="1945.1451" width="134.4687" height="46.8986"/><rect class="cls-4" x="823.3787" y="1945.1451" width="70.1171" height="46.8986"/><rect class="cls-3" x="1333.3712" y="1945.1451" width="134.4689" height="46.8986"/><rect class="cls-4" x="1333.3712" y="1945.1451" width="70.1172" height="46.8986"/><rect class="cls-3" x="1556.0348" y="1945.1451" width="134.4684" height="46.8986"/><rect class="cls-4" x="1556.0348" y="1945.1451" width="70.1168" height="46.8986"/><rect class="cls-3" x="931.7588" y="534.8615" width="354.9291" height="52.6273"/><rect class="cls-4" x="931.7588" y="534.8615" width="110.1505" height="52.6273"/><path class="cls-5" d="M1237.5971,349.2383a89.5634,89.5634,0,0,1-7.8028,14.535q-2.2816,3.507-4.8169,6.845c-.2816.3661-.5634.7605-.845,1.1267-.5071.676-1.0141,1.3521-1.5775,2.0281-2.31,2.986-4.7886,5.9154-7.3238,8.76q-1.7323,1.986-3.5492,3.9718c-1.2114,1.3521-2.4507,2.7042-3.69,4.0281-22.0279-19.4646-46.253-37.239-66.9-57.4359a44.226,44.226,0,0,1-13.2112-28.1123c-1.2676-19.07-8.2816-153.66-9.9435-156.1953-2.4789-3.8027-8.0563-6.845-3.0422-11.4083,3.6055-3.2676,16.2252-1.2958,20.8166-1.831a8.71,8.71,0,0,0,1.4366-.31c2.6478-.7041,5.2958-2.3943,7.8873-2.4506a9.4671,9.4671,0,0,1,2.9858.3944c1.38.4225,2.5916,1.0985,4.3944,1.6618,7.3237,2.3381,16.7321,1.9438,24.31,1.5775a12.2457,12.2457,0,0,1,5.352.4789c1.662.7042,3.0141,2.5071,2.5352,4.2536-5.7181,2.8449-12.1688,4.1125-17.7181,7.3237-6.1407,3.5493-8.1126,7.9717-8.2816,12.9294-.1971,4.9295,1.3521,10.3943,2.3662,16.028q4.0986,22.9013,8.1971,45.7459,5.1549,28.5632,10.2534,57.1261s35.4925,19.8026,63.38,35.38A69.75,69.75,0,0,1,1237.5971,349.2383Z"/><path class="cls-6" d="M1229.7943,363.7733q-2.2816,3.507-4.8169,6.845c-.2816.3661-.5634.7605-.845,1.1267-.5071.676-1.0141,1.3521-1.5775,2.0281-2.31,2.986-4.7886,5.9154-7.3238,8.76q-1.7323,2.0281-3.5492,3.9718c-1.2114,1.3521-2.4507,2.7042-3.69,4.0281-22.0279-19.4646-46.253-37.239-66.9-57.4359a44.226,44.226,0,0,1-13.2112-28.1123c-1.2676-19.07-8.2816-153.66-9.9435-156.1953-2.4789-3.8027-8.0563-6.845-3.0422-11.4083,4.7605-4.31,15.521-1.7746,22.2532-2.1409a9.81,9.81,0,0,0,1.6339-.1407c3.1267-.4789,6.197-1.155,9.2392-1.9155,1.38.4225,2.5916,1.0985,4.3944,1.6618,7.3237,2.3381,16.7321,1.9438,24.31,1.5775a12.2457,12.2457,0,0,1,5.352.4789c1.662.7042,3.0141,2.5071,2.5352,4.2536-5.7181,2.8449-12.1688,4.1125-17.7181,7.3237-6.1407,3.5493-8.1126,7.9717-8.2816,12.9294a17.3287,17.3287,0,0,0-4.9576,9.4647,66.7816,66.7816,0,0,0-1.0423,8.507c-.6478,11.2393,1.2112,22.6194,2.3944,33.8869,1.5492,14.9294,1.8309,29.8024,3.4646,44.6755q1.2678,11.535,3.2676,22.9292c.6761,3.8028,1.38,7.6057,2.1691,11.38q.6338,2.9579,1.2676,5.9154c.2816,1.155,1.6337,4.31,1.2675,5.38,1.1268-3.3521,2.2817-6.676,3.4367-10.0281-2.1409,6.2534,17.5491,20.3378,21.3236,23.549,10.93,9.2675,22.2533,18.1969,34.8164,25.1828,3.9156,2.169,10.76,3.1548,11.5775,6.9859C1238.2449,352.534,1231.5408,361.0972,1229.7943,363.7733Z"/><path class="cls-7" d="M1325.2119,402.7134c3.1062-47.4133-40.8958-63.8846-74.8976-82.85-.937-.5229-7.4312-3.3443-7.5-4.1834,2.5194,30.8092-13.2885,51.6712-34.8158,74.8481,16.9384,14.9547,35.0313,28.811,53.8469,40.1192,13.9961,8.4117,31.81,18.1052,47.1589,6.8752C1319.396,429.9183,1324.3972,415.1464,1325.2119,402.7134Z"/><path class="cls-8" d="M1325.2119,402.7134c3.1062-47.4133-40.8958-63.8846-74.8976-82.85-.937-.5229-7.4312-3.3443-7.5-4.1834,2.5194,30.8092-13.2885,51.6712-34.8158,74.8481,16.9384,14.9547,35.0313,28.811,53.8469,40.1192,13.9961,8.4117,31.81,18.1052,47.1589,6.8752C1319.396,429.9183,1324.3972,415.1464,1325.2119,402.7134Z"/><path class="cls-7" d="M1437.7114,772.9494c-40.33-44.9922-95.2112-76.145-155.7352-88.8556-7.84-1.663-15.77-3.0292-23.7879-4.039q-3.2963-27.2181-5.0783-54.8222a1077.3375,1077.3375,0,0,1,6.86-211.27c2.1084-16.0667,4.6326-32.2816,10.5722-47.7539,3.2073-8.3748,7.84-16.9575,15.4725-21.7983,8.0186-5.0487,17.6108-5.0487,26.49-4.4546,8.9391.5642,18.4427,1.3662,28.1538,2.4945,2.2864.2672,4.5734.5347,6.86.8317,22.0952,2.8211,75.0461,7.5134,89.5682,27.44,6.7117,9.2363,7.1869,38.8745,7.3948,50.516.6535,38.4289-2.9994,75.3135-.9206,114.4848,1.0691,19.7491,2.0789,39.4982,2.8509,59.0988C1448.7884,655.5243,1444.8684,712.8115,1437.7114,772.9494Z"/><path class="cls-8" d="M1398.2725,503.8876c-24.2034,20.4914-52.743,37.2113-69.8787,63.91-8.5827,13.4234-13.78,28.6286-18.9174,43.6853q-9.177,26.9506-18.3533,53.8422c-2.257,6.6224-4.6921,13.5122-9.1469,18.769-7.84-1.663-15.77-3.0292-23.7879-4.039q-3.2963-27.2181-5.0783-54.8222a1077.3375,1077.3375,0,0,1,6.86-211.27c2.1084-16.0667,4.6326-32.2816,10.5722-47.7539,3.2073-8.3748,7.84-16.9575,15.4725-21.7983,8.0186-5.0487,17.6108-5.0487,26.49-4.4546,8.9391.5642,18.4427,1.3662,28.1538,2.4945.5047,6.7116-2.376,14.0768-5.7318,20.8182-18.1155,36.261,13.9878,50.3078,47.3978,53.6934q28.554,2.94,57.1085,5.8207C1444.3339,454.1142,1422.5059,483.4258,1398.2725,503.8876Z"/><polygon class="cls-5" points="1381.778 1372.422 1383.876 1396.517 1437.907 1398.962 1434.097 1371.374 1381.778 1372.422"/><path class="cls-5" d="M1319.55,1126.4845c.1452,1.6667,6.2191,20.0023,6.2191,20.0023l-4.9256,20.5581-46.3758-5.5564-4.0222-33.3373Z"/><path class="cls-9" d="M1453.3165,666.5524l-5.59,166.267-1.4052,41.706L1438.42,1385.121l-32.7794-6.2336-4.39-.849-23.8824-4.5071-21.95-318.6907-35.5889-259.0441-12.6436,18.1749-45.3641,78.0264,9.3068,33.13,56.2225,208.6169-21.98,3.0728-.5562.088-11.15,1.5806-25.6089,3.5414c-19.4336-51.5105-38.8082-82.5337-58.2419-134.0148q-15.6725-41.7058-31.4035-83.353c-1.2585-3.3659-2.5757-6.7316-3.8634-10.0678-1.9314-5.0633-3.8339-10.0974-5.6193-15.19-3.9513-11.2387-4.9168-22.887-3.8926-34.74,2.3706-28.2428,15.8922-57.3635,26.7211-82.9432,1.58-3.7169,3.0436-7.3169,4.4486-10.8289,13.58-34.1842,26.9841-68.5733,42.2324-102.0255,3.3366-7.3168,6.6436-14.6337,8.6923-22.3894,2.5758-9.7167,3.044-19.8141,3.5124-29.8232.556-12.2047,7.4046-153.448,9.219-153.448l.41.0291,4.4778.2633,15.3362.9658,87.0407,5.2681,14.8677.9367,8.4.4974.6146.0294.2631.0292s.0294.556.0878,1.6392c.0294.8484.1172,2.107.2051,3.6289.0583,1.3172.1463,2.8682.2634,4.6242v.2341c2.1073,31.6379,10.1849,127.576,32.6914,144.7263C1451.5607,646.7092,1453.3165,666.5524,1453.3165,666.5524Z"/><path class="cls-10" d="M1401.2423,1378.0414l-23.877-4.514-21.9467-318.6868-35.5778-259.0537L1307.19,813.9621c-.03-.2081-7.4243,11.3934-12.1761,16.9767,8.6719-16.0964,11.0477-35.241,11.1072-53.5049,3.5632,3.1478,7.1571,6.266,10.7206,9.4139-3.1776-7.543-13.1857-31.0044-13.1857-31.0044s33.7068,17.4623,38.7852,20.9668c4.3359,2.9994,20.0923,9.8523,20.0923,9.8523s-6.1936,10.7578-6.0453,15.8362c1.3959,45.17,12.1168,90.3109,14.3143,135.4217C1377.989,1084.8055,1389.4526,1231.4533,1401.2423,1378.0414Z"/><polygon class="cls-11" points="1395.644 667.973 1415.364 660.803 1430.601 754.021 1419.846 754.021 1395.644 667.973"/><path class="cls-10" d="M1266.5213,502.0693l93.82,5.2569s17.5666,114.1529-1.2806,125.7694-88.6265,7.0821-96.1847-7.116S1266.5213,502.0693,1266.5213,502.0693Z"/><path class="cls-11" d="M1391.8263,481.3493s-5.8535,4.6244-8.6338,7.0534a214.4837,214.4837,0,0,0-43.5787,51.54c-.7026,1.2-1.3758,2.3413-2.02,3.512-4.8582,9.0436-7.0241,17.385-10.1557,27.3648-4.0974,13.2581-12.0287,25.17-15.98,38.6034-6.0582,20.6043-4.3024,44.75,9.863,60.876-11.6775-2.1073-34.9741-6.2048-34.9741-6.2048l10.097,13.9021s-45.013,82.68-70.5634,125.2638c-7.3458,12.2044-14.4871,24.8771-17.4138,38.8374-3.7462,18.0871-.0586,36.8183,4.4484,54.73,22.565,89.3237,65.3244,151.9845,92.4258,239.9035.0294.0875-.5268.1755-.5268.1755l-11.15,1.5806-25.6089,3.5414c-19.4336-51.5105-38.8082-82.5337-58.2419-134.0148q-15.6725-41.7058-31.4035-83.353c-1.2585-3.3659-2.5757-6.7316-3.8634-10.0678-1.9314-5.0633-3.8339-10.0974-5.6193-15.19-3.9513-11.2387-4.9168-22.887-3.8926-34.74,2.3706-28.2428,15.8922-57.3635,26.7211-82.9432,1.9025-3.8634,3.6-7.522,4.9753-11.0045,13.58-34.1842,26.9846-68.5731,42.2327-102.0257,3.3364-7.3165,6.6727-14.6627,8.7217-22.3893,2.5462-9.7165,3.0146-19.8138,3.4828-29.8234.5853-11.9409,7.1117-147.2139,9.1019-153.243l4.4778.2633,15.3362.9658,87.0407,5.2681,14.8677.9367,8.4.4974.8777.0586a8.4154,8.4154,0,0,0,.0878,1.6392C1391.5981,474.002,1391.8263,481.3493,1391.8263,481.3493Z"/><path class="cls-12" d="M1323.7725,499.6935l1.34-4.1049-2.28-.8674,19.8256-51.5455c3.4374-10.5277-11.888-16.3572-15.3257-5.8292L1312.8394,490.92l-2.1653-.8234-1.34,4.1051,4.4028,1.6749-2.7457,8.5736,6.0782.4874,2.2094-6.9534Z"/><polygon class="cls-13" points="1322.904 505.509 1316.487 504.977 1319.834 496.021 1325.61 498.216 1322.904 505.509"/><path class="cls-14" d="M1318.3442,493.2491l10.197,3.8758,24.2068-54.9878c4.108-10.8072-11.8677-16.879-15.976-6.0718Z"/><path class="cls-15" d="M1323.653,490.0179l3.0641,1.1642,19.348-48.2907c1.9531-5.1387-2.9486-6.6951-4.8-1.8244Z"/><path class="cls-15" d="M1328.715,491.8425l1.5172.5766L1350.42,444.692c2.0882-5.0613-.3974-5.7008-2.3765-.9034Z"/><path class="cls-15" d="M1321.8823,489.2459l-1.5167-.5768,16.6093-49.0869c1.8011-5.1709,4.0836-3.9979,2.3769.9031Z"/><path class="cls-14" d="M1316.9975,492.9306h13.0307a1.535,1.535,0,0,1,1.535,1.535v1.4363a1.5366,1.5366,0,0,1-1.5366,1.5366h-13.0292a1.5358,1.5358,0,0,1-1.5358-1.5358v-1.4362A1.5359,1.5359,0,0,1,1316.9975,492.9306Z" transform="translate(262.2704 -437.9061) rotate(20.8103)"/><path class="cls-9" d="M1290.8262,377.6128c-5.94,28.391-11.6712,57.287-10.7506,86.8361.1186,3.4451.2969,6.89.5937,10.3647a53.6913,53.6913,0,0,1-16.1851-5.4346c.0891-1.96.1485-3.92.2671-5.88q1.203-25.9257,4.336-51.5257c2.7025-22.0948,10.0677-76.5606,41.9033-70.7993C1299.5275,353.023,1294.5086,360.0021,1290.8262,377.6128Z"/><path class="cls-9" d="M1414.6657,357.8934a80.9892,80.9892,0,0,0-11.1364,11.1962c-11.85,14.4925-13.8689,35.1325-17.0171,53.9607q-1.5147,8.9538-2.6131,18.0266a257.5862,257.5862,0,0,0-1.9009,29.5791q-.0889,8.9536.6533,17.9371a53.2073,53.2073,0,0,1-16.1854-5.4641c.1786-4.4845.3861-8.939.6534-13.3936q1.2474-22.496,3.95-44.7547a237.1575,237.1575,0,0,1,4.4251-24.59c4.7219-19.9866,13.0078-42.3788,26.0151-47.3975Z"/><path class="cls-11" d="M1290.8262,377.6128c-5.94,28.391-11.6712,57.287-10.7506,86.8361.1186,3.4451.2969,6.89.5937,10.3647a53.6913,53.6913,0,0,1-16.1851-5.4346c.0891-1.96.1485-3.92.2671-5.88q1.203-25.9257,4.336-51.5257c2.7025-22.0948,10.0677-76.5606,41.9033-70.7993C1299.5275,353.023,1294.5086,360.0021,1290.8262,377.6128Z"/><path class="cls-11" d="M1414.6657,357.8934a80.9892,80.9892,0,0,0-11.1364,11.1962c-11.85,14.4925-13.8689,35.1325-17.0171,53.9607q-1.5147,8.9538-2.6131,18.0266a257.5862,257.5862,0,0,0-1.9009,29.5791q-.0889,8.9536.6533,17.9371a53.2073,53.2073,0,0,1-16.1854-5.4641c.1786-4.4845.3861-8.939.6534-13.3936q1.2474-22.496,3.95-44.7547a237.1575,237.1575,0,0,1,4.4251-24.59c4.7219-19.9866,13.0078-42.3788,26.0151-47.3975Z"/><path class="cls-7" d="M1348.6262,1186.7463l-79.542,1.1459-45.7288.6366c1.1034-15.3108,11.7159-28.9346,24.27-36.0964,9.3453-5.3473,13.5774-21.55,17.1734-31.7991,8.6736-.5409,17.7448-1.3048,26.8843.1912q1.9488.2869,3.914.764c1.9012.4772,1.4451,11.8092,1.5671,13.2095.0307.35.0932.7.1237,1.0506a14.3535,14.3535,0,0,0,7.1811,9.9312,24.8932,24.8932,0,0,0,13.7961,3.0559c3.8017-.1591,7.9075-1.2415,8.6339-4.6794.6316-3.0554-1.1977-7.862,1.8752-8.6578C1328.24,1135.6256,1341.55,1168.4434,1348.6262,1186.7463Z"/><path class="cls-8" d="M1291.6827,1120.8245c-.2709,1.3048-.58,2.5468-.77,3.3108-1.7606,7.7664-6.7969,12.8911-9.6872,19.83-3.2992,4.4561-7.0107,8.5943-9.4636,13.56-3.8236,7.6393-4.4766,16.7113-3.4171,25.5606.1707,1.5916.44,3.2143.7389,4.8061l-45.7288.6366c1.1034-15.3108,11.7159-28.9346,24.27-36.0964,9.3453-5.3473,13.5774-21.55,17.1734-31.7991C1273.472,1120.0924,1282.5432,1119.3285,1291.6827,1120.8245Z"/><path d="M1223.3534,1188.542a28.9656,28.9656,0,0,0,1.2285,11.6956c42.653-1.0216,125.221-1.258,125.221-1.258s-1.2115-12.6578-1.1859-12.2434S1223.3534,1188.542,1223.3534,1188.542Z"/><path class="cls-7" d="M1473.78,1455.3263c-15.32.0638-30.69-.4455-46.0363-1.0505-1.5739-.0319-3.1181-.0953-4.6946-.159-7.5919-.2865-15.1429-.4775-22.7037-1.1458-3.1-.255-22.7591-1.0507-24.0666-3.9153-4.2655-8.8492-3.8559-18.8757-2.3193-28.107,1.5687-9.2306,4.145-18.3026,3.9923-27.788-.0713-2.2918.0961-5.1566,2.2152-5.8568,2.1223-.6688,4.2206,1.3368,5.9036,2.9923,1.6539,1.6868,4.3546,3.2464,5.961,1.814a4.3455,4.3455,0,0,0,1.0276-2.9283c.5677-5.6343-.4208-14.0373,4.3849-17.7618a9.6947,9.6947,0,0,1,3.4523-1.5915,27.3528,27.3528,0,0,1,4.2729-.6366c9.6747-.8279,26.1918-2.61,32.9294,7.385a35.7153,35.7153,0,0,1,3.2849,7.1618c4.622,11.841,13.929,21.5178,22.6256,30.812,9.2974,9.9318,17.1539,20.6263,22.8353,32.85C1490.4731,1455.1991,1478.8455,1455.3263,1473.78,1455.3263Z"/><path class="cls-8" d="M1427.7434,1454.2758c-1.5739-.0319-3.1181-.0953-4.6946-.159-7.5919-.2865-15.1429-.4775-22.7037-1.1458-3.1-.255-22.7591-1.0507-24.0666-3.9153-4.2655-8.8492-3.8559-18.8757-2.3193-28.107,1.5687-9.2306,4.145-18.3026,3.9923-27.788-.0713-2.2918.0961-5.1566,2.2152-5.8568,2.1223-.6688,4.2206,1.3368,5.9036,2.9923,1.6539,1.6868,4.3546,3.2464,5.961,1.814a4.3455,4.3455,0,0,0,1.0276-2.9283c.5677-5.6343-.4208-14.0373,4.3849-17.7618a9.6947,9.6947,0,0,1,3.4523-1.5915c-.1316.7-.2152,1.21-.26,1.4324a65.2989,65.2989,0,0,0,4.9168,35.8415c4.3677,10.0268,11.1129,19.0034,16.1321,28.7755A54.1974,54.1974,0,0,1,1427.7434,1454.2758Z"/><path d="M1486.8531,1447.4051q-1.0961-2.3533-2.3014-4.6326c-2.9365,2.0083-8.7619,2.0667-11.9744,2.0782-16.8935.0631-33.7963-.5473-50.735-1.2154-7.5614-.2975-15.1145-.484-22.6927-1.147-3.0923-.2711-22.75-1.0552-24.0766-3.9088a32.363,32.363,0,0,1-2.178-6.1416c-.0267,5.6749,3.2318,21.773,3.2318,21.773s80.7479,1.187,97.6414,1.1239C1478.8467,1455.3159,1490.4792,1455.1983,1486.8531,1447.4051Z"/><path class="cls-5" d="M1379.2967,313.1459a130.8168,130.8168,0,0,0,1.5872,32.2276,13.2026,13.2026,0,0,1,.1938,5.8208,11.1208,11.1208,0,0,1-3.2242,4.6934c-18.9664,18.6023-78.8621,21.7786-64.3952-17.464,1.6464-4.4661,8.8308-52.2839,7.035-52.2776,21.4846-.0741,43.0221.1974,64.488-.2457A101.2962,101.2962,0,0,0,1379.2967,313.1459Z"/><g class="cls-16"><path class="cls-5" d="M1379.0369,326.1983a127.6025,127.6025,0,0,1,.26-13.0524,101.3008,101.3008,0,0,1,5.6846-27.2458c-21.4659.4434-43.0034.1719-64.4877.2457,1.7958-.0063-5.3892,47.8118-7.0356,52.2779-10.21,27.6961,16.6153,34.2464,39.9555,29.1734C1358.0053,351.0264,1366.3247,336.0128,1379.0369,326.1983Z"/></g><path class="cls-5" d="M1421.2883,247.1505c-.0595.4456-.1486.8611-.2375,1.2769-3.7124,17.67-11.2555,31.7767-21.2638,45.9425-4.2762,6.088-9.9189,14.8491-15.2941,19.7786-11.1663,10.0678-22.7189,16.9576-36.172,23.2536a51.7711,51.7711,0,0,1-12.295,4.1576,35.4278,35.4278,0,0,1-11.9976.4454,30.9926,30.9926,0,0,1-11.7308-4.1577,33.0864,33.0864,0,0,1-8.9093-7.9886,84.4448,84.4448,0,0,1-8.5827-13.5717c-10.87-20.1651-10.9289-35.5781-8.85-56.9608,1.0692-10.988,4.4251-20.4022,5.4644-31.39,1.0394-10.81,2.673-25.8966,7.8107-35.281a54.8959,54.8959,0,0,1,5.1376-7.84c.6831-.891,1.3961-1.7524,2.1087-2.5836a54.6594,54.6594,0,0,1,12.0869-10.4241,40.2878,40.2878,0,0,1,10.6317-4.9594c20.0164-5.3159,43.8933,1.8115,61.801,13.4826C1412.5869,194.4072,1425.8915,222.2339,1421.2883,247.1505Z"/><path class="cls-6" d="M1365.7646,265.6765q-2.6712,11.1753-5.3418,22.3507c-2.625,10.9826-5.3031,22.107-10.6526,32.0515-7.6187,14.1629-21.4073,27.2841-37.4727,17.7687a33.0864,33.0864,0,0,1-8.9093-7.9886,84.4448,84.4448,0,0,1-8.5827-13.5717c-10.87-20.1651-10.9289-35.5781-8.85-56.9608,1.0692-10.988,4.4251-20.4022,5.4644-31.39,1.0394-10.81,2.673-25.8966,7.8107-35.281a54.8959,54.8959,0,0,1,5.1376-7.84c.6831-.891,1.3961-1.7524,2.1087-2.5836a30.9235,30.9235,0,0,1,3.3262.5048c29.4706,5.8594,59.7226,28.5982,59.7486,60.9792.0048,6.0645-1.4133,12.0291-2.8228,17.9274Q1366.2468,263.6595,1365.7646,265.6765Z"/><path class="cls-17" d="M1356.1234,249.6108a79.2893,79.2893,0,0,1,9.5455,2.57,35.3729,35.3729,0,0,1,5.6588,2.6857c1.5459.9165,4.0641,2.2267,5.1814,3.8078a38.3018,38.3018,0,0,0-14.2229-12.2394,23.2,23.2,0,0,0-14.21-2.78,3.1735,3.1735,0,0,0-1.5433.5448,1.5068,1.5068,0,0,0-.4942,1.6144c.6454,1.8886,5.5141,2.5614,6.9939,2.99C1354.06,249.1031,1355.0913,249.364,1356.1234,249.6108Z"/><path class="cls-17" d="M1303.7969,239.5447a30.9859,30.9859,0,0,0-6.6342-1.6617,20.5437,20.5437,0,0,0-9.1,1.1237,28.047,28.047,0,0,1,13.96-4.6558c3.78-.2344,7.1233.6749,9.3895,3.1231a1.8506,1.8506,0,0,1-.1445,2.7554c-1.5163,1.4045-4.5865.2029-6.3856-.3442C1304.5179,239.7742,1304.1563,239.66,1303.7969,239.5447Z"/><path d="M1305.9859,254.143c-.9123,4.3172-3.5769,7.2347-5.9517,6.5158s-3.5605-4.801-2.6481-9.1185,3.5769-7.2342,5.9517-6.5157S1306.898,249.826,1305.9859,254.143Z"/><path d="M1360.7594,265.1049c-.9366,4.3394-3.6075,7.2721-5.9661,6.55s-3.511-4.8239-2.5743-9.1632,3.6078-7.2718,5.966-6.55S1361.6959,260.7659,1360.7594,265.1049Z"/><path class="cls-18" d="M1300.054,296.6493a76.81,76.81,0,0,0,21.1254,8.6267c7.4829,1.6909,16.0668.4695,23.203,2.7845-4.0634,1.8932-7.4332,5.0846-11.47,7.0714-5.6346,2.7718-13.4995,7.1246-19.8129,4.4577a9.8472,9.8472,0,0,1-5.8851-7.0165,46.0933,46.0933,0,0,1-.2567-4.9938A14.0413,14.0413,0,0,0,1300.054,296.6493Z"/><path class="cls-17" d="M1402.4749,170.6978c8.7941,6.753,15.604,15.9233,18.3575,27.7211,4.0493,17.3523-13.7972,23.0646-18.1456,36.5931-1.7373,5.4045-2.298,11.2137-2.8484,16.9711-.8074-5.01-4.0448-17.52-9.3667-19.1786-2.3887-.7442-4.8675-.467-7.3047-.446a47.9855,47.9855,0,0,1-10.7312-1.29,81.3169,81.3169,0,0,1-19.0991-6.8489c-7.3008-3.6924-14.1691-8.507-21.7651-11.3378-5.8644-2.1852-11.9939-3.1233-18.0719-4.0478-8.694-1.3227-18.4485-.3424-23.8206,7.1335a44.5639,44.5639,0,0,1,6.7306-28.923,10.919,10.919,0,0,0-6.3776,4.8566,75.2911,75.2911,0,0,1,34.192-32.9309c14.853-7.0645,34.08-4.7332,50.4365-.962A72.7539,72.7539,0,0,1,1402.4749,170.6978Z"/><path class="cls-17" d="M1389.1317,247.07a9.3089,9.3089,0,0,1-2.4737,5.0668c3.3391,3.79,3.9793,8.21,3.49,12.8361-.1274,1.2029-3.6239,14.2114-4.257,13.6376q2.377,2.154,4.7545,4.3087c.0955.0866,4.7512-8.7016,5.2272-9.4689a34.6278,34.6278,0,0,1,8.17-9.106,2.8841,2.8841,0,0,1,1.9783-.8162,3.1333,3.1333,0,0,1,2.0126,1.4982,12.3839,12.3839,0,0,1,2.093,6.0547c.5413,6.2605-2.7946,11.8092-6.307,16.5993-2.0814,2.8382-4.1838,5.9613-6.7791,8.3149-1.6873,1.53-3.5515,2.5215-5,4.3458-4.7122,5.9366-11.6249,17.4457-11.6249,17.4457s5.7805-4.4273,9.0594-7.1c6.3089-5.1425,12.3489-10.6236,18.13-16.38,17.765-17.6908,34.1745-39.559,31.7735-67.8361-1.5493-18.2466-21.5175-33.594-38.3967-29.8611-8.3579,1.8481-16.5165,7.8506-18.8536,16.6238-1.3735,5.1559,2.6949,9.7545,3.9564,14.7127,1.3413,5.2709,3.9088,9.0427,3.5537,14.6589A33.6339,33.6339,0,0,1,1389.1317,247.07Z"/><path class="cls-5" d="M1399.124,266.3818c10.46-6.9421,19.6118-9.0728,19.7612-3.3887s-14.72,35.1-24.0463,33.0829-6.1914-7.0159-6.1914-7.0159Z"/><path class="cls-19" d="M1412.2815,264.9788c1.5078,1.0345.0545,3.7427-.7816,5.4655-1.65,3.3982-3.34,6.7808-5.2546,10.039-1.2623,2.1484-3.4346,8.7945-7.79,7.8276a1.2064,1.2064,0,0,1-.5152-.2215.9533.9533,0,0,1-.2414-.34c-1.2926-2.7411,3.9177-4.711,4.2675-7.284a1.9,1.9,0,0,0-.6644-1.81c-.3758-.2978-.91-.4957-1.1231-.8648a.7559.7559,0,0,1,.1005-.8192,20.7508,20.7508,0,0,1,9.9315-8.1757,13.96,13.96,0,0,1-5.5461.4827,1.526,1.526,0,0,1-.7347-.2166.81.81,0,0,1-.1938-1.1009c1.1946-2.2905,4.0566-3.3237,6.5137-3.3994A3.3957,3.3957,0,0,1,1412.2815,264.9788Z"/><path class="cls-20" d="M1364.2969,162.494c-17.8639-2.1017-36.2276,2.4978-51.726,11.6258a48.8577,48.8577,0,0,1,22.2322-3.2943,221.3176,221.3176,0,0,0-29.5892,24.4354c22.85-1.447,40.78,21.0054,63.487,23.9408,13.8785,1.7941,27.5-3.95,40.3167-9.5688a24.9845,24.9845,0,0,0-16.98-4.9593,22.32,22.32,0,0,1,18.995.1654,23.6279,23.6279,0,0,0-15.5675-11.8943c7.41,1.6441,12.8151,2.4684,18.1466,8.6089C1409.5475,178.07,1386.5582,165.1129,1364.2969,162.494Z"/><path class="cls-20" d="M1410.4428,213.4828c-3.6352,4.55-4.6395,10.6672-4.6835,16.491s.7406,11.6652.1324,17.4573q3.2319-4.5574,6.4637-9.1149a30.8849,30.8849,0,0,1,1.8447,24.7445,74.3145,74.3145,0,0,0,8.55-11.4951,35.4113,35.4113,0,0,1-6.6906,20.1823c6.0238-6.094,11.75-12.6333,15.6482-20.264s5.8605-16.5022,4.0436-24.8763-7.841-16.0533-16.0463-18.5231c2.58,2.9808,2.6375,6.9993,1.5846,10.7982a12.3344,12.3344,0,0,0-7.4637-8.5771,20.0119,20.0119,0,0,1-1.122,13.6663C1410.9275,220.5544,1409.79,217.2785,1410.4428,213.4828Z"/><polygon class="cls-21" points="1275.613 115.099 1015.04 115.099 951.731 50.332 1338.923 50.332 1275.613 115.099"/><path class="cls-22" d="M1131.3445,69.8017a9.714,9.714,0,0,1,3-5.0853,20.8323,20.8323,0,0,0,4.1147-5.99c1.1058-2.7334.8-5.4779.4433-8.4049l2.1877-.002a15.3347,15.3347,0,0,1,.4357,8.0493,14.7746,14.7746,0,0,1-1.9079,4.8633c-.9562,1.5321-2.2709,2.8058-3.2119,4.348-1.12,1.8373-1.0155,3.58-1.091,5.66v.1445l-4.0706-.0057A21.4038,21.4038,0,0,1,1131.3445,69.8017Z"/><path class="cls-23" d="M1138.6152,69.8017a9.7154,9.7154,0,0,1,3-5.0853,20.8369,20.8369,0,0,0,4.1149-5.99c1.1053-2.7334.8-5.4779.4431-8.4049l2.1875-.002a15.3327,15.3327,0,0,1,.4358,8.0493,14.7746,14.7746,0,0,1-1.9079,4.8633c-.9562,1.5321-2.2706,2.8058-3.2116,4.348-1.1209,1.8373-1.0157,3.58-1.0914,5.66v.1445l-4.07-.0057A21.4,21.4,0,0,1,1138.6152,69.8017Z"/><path class="cls-24" d="M1146.14,69.8017a9.7174,9.7174,0,0,1,3-5.0853,20.8353,20.8353,0,0,0,4.115-5.99c1.1054-2.7334.8-5.4779.443-8.4049l2.1877-.002a15.3337,15.3337,0,0,1,.4357,8.0493,14.7809,14.7809,0,0,1-1.9078,4.8633c-.9564,1.5321-2.2708,2.8058-3.2118,4.348-1.1209,1.8373-1.0155,3.58-1.0912,5.66v.1445L1146.04,73.38A21.4265,21.4265,0,0,1,1146.14,69.8017Z"/><polygon class="cls-25" points="1263.45 137.03 1024.626 137.03 966.6 81.854 966.6 73.403 1321.476 73.403 1321.476 81.854 1263.45 137.03"/><polygon class="cls-26" points="1263.45 139.847 1024.626 139.847 966.6 81.854 1321.476 81.854 1263.45 139.847"/><polygon class="cls-18" points="1250.874 133.703 1036.142 133.703 995.665 91.344 1292.411 91.344 1250.874 133.703"/><path class="cls-5" d="M1356.7553,361.9366c-3.0592,16.6607-11.9089,32.1033-22.8675,48.8529-26.2232-16.2149-54.5249-30.2322-79.1147-47.7835a34.92,34.92,0,0,1-13.4829-19.9274l-40.686-175.3652c-.03-.03-.4158-1.7523-.4158-1.7523l9.3549-3.4448,21.5605-7.9291.0595.2075,55.98,152.1716s38.31,13.5421,68.4234,24.1739A69.9285,69.9285,0,0,1,1356.7553,361.9366Z"/><path class="cls-5" d="M1261.6927,131.72c.8017,5.1971-5.3754,4.692-8.9094,5.1078-5.2566.6535-12.1759,2.7323-15.8587,6.7713-2.7915,3.0886-4.2766,7.3055-5.7613,11.1958-.2375.6535-.4753,1.3068-.7426,1.93a5.7739,5.7739,0,0,1-1.5144,2.495,4.9049,4.9049,0,0,1-2.3759.861,138.197,138.197,0,0,0-16.3041,4.5436,38.6283,38.6283,0,0,0-7.87,3.3856,1.3744,1.3744,0,0,1-1.0692.3862,1.1114,1.1114,0,0,1-.6831-.6831,2.0088,2.0088,0,0,1-.1781-.3564c-4.8706-12.8-12.2356-25.0945-13.9283-38.7554-1.5146-12.3545.8911-25.0356,2.5836-37.2709.6831-4.9,1.4852-10.5725,3.4156-15.0863.5642-1.2772,1.3659-2.6136,2.6132-2.8808a5.8353,5.8353,0,0,0,1.2472-.2673c.8612-.4158,1.069-1.6036,1.3662-2.5837a5.3957,5.3957,0,0,1,.5939-1.3363,5.7245,5.7245,0,0,1,1.9008-2.0493,4.2046,4.2046,0,0,1,1.2176-.594,4.6853,4.6853,0,0,1,4.96,1.5146,5.39,5.39,0,0,1,4.4546-3.7121,5.3007,5.3007,0,0,1,4.93,2.91,4.4009,4.4009,0,0,1,4.6625-2.3162c3.3261.6828,4.1578,5.5534,5.2269,8.4933a123.5287,123.5287,0,0,1,5.88,23.2536c1.2769,8.5525,1.5143,17.4324,2.2568,26.1041a2.2812,2.2812,0,0,0,.5049,1.5147,2.4235,2.4235,0,0,0,2.2273.267C1243.4878,123.1965,1260.2076,122.0086,1261.6927,131.72Z"/><path class="cls-6" d="M1355.9614,365.7733c-3.0588,16.6606-11.115,28.2666-22.0736,45.0162-26.2232-16.2149-54.5249-30.2322-79.1147-47.7835a34.92,34.92,0,0,1-13.4829-19.9274l-40.686-175.3652a2.0088,2.0088,0,0,1-.1781-.3564c-4.8706-12.8-12.2356-25.0945-13.9283-38.7554-1.5146-12.3545.8911-25.0356,2.5836-37.2709.6831-4.9,1.4852-10.5725,3.4156-15.0863.5642-1.2772,1.3659-2.6136,2.6132-2.8808a5.8353,5.8353,0,0,0,1.2472-.2673c.8612-.4158,1.069-1.6036,1.3662-2.5837a5.3957,5.3957,0,0,1,.5939-1.3363c-1.277,9.236-1.5443,18.1156-2.5542,28.272-.9206,9.1769-1.1284,18.5613.8911,27.56,1.5145,6.7118,4.2173,13.0968,6.6821,19.5412,2.2569,5.85,4.3062,11.8495,6.2068,17.9671.2376.6831.4751,1.3958.683,2.1084,8.2858,26.8171,14.1066,55.5647,21.1448,81.966,7.6027,28.48,14.3441,54.9707,29.9649,80.6292,3.2668,5.3459,7.306,10.9585,13.3642,12.4436.7126-2.0494,1.3957-4.0687,2.1087-6.0882-1.604,4.6329,25.8073,21.59,30.6185,23.1051C1323.2559,361.7291,1339.4793,366.1,1355.9614,365.7733Z"/><path class="cls-7" d="M1445.9889,433.8006a29.1555,29.1555,0,0,1-4.62,6.2817c-13.2393,13.6617-32.45,7.0985-47.661,1.1829-20.45-8-40.6192-18.5913-59.83-30.4785,10.1121-15.4363,18.4222-29.8023,22.0838-45.0134a70.5,70.5,0,0,0-.3661-34.6476c.1975.817,7.0706,2.5071,8.0846,2.8732,36.7039,12.9577,82.8723,21.7744,87.8017,69.0415C1452.4958,412.9276,1451.1437,424.73,1445.9889,433.8006Z"/><path class="cls-27" d="M1445.9889,433.8006a29.1555,29.1555,0,0,1-4.62,6.2817c-13.2393,13.6617-32.45,7.0985-47.661,1.1829-20.45-8-40.6192-18.5913-59.83-30.4785,10.1121-15.4363,18.4222-29.8023,22.0838-45.0134,23.324,26.5911,48.0279,54.7317,83.0976,64.9851A23.4985,23.4985,0,0,1,1445.9889,433.8006Z"/><path class="cls-9" d="M2087.6424,843.2838c2.505,18.0574,23.71,40.109-4.7822,43.1208s-43.4831-23.238-43.4831-23.238Z"/><path class="cls-28" d="M2085.6635,843.6328c2.5051,18.0574,23.71,40.1091-4.7821,43.1208s-43.4832-23.2377-43.4832-23.2377Z"/><path class="cls-5" d="M1926.5683,1915.1986l.5135,29.112s57.5156,1.12,57.5156-.56-1.0269-27.9924-1.0269-27.9924Z"/><path class="cls-5" d="M2105.0906,1915.7923l7.0042,28.4335s60.2745,3.7949,59.9027,2.1546-4.64-30.0413-4.64-30.0413Z"/><path class="cls-5" d="M1934.6986,920.4738c-2.7884,18.7387-7.13,25.97-18.7671,45.8123-30.0092-14.5195-62.2634-26.3542-90.4936-42.5535a34.5936,34.5936,0,0,1-15.8744-20.2305L1760.161,747.09c-.0347-.0291-.5332-1.8772-.5332-1.8772l10.3511-4.9851,23.8572-11.4781.0744.2211,63.8445,143.063s34.7794,6.4121,68.9339,14.2872C1930.2735,898.0961,1936.357,909.58,1934.6986,920.4738Z"/><path class="cls-6" d="M1802.7605,748.8021l-8.85-19.8316-.0744-.2214-23.8572,11.4781-10.3511,4.9854.4988,1.8478c.0344.0291,49.4369,156.4414,49.4369,156.4414a34.5907,34.5907,0,0,0,15.8744,20.2305c28.23,16.2,60.4844,28.0343,90.4936,42.5538,8.6449-14.74,13.26-22.5267,16.2068-33.2353C1854.8111,912.551,1806.7027,827.7177,1802.7605,748.8021Z"/><path class="cls-29" d="M2034.34,952.2244c6.4345-22.8046-15.4238-37.4393-33.623-46.2454-20.05-9.7015-43.0063-12.5136-64.828-17.545-1.1482-.265-8.9182-1.2466-9.1841-2.1181,9.32,26.2825,4.2512,46.0467-17.113,77.1779.013.0014,70.1183,27.5048,76.5447,27.8406a33.46,33.46,0,0,0,15.0942-2.4093c13.3753-5.8126,28.8267-22.6431,32.8557-35.8381Q2034.2184,952.6532,2034.34,952.2244Z"/><path class="cls-30" d="M2034.34,952.2244c6.4345-22.8046-15.4238-37.4393-33.623-46.2454-20.05-9.7015-43.0063-12.5136-64.828-17.545-1.1482-.265-8.9182-1.2466-9.1841-2.1181,9.32,26.2825,4.2512,46.0467-17.113,77.1779.013.0014,70.1183,27.5048,76.5447,27.8406a33.46,33.46,0,0,0,15.0942-2.4093c13.3753-5.8126,28.8267-22.6431,32.8557-35.8381Q2034.2184,952.6532,2034.34,952.2244Z"/><path class="cls-29" d="M2129.4844,1326.0489c-36.6756-18.0565-205.2648-7.0985-205.2648-7.0985s-.2536-6.5634-.4791-18.028c-.1691-6.9577-.3379-15.69-.4786-25.8307-.648-48.5346-.4789-129.435,5.2675-201.237q.6759-8.62,1.4366-17.2392c1.2394-14.1407,2.62-28.3377,4.0281-42.0558.2535-2.5915.5352-5.1831.7887-7.8028,1.0139-9.6054,2.0281-18.9011,3.0419-27.8026.3383-2.7322.62-5.4648.958-8.2251.2538-2.2535.5069-4.4788.7607-6.6478q.5491-4.69,1.0982-9.38c.31-2.5072.5919-4.9577.8732-7.352.3387-3.2676.6761-6.4788,1.1553-9.6337a.8243.8243,0,0,0,.0563-.2535c1.183-7.7745,3.1267-15.1829,7.7464-22.225,9.887-15.155,23.9712-19.1548,39.1545-20.5068l.9295-.0564c6.1126-.5071,12.3943-.5916,18.6477-.8168l2.1127-.0845.7887-.0286c.5631-.0278,1.38-.0561,2.3944-.1123.2249,0,.4788-.0282.7323-.0282l.8166-.0282c.5918-.0281,1.1831-.0563,1.8312-.0845q.93-.0421,1.9436-.0845l7.0985-.31c.6479-.0282,1.2392-.0567,1.8307-.0845l3.1553-.1409c.5633-.0281,1.0138-.0562,1.3238-.0562l.535-.0283,25.4366-1.0986,51.38,14.8167c6.225,1.7746,22.9952,18.1837,23.0235,24.9724C2134.1421,993.3918,2126.4988,1276.6691,2129.4844,1326.0489Z"/><path class="cls-31" d="M2133.9032,965.2569c-3.1548,39.0418-37.7761,50.505-39.0682,108.2454-.7361,32.8915-2.6763,67.0415-16.8731,96.7031-9.5779,19.9716-25.8312,35.8306-41.7462,51.2107-13.8308,13.38-27.7183,26.8165-43.1543,38.3374-8.62,6.4507-17.9151,12.3943-28.2814,15.2956-11.9439,3.3521-24.62,2.5634-36.8725.7888-1.4649-.2254-2.958-.4508-4.4229-.7043-.6478-48.5345-.4786-129.4347,5.2676-201.2369q.6761-8.62,1.4366-17.2392c1.24-14.1406,2.62-28.3376,4.0284-42.0558.2532-2.5916.5349-5.183.7888-7.8025,1.0137-9.6058,2.028-18.9014,3.0416-27.8028.3383-2.7323.62-5.4646.958-8.2252.2538-2.2535.5067-4.4788.7605-6.6478q.5493-4.69,1.0983-9.38c.31-2.5069.5919-4.9576.8735-7.352.3383-3.2673.6762-6.4787,1.155-9.6337a.8243.8243,0,0,0,.0563-.2535c1.1834-7.7746,3.1267-15.183,7.7464-22.2251,9.8869-15.1547,23.9713-19.1547,39.1547-20.5068l.9293-.0564c6.113-.5069,12.3942-.5912,18.6477-.8168l2.1126-.0845.7887-.0281c.5634-.0283,1.38-.0564,2.3944-.1128,8.7605,6.7041,4.0847,20.5068,3.69,30.225-.4788,11.7182,1.38,24,9.7465,32.8166,5.5774,5.8875,13.2674,9.3519,21.07,11.6054C2073.0607,975.25,2112.6079,977.9889,2133.9032,965.2569Z"/><path class="cls-32" d="M2093.5273,901.04l-16.7744-5.3845c-13.318,46.4608-14.3533,103.341-16.03,159.7011l21.5665-4.0557C2074.4082,1007.5473,2080.6856,951.24,2093.5273,901.04Z"/><path class="cls-32" d="M1971.8782,896.45l17.8149-3.1608c-8.4866,55.3317-15.0067,111.7424-9.4824,161.7606l-19.3648,2.8257C1958.6378,1003.9539,1964.3591,945.3321,1971.8782,896.45Z"/><path class="cls-9" d="M2169.0505,1924.43l-34.8729,1.0987-2.9292.0845-27.6338.8732-52.2248-324.25-30.7883-229.8282-.5637-3.7746-1.8309-2.6478-.1406,1.4929-19.0138,233.6591-11.9438,328.1931-22.6191.6761-10.5915.2817-32.8169.986-20.3937-339.2916q2.4506-64.4781,4.8446-128.8436c0-.0845,5.2116-139.35,5.2116-139.35l3.0986-89.9145s13.3519-26.2813,26.9855-51.2387c7.1831-27.1264,13.5773-157.0967,13.5773-157.0967l44.0274.2254,93.9428.5352s-8.93,131.7166,11.0136,160.3924c19.9437,28.732,33.0982,59.5767,33.0982,59.5767l2,103.83c.9859,11.5773,1.6338,25.2109,2.1127,39.9994,2.76,81.5765-.5637,198.4483-.5637,198.4483Z"/><polygon class="cls-33" points="2090.498 1271.612 2103.119 1268.589 2126.055 1355.682 2120.742 1361.808 2090.498 1271.612"/><polygon class="cls-33" points="2131.248 1925.613 2103.615 1926.487 2051.39 1602.237 2020.601 1372.409 2020.038 1368.634 2018.066 1367.479 1998.996 1356.24 2054.995 1371.507 2131.248 1925.613"/><path class="cls-10" d="M1965.411,1068.3157l97.8734-.3517s13.5131,119.7611-5.3341,131.378-88.6264,7.0821-96.1847-7.1161S1965.411,1068.3157,1965.411,1068.3157Z"/><path class="cls-33" d="M1993.2354,1296.4343q-16.0781.6743-32.1562,1.3492a99.2288,99.2288,0,0,1,24.5472,17.5026c-13.9986,27.01-17.0936,55.5069-22.6961,84.8187-6.0095,31.4394-8.7646,63.3691-13.2977,95.0293-3.646,25.4617-6.2676,51.0436-8.0755,76.7163q-2.124,29.3331-2.8927,58.7572c-2.7117,94.6146,3.1035,189.41,13.4092,283.4521.6023,5.4239,1.1747,10.8173,1.8375,16.2411a1.7232,1.7232,0,0,0,.03.3916l-32.8736.5727-20.3693-339.2866q2.4409-64.4526,4.821-128.8445c0-.0905,5.213-139.3305,5.213-139.3305l3.1035-89.9141s13.3486-26.3053,26.9984-51.2546c7.1715-27.1189,13.5592-157.1082,13.5592-157.1082l44.0529.2408c-3.8136-.0208-15.6667,117.3975-16.4978,128.4919-2.86,38.1807-8.788,83.0642,18.8483,113.5427a249.2387,249.2387,0,0,0-57.3728,3.0475A547.132,547.132,0,0,1,1993.2354,1296.4343Z"/><path class="cls-29" d="M1999.2258,1981.09H1830.3132c7.312-21.9037,39.5524-25.46,61.489-35.5308,11.8328-5.4177,16.2533-24.5625,16.32-24.8947.6978-2.9915,2.7918-2.4929,5.0188-.8309,2.9583,2.1935,6.2154,6.3813,7.0132,7.2788,4.6861,5.3512,9.9046,10.4035,16.2531,13.6939,9.7719,5.0188,21.4051,5.052,31.6415,1.4625,1.662-.565,20.1421-11.5005,18.8462-12.1652C1998.1621,1935.7541,1999.2258,1981.09,1999.2258,1981.09Z"/><path class="cls-34" d="M1913.7059,1930.1034c-1.6617,14.6578-13.8933,20.7735-24.7619,28.3517a83.0317,83.0317,0,0,0-21.9034,22.6347h-36.7274c7.312-21.9037,39.5524-25.46,61.489-35.5308,11.8328-5.4177,16.2533-24.5625,16.32-24.8947.6978-2.9915,2.7918-2.4929,5.0188-.8309A30.9469,30.9469,0,0,1,1913.7059,1930.1034Z"/><rect x="1830.4401" y="1975.5269" width="170.268" height="11.2091"/><path class="cls-29" d="M2183.8181,1980.1383s-58.365-.1662-62.2868-.1326l-10.9019.1c-11.1345.0994-22.2357.1995-33.3706.2989-6.2815.0668-22.9.3657-22.9.3657s.2659-14.2588,5.65-21.6708c3.6561-5.0853,11.1677-9.9712,16.1867-13.3612,4.82-3.2907,9.6054-6.847,12.9625-11.6332,3.1907-4.5869,4.2879-9.4063,7.9766-13.5277.1665-.1662.3661-.3655.5323-.565,4.8859-4.9856,10.6027-6.6807,17.5491-6.2487a31.7,31.7,0,0,1,9.4727,1.8282,9.1977,9.1977,0,0,1,2.8587,1.7617c2.1268,1.7946,3.49,4.2542,5.3175,6.481,6.714,8.1765,15.6549,13.0292,25.3272,16.752a7.9946,7.9946,0,0,0,3.8884.764c3.0248-.4652,4.8527-3.8554,6.3155-6.1485,1.4625-2.3268,3.3236-4.9859,6.2486-2.9915,4.3544,2.9915,4.9524,14.6246,5.95,19.3442C2182.5218,1960.6945,2183.8181,1980.1383,2183.8181,1980.1383Z"/><path class="cls-34" d="M2123.7913,1941.2838c-2.5927,4.8193-6.2816,8.9743-8.8075,13.8269-3.9884,7.6445-4.7532,16.2531-4.3544,24.9946-11.1345.0994-22.2357.1995-33.3706.2989-6.2815.0668-22.9.3657-22.9.3657s.2659-14.2588,5.65-21.6708c3.6561-5.0853,11.1677-9.9712,16.1867-13.3612,4.82-3.2907,9.6054-6.847,12.9625-11.6332,3.1907-4.5869,4.2879-9.4063,7.9766-13.5277.1665-.1662.3661-.3655.5323-.565,4.8859-4.9856,10.6027-6.6807,17.5491-6.2487a31.7,31.7,0,0,1,9.4727,1.8282,9.1977,9.1977,0,0,1,2.8587,1.7617C2129.508,1924.9975,2126.9158,1935.4343,2123.7913,1941.2838Z"/><rect x="2053.6443" y="1975.2732" width="130.7704" height="11.2092"/><path class="cls-5" d="M2057.9307,829.6614a6.9558,6.9558,0,0,0-.2674.8692c-3.7712,12.4295,6.6926,13.9593,2.3552,26.2487-2.1723,6.1549-5.5425,12.1-5.889,18.7358a21.4173,21.4173,0,0,0,6.6667,17.1508c3.3856,3.1022,4.5287,6.4171,1.8519,10.5216-2.0231,3.1025-5.4887,4.983-8.81,6.39a151.9452,151.9452,0,0,1-16.0021,5.8111c-8.6328,2.5631-20.4164,5.8254-29.0269,1.5054-17.6507-8.8563-18.8181-29.7348-18.8181-29.7348s22.4324-31.25,23.6766-41.0534Z"/><path class="cls-6" d="M2057.2617,863.5756c2.7568-6.7963,11.8778-32.4435,11.8778-32.4435l-55.4717,14.9735c-1.2442,9.8036-23.6766,41.0534-23.6766,41.0534s1.1674,20.8788,18.8183,29.7348c3.8662,1.94,9.183,2.2428,15.0873,1.5352C2024.2956,895.2575,2038.4053,880.3822,2057.2617,863.5756Z"/><path class="cls-5" d="M2010.0447,888.1919a57.7268,57.7268,0,0,1-12.9259,2.6073c-8.0306.6115-15.9182-.8865-22.7807-6.1075-7.0179-5.2923-10.5091-13.9471-13.42-22.2532-7.1283-20.24-4.3666-34.7929,1.544-54.77,3.0316-10.2446,8.0881-18.7761,11.0892-29.0045,2.99-10.1049,7.3512-24.16,14.12-32.4883a62.1765,62.1765,0,0,1,22.8961-17.56,43.5308,43.5308,0,0,1,11.42-3.5087c20.77-2.8438,43.1065,6.4746,58.7148,19.4494,19.15,15.8962,27.2321,44.2932,17.4378,67.5527-6.897,16.2924-19.0266,29.6439-31.4692,41.9153-5.3363,5.2832-10.39,12.0936-16.5984,16.1314C2037.1726,878.4932,2024.4894,883.7043,2010.0447,888.1919Z"/><path class="cls-6" d="M1997.041,890.5531c-7.3605,2.1959-15.9945-.7579-22.7029-5.8614-7.0179-5.2923-10.5091-13.9471-13.42-22.2532-7.1283-20.24-4.3666-34.7929,1.544-54.77,3.0316-10.2446,8.0881-18.7761,11.0892-29.0045,2.99-10.1049,7.3512-24.16,14.12-32.4883a60.6931,60.6931,0,0,1,6.4816-6.8435,100.5566,100.5566,0,0,1,63.1771,29.6053c3.5134,3.5849,15.46,9.0409,12.9484,15.5744-1.196,3.1115-3.4674,1.8158-5.6782,3.2287-1.98,1.2653-2.4718,2.431-4.0734,4.11-5.0335,5.2774-9.2684,10.0052-12.2754,16.7955-3.1774,7.1755-5.087,14.835-7.6346,22.2576a136.0694,136.0694,0,0,1-17.7406,34.5305C2016.9238,873.8184,2007.4654,887.4427,1997.041,890.5531Z"/><path class="cls-35" d="M2029.802,807.9836a75.7069,75.7069,0,0,1,8.3681,4.8484,32.2842,32.2842,0,0,1,4.5669,3.9464c1.1859,1.2465,3.1791,3.1087,3.7254,4.8571a33.4682,33.4682,0,0,0-9.6211-14.9817,22.5992,22.5992,0,0,0-12.8105-6.2524,3.4957,3.4957,0,0,0-1.678.102,1.569,1.569,0,0,0-1.0248,1.3609c-.0146,1.91,4.4692,3.7941,5.7557,4.5737C2027.9772,806.98,2028.8867,807.4881,2029.802,807.9836Z"/><path class="cls-35" d="M1983.7709,787.22a28.974,28.974,0,0,0-5.9971-2.6913c-2.9492-.8044-3.3708-.0982-6.392.4186,4.3485-3.9625,7.233-4.0674,11.9757-2.9035,3.95.97,6.7168,1.8483,8.294,4.5319a1.808,1.808,0,0,1-.83,2.5612c-1.8176,1.0592-4.4847-.5921-6.0867-1.4124C1984.41,787.5582,1984.0893,787.3892,1983.7709,787.22Z"/><path class="cls-36" d="M1983.8422,803.4947c-1.423,4.0768-4.4219,6.74-6.6976,5.9478s-2.9673-4.7388-1.5442-8.8157,4.4216-6.74,6.6976-5.9479S1985.2653,799.4178,1983.8422,803.4947Z"/><path class="cls-36" d="M2033.2906,824.28c-1.4565,4.0653-4.4771,6.7033-6.7463,5.8917s-2.9282-4.7647-1.4715-8.83,4.4771-6.703,6.7463-5.8918S2034.7473,820.2151,2033.2906,824.28Z"/><path class="cls-18" d="M1966.4758,837.7813c4.7639,5.2078,10.9868,10.4638,17.6245,12.991,11.9827,4.5619,25.3447-.1822,23.6715,3.6694-3.7078,8.5356-26.4492,17.3047-33.2058,9.8649l-3.3261-3.6631a2.73,2.73,0,0,1-.6076-.8771,2.9651,2.9651,0,0,1,.0416-1.5417C1972.0491,851.0389,1968.9887,844.3153,1966.4758,837.7813Z"/><path class="cls-35" d="M2065.5409,805.967c-.1613,1.0322-.3317,2.058-.5025,3.0738a123.0037,123.0037,0,0,1-7.2993,25.7965l5.4647,2.0787a22.3463,22.3463,0,0,1,8.6033-7.1623c5.2268-2.4585,6.79,3.2279,5.4954,7.3555-1.2519,3.99-5.3569,7.7771-8.09,10.8061-3.3793,3.7456-6.9595,7.3145-10.1638,11.2162a55.4984,55.4984,0,0,0-4.3678,6.0057c-.7867,1.2731-2.1751,5.9867-3.2566,6.6341,10.0325-6.0067,20.1294-12.0043,29.5132-19.0046,8.6047-6.4187,15.321-15.6144,20.591-24.904a169.1228,169.1228,0,0,0,17.5023-44.6582c.7338-3.1194-.8451-3.8306-2.1171-6.17-5.7151-10.5074-17.2522-17.1848-29.2794-16.0195-12.9176,1.2516-25.858,11.326-23.2647,25.4817.59,3.2208,2.2036,5.9556,2.1709,9.2015A71.8012,71.8012,0,0,1,2065.5409,805.967Z"/><path class="cls-37" d="M2086.3564,806.2444c2.2009-1.9114,3.9776-4.4266,4.1727-7.2669,2.6859,4.4041,3.1608,10.38,1.8981,15.3016,3.7193-1.911,4.2314-6.9254,4.2607-11.107a21.6717,21.6717,0,0,1-2.5946,19.7313q3.8409-2.9986,7.6813-5.9977a32.9046,32.9046,0,0,1-7.5224,14.2072,36.3844,36.3844,0,0,0,18.7065-20.1025c4.74-12.685,1.7791-29.5823-7.8211-39.335-.2782-.2829-.614-.5415-.8672-.8454a6.3435,6.3435,0,0,1,1.3926,3.1109,46.6873,46.6873,0,0,1,.598,4.6836,19.834,19.834,0,0,1-1.0005,5.2546,17.0655,17.0655,0,0,0-6.2307-8.2921,42.7845,42.7845,0,0,1,2.0606,13.4,24.5116,24.5116,0,0,0-8.3884-9.9244,24.0063,24.0063,0,0,0,3.8955,10.0892,17.7189,17.7189,0,0,0-2.4158-.5349,6.77,6.77,0,0,1-2.3678-1.3584,16.491,16.491,0,0,1-3.4693-5.0512,17.3163,17.3163,0,0,0,3.3071,9.0026c-3.74-.58-6.6042-3.5221-9.1735-6.3012.9428,1.02,1.4164,3.3215,1.8342,4.6268a37.2846,37.2846,0,0,1,1.2343,5.0545,30.1868,30.1868,0,0,1,.3008,10.3092,5.4257,5.4257,0,0,1-1.2618,2.71C2085.1945,807.1783,2085.7928,806.734,2086.3564,806.2444Z"/><path class="cls-38" d="M2089.0116,732.5023c-.5859.8506-2.9414.3048-5.2607-1.2189s-3.7241-3.4476-3.14-4.2988,2.9389-.307,5.2592,1.2166S2089.5978,731.651,2089.0116,732.5023Z"/><path class="cls-9" d="M2115.8779,810.0039c-8.5518,20.06-28.96,37.8443-28.96,37.8443s-1.3588-6.1977-3.2484-11.8225c-4.7636-14.2653-10.7478-28.1117-20.6319-39.8307a90.3978,90.3978,0,0,0-8.2919-8.663,117.5682,117.5682,0,0,0-20.9415-15.34c-3.4135-2.0267-6.9464-3.8546-10.4949-5.54-2.5213-1.1909-5.0592-2.3284-7.6116-3.3229a54.542,54.542,0,0,0-15.1418-3.7613c-1.4558-.1547-2.9364-.2284-4.4171-.3025a61.1858,61.1858,0,0,0-9.9661.5785c-1.1909.1333-7.8227,2.8028-7.8227,2.8028s5.1622-14.2372,7.8007-18.5817a116.2158,116.2158,0,0,1,8.4568-11.54c12.1886-15.6057,29.3743-24.8628,49.7039-21.0034a109.0176,109.0176,0,0,1,32.18,12.2647c.9026.5146,1.8048,1.029,2.6992,1.57,14.4,8.4555,27.2433,19.85,34.5313,32.242C2123.0293,773.4745,2123.1782,792.9481,2115.8779,810.0039Z"/><path class="cls-5" d="M2068.4243,829.6323c10.7191-3.5588,19.1669-3.2489,17.9555,1.7212s-21.06,26.9994-28.68,23.0472-3.72-7.5519-3.72-7.5519Z"/><path class="cls-39" d="M2079.9186,831.5585c1.3293,2.053-1.4539,4.2374-2.6232,5.5667-1.9388,2.2039-3.9157,4.3772-6.0148,6.43-1.6028,1.5671-5.0565,6.8249-8.61,4.9573a1.08,1.08,0,0,1-.3949-.3139.8559.8559,0,0,1-.13-.3521c-.4753-2.6847,4.5129-3.1657,5.4233-5.3168a1.7091,1.7091,0,0,0-.15-1.7282c-.256-.3474-.673-.6454-.771-1.0161a.68.68,0,0,1,.28-.6873,18.6651,18.6651,0,0,1,10.551-4.7545,12.5592,12.5592,0,0,1-4.929-.8895,1.3747,1.3747,0,0,1-.5868-.3616.7288.7288,0,0,1,.0916-1.0013c1.4975-1.62,6.29-2.782,7.81-.61C2079.8842,831.5067,2079.9016,831.5326,2079.9186,831.5585Z"/><path class="cls-11" d="M2076.4907,723.7872c.9026.5146,1.8048,1.029,2.6992,1.57-9.2349,1.0015-39.6807,4.593-45.386,46.835-3.4135-2.0267-6.9464-3.8546-10.4949-5.54-2.5213-1.1909-5.0592-2.3284-7.6116-3.3229a54.542,54.542,0,0,0-15.1418-3.7613c-1.4558-.1547-2.9364-.2284-4.4171-.3025a61.1858,61.1858,0,0,0-9.9661.5785c-1.1909.1333-7.8227,2.8028-7.8227,2.8028s5.1622-14.2372,7.8007-18.5817a116.2158,116.2158,0,0,1,8.4568-11.54c12.1886-15.6057,29.3743-24.8628,49.7039-21.0034A109.0176,109.0176,0,0,1,2076.4907,723.7872Z"/><g class="cls-16"><path class="cls-32" d="M2080.7416,827.1414a.5318.5318,0,0,1-.1456-.1082.4278.4278,0,0,1,.0352-.6289c10.8625-8.7324,20.9575-20.4187,26.0352-31.61a67.5681,67.5681,0,0,0,4.49-40.069c-.0521-.248.4323.4064.4323.4064a4.4985,4.4985,0,0,1,.7.9636,63.7547,63.7547,0,0,1-4.7341,39.0815c-5.1385,11.309-15.3161,23.1045-26.2848,31.919A.4929.4929,0,0,1,2080.7416,827.1414Z"/></g><g class="cls-16"><path class="cls-32" d="M2024.7679,766.8317a.51.51,0,0,0,.1345.0947.3837.3837,0,0,0,.53-.1857,70.663,70.663,0,0,1,19.2-27.8872,56.3314,56.3314,0,0,1,31.7914-13.545,4.1693,4.1693,0,0,0,.6118-.129l-.8848-.5031A56.5229,56.5229,0,0,0,2044.05,738.21a71.4352,71.4352,0,0,0-19.3932,28.1689A.4259.4259,0,0,0,2024.7679,766.8317Z"/></g><path class="cls-40" d="M2061.2853,778.3265s-4.1819,7.1425-5.9685,10.5385a129.2605,129.2605,0,0,0-39.0808-24.1482c-4.8225-1.9628-9.6166-4.4056-14.81-4.9453.18-1.4823,4.5324-10.6782,4.5324-10.6782s12.6809,3.0527,16.8364,4.52a124.556,124.556,0,0,1,22.0451,10.2813C2051.2572,767.6915,2061.2853,778.3265,2061.2853,778.3265Z"/><path class="cls-35" d="M2010.3834,753.9913a36.0066,36.0066,0,0,0-.2322,8.6219c.3651,5.7258,1.1665,11.54-.1005,17.1231a30.5877,30.5877,0,0,0,10.67-8.4376q-.2272,5.1219-.4547,10.2359a41.3345,41.3345,0,0,1,10.8876-7.0821,12.0786,12.0786,0,0,0-3.6919,6.7852,31.779,31.779,0,0,1,16.4421-7.1311c4.1532-.5116,13.6317,1.2481,17.3818,4.22,2.6618-4.45,1.394-16.502-1.2431-21.41-3.725-6.9326-10.2588-12.22-17.341-15.4571a38.4345,38.4345,0,0,0-11.4609-3.2762c-3.5417-.4144-7.796-.6228-11.216.3909a24.6648,24.6648,0,0,0-13.797,10.43,40.5668,40.5668,0,0,0,4.4448,1.2451,20.1485,20.1485,0,0,1-.1516,3.0615Q2010.4458,753.6487,2010.3834,753.9913Z"/><path class="cls-41" d="M2052.7873,762.5571c-1.9853,1.5971-4.89.8694-7.4362.5372a20.2691,20.2691,0,0,0-12.0545,2.18,6.106,6.106,0,0,1,2.1794-3.7465,21.1546,21.1546,0,0,0-10.1159,7.7467,79.185,79.185,0,0,1,3.0951-11.5129c-5.5458.213-9.4525,5.2353-12.5426,9.7831a32.6886,32.6886,0,0,0,.5161-12.2853c-.5672-3.8148-1.2133-6.7959,1.8027-9.65a15.7769,15.7769,0,0,1,10.2455-3.9853c7.5447-.2455,15.16,3.2494,20.8136,8.0732C2052.891,752.7693,2057.8518,758.4832,2052.7873,762.5571Z"/><path class="cls-5" d="M1750.2622,745.1985c.0972-1.9036,48.2345-23.73,28.7966-32.7182-6.198-2.8665-15.6611,5.7765-19.2215,9.6218A36.6006,36.6006,0,0,0,1750.2622,745.1985Z"/><path class="cls-6" d="M1750.2622,745.1985c.0972-1.9036,48.2345-23.73,28.7966-32.7182-6.198-2.8665-15.6611,5.7765-19.2215,9.6218A36.6006,36.6006,0,0,0,1750.2622,745.1985Z"/><polygon class="cls-42" points="1652.207 759.617 1797.372 759.617 1835.465 803.275 1839.624 822.423 1821.738 837.101 1709.175 836.314 1652.207 759.617"/><polygon class="cls-43" points="1615.742 764.518 1678.975 824.121 1719.47 822.941 1652.207 759.617 1615.742 764.518"/><path class="cls-44" d="M1612.944,821.3234h226.9284a0,0,0,0,1,0,0V939.0646a19.8492,19.8492,0,0,1-19.8492,19.8492h-187.23a19.8492,19.8492,0,0,1-19.8492-19.8492V821.3234A0,0,0,0,1,1612.944,821.3234Z"/><path class="cls-45" d="M1612.944,821.3234h165.568a0,0,0,0,1,0,0V939.0646a19.8492,19.8492,0,0,1-19.8492,19.8492h-125.87a19.8492,19.8492,0,0,1-19.8492-19.8492V821.3234A0,0,0,0,1,1612.944,821.3234Z"/><path class="cls-44" d="M1807.234,725.9826l-12.0421,35.9622h.453l43.9787,60.4786,10.8867-23.0862a10.3945,10.3945,0,0,0-.7095-10.0646Z"/><path class="cls-45" d="M1626.748,736.1636l-11.0057,28.3547s169.4513-2.5716,179.45-2.5735l13.444-28.7622c1.8093-3.8709-.6377-8.5546-4.4693-8.5546l-166.1336,2.8169C1633.0727,727.4449,1628.6085,730.8939,1626.748,736.1636Z"/><path class="cls-46" d="M1700.5587,774.9581l-5.131.0358c.3632.6566,7.38,13.3519,7.38,13.3519l-5.1822,13.9548-14.5708-3.0307s-7.0173-12.6956-7.38-13.3523l-2.7588,4.3274.4481,9.1739,5.9453,10.756,14.3894,2.5306,4.7089,8.5194,19.6068.0586-9.4911-16.7765,5.5093-13.535-5.9453-10.756Z"/><path class="cls-13" d="M1646.0168,786.9086l-3.8228.0265,5.4986,9.948-3.8609,10.3971-10.8559-2.258-5.4988-9.9481-2.0555,3.224.3341,6.8352,4.4295,8.0136,10.7208,1.8857,3.5084,6.3472,14.6082.044-7.0715-12.5,4.1048-10.0843-4.43-8.0138Z"/><polygon class="cls-46" points="1756.313 821.509 1750.426 821.443 1753.394 813.502 1758.515 815.449 1756.313 821.509"/><path class="cls-47" d="M1752.073,811.0448l9.0413,3.4363,21.4631-48.7555c3.6424-9.5822-10.5227-14.9658-14.1652-5.3836Z"/><path class="cls-48" d="M1756.78,808.1794l2.7167,1.0326,17.1552-42.8175c1.7316-4.5565-2.6147-5.9362-4.2561-1.6177Z"/><path class="cls-48" d="M1761.2684,809.7973l1.345.5113,17.9-42.3174c1.8519-4.4879-.352-5.0549-2.1073-.8012Z"/><path class="cls-48" d="M1755.21,807.4949l-1.3451-.5113,14.7272-43.5234c1.5966-4.5848,3.6208-3.5448,2.1073.8008Z"/><path class="cls-47" d="M1750.8541,810.7621h11.6023a1.3372,1.3372,0,0,1,1.3372,1.3372v1.3228a1.3371,1.3371,0,0,1-1.3371,1.3371h-11.6016a1.3377,1.3377,0,0,1-1.3377-1.3377v-1.3224a1.337,1.337,0,0,1,1.337-1.337Z" transform="matrix(0.9348, 0.3553, -0.3553, 0.9348, 403.3538, -571.072)"/><polygon class="cls-49" points="1731.812 821.509 1726.962 821.455 1729.407 814.911 1733.627 816.515 1731.812 821.509"/><path class="cls-50" d="M1728.3183,812.8863l7.45,2.8316,17.6854-40.1747c3.0014-7.896-8.6706-12.3319-11.672-4.4363Z"/><path class="cls-51" d="M1732.1971,810.5253l2.2386.8509,14.1359-35.282c1.427-3.7544-2.1544-4.8916-3.507-1.3331Z"/><path class="cls-51" d="M1735.8954,811.8584l1.1085.4215,14.75-34.87c1.5256-3.6979-.29-4.1653-1.7365-.66Z"/><path class="cls-51" d="M1730.9033,809.9613l-1.1082-.4213,12.1351-35.8635c1.3158-3.7778,2.9836-2.9209,1.7363.66Z"/><path class="cls-50" d="M1735.468,817.3444l-7.9176-3.0094a1.6467,1.6467,0,1,1,1.17-3.0785l7.9179,3.0093a1.6468,1.6468,0,1,1-1.17,3.0786Z"/><rect class="cls-43" x="1633.9442" y="843.6234" width="8.9872" height="84.8669" rx="3.1322"/><path class="cls-43" d="M1674.3735,843.6234h2.7228a3.1322,3.1322,0,0,1,3.1322,3.1322v78.6025a3.1322,3.1322,0,0,1-3.1322,3.1322h-2.7227a3.1323,3.1323,0,0,1-3.1323-3.1323V846.7556A3.1322,3.1322,0,0,1,1674.3735,843.6234Z"/><rect class="cls-43" x="1708.538" y="843.6234" width="8.9871" height="84.8669" rx="3.1322"/><rect class="cls-43" x="1745.8347" y="843.6234" width="8.9872" height="84.8669" rx="3.1322"/><path class="cls-43" d="M1801.3043,848.3845h34.1212a2.3635,2.3635,0,0,1,2.3635,2.3635v7.5151a2.3633,2.3633,0,0,1-2.3633,2.3633h-34.1214a2.3635,2.3635,0,0,1-2.3635-2.3635V850.748A2.3635,2.3635,0,0,1,1801.3043,848.3845Z"/><path class="cls-52" d="M1823.75,901.8571h-9.6575c-6.6069,0-11.9829-4.8112-11.9829-10.7241V855.7324c0-1.5555,1.566-2.817,3.5019-2.817s3.5019,1.2615,3.5019,2.817V891.133a5.04,5.04,0,0,0,4.9791,5.09h9.6575a5.0407,5.0407,0,0,0,4.9794-5.09V855.2453c0-1.5555,1.5662-2.8168,3.502-2.8168s3.5019,1.2613,3.5019,2.8168V891.133C1835.7333,897.0459,1830.3573,901.8571,1823.75,901.8571Z"/><path class="cls-5" d="M1756.7456,734.0222c-1.3521,3.0986-3.8591,5.7747-7.07,6.5633a7.5018,7.5018,0,0,1-8.3661-3.6619.62.62,0,0,1-.0845-.1408,8.6842,8.6842,0,0,1-9.2672,2.3944,9.83,9.83,0,0,1-4.2253-2.7887c-.4794-.5072-.8171-.5917-1.1554-.4508-.3941.1128-.7884.5916-1.3521,1.0422a12.3736,12.3736,0,0,1-6.4225,2.9577,3.8463,3.8463,0,0,1-.8166.0564,7.11,7.11,0,0,1-6.2534-4.1408c-.1412-.4789-.2536-.8732-.3381-1.2676a5.8508,5.8508,0,0,1,.0283-1.2112,2.2338,2.2338,0,0,1-.2257.4507c-1.0417,1.8027-3.8026,2.169-5.6338,1.0423-2-1.2113-3.0983-3.5494-3.8585-5.8028-1.1837-3.69-1.6623-7.8591-.0283-11.3238,1.6055-3.38,5.8026-5.5493,9.1265-3.9155.0566.0282.1126.0564.169.0845a10.1432,10.1432,0,0,1,6.3379-3.0985,10.3961,10.3961,0,0,1,7.3521,1.8309,11.7538,11.7538,0,0,1,5.07-3.2675,13.435,13.435,0,0,1,13.9716,3.2675.496.496,0,0,1,.1409.1127,10.2644,10.2644,0,0,1,3.5493-1.7183c3.8307-.9013,7.3235,1.2676,9.69,5.38C1760.1543,721.7688,1759.14,728.5576,1756.7456,734.0222Z"/><g class="cls-16"><path class="cls-5" d="M1708.4478,713.2794a7.7863,7.7863,0,0,0-6.7793,4.4669c-1.6388,3.4505-1.153,7.6307.046,11.32.736,2.2647,1.8425,4.5839,3.8359,5.7931a4.6377,4.6377,0,0,0,2.9693.5854C1705.3806,728.3023,1704.9667,720.0613,1708.4478,713.2794Z"/></g><path class="cls-6" d="M1718.8021,739.9376a3.8463,3.8463,0,0,1-.8166.0564,7.11,7.11,0,0,1-6.2534-4.1408c-.1412-.4789-.2536-.8732-.3381-1.2393-.0281-.0847-.0281-.1692-.0563-.2254-.0563-.1973-.0845-.3944-.1411-.5634a37.2333,37.2333,0,0,1-1.2109-15.1547c.1968-1.2959.4221-3.0986.8168-4.8451.0566.0282.1126.0564.169.0845a10.1432,10.1432,0,0,1,6.3379-3.0985c-2.0845,5.1549-1.6056,11.0422-1.1268,16.5913C1716.577,731.6843,1717,736.0786,1718.8021,739.9376Z"/><path class="cls-6" d="M1731.929,739.1772a9.9132,9.9132,0,0,1-4.1969-2.7887c-.4794-.5072-.8171-.5917-1.1554-.4508a8.3416,8.3416,0,0,1-.366-1.0986c-2.9634-8.935-2.7008-20.138-1.4929-22.2532a11.6389,11.6389,0,0,1,5.014-3.2112,23.4533,23.4533,0,0,0-1.3239,8.9858c0,6.9013.5915,13.9435,3.2957,20.2814A4.3461,4.3461,0,0,1,1731.929,739.1772Z"/><path class="cls-6" d="M1749.591,740.6138a7.4917,7.4917,0,0,1-8.2819-3.69,39.6032,39.6032,0,0,1-.9859-8.8449,37.2722,37.2722,0,0,1,3.1547-14.9576,3.626,3.626,0,0,1,.2255-.4789.496.496,0,0,1,.1409.1127,10.2644,10.2644,0,0,1,3.5493-1.7183,23.3641,23.3641,0,0,0-1.0708,5.1267,52.3893,52.3893,0,0,0,3.1553,24.1687C1749.5062,740.4165,1749.5629,740.5293,1749.591,740.6138Z"/><path class="cls-5" d="M1801.1112,966.2729a7.0158,7.0158,0,0,1,1.296,3.0986,6.1083,6.1083,0,0,1-.6765,2.8168c-1.07,2.5633-2.9575,8.2535-4.5631,14-.4223,1.5211-.8453,3.07-1.2112,4.5633a46.5141,46.5141,0,0,0-1.7186,9.7463,1.76,1.76,0,0,1-.3093,1.2676,1.0763,1.0763,0,0,1-.9861.1973,1.9618,1.9618,0,0,1-.4508-.0564c-3.4927-.5352-79.7736-36.45-100.2523-37.5207-2.5066-.1126-19.9715-1.1549-15.3519-6.6478,2.4506-2.93,18.3379-1.9155,21.8307-2.2253q18.5485-1.521,37.1261-2.169,9.4224-.3381,18.845-.4507c6.0282-.0563,9.4084-2.3944,13.7182-6.31,5.2111-4.76,10.5351-9.4083,15.9151-14,3.2681-2.76,6.6761-5.5774,10.8169-6.7041a10.5463,10.5463,0,0,1,2.5071-.3381c2.1126,0,4.1971.7325,5.1264,2.5352,1.0147,1.9155.282,4.3662-1.0138,6.0845-1.3239,1.7464-3.1267,3.0422-4.62,4.62-7.8309,8.31-2.6475,17.4364,2.7042,25.5208C1800.2665,964.9491,1800.7168,965.5969,1801.1112,966.2729Z"/><path class="cls-6" d="M1801.1112,966.2729a7.0158,7.0158,0,0,1,1.296,3.0986,6.1083,6.1083,0,0,1-.6765,2.8168c-1.07,2.5633-2.9575,8.2535-4.5631,14-.4223,1.5211-.8453,3.07-1.2112,4.5633a46.5141,46.5141,0,0,0-1.7186,9.7463,1.76,1.76,0,0,1-.3093,1.2676,1.0763,1.0763,0,0,1-.9861.1973,1.9618,1.9618,0,0,1-.4508-.0564c-3.4927-.5352-79.7736-36.45-100.2523-37.5207-2.5066-.1126-19.9715-1.1549-15.3519-6.6478,2.4506-2.93,18.3379-1.9155,21.8307-2.2253q18.5485-1.521,37.1261-2.169,9.4224-.3381,18.845-.4507c6.0282-.0563,9.4084-2.3944,13.7182-6.31,5.2111-4.76,10.5351-9.4083,15.9151-14,3.2681-2.76,6.6761-5.5774,10.8169-6.7041a10.5463,10.5463,0,0,1,2.5071-.3381c2.1126,0,4.1971.7325,5.1264,2.5352,1.0147,1.9155.282,4.3662-1.0138,6.0845-1.3239,1.7464-3.1267,3.0422-4.62,4.62-7.8309,8.31-2.6475,17.4364,2.7042,25.5208C1800.2665,964.9491,1800.7168,965.5969,1801.1112,966.2729Z"/><path class="cls-5" d="M2066.3756,1019.8216c-30.0841,14.366-59.4643,32.1686-89.7456,44.1122a34.69,34.69,0,0,1-25.7178-.2254l-157.97-61.7457c-.0848,0-1.8308-.7606-1.8308-.7606l2.5631-11.183,1.2391-5.352,4.7041-20.4505.2254.0845,156.59,42.1121s26.704-23.1827,54.1965-44.9289c11.4365,4.5632,24.1967,6.9576,31.6616,15.07a103.0756,103.0756,0,0,1,9.0984,11.0422C2057.3338,996.16,2060.5163,1004.5541,2066.3756,1019.8216Z"/><path class="cls-6" d="M2044.6612,979.17s-1.5346-1.7178-2.37-2.6158c-7.4649-8.1126-20.2251-10.507-31.6616-15.07-27.4925,21.7462-54.1965,44.9289-54.1965,44.9289l-156.59-42.1121-.2254-.0845-4.7041,20.4505-1.2391,5.352-2.5631,11.183,1.746.7606c.0848,0,158.0546,61.7457,158.0546,61.7457a34.9833,34.9833,0,0,0,21.5635,1.5282C1987.838,1031.0381,2044.6612,979.17,2044.6612,979.17Z"/><path class="cls-29" d="M2137.3044,967.3152a33.9765,33.9765,0,0,1-7.5211,13.3237c-4.2816,4.7887-69.5485,42.3657-69.5485,42.3657-4-13.1547-8.1691-23.69-13.155-32.1967a69.5725,69.5725,0,0,0-6.056-8.845c-7.6616-9.6337-17.2395-15.9154-30.2813-20.4786,1.1265-.0282,6.3943-5.155,7.2957-5.8591,17.549-13.9154,34.0559-30.1123,54.1683-39.69,8.3941-4.028,18.2255-7.8591,27.7459-8.9576,7.6618-.9015,15.1271,0,21.4369,4a27.8747,27.8747,0,0,1,7.9151,7.5773,4.27,4.27,0,0,1,.5071.7324C2137.6144,930.6678,2141.1356,953.2309,2137.3044,967.3152Z"/><path class="cls-31" d="M2121.3893,910.9779a206.9094,206.9094,0,0,0-62.2248,49.07c-5.3242,6.1971-10.9856,15.7463-18.1407,21.9152-7.6616-9.6337-17.2395-15.9154-30.2813-20.4786,1.1265-.0282,6.3943-5.155,7.2957-5.8591,17.549-13.9154,34.0559-30.1123,54.1683-39.69,8.3941-4.028,18.2255-7.8591,27.7459-8.9576C2107.6142,906.0764,2115.08,906.9779,2121.3893,910.9779Z"/></g></g></g></svg>