<svg xmlns="http://www.w3.org/2000/svg" xmlns:xlink="http://www.w3.org/1999/xlink" width="1020.4514" height="1025.964" viewBox="0 0 1020.4514 1025.964"><defs><style>.cls-1{fill:none;}.cls-2{isolation:isolate;}.cls-3{fill:url(#linear-gradient);}.cls-31,.cls-36,.cls-37,.cls-4,.cls-7{opacity:0.2;}.cls-37,.cls-4,.cls-7{mix-blend-mode:screen;}.cls-4{fill:url(#linear-gradient-2);}.cls-5{clip-path:url(#clip-path);}.cls-6{fill:url(#linear-gradient-3);}.cls-7{fill:url(#linear-gradient-4);}.cls-8{fill:#5e5eef;}.cls-9{fill:#253e8e;}.cls-10{fill:url(#linear-gradient-5);}.cls-11{fill:url(#linear-gradient-6);}.cls-12{fill:#f9fbfc;}.cls-13{fill:#dce8ef;}.cls-13,.cls-24,.cls-31,.cls-36{mix-blend-mode:multiply;}.cls-14{font-size:26.2109px;font-family:Poppins-SemiBold, Poppins SemiBold;font-weight:600;}.cls-14,.cls-21{fill:#fff;}.cls-15{letter-spacing:-0.071em;}.cls-16{letter-spacing:0em;}.cls-17{letter-spacing:0.004em;}.cls-18{letter-spacing:-0.003em;}.cls-19{letter-spacing:-0.011em;}.cls-20{fill:#cdcdfc;}.cls-22{font-size:24.3556px;fill:#7a75fd;font-family:Poppins-Medium, Poppins Medium;font-weight:500;letter-spacing:0.085em;}.cls-23{letter-spacing:0.1em;}.cls-24{opacity:0.3;fill:url(#linear-gradient-7);}.cls-25{fill:url(#linear-gradient-8);}.cls-26{fill:url(#linear-gradient-9);}.cls-27{fill:url(#linear-gradient-10);}.cls-28{fill:#1d262d;}.cls-29{fill:url(#linear-gradient-11);}.cls-30{fill:#7a76fd;}.cls-32{fill:#fefefe;}.cls-33{fill:url(#linear-gradient-12);}.cls-34{fill:#ededf9;}.cls-35{fill:url(#linear-gradient-13);}.cls-36{fill:url(#linear-gradient-14);}.cls-37{fill:url(#linear-gradient-15);}.cls-38{fill:url(#linear-gradient-16);}.cls-39{fill:url(#linear-gradient-17);}.cls-40{fill:url(#linear-gradient-18);}.cls-41{fill:url(#linear-gradient-19);}.cls-42{fill:url(#linear-gradient-20);}</style><linearGradient id="linear-gradient" x1="951.4241" y1="128.7493" x2="951.4241" y2="987.4617" gradientUnits="userSpaceOnUse"><stop offset="0.0427" stop-color="#e4e4f9"/><stop offset="1" stop-color="#6f80ff"/></linearGradient><linearGradient id="linear-gradient-2" x1="1106.9869" y1="221.0968" x2="796.3245" y2="614.6019" xlink:href="#linear-gradient"/><clipPath id="clip-path" transform="translate(-460 -26.036)"><polygon class="cls-1" points="1042.017 930.319 1234.786 930.319 1390.335 850.322 1303.672 569.779 1253.119 450.339 1142.012 540.335 963.687 666.441 1042.017 930.319"/></clipPath><linearGradient id="linear-gradient-3" x1="1031.3917" y1="760.4775" x2="1315.8268" y2="760.4775" gradientUnits="userSpaceOnUse"><stop offset="0.0427" stop-color="#7b8bff"/><stop offset="1" stop-color="#6f80ff"/></linearGradient><linearGradient id="linear-gradient-4" x1="1245.4442" y1="503.7518" x2="1137.7478" y2="931.7753" xlink:href="#linear-gradient-3"/><linearGradient id="linear-gradient-5" x1="752.2695" y1="551.3987" x2="1200.6523" y2="551.3987" gradientTransform="matrix(1, -0.004, 0.004, 1, -1.9609, 7.6782)" xlink:href="#linear-gradient-3"/><linearGradient id="linear-gradient-6" x1="808.4339" y1="342.5984" x2="1168.1217" y2="342.5984" gradientTransform="translate(89.2737 -242.3294) rotate(7.7874)" xlink:href="#linear-gradient-3"/><linearGradient id="linear-gradient-7" x1="740.614" y1="746.4587" x2="907.0556" y2="746.4587" xlink:href="#linear-gradient-3"/><linearGradient id="linear-gradient-8" x1="-32.3952" y1="-1224.1226" x2="75.8608" y2="-1224.1226" gradientTransform="translate(1919.5221 -115.3186) rotate(-109.5239)" gradientUnits="userSpaceOnUse"><stop offset="0.0427" stop-color="#7973fd"/><stop offset="0.2538" stop-color="#a4a4fd"/><stop offset="0.5352" stop-color="#7973fd"/><stop offset="1" stop-color="#a4a4fd"/></linearGradient><linearGradient id="linear-gradient-9" x1="-1140.0401" y1="1925.3232" x2="-1110.1825" y2="1925.3232" gradientTransform="translate(2155.7528 -1369.9359) rotate(8.4007)" gradientUnits="userSpaceOnUse"><stop offset="0.0427" stop-color="#7973fd"/><stop offset="0.2538" stop-color="#a4a4fd"/><stop offset="1" stop-color="#7973fd"/></linearGradient><linearGradient id="linear-gradient-10" x1="-1135.0523" y1="1761.4743" x2="-1115.1576" y2="1761.4743" gradientTransform="translate(1910.3977 -1553.2626)" gradientUnits="userSpaceOnUse"><stop offset="0.0327" stop-color="#214f95"/><stop offset="1" stop-color="#0e408c"/></linearGradient><linearGradient id="linear-gradient-11" x1="-1138.7964" y1="2105.4572" x2="-1111.825" y2="2105.4572" gradientTransform="translate(1695.7528 -1395.9719) rotate(8.4007)" xlink:href="#linear-gradient-10"/><linearGradient id="linear-gradient-12" x1="761.4563" y1="183.7892" x2="887.0581" y2="183.7892" gradientUnits="userSpaceOnUse"><stop offset="0" stop-color="#d9dcf9"/><stop offset="1" stop-color="#e6e8fa"/></linearGradient><linearGradient id="linear-gradient-13" x1="1223.628" y1="399.7129" x2="1362.1361" y2="399.7129" gradientTransform="translate(111.8081 -260.8767) rotate(12.0391)" xlink:href="#linear-gradient-3"/><linearGradient id="linear-gradient-14" x1="779.1043" y1="391.6628" x2="902.639" y2="391.6628" xlink:href="#linear-gradient-3"/><linearGradient id="linear-gradient-15" x1="763.628" y1="355.5518" x2="886.0525" y2="355.5518" xlink:href="#linear-gradient-3"/><linearGradient id="linear-gradient-16" x1="582.6836" y1="259.916" x2="679.117" y2="259.916" gradientUnits="userSpaceOnUse"><stop offset="0.0427" stop-color="#c3c2fa"/><stop offset="1" stop-color="#6f80ff"/></linearGradient><linearGradient id="linear-gradient-17" x1="1094.9453" y1="90.44" x2="1141.977" y2="90.44" xlink:href="#linear-gradient"/><linearGradient id="linear-gradient-18" x1="1433.4193" y1="300.1976" x2="1480.4514" y2="300.1976" xlink:href="#linear-gradient"/><linearGradient id="linear-gradient-19" x1="466.5418" y1="757.4043" x2="513.5738" y2="757.4043" xlink:href="#linear-gradient"/><linearGradient id="linear-gradient-20" x1="502.618" y1="296.7014" x2="536.0744" y2="296.7014" xlink:href="#linear-gradient"/></defs><g class="cls-2"><g id="Layer_1" data-name="Layer 1"><path class="cls-3" d="M1408.01,835.575c7.7806,48.64,40.9662,103.05,17.6781,151.5583-.6878,1.4555-1.4555,2.911-2.223,4.34-.37.6881-.7674,1.3232-1.1641,1.9848-14.37,24.1615-41.76,38.5578-69.494,43.6918-49.5932,9.2094-102.3888-2.5141-150.1293-15.7724-7.1455-1.9848-14.2113-4.2607-21.33-6.8012-9.4743-2.0378-18.8951-3.9167-28.3425-5.61a426.7879,426.7879,0,0,0-56.6331-6.59,334.98,334.98,0,0,0-39.1132,1.5879c-55.7061,5.5574-109.2689,22.3884-163.6523,34.5617-33.7149,7.5422-67.7476,13.3113-102.7854,13.47-58.5907.2911-121.469-15.693-166.0872-55.4417-80.45-71.7169-57.2939-189.9044-93.3115-281.2575-24.7166-62.64-78.0682-118.7167-70.7375-189.7985,10.0033-109.9571,126.5765-129.9638,199.7222-185.2732a192.4579,192.4579,0,0,0,23.4737-24.1879c13.338-17.0956,26.649-37.0758,36.6524-57.0825,13.8405-41.5217,26.5164-84.1814,45.65-123.1361,13.1261-26.702,29.269-51.71,50.9429-73.3842C863.7822,15.7788,937.0605,15.7788,989.0619,52.14a263.6894,263.6894,0,0,1,38.5311,31.8624c12.3326,12.1734,23.1823,24.0292,32.8156,35.488,113,134.1451,62.56,217.85,283.5067,213.06,151.1616-3.2815,87.357,238.1744,75.29,323.2291C1411.0011,713.55,1398.4575,775.7932,1408.01,835.575Z" transform="translate(-460 -26.036)"/><path class="cls-4" d="M901.5725,1031.3543l-7.9656,7.1717c-33.7149,7.5422-67.7476,13.3113-102.7854,13.47-58.5907.2911-121.469-15.693-166.0872-55.4417-80.45-71.7169-57.2939-189.9044-93.3115-281.2575-24.7166-62.64-78.0682-118.7167-70.7375-189.7985,10.0033-109.9571,126.5765-129.9638,199.7222-185.2732a192.4579,192.4579,0,0,0,23.4737-24.1879c13.338-17.0956,26.649-37.0758,36.6524-57.0825,13.8405-41.5217,26.5164-84.1814,45.65-123.1361,13.1261-26.702,29.269-51.71,50.9429-73.3842C863.7822,15.7788,937.0605,15.7788,989.0619,52.14a263.6894,263.6894,0,0,1,38.5311,31.8624c12.3326,12.1734,23.1823,24.0292,32.8156,35.488-10.6651,193.6887-416.9112,427.0731-405.2939,669.5611C667.553,1047.9207,901.5725,1031.3543,901.5725,1031.3543Z" transform="translate(-460 -26.036)"/><g class="cls-5"><path class="cls-6" d="M1315.826,841.6865c.1406,11.3147-18.4286,24.7993-41.419,39.691-.6433.4218-1.2861.8439-1.9493,1.2459-13.545,8.7421-28.4568,17.9663-41.9216,27.5322q-.9345.6633-1.8689,1.3266c-5.2451,3.7777-10.2293,7.6166-14.8113,11.475-.4422.3816-.864.7637-1.3062,1.1456-13.7662,11.877-23.4123,24.1562-23.9752,36.5958-1.0652,23.955-23.1913,49.5177-48.7141,44.6344-.4821-.1006-.9847-.2009-1.487-.3414-24.3774-5.7681-51.4877-39.6706-66.178-129.2212,0,0-.4224-1.1856-1.2057-3.3961-.1813-.5227-.3822-1.1054-.583-1.7485-4.06-11.6962-14.1883-41.9015-23.1111-75.7842-.221-.8442-.442-1.7082-.6632-2.5723-5.2452-20.0966-9.988-41.3388-12.7611-60.6516l-.2414-1.8085c-4.3207-31.592-3.1349-57.7375,10.2494-64.7914a36.3767,36.3767,0,0,1,6.23-2.5927,14.9352,14.9352,0,0,1,1.487-.4017c18.0467-4.5822,31.7124,9.9277,45.1973,24.5177.1606.1609.3014.3014.4419.4623.4425.4621.8643.9244,1.3065,1.3867,11.917,12.8617,23.8545,25.1608,38.6658,23.8143,9.586-.8641,17.4637-16.68,24.92-38.9873q.2413-.7539.4824-1.5074c9.8474-29.9237,18.951-70.9408,30.205-103.4973.181-.4621.3419-.9445.5023-1.4066,10.35-29.5019,22.5284-51.7084,38.7261-51.7889.5226,0,1.0249.02,1.5476.06h.08c32.4359,2.7732,38.9672,57.3154,35.4706,122.3881-.04.6028-.06,1.2056-.1,1.8088-1.87,33.28-6.3307,69.1925-11.2543,102.2914-.3417,2.3113-.6434,4.5419-.9043,6.7122-.08.6431-.1609,1.2864-.2212,1.9094-2.03,18.368-1.0049,31.692,1.9292,41.56.1609.5025.3218,1.0048.4623,1.4872,11.8169,35.6513,50.04,23.5933,56.3907,45.84a9.743,9.743,0,0,1,.2416,1.1054A7.6664,7.6664,0,0,1,1315.826,841.6865Z" transform="translate(-460 -26.036)"/><path class="cls-7" d="M1230.0536,857.5831c3.2559,4.14,17.4238,20.1969,44.3534,23.7944-.6433.4218-1.2861.8439-1.9493,1.2459-27.1707-4.26-41.178-20.92-43.8911-24.4978-10.41,3.7782-20.4581,7.8579-29.7228,11.9172a3.0657,3.0657,0,0,0-.1405.2816l-.2615-.1207c-28.537,12.5-49.6384,24.5177-51.4271,25.5426-2.3111,19.4133-3.8987,38.2238-4.9636,55.0847a198.2817,198.2817,0,0,1,20.5989-14.1679c3.6576-5.7075,22.6086-31.1495,67.8861-26.5075q-.9345.6633-1.8689,1.3266c-38.2037-3.3162-56.7326,15.2733-62.9024,23.3922,14.55-8.2795,33.702-15.4742,48.0911-11.9172-.4422.3816-.864.7637-1.3062,1.1456-14.7306-3.6173-34.1643,5.0842-48.915,13.8464-.2008.3216-.3215.5425-.3416.5626l-.3215-.1807a200.8728,200.8728,0,0,0-21.0613,14.53c-1.3467,22.066-1.849,40.6153-2.05,52.4722-.4821-.1006-.9847-.2009-1.487-.3414.261-17.1425,1.2055-47.85,4.3809-82.9588l-.442.221c-.2011-.3417-19.4935-34.9479-71.3226-49.88-.1813-.5227-.3822-1.1054-.583-1.7485a142.82,142.82,0,0,1,39.6706,17.8255c-6.5715-40.6955-45.5387-78.5976-62.7817-93.61-.221-.8442-.442-1.7082-.6632-2.5723,16.5594,14.1881,59.0037,54.2808,65.1732,97.3276,19.072,12.8821,28.5574,26.648,31.11,30.7274,3.0145-32.6968,7.9783-69.0515,16.1776-101.7486l-.08.12a484.0586,484.0586,0,0,1-44.3934-42.6046l-.3016.06c0-.02-.04-.221-.08-.4824a397.7875,397.7875,0,0,1-28.8789-35.0484l.06.7637c-.08.02-1.8286.1207-4.7428.1207-9.0835,0-29.522-1.0853-46.8047-9.8877l-.2414-1.8085c21.021,11.1333,47.4279,10.2894,51.226,10.1083-17.4838-24.2162-31.913-51.3869-34.7467-77.4924a14.9352,14.9352,0,0,1,1.487-.4017c4.12,39.0476,34.6065,80.5871,62.1791,110.9329-2.2108-13.0628-11.033-64.7914-16.9818-86.4152.1606.1609.3014.3014.4419.4623.4425.4621.8643.9244,1.3065,1.3867,6.39,23.2919,15.8159,78.859,17.1023,86.6161a487.7544,487.7544,0,0,0,43.8307,42.1023c2.5921-10.1486,5.4862-19.9357,8.7415-29.14,5.5871-15.7957,11.6764-31.7325,17.5847-47.1262q3.4973-9.134,6.9939-18.3484c-.2213-22.6287-19.3128-40.5749-30.6676-49.2767q.2413-.7539.4824-1.5074c10.9528,8.3,29.4817,25.4021,31.5115,47.2673,13.6053-36.194,26.4469-73.3524,33.5008-113.2845-.864-3.0346-10.0684-33.22-34.8073-37.48.181-.4621.3419-.9445.5023-1.4066,21.8655,3.8785,31.8937,27.2106,34.8677,35.6915a345.09,345.09,0,0,0,3.8584-87.48c.5226,0,1.0249.02,1.5476.06,4.4411,52.6932-4.0395,99.8-17.323,144.1728,5.7874-1.6077,32.3351-9.3449,52.874-21.7847-.04.6028-.06,1.2056-.1,1.8088-22.0865,13.1228-50.4628,20.9405-53.2762,21.6841-6.3908,21.1015-13.8266,41.6-21.4632,61.797,0,.1607.02.3015.02.4621h-.2006q-3.4368,9.1038-6.9134,18.1674c-3.3561,8.7421-6.7525,17.6649-10.1084,26.648,7.5562-.2612,53.0949-2.6527,79.7834-19.755-.08.6431-.1609,1.2864-.2212,1.9094-28.0347,17.2629-74.88,19.1921-80.1248,19.3728-2.3516,6.2905-4.6828,12.6209-6.8933,18.9111-11.0531,31.21-18.0269,69.2727-22.4077,105.4265,4.7429-2.6929,24.5378-13.6455,50.5025-25,3.4369-6.9332,29.5424-57.5768,60.8525-77.1507.1609.5025.3218,1.0048.4623,1.4872-29.04,18.3882-53.5575,63.8268-59.1442,74.719,35.0484-15.1931,80.6879-30.6673,115.7765-27.7735a7.6664,7.6664,0,0,1,.14,1.5071C1290.1829,839.4961,1258.7719,847.2934,1230.0536,857.5831Z" transform="translate(-460 -26.036)"/><path class="cls-8" d="M1167.0734,806.7974c-8.1143-15.6607-21.6942-17.9866-21.6942-17.9866C1149.07,804.3384,1167.0734,806.7974,1167.0734,806.7974Zm12.8369-22.9428c-6.5-24.34-26.4115-28.7294-26.4115-28.7294C1153.2763,778.985,1179.91,783.8546,1179.91,783.8546Zm-45.4085,39.4359c11.8706.0955,14.2764-13.1581,14.2764-13.1581C1136.6731,813.3816,1134.5018,823.2905,1134.5018,823.2905Zm-38.1812-69.6914c-6.7705,10.5474-1.7109,19.3395-1.7109,19.3395C1103.4571,765.0235,1096.3206,753.5991,1096.3206,753.5991Zm99.9287,3.0785c-1.9658-25.1157-20.7474-33.0533-20.7474-33.0533C1170.9446,747.0458,1196.2493,756.6776,1196.2493,756.6776Zm-54.5565,27.2787c-14.2423,7.2023-12.4446,25.284-12.4446,25.284C1142.5907,797.7047,1141.6928,783.9563,1141.6928,783.9563Zm71.39-53.4612c-8.1149-15.661-21.6948-17.9867-21.6948-17.9867C1195.0788,728.0358,1213.0832,730.4951,1213.0832,730.4951Zm32.0866-66.6679c-8.1644,13.7138,3.0444,28.0159,3.0444,28.0159C1253.2963,674.9528,1245.17,663.8272,1245.17,663.8272Zm16.398-1.2748c-7.1939,9.4428,1.97,19.3149,1.97,19.3149C1268.1962,670.2314,1261.5678,662.5524,1261.5678,662.5524Zm34.82,8.1292c-17.7424-1.57-25.4754,10.5953-25.4754,10.5953C1286.7084,687.1971,1296.3876,670.6816,1296.3876,670.6816ZM1076.9033,771.3158c-16.9316-5.5291-27.2083,4.5806-27.2083,4.5806C1063.7508,785.2249,1076.9033,771.3158,1076.9033,771.3158Zm161.5155-67.2078c-3.0491-17.3724-15.3087-23.66-15.3087-23.66C1221.979,696.3676,1238.4188,704.108,1238.4188,704.108Zm-12.7881,14.6668c-1.9654-25.116-20.7468-33.0536-20.7468-33.0536C1200.3263,709.1428,1225.6307,718.7748,1225.6307,718.7748Zm-101.3575,43.1429c-13.5952,11.5073-10.3865,25.5614-10.3865,25.5614C1129.2061,780.4141,1124.2732,761.9177,1124.2732,761.9177Zm99.9936-18.6636c12.7275,20.1832,37.7586,9.8615,37.7586,9.8615C1243.3853,736.1679,1224.2668,743.2541,1224.2668,743.2541Zm-131.7374,45.657c-17.76-1.3544-25.3444,10.9047-25.3444,10.9047C1083.0521,805.5431,1092.5294,788.9111,1092.5294,788.9111Zm103.8914,7.4061c10.807,12.9541,27.3834,3.38,27.3834,3.38C1209.1565,789.5631,1196.4208,796.3172,1196.4208,796.3172Zm11.63-26.9145c12.7275,20.1829,37.7585,9.8615,37.7585,9.8615C1227.1693,762.3163,1208.0506,769.4027,1208.0506,769.4027Zm66.5808-75.75c9.8967,6.5551,19.1429-3.2411,19.1429-3.2411C1281.856,686.5324,1274.6314,693.653,1274.6314,693.653Zm-32.0278,29.8318c10.6593,11.8783,27.651,5.4381,27.651,5.4381C1255.6449,719.0408,1242.6036,723.4848,1242.6036,723.4848Zm16.1492-18.1187c3.1508,11.4451,16.5571,10.1394,16.5571,10.1394C1268.8784,704.7485,1258.7528,705.3661,1258.7528,705.3661Zm-91.076,140.6706c17.1872,16.5512,39.0217.54,39.0217.54C1184.5451,834.5815,1167.6768,846.0367,1167.6768,846.0367Zm38.8682-19.3652c-14.61-9.8821-27.6512-5.4383-27.6512-5.4383C1189.5534,833.1115,1206.545,826.6715,1206.545,826.6715Zm-115.5111,8.2213c15.8677,5.7275,25.3449-10.9047,25.3449-10.9047C1098.6184,822.6337,1091.0339,834.8928,1091.0339,834.8928Zm13.758-30.5941c-12.207-2.8432-18.7941,4.871-18.7941,4.871C1096.42,814.8514,1104.7919,804.2987,1104.7919,804.2987Zm-11.4691,45.5136c13.0194,10.7273,27.535-1.7522,27.535-1.7522C1104.5866,840.8156,1093.3228,849.8123,1093.3228,849.8123Zm30.52,26.1073c-16.6754-18.8838-36.4542-13.93-36.4542-13.93C1097.8335,883.443,1123.8427,875.92,1123.8427,875.92Zm142.1112-185.016-1.5068-1.8013c-64.9555,54.2738-102.5524,132.7348-122.6545,188.9985q-3.8951,10.9008-7.1471,21.2139a258.6,258.6,0,0,0-3.2784-49.2185c-7.0039-40.82-24.4372-67.6942-50.4164-77.716l-.8448,2.1922c58.7084,22.6467,52.3989,125.1178,51.7545,133.7522-13.881,46.0687-18.3624,79.5563-18.4146,79.958l2.3267.3028c.0522-.3991,4.5034-33.6546,18.3-79.4672l.0807.0074c.0021-.0177.0132-.1471.0315-.38,2.8618-9.4818,6.1137-19.4846,9.8191-29.8565C1164.0081,822.9007,1201.4026,744.8382,1265.9539,690.9036Z" transform="translate(-460 -26.036)"/></g><path class="cls-9" d="M1186.0091,212.6844l-316.9736-43.326a34.2152,34.2152,0,0,0-38.4146,29.1851L776.9356,591.19l-35.931,262.7238a41.8931,41.8931,0,0,0,35.8463,47.1652l4.6852.6489,296.8208,40.56a41.9928,41.9928,0,0,0,47.1932-35.8463l89.6163-655.37A34.0918,34.0918,0,0,0,1186.0091,212.6844Z" transform="translate(-460 -26.036)"/><path class="cls-1" d="M1181.6905,227.7005l-.7339-.1127c-.0844,0-.141-.0283-.2254-.0283L869.1769,184.967a22.2345,22.2345,0,0,0-24.9231,18.7983L840.4716,231.37,790.6251,596.0163,755.0892,855.8611a22.1142,22.1142,0,0,0,18.6848,24.895l.226.0284,33.1369,4.5443,278.4738,38.0481.9315.1411a22.2695,22.2695,0,0,0,24.9234-18.9111l85.3823-624.52,3.7539-27.4917A22.0741,22.0741,0,0,0,1181.6905,227.7005Z" transform="translate(-460 -26.036)"/><path class="cls-10" d="M1180.5618,228.6321,868.0479,185.8986a21.8982,21.8982,0,0,0-16.597,4.516,21.6021,21.6021,0,0,0-8.2417,13.8305,4.4343,4.4343,0,0,0-.113.5928l-53.459,390.84-35.7055,261.115a22.1576,22.1576,0,0,0,18.94,24.9234l33.052,4.516,279.49,38.2175a22.0686,22.0686,0,0,0,17.6977-5.4476,21.805,21.805,0,0,0,7.2254-13.4635l.0845-.5647L1195.86,279.9462l3.6129-26.4191A22.0731,22.0731,0,0,0,1180.5618,228.6321Z" transform="translate(-460 -26.036)"/><path class="cls-11" d="M1200.8294,250.9829l-3.9807,29.1144L840.4694,231.37l3.9757-29.0768a20.5834,20.5834,0,0,1,23.114-17.5535l315.7494,43.172A20.4847,20.4847,0,0,1,1200.8294,250.9829Z" transform="translate(-460 -26.036)"/><path class="cls-12" d="M1049.9618,223.41a3.3486,3.3486,0,0,0-3.7259,2.851,3.3054,3.3054,0,1,0,3.7259-2.851Zm-15.8627-1.75-37.3145-5.1089a2.9221,2.9221,0,0,0-.8183,5.7866l37.3423,5.1089a2.9292,2.9292,0,0,0,3.3025-2.5123A2.8868,2.8868,0,0,0,1034.0991,221.66Z" transform="translate(-460 -26.036)"/><path class="cls-13" d="M1180.9566,227.5878c-.0844,0-.141-.0283-.2254-.0283L869.1769,184.967l-.96-.141h-.0844a22.0311,22.0311,0,0,0-15.6372,3.8669,10.9513,10.9513,0,0,0-1.1293.8749,21.8461,21.8461,0,0,0-8.1005,14.2259l-.0567.4514L789.6938,595.7059,754.1291,855.7484a22.074,22.074,0,0,0,18.9113,24.895l.7336.1127.226.0284,33.1652,4.516,278.4455,38.0764a22.12,22.12,0,0,0,24.81-18.4032l.0846-.5078,85.3826-624.52,3.7542-27.4633A22.1153,22.1153,0,0,0,1180.9566,227.5878Zm-74.5435,676.3133a18.0176,18.0176,0,0,1-20.266,15.3832l-274.55-37.54-37.992-5.1938a17.9948,17.9948,0,0,1-15.3829-20.2377l35.4512-259.2239,49.9314-365.2955,3.7539-27.4636a18.0856,18.0856,0,0,1,20.294-15.4112l312.5139,42.7338a18.0172,18.0172,0,0,1,15.3832,20.2657l-3.7542,27.4917Z" transform="translate(-460 -26.036)"/><text class="cls-14" transform="translate(401.5687 270.0816) rotate(7.7858)"><tspan class="cls-15">T</tspan><tspan class="cls-16" x="11.166" y="0">e</tspan><tspan class="cls-17" x="24.2969" y="0">r</tspan><tspan x="32.9727" y="0">m </tspan><tspan class="cls-18" x="60.3896" y="0">A</tspan><tspan x="76.3516" y="0">nd </tspan><tspan class="cls-19" x="111.2383" y="0">C</tspan><tspan x="126.1523" y="0">onditions</tspan></text><rect class="cls-20" x="915.3976" y="354.4134" width="222.4287" height="5.1712" transform="translate(-402.1739 -161.8193) rotate(7.7858)"/><rect class="cls-20" x="846.7868" y="370.7023" width="288.505" height="5.1712" transform="translate(-400.2959 -156.8487) rotate(7.7857)"/><rect class="cls-20" x="843.9478" y="391.4667" width="288.5049" height="5.1712" transform="translate(-397.5087 -156.2736) rotate(7.7857)"/><rect class="cls-20" x="841.1087" y="412.2311" width="288.5048" height="5.1711" transform="translate(-394.7219 -155.6976) rotate(7.7857)"/><rect class="cls-20" x="838.2697" y="432.9956" width="288.5048" height="5.1712" transform="translate(-391.9352 -155.1216) rotate(7.7857)"/><rect class="cls-20" x="835.4304" y="453.76" width="288.505" height="5.1711" transform="translate(-389.1485 -154.5454) rotate(7.7857)"/><rect class="cls-20" x="832.5913" y="474.5245" width="288.505" height="5.1712" transform="matrix(0.9908, 0.1355, -0.1355, 0.9908, -386.3617, -153.9694)"/><rect class="cls-20" x="829.7523" y="495.2889" width="288.5048" height="5.1711" transform="translate(-383.5749 -153.3935) rotate(7.7857)"/><rect class="cls-20" x="827.0447" y="514.1223" width="259.9953" height="5.1712" transform="translate(-381.1799 -150.922) rotate(7.7857)"/><rect class="cls-20" x="821.0068" y="559.2513" width="288.5048" height="5.1712" transform="translate(-374.9906 -151.6191) rotate(7.7857)"/><rect class="cls-20" x="818.1678" y="580.0157" width="288.5048" height="5.1712" transform="translate(-372.2045 -151.0423) rotate(7.7857)"/><rect class="cls-20" x="815.3286" y="600.7802" width="288.5049" height="5.1712" transform="translate(-369.4172 -150.467) rotate(7.7857)"/><rect class="cls-20" x="812.4894" y="621.5446" width="288.505" height="5.1712" transform="translate(-366.6311 -149.8901) rotate(7.7857)"/><rect class="cls-20" x="809.6504" y="642.309" width="288.5049" height="5.1712" transform="translate(-363.8436 -149.315) rotate(7.7857)"/><rect class="cls-20" x="860.5115" y="696.1085" width="230.5573" height="5.1711" transform="translate(-356.3542 -151.7835) rotate(7.7857)"/><rect class="cls-20" x="799.9921" y="712.948" width="288.5048" height="5.1711" transform="translate(-354.3632 -147.3554) rotate(7.7857)"/><rect class="cls-20" x="797.1528" y="733.7123" width="288.505" height="5.1712" transform="translate(-351.5774 -146.7785) rotate(7.7857)"/><rect class="cls-20" x="794.3138" y="754.4769" width="288.5049" height="5.1711" transform="translate(-348.7897 -146.2034) rotate(7.7857)"/><rect class="cls-20" x="1129.3798" y="317.5848" width="8.86" height="468.1044" transform="translate(-374.8277 -174.5328) rotate(7.785)"/><rect class="cls-9" x="1140.627" y="396.8352" width="8.86" height="145.0828" transform="translate(-385.8667 -176.8145) rotate(7.785)"/><rect class="cls-21" x="930.6376" y="808.9107" width="144.123" height="47.2534" transform="matrix(0.9908, 0.1355, -0.1355, 0.9908, -337.9752, -154.1945)"/><text class="cls-22" transform="translate(499.5912 809.4881) rotate(7.7858)">A<tspan class="cls-23" x="16.9756" y="0">GREE</tspan></text><path class="cls-24" d="M907.0556,637.0847l-.0283,4.008v.6491a380.7431,380.7431,0,0,1-3.669,44.4553c-.1979,1.6656-.4522,3.359-.7058,5.1088-.7055,4.94-1.5523,10.1613-2.5405,15.5806q-.4227,2.498-.931,5.0808c-.96,5.0241-2.0327,10.2176-3.2466,15.5239-.3665,1.6654-.7621,3.3307-1.185,5.0242q-1.7784,7.5786-3.9519,15.4112c-.48,1.6653-.96,3.33-1.4393,5.0241-16.54,56.48-43.0442,100.1444-77.7613,128.7936-1.468,1.2136-2.9357,2.3989-4.4317,3.5562l-.0283.0283c-.3948.31-.79.6209-1.2136.9032a167.6765,167.6765,0,0,1-24.3872,15.4957l-4.6852-.6489a41.8931,41.8931,0,0,1-35.8463-47.1652L776.9356,591.19l12.7016,4.4878.0566.0283.9313.31,3.0481,1.0726,20.1813,7.1412,13.7742,4.8548,73.8663,26.024Z" transform="translate(-460 -26.036)"/><path class="cls-25" d="M749.2055,326.6766l-4.5367,8.9662L761.9907,218.385a6.6481,6.6481,0,0,1,7.54-5.5984l3.69.5451-.4644,3.1434-3.69-.5449a3.4666,3.4666,0,0,0-3.9317,2.919Z" transform="translate(-460 -26.036)"/><path class="cls-26" d="M798.6942,219.998,756.3814,506.4273l-3.9761,21.48-27.9538-4.13,2.4045-21.7122,42.3128-286.429a2.8748,2.8748,0,0,1,3.2651-2.4246l23.8357,3.521A2.8752,2.8752,0,0,1,798.6942,219.998Z" transform="translate(-460 -26.036)"/><path class="cls-27" d="M775.954,201.5777h18.7621a.5663.5663,0,0,1,.5663.5663v12.904a0,0,0,0,1,0,0H775.3877a0,0,0,0,1,0,0V202.144A.5663.5663,0,0,1,775.954,201.5777Z" transform="translate(-421.1263 -138.5671) rotate(8.4032)"/><polygon class="cls-28" points="273.106 545.668 270.666 552.326 270.255 545.247 273.106 545.668"/><polygon class="cls-29" points="292.28 501.74 273.488 545.724 269.873 545.191 264.609 497.653 292.28 501.74"/><path class="cls-30" d="M764.0337,889.4905l-1.1-.7248c-49.4-20.7146-86.11-67.9316-106.1686-136.5663-15.0251-51.4152-15.524-96.0689-15.5377-97.9434l-.0305-4.1207,122.7842-43.2839,1.8771-.6256L890.412,650.1353l-.03,4.1207c-.0138,1.88-.5237,46.611-15.5986,98.09-20.163,68.85-57.0824,116.1219-106.7667,136.7041l-1.0612.4409Z" transform="translate(-460 -26.036)"/><path class="cls-20" d="M765.8057,612.33l118.8022,41.8827S883.2313,835.07,765.8057,883.7169h-.04a1.232,1.232,0,0,0-.3245-.1617c-117.1011-48.81-118.438-229.3428-118.438-229.3428l118.438-41.7607.3649-.122m.1017-12.21-3.76,1.2555-.3649.122-.0913.03-.091.032-118.4378,41.761-7.769,2.7393.0609,8.2379c.0143,1.9086.5213,47.3422,15.769,99.5214,20.4944,70.1313,58.163,118.5386,108.9679,140.0569l2.1023,1.3893h5.7691l2.1632-.8794c51.3549-21.2753,89.4263-69.8314,110.0987-140.4183,15.299-52.2412,15.8169-97.7558,15.8315-99.6678l.0627-8.24-7.7714-2.74L769.6454,601.4379l-3.738-1.3179Z" transform="translate(-460 -26.036)"/><g class="cls-31"><path class="cls-30" d="M765.4408,612.4517V883.5552c-117.1011-48.81-118.438-229.3428-118.438-229.3428Z" transform="translate(-460 -26.036)"/></g><path class="cls-32" d="M755.3425,790.6974l-53.4188-44.3828a10.1255,10.1255,0,0,1,12.94-15.5771l39.4184,32.7448,70.5957-68.6379A10.129,10.129,0,0,1,838.9994,709.37Z" transform="translate(-460 -26.036)"/><polygon class="cls-33" points="843.933 131.097 887.058 207.661 817.755 246.696 761.456 146.743 807.37 120.882 843.933 131.097"/><polygon class="cls-34" points="820.544 144.271 843.933 131.097 807.37 120.882 820.544 144.271"/><rect class="cls-12" x="1246.1344" y="189.9824" width="63.1368" height="3.2377" transform="translate(-389.5844 625.6666) rotate(-29.3904)"/><rect class="cls-12" x="1252.6889" y="201.6192" width="63.1369" height="3.2378" transform="translate(-394.4516 630.381) rotate(-29.3904)"/><rect class="cls-12" x="1259.2434" y="213.2561" width="63.1368" height="3.2378" transform="translate(-399.3173 635.0999) rotate(-29.3906)"/><rect class="cls-35" x="1230.2932" y="361.1581" width="125.1778" height="77.1094" transform="translate(-514.9355 252.4237) rotate(-12.0391)"/><polygon class="cls-36" points="829.554 359.27 779.104 424.056 902.639 398.221 829.554 359.27"/><polygon class="cls-37" points="835.721 388.188 763.628 349.025 886.052 322.915 835.721 388.188"/><path class="cls-21" d="M599.4984,498.0851s12.7693-3.93,6.3452-23.4374c0,0,8.2414-3.4459,10.7811,3.4487a72.4512,72.4512,0,0,1,3.4432,13.422l20.3277-5.9862a8.4546,8.4546,0,0,1,10.3711,5.2909c3.7587,10.6946,8.9739,29.5583,1.0038,34.2426-11.2924,6.6374-21.7985,8.16-24.4187,7.9127s-12.5012,1.0914-16.9551,2.4029" transform="translate(-460 -26.036)"/><path class="cls-9" d="M591.02,497.8948h14.4014a.5378.5378,0,0,1,.5378.5378v40.2238a.5378.5378,0,0,1-.5378.5378H591.02a.5379.5379,0,0,1-.5379-.5379V498.4327A.5379.5379,0,0,1,591.02,497.8948Z" transform="translate(-582.1158 164.0701) rotate(-16.4084)"/><path class="cls-21" d="M1328.86,615.0665s11.372,6.2624,20.6553-11.4037c0,0,7.9746,3.4273,4.8757,9.8593a70.4112,70.4112,0,0,1-7.0476,11.4729l17.9149,10.152a8.2151,8.2151,0,0,1,3.312,10.8176c-4.9292,9.8507-14.58,26.2376-23.2358,23.8365-12.2649-3.4022-20.4266-9.71-22.0242-11.7073s-9.2084-7.9931-13.1338-10.2174" transform="translate(-460 -26.036)"/><path class="cls-9" d="M1306.7266,607.9316H1320.69a.5379.5379,0,0,1,.5379.5379v39.0552a.5379.5379,0,0,1-.5379.5379h-13.9635a.5378.5378,0,0,1-.5378-.5378V608.4695A.5379.5379,0,0,1,1306.7266,607.9316Z" transform="translate(20.3702 -592.0897) rotate(29.5391)"/><path class="cls-38" d="M670.414,266.691a35.9548,35.9548,0,1,0-54.4848-.08l-31.9431,37.0649a5.37,5.37,0,1,0,8.1352,7.0113l31.9432-37.0652A35.978,35.978,0,0,0,670.414,266.691Zm-43.6971-4.3718a25.215,25.215,0,1,1,35.5616-2.6395A25.2438,25.2438,0,0,1,626.7169,262.3192Z" transform="translate(-460 -26.036)"/><path class="cls-39" d="M1118.461,66.9241l5.0869,15.8775a3.9421,3.9421,0,0,0,2.5516,2.5517L1141.977,90.44,1126.1,95.5265a3.9426,3.9426,0,0,0-2.5516,2.5519l-5.0869,15.8775-5.0866-15.8775a3.9425,3.9425,0,0,0-2.5517-2.5519L1094.9453,90.44l15.8774-5.0866a3.942,3.942,0,0,0,2.5517-2.5517Z" transform="translate(-460 -26.036)"/><path class="cls-40" d="M1456.9354,276.6816l5.0866,15.8778a3.9428,3.9428,0,0,0,2.5516,2.5516l15.8778,5.0866-15.8778,5.0867a3.9421,3.9421,0,0,0-2.5516,2.5516l-5.0866,15.8778-5.0867-15.8778a3.9419,3.9419,0,0,0-2.5516-2.5516l-15.8778-5.0867,15.8778-5.0866a3.9426,3.9426,0,0,0,2.5516-2.5516Z" transform="translate(-460 -26.036)"/><path class="cls-41" d="M490.0578,733.8883l5.0866,15.8778a3.9428,3.9428,0,0,0,2.5519,2.5516l15.8775,5.0866-15.8775,5.0866a3.9432,3.9432,0,0,0-2.5519,2.5519L490.0578,780.92l-5.0866-15.8775a3.9423,3.9423,0,0,0-2.5517-2.5519l-15.8777-5.0866,15.8777-5.0866a3.9419,3.9419,0,0,0,2.5517-2.5516Z" transform="translate(-460 -26.036)"/><path class="cls-42" d="M519.3461,279.9732l3.6184,11.2948a2.8048,2.8048,0,0,0,1.8151,1.8151l11.2948,3.6184L524.78,300.32a2.8044,2.8044,0,0,0-1.8151,1.8152L519.3461,313.43l-3.6184-11.2945a2.8041,2.8041,0,0,0-1.8152-1.8152l-11.2945-3.6184,11.2945-3.6184a2.8046,2.8046,0,0,0,1.8152-1.8151Z" transform="translate(-460 -26.036)"/><path class="cls-21" d="M926.3977,110.2671l3.6282,11.326a2.8132,2.8132,0,0,0,1.8205,1.82l11.3259,3.6284L931.8464,130.67a2.8128,2.8128,0,0,0-1.8205,1.82l-3.6282,11.326-3.6284-11.326a2.8128,2.8128,0,0,0-1.8205-1.82l-11.326-3.6285,11.326-3.6284a2.8132,2.8132,0,0,0,1.8205-1.82Z" transform="translate(-460 -26.036)"/><path class="cls-21" d="M1331.3735,501.9893l3.6285,11.326a2.8121,2.8121,0,0,0,1.82,1.82l11.326,3.6284-11.326,3.6285a2.8117,2.8117,0,0,0-1.82,1.82l-3.6285,11.326-3.6284-11.326a2.8117,2.8117,0,0,0-1.82-1.82l-11.326-3.6285,11.326-3.6284a2.8121,2.8121,0,0,0,1.82-1.82Z" transform="translate(-460 -26.036)"/></g></g></svg>