<svg xmlns="http://www.w3.org/2000/svg" xmlns:xlink="http://www.w3.org/1999/xlink" width="2406.0056" height="1763.5067" viewBox="0 0 2406.0056 1763.5067"><defs><style>.cls-1{mask:url(#mask);}.cls-2,.cls-21{mix-blend-mode:multiply;}.cls-2{fill:url(#linear-gradient);}.cls-3{isolation:isolate;}.cls-4{fill:url(#linear-gradient-2);}.cls-5{mask:url(#mask-2);}.cls-6{opacity:0.66;fill:url(#linear-gradient-3);}.cls-7{fill:#4d8b33;}.cls-8{fill:url(#linear-gradient-4);}.cls-9{fill:url(#linear-gradient-5);}.cls-10{fill:url(#linear-gradient-6);}.cls-11{fill:url(#linear-gradient-7);}.cls-12{fill:url(#linear-gradient-8);}.cls-13{fill:#61a23e;}.cls-14{fill:url(#linear-gradient-9);}.cls-15{fill:url(#linear-gradient-10);}.cls-16{fill:url(#linear-gradient-11);}.cls-17{fill:url(#linear-gradient-12);}.cls-18{fill:url(#linear-gradient-13);}.cls-19,.cls-26{opacity:0.31;}.cls-20,.cls-26{fill:#fff;}.cls-21{fill:url(#linear-gradient-14);}.cls-22{fill:#ebebeb;}.cls-23{fill:url(#linear-gradient-15);}.cls-24{fill:url(#linear-gradient-16);}.cls-25{fill:#7a7ab5;}.cls-27{fill:#8e4f3a;}.cls-28{fill:#16202e;}.cls-29{fill:#faa146;}.cls-30{fill:#1d3b54;}.cls-31{fill:#d1873b;}.cls-32{fill:#eddad3;}.cls-33{fill:#383432;}.cls-34{fill:#633029;}.cls-35{fill:#eea886;}.cls-36{fill:#eea987;}.cls-37{fill:#dbdbdb;}.cls-38{fill:#db9c7c;}.cls-39{fill:#464240;}.cls-40{fill:#eb4747;}.cls-41{fill:#a77860;}.cls-42{filter:url(#luminosity-noclip-2);}.cls-43{filter:url(#luminosity-noclip);}</style><filter id="luminosity-noclip" x="467.5225" y="-9192" width="1776.3037" height="32766" filterUnits="userSpaceOnUse" color-interpolation-filters="sRGB"><feFlood flood-color="#fff" result="bg"/><feBlend in="SourceGraphic" in2="bg"/></filter><mask id="mask" x="467.5225" y="-9192" width="1776.3037" height="32766" maskUnits="userSpaceOnUse"><g class="cls-43"/></mask><linearGradient id="linear-gradient" x1="1355.6743" y1="1896.4516" x2="1355.6743" y2="1434.0884" gradientUnits="userSpaceOnUse"><stop offset="0"/><stop offset="1" stop-color="#fff"/></linearGradient><linearGradient id="linear-gradient-2" x1="2055.6312" y1="1560.1581" x2="372.5359" y2="543.5675" gradientUnits="userSpaceOnUse"><stop offset="0" stop-color="#efeefe"/><stop offset="1" stop-color="#e7fefd"/></linearGradient><filter id="luminosity-noclip-2" x="467.5225" y="1693.0605" width="1776.3037" height="171.7871" filterUnits="userSpaceOnUse" color-interpolation-filters="sRGB"><feFlood flood-color="#fff" result="bg"/><feBlend in="SourceGraphic" in2="bg"/></filter><mask id="mask-2" x="221.907" y="1574.8137" width="1776.3037" height="171.7871" maskUnits="userSpaceOnUse"><g class="cls-42"><g transform="translate(-245.6155 -118.2468)"><g class="cls-1"><path class="cls-2" d="M2243.8262,1778.9551c0,47.4375-397.6387,85.8925-888.1519,85.8925s-888.1518-38.455-888.1518-85.8925,397.6391-85.8946,888.1518-85.8946S2243.8262,1731.5166,2243.8262,1778.9551Z"/></g></g></g></mask><linearGradient id="linear-gradient-3" x1="1355.6743" y1="1896.4516" x2="1355.6743" y2="1434.0884" gradientUnits="userSpaceOnUse"><stop offset="0" stop-color="#a6a6a6"/><stop offset="1" stop-color="#5c5c5c"/></linearGradient><linearGradient id="linear-gradient-4" x1="664.214" y1="932.8431" x2="866.4629" y2="1377.7897" gradientUnits="userSpaceOnUse"><stop offset="0" stop-color="#c7ca7f"/><stop offset="1" stop-color="#639c38"/></linearGradient><linearGradient id="linear-gradient-5" x1="1082.4043" y1="1552.9823" x2="589.4237" y2="1525.1736" gradientUnits="userSpaceOnUse"><stop offset="0" stop-color="#3076a1"/><stop offset="1" stop-color="#639c38"/></linearGradient><linearGradient id="linear-gradient-6" x1="482.5449" y1="1624.1167" x2="1266.2822" y2="1624.1167" xlink:href="#linear-gradient-4"/><linearGradient id="linear-gradient-7" x1="1166.275" y1="1625.5621" x2="718.8003" y2="1458.7075" xlink:href="#linear-gradient-5"/><linearGradient id="linear-gradient-8" x1="1052.8351" y1="1556.647" x2="711.5408" y2="1250.7456" xlink:href="#linear-gradient-5"/><linearGradient id="linear-gradient-9" x1="3461.57" y1="-818.7125" x2="4026.443" y2="-818.7125" gradientTransform="matrix(0.8437, 0.2989, -0.2323, 0.6557, -1570.0559, 57.3764)" xlink:href="#linear-gradient-5"/><linearGradient id="linear-gradient-10" x1="3667.7984" y1="-675.507" x2="4563.0028" y2="-675.507" gradientTransform="matrix(0.8437, 0.2989, -0.2323, 0.6557, -1570.0559, 57.3764)" xlink:href="#linear-gradient-5"/><linearGradient id="linear-gradient-11" x1="3207.3759" y1="-666.4346" x2="3780.6724" y2="-666.4346" gradientTransform="matrix(0.8437, 0.2989, -0.2323, 0.6557, -1570.0559, 57.3764)" xlink:href="#linear-gradient-5"/><linearGradient id="linear-gradient-12" x1="1911.2446" y1="780.818" x2="2309.4219" y2="193.033" xlink:href="#linear-gradient-5"/><linearGradient id="linear-gradient-13" x1="2088.7988" y1="1052.7241" x2="2240.4961" y2="1052.7241" gradientUnits="userSpaceOnUse"><stop offset="0" stop-color="#ff9f55"/><stop offset="1" stop-color="#ffd255"/></linearGradient><linearGradient id="linear-gradient-14" x1="1888.1506" y1="934.4773" x2="1948.8385" y2="934.4773" gradientUnits="userSpaceOnUse"><stop offset="0" stop-color="#b36020"/><stop offset="1" stop-color="#ffd255"/></linearGradient><linearGradient id="linear-gradient-15" x1="2118.1634" y1="1703.1442" x2="1253.5512" y2="857.4933" gradientTransform="translate(1170.0101 -719.2035) rotate(45)" gradientUnits="userSpaceOnUse"><stop offset="0" stop-color="#e8893e"/><stop offset="1" stop-color="#ffd255"/></linearGradient><linearGradient id="linear-gradient-16" x1="1330.0451" y1="777.2801" x2="1926.68" y2="2112.1241" gradientTransform="translate(1170.0101 -719.2035) rotate(45)" gradientUnits="userSpaceOnUse"><stop offset="0" stop-color="#fff"/><stop offset="1" stop-color="#cfcfcf"/></linearGradient></defs><g class="cls-3"><g id="Слой_1" data-name="Слой 1"><path class="cls-4" d="M460.107,785.3008c248.9418-168.5957,114.4506-512.6055,573.68-640.52s617.9517,238.999,1244.063,412.1914,307.4453,885.0605,168.3106,1097.8818c-143.4864,219.4766-495.8516,226.8809-1279.5371,226.8809-454.0518,0-689.6851,8.1162-844.53-310.6807S264.8677,917.5264,460.107,785.3008Z" transform="translate(-245.6155 -118.2468)"/><g class="cls-5"><path class="cls-6" d="M2243.8262,1778.9551c0,47.4375-397.6387,85.8925-888.1519,85.8925s-888.1518-38.455-888.1518-85.8925,397.6391-85.8946,888.1518-85.8946S2243.8262,1731.5166,2243.8262,1778.9551Z" transform="translate(-245.6155 -118.2468)"/></g><path class="cls-7" d="M1021.7764,1283.3916S859.3008,1084.81,794.31,994.5449s136.37,422.2666,153.0337,476.5117S1032.6084,1572.2383,1021.7764,1283.3916Z" transform="translate(-245.6155 -118.2468)"/><path class="cls-8" d="M994.3228,1408.7373c-38.2862-69.625-416.647-443.0762-416.647-443.0762,3.61,115.5381,238.2979,389.9424,238.2979,389.9424S1032.6084,1478.3633,994.3228,1408.7373Z" transform="translate(-245.6155 -118.2468)"/><path class="cls-9" d="M1177.0318,1582.4053c-436.88-161-848.4859-77.2989-848.4859-77.2989,60.1865,82.6514,631.8506,77.2989,631.8506,77.2989Z" transform="translate(-245.6155 -118.2468)"/><path class="cls-10" d="M1266.2822,1625.7344c-423.3007-140.5313-783.7373,10.9912-783.7373,10.9912,68.1753,92.3008,586.8516,15.62,586.8516,15.62Z" transform="translate(-245.6155 -118.2468)"/><path class="cls-11" d="M1085.3565,1596.55c-222.04-241.79-745.4185-358.2744-745.4185-358.2744,154.6343,157.9111,376.6743,296.39,376.6743,296.39S1307.3955,1838.34,1085.3565,1596.55Z" transform="translate(-245.6155 -118.2468)"/><path class="cls-12" d="M1130.0943,1570.1035c-129.981-240.4316-624.8433-478.0723-624.8433-478.0723,0,75.8223,400.9873,428.5489,400.9873,428.5489S1260.0747,1810.5361,1130.0943,1570.1035Z" transform="translate(-245.6155 -118.2468)"/><path class="cls-13" d="M1116.291,1553.0644A312.0522,312.0522,0,0,0,1121.38,1439.97c-17.2139-128.62-77.01-526.8271-164.5933-587.23,0,0-39.5805,515.9932,43.3267,689.5352C1062.293,1672.4316,1099.4785,1624.2549,1116.291,1553.0644Z" transform="translate(-245.6155 -118.2468)"/><path class="cls-14" d="M1689.2764,1083.2773s72.1806-31.5879,92.74-100.625,33.8281-164.1035,89.7705-188.5049c55.9444-24.4013,173.502-89.5732,177.0752-171.3925S1875.794,443.5762,1916.5567,423.2734s114.2861-74.4541,42.1132-118.86-110.54-52.24-129.5517-112.2139-88.708-90.7793-104.2207.3818c-15.5147,91.1612-58.7354,111.9209-49.4746,188.0088,9.2588,76.0889,52.8662,147.67-69.1143,164.4287s-77.7588,99.2432-50.69,159.3584,33.5781,297.0987,41.6347,338.3057S1639.3819,1110.9306,1689.2764,1083.2773Z" transform="translate(-245.6155 -118.2468)"/><path class="cls-15" d="M1658.461,1124.5723s165.7021-62.2305,217.2773-50.9112,147.2939,38.7569,185.1582-4.3555,68.6143-188.663,189.874-172.1845,166.0381-12.4336,159.17-84.89,189.8575-181.9687,154.4932-221.8877S2261.0713,623.3564,2181.42,651.08s-156.68-36.0088-200.7734,41.1953S1789.4229,835.3105,1740.5342,821.956s-88.3467-20.2812-100.4473,53.0557-61.6211,118.21-74.7216,163.7773S1534.9375,1117.3086,1658.461,1124.5723Z" transform="translate(-245.6155 -118.2468)"/><path class="cls-16" d="M1537.1348,279.21c-5.8028-44.8505-83.1162-65.7558-95.2471-9.541s15.9756,130.72-90.1982,195.9737S1407.502,608.459,1447.1387,687.05,1479.5908,851.8457,1512.544,920s25,200.48,82.3808,170.3848,38.958-102.1993,72.1436-181.211,143.6377-97.3437,69.6826-182.042-161.1943-133.541-89.169-239.9541C1679.3574,440.2314,1555.1826,418.7324,1537.1348,279.21Z" transform="translate(-245.6155 -118.2468)"/><path class="cls-17" d="M1557.8613,1079.4023s57.3506-53.4756,28.2852-168.6787-84.4062-118.6709,90.667-137.3369S1783.17,476.1836,1920.7442,492.6484c137.5722,16.4649,377.7871-309.8457,458.16-228.98,80.375,80.8652-112.2851,214.3437-62.1465,292.63s35.1192,149.9815-127.5039,154.7246,6.9112,302.8614-209.6816,298.7471S1728.9082,1278.3564,1557.8613,1079.4023Z" transform="translate(-245.6155 -118.2468)"/><path class="cls-18" d="M2240.4961,860.3877V1245.06a23.03,23.03,0,0,1-23.0381,23.0224H2088.7988V837.3662H2217.458A23.0407,23.0407,0,0,1,2240.4961,860.3877Z" transform="translate(-245.6155 -118.2468)"/><g class="cls-19"><rect class="cls-20" x="1843.1892" y="745.3372" width="151.6875" height="26.2148"/><rect class="cls-20" x="1843.1892" y="815.1135" width="151.6875" height="26.2149"/><rect class="cls-20" x="1843.1892" y="884.8889" width="151.6875" height="26.2149"/><rect class="cls-20" x="1843.1892" y="954.6643" width="151.6875" height="26.2158"/><rect class="cls-20" x="1843.1892" y="1024.4407" width="151.6875" height="26.2148"/><rect class="cls-20" x="1843.1892" y="1094.2161" width="151.6875" height="26.2148"/></g><rect class="cls-21" x="1854.5593" y="719.1194" width="93.002" height="430.7158"/><path class="cls-22" d="M2074.8379,207.7627a119.6656,119.6656,0,0,0-34.98,5.1387c-14.3232-34.7481-49.9062-59.3565-91.5488-59.3565-46.2832,0-85.0937,30.4092-95.5176,71.3555a72.9637,72.9637,0,0,0-25.84-4.69c-38.5274,0-69.7637,29.6866-69.7637,66.3116h415.9307C2173.1182,243.0273,2129.1172,207.7627,2074.8379,207.7627Z" transform="translate(-245.6155 -118.2468)"/><circle class="cls-23" cx="1453.1604" cy="1052.7254" r="711.4874" transform="translate(-564.3839 1217.6289) rotate(-45)"/><circle class="cls-24" cx="1453.1604" cy="1052.7254" r="603.7501" transform="translate(-564.3839 1217.6289) rotate(-45)"/><path class="cls-25" d="M1428.1514,1569.2275a25.2979,25.2979,0,0,1,25.291-25.3232h0a25.3066,25.3066,0,0,1,25.3232,25.291h0a25.317,25.317,0,0,1-25.29,25.3232h0A25.3081,25.3081,0,0,1,1428.1514,1569.2275Zm-245.5962-47.0224h0a25.31,25.31,0,0,1-12.6538-21.9932h0a25.4144,25.4144,0,0,1,3.3965-12.5879h0a25.3208,25.3208,0,0,1,34.5815-9.2578h0a25.3093,25.3093,0,0,1,12.6538,21.9932h0a25.358,25.358,0,0,1-3.3965,12.5879h0a25.3186,25.3186,0,0,1-21.9433,12.6542h0A25.1968,25.1968,0,0,1,1182.5552,1522.2051Zm507.144-9.5186a25.2511,25.2511,0,0,1-3.4121-12.7353h0a25.2853,25.2853,0,0,1,12.6367-21.8467h0a25.3042,25.3042,0,0,1,34.5821,9.209h0a25.3915,25.3915,0,0,1,3.4121,12.5888h0a25.3122,25.3122,0,0,1-12.6367,21.9922h0a25.1637,25.1637,0,0,1-12.6543,3.4131h0A25.2951,25.2951,0,0,1,1689.6992,1512.6865ZM984.145,1324.1221a25.2712,25.2712,0,0,1-3.4287-12.7354h0a25.3518,25.3518,0,0,1,12.6211-21.8633h0a25.3241,25.3241,0,0,1,34.5982,9.209h0a25.1933,25.1933,0,0,1,3.4126,12.72h0a25.285,25.285,0,0,1-12.6211,21.8623h0a25.13,25.13,0,0,1-12.67,3.4121h0A25.3093,25.3093,0,0,1,984.145,1324.1221Zm903.7515,8.7187a25.3182,25.3182,0,0,1-12.6367-22.01h0a25.1418,25.1418,0,0,1,3.4121-12.5722h0a25.2872,25.2872,0,0,1,34.5644-9.2412h0a25.3077,25.3077,0,0,1,12.6543,21.9931h0a25.2087,25.2087,0,0,1-3.4121,12.5889h0a25.3119,25.3119,0,0,1-21.9277,12.6367h0A25.2669,25.2669,0,0,1,1887.8965,1332.8408Zm-976.522-279.4922a25.3084,25.3084,0,0,1,25.2749-25.34h0a25.3083,25.3083,0,0,1,25.34,25.2744h0a25.32,25.32,0,0,1-25.2744,25.3408h-.0328A25.3016,25.3016,0,0,1,911.3745,1053.3486Zm1032.9663-.62h0v-.5391h0v-.5879h0a25.299,25.299,0,0,1,25.2422-25.373h0a25.32,25.32,0,0,1,25.3721,25.2432h0c0,.2285,0,.44-.0156.6689h0c.0156.1963.0156.3916.0156.5879h0a25.3082,25.3082,0,0,1-25.3076,25.3076h0A25.308,25.308,0,0,1,1944.3408,1052.7285ZM992.8154,816.9619a25.2841,25.2841,0,0,1-12.67-21.9775h0a25.1738,25.1738,0,0,1,3.3794-12.5879h0a25.2968,25.2968,0,0,1,34.565-9.2735h0A25.2439,25.2439,0,0,1,1030.76,795.1h0a25.2127,25.2127,0,0,1-3.38,12.5879h0a25.3178,25.3178,0,0,1-21.9438,12.6543h0A25.0839,25.0839,0,0,1,992.8154,816.9619Zm885.2852-10.7275h.0166a25.2357,25.2357,0,0,1-3.4453-12.7354h0a25.3047,25.3047,0,0,1,12.5879-21.8623h0a25.3333,25.3333,0,0,1,34.6142,9.16h0a25.3786,25.3786,0,0,1,3.4288,12.7353h0a25.2855,25.2855,0,0,1-12.6045,21.8623h0a25.0934,25.0934,0,0,1-12.6866,3.4287h0A25.312,25.312,0,0,1,1878.1006,806.2344Zm-705.7822-187.78a25.2114,25.2114,0,0,1-3.4292-12.7354h0a25.3414,25.3414,0,0,1,12.605-21.8632h0a25.3166,25.3166,0,0,1,34.5976,9.1933h0a25.154,25.154,0,0,1,3.4287,12.7188h0a25.2638,25.2638,0,0,1-12.605,21.8623h0a25.09,25.09,0,0,1-12.6865,3.4287h0A25.2933,25.2933,0,0,1,1172.3184,618.4541Zm525.6426,8.3428a25.2973,25.2973,0,0,1-12.6866-21.9766h0a25.2094,25.2094,0,0,1,3.38-12.5879h0a25.3127,25.3127,0,0,1,34.5654-9.291h0a25.3311,25.3311,0,0,1,12.6866,21.9766h0a25.2063,25.2063,0,0,1-3.3809,12.5888h0a25.3056,25.3056,0,0,1-21.959,12.67h0A25.1876,25.1876,0,0,1,1697.961,626.7969ZM1426.96,536.2783a25.3074,25.3074,0,0,1,25.2749-25.34h0a25.2819,25.2819,0,0,1,25.34,25.2578h0a25.3067,25.3067,0,0,1-25.2578,25.3564h-.05A25.3112,25.3112,0,0,1,1426.96,536.2783Z" transform="translate(-245.6155 -118.2468)"/><path class="cls-25" d="M1883.2627,1256.9746a17.0664,17.0664,0,0,1-6.71-1.376l-449.6963-191.541V629.31a17.144,17.144,0,0,1,34.288,0v412.0839l428.8448,182.66a17.1469,17.1469,0,0,1-6.7266,32.9209Z" transform="translate(-245.6155 -118.2468)"/><path class="cls-26" d="M1894.8945,494.9492a792.8641,792.8641,0,0,0-251.5878-40.7041c-438.4546,0-793.9009,355.4463-793.9009,793.9014a793.2986,793.2986,0,0,0,34.14,230.9658,708.2917,708.2917,0,0,1-141.8681-426.3877c0-392.9512,318.5468-711.4815,711.48-711.4815A708.3633,708.3633,0,0,1,1894.8945,494.9492Z" transform="translate(-245.6155 -118.2468)"/><path class="cls-22" d="M781.375,355.43a108.9569,108.9569,0,0,0-31.8462,4.6787C736.49,328.4736,704.0947,306.07,666.1836,306.07c-42.1357,0-77.4687,27.6846-86.9585,64.9619a66.42,66.42,0,0,0-23.5239-4.27c-35.0752,0-63.5127,27.0264-63.5127,60.3691H870.85C870.85,387.5351,830.7905,355.43,781.375,355.43Z" transform="translate(-245.6155 -118.2468)"/><path class="cls-27" d="M1234.0274,1112.0791s-25.8682,32.9687-34.9981,54.7793-24.3462,69.6152-22.3174,106.6416,14.2022,106.5156,10.6514,122.2383c-3.55,15.7246-7.0962,48.1855-10.9023,59.3447s-19.023,43.62-20.545,77.0967,21.3033,180.5683,20.2891,194.2627,25.8677,5.5791,25.8677,5.5791,9.13-132.89,14.2016-155.7149,11.1592-100.4277,15.7242-106.0078,17.0468-63.4014,15.1171-72.5312,49.8062-146.0782,52.8492-173.4668,58.9814-108.4981,58.9814-108.4981S1312.6455,1086.5918,1234.0274,1112.0791Z" transform="translate(-245.6155 -118.2468)"/><path class="cls-27" d="M1327.3447,1112.0791s1.3194,13.8213,2.8409,18.8935,36.5195,134.4122,40.07,184.1192,12.68,91.8681,14.2016,102.4883-1.5214,46.125-4.5649,55.2548,15.2168,224.6963,16.7383,229.7686-12.1734,6.5938-21.8106,5.0723-58.33-158.251-55.2861-184.626,6.0864-82.6133-2.5361-105.47-86.2266-188.2071-86.7334-198.3516S1196.6856,1034.3486,1327.3447,1112.0791Z" transform="translate(-245.6155 -118.2468)"/><path class="cls-27" d="M1201.5923,1715.8486s2.5015,17.5108,5.23,22.2862,10.2334,29.1093,13.6445,33.6572,10.9155,38.6592,0,42.7529-36.6133,10.916-45.2549-2.7285a56.1117,56.1117,0,0,1-8.414-37.75c1.3647-10.4609,11.7407-58.4707,11.5981-63.2207S1201.5923,1715.8486,1201.5923,1715.8486Z" transform="translate(-245.6155 -118.2468)"/><path class="cls-28" d="M1216.1123,1762.3418s1.1709,26.5058-18.8408,26.5058-28.8794-24.1181-28.8794-24.1181-6.82,11.8379,0,37.081,35.2466,20.0118,41.6143,19.1016S1246.5513,1812.0185,1216.1123,1762.3418Z" transform="translate(-245.6155 -118.2468)"/><path class="cls-28" d="M1394.4678,1692.043s14.1465,25.3046,22.5474,30.4306c10.47,6.3877,30.7876,26.8848,37.8852,27.8311s32.6074,5.4736,27.6826,19.875c-4.0371,11.8027-64.8886,10.1093-71.75,4.1943s-27.3857-27.1455-35.6665-26.6719-5.2055,30.62-5.2055,30.62H1360.97s-3.1416-29.334-3.521-34.377c-1.122-14.9268,9.5249-25.9082,9.9981-34.4258s.9609-14.873.9609-14.873Z" transform="translate(-245.6155 -118.2468)"/><path class="cls-27" d="M1452.8653,1749.6123s-20.0572,6.9316-35.4952-1.94-45.0654-22.3467-55.5385-22.4414c0,0,5.7114-17.4727,5.831-19.4278s.7456-11.1562.7456-11.1562l25.9009-4.1514s16.8008,24.667,24.2056,30.4717S1444.8853,1741.2617,1452.8653,1749.6123Z" transform="translate(-245.6155 -118.2468)"/><path class="cls-29" d="M1363.8487,1109.7969s7.2275,30.0527,9.8906,38.8017,5.3594,149.294,9.5683,234.1944c0,0-66.5488,44.0185-207.3007,37.5517,0,0-18.4551-171.2754-5.521-215.4023s29.9965-80.1338,47.6655-92.8633C1233.875,1100.7519,1363.8487,1109.7969,1363.8487,1109.7969Z" transform="translate(-245.6155 -118.2468)"/><path class="cls-30" d="M1095.6109,1249.5664s1.643-28.2559,9.1259-32.6416,3.1568,4.3555,3.1568,4.3555-4.2046,20.5058-5.1314,28.8134C1102.7173,1250.4961,1095.6109,1249.5664,1095.6109,1249.5664Z" transform="translate(-245.6155 -118.2468)"/><path class="cls-27" d="M1130.2363,1185.957a207.6491,207.6491,0,0,0,5.9268,24.88c3.8379,12.2119,7.3716,16.1045,5.832,23.1035-1.1611,5.28-7.1377,9.2451-8.646,7.5508s-2.2387-22.2285-10.7475-22.1338,2.5449,25.4316-2.52,23.57-24.5625-12.539-23.3359-22.8906,9.0254-17.83,8.5239-33.292c-.455-14.0283,3.9151-19.8867,3.9151-19.8867Z" transform="translate(-245.6155 -118.2468)"/><path class="cls-30" d="M1123.4434,1218.4961s11.3291,2.8945,10.6577,41.2217l-12.83-2.1416s.2339-21.1846-3.5972-32.7266C1117.6738,1224.85,1118.3277,1217.3515,1123.4434,1218.4961Z" transform="translate(-245.6155 -118.2468)"/><polygon class="cls-30" points="924.87 1150.121 824.955 1121.777 825.25 1244.831 924.685 1304.422 924.87 1150.121"/><polygon class="cls-30" points="924.685 1304.422 912.167 1306.733 815.453 1246.588 816.652 1122.343 824.955 1121.777 924.685 1304.422"/><path class="cls-27" d="M1339.8828,678.03c19.1275,2.6787,54.4043,16.2314,36.0782,89.27s-64.9893,73.0381-84.2637,46.1562-13.1875-97.3857-5.5791-109.5586S1314.522,674.4805,1339.8828,678.03Z" transform="translate(-245.6155 -118.2468)"/><path class="cls-29" d="M1383.25,928.7217c-1.1411,17.8789-10.271,32.7148-11.7929,39.1816s0,21.3037-1.9019,36.14-7.6084,85.5918-5.706,105.7539-138.3863,11.0546-149.0376,4.9677c0,0,23.6313-42.248,24.2626-59.747.2208-6.0108,3.8042-24.7266-6.0864-38.4219-5.2192-7.2276-16.6845-26.7344-26.355-43.5567l-.0073-.0078c-3.751-6.5273-7.2353-12.6523-9.9746-17.4912v-.0078c-3.5757-6.3223-5.8887-10.4531-5.8887-10.4531s-4.5649-84.832,12.5537-93.5811,26.2481-10.2715,42.9864-11.0322,27.77-4.1846,27.77-4.1846l39.1826,4.1846s25.107,8.75,34.9976,9.5107,22.4443,22.0635,21.3032,35.7579S1384.3906,910.8418,1383.25,928.7217Z" transform="translate(-245.6155 -118.2468)"/><path class="cls-29" d="M1219.9727,844.3808s-31.1133-.11-45.1885,27.2793-15.5967,56.3008-19.0205,66.5713-14.4556,65.8116-17.8789,74.5606-21.6836,73.039-26.6289,106.5146-8.8814,66.9532-8.8814,66.9532l31.7554.6728s16.3081-77.2217,25.8184-94.7207,13.6948-69.9092,17.8794-81.3223,30.0522-91.6787,35.3784-97.3847S1246.5205,849.4355,1219.9727,844.3808Z" transform="translate(-245.6155 -118.2468)"/><path class="cls-27" d="M1313.9209,839.3877c-1.2305,10.6553-2.8437,26.248-2.1889,29.3554,1.0146,4.8165-37.024,18.2608-37.6631-32.4628,0,0,11.5107-38.9893,6.5825-55.38s34.5,48.2861,34.5,48.2861S1314.5918,833.5478,1313.9209,839.3877Z" transform="translate(-245.6155 -118.2468)"/><path class="cls-28" d="M1375.961,769.8359s-33.1089-32.4609-46.0059-39.3086c0,0-21.0928,19.5674-36.02,25.8682s-13.6411,23.0762-13.6411,23.0762-24.0171-59.3428,5.6128-86.9854,70.7143-16.7383,86.1845-3.5508S1389.4688,731.7949,1375.961,769.8359Z" transform="translate(-245.6155 -118.2468)"/><path class="cls-28" d="M1328.0532,687.9209a30.2424,30.2424,0,1,1-30.2426-30.2422A30.2426,30.2426,0,0,1,1328.0532,687.9209Z" transform="translate(-245.6155 -118.2468)"/><path class="cls-27" d="M1404.917,1013.1943s-12.9824.3848-22.0454.09c-7.0132-.2276-23.6455,4.2666-27.38,8.5634-3.7353,4.295-13.44,31.6358-15.7885,33.584s2.1367,4.878,6.4062,2.3692c0,0,5.9287,10.3457,15.5884,4.5849s15.2314-15.874,20.3818-18.3183,35.334-15.4414,35.334-15.4414S1412.5957,1009.2265,1404.917,1013.1943Z" transform="translate(-245.6155 -118.2468)"/><path class="cls-27" d="M1262.8164,838.7461s9.3531,57.26,43.9707,50.7929,8.36-48.4257,8.36-48.4257S1303.2969,827.8955,1262.8164,838.7461Z" transform="translate(-245.6155 -118.2468)"/><path class="cls-29" d="M1489.5137,1002.65c-21.3037,15.2158-72.1006,37.1592-72.1006,37.1592s-4.9795-24.8682-9.9248-27.15c0,0,39.4805-27.0664,49.5605-33.9746,0,0-38.01-25.8682-60.63-41.6631-5.5767-3.8877-10.2178-7.1739-13.1241-9.3047-.92-.669-1.666-1.2324-2.2138-1.6582-9.2442-7.2285-46.9043-58.9639-32.83-76.0821,0,0,22.6831,1.8321,38.8022,18.64,18.7354,19.5352,39.5625,33.4766,45.2686,37.4707s69.6152,53.0674,72.2783,60.6758S1510.8164,987.4336,1489.5137,1002.65Z" transform="translate(-245.6155 -118.2468)"/><path class="cls-31" d="M1383.2949,927.7168s2.6631-5.44-12.3784-33.21c.4717.4414,15.437,14.7451,25.5025,42.5147C1390.8423,933.1338,1386.2012,929.8476,1383.2949,927.7168Z" transform="translate(-245.6155 -118.2468)"/><path class="cls-32" d="M1400.7456,1013.293a36.0185,36.0185,0,0,1,7.5137,19.2851s4.4863-1.335,5.5254-2.3877c0,0-1.8394-10.626-6.2964-17.5312C1407.4883,1012.6592,1407.083,1012.208,1400.7456,1013.293Z" transform="translate(-245.6155 -118.2468)"/><path class="cls-33" d="M1411.1,1015.0742c0,1.9443-2.3779,3.52-5.311,3.52s-5.3115-1.5762-5.3115-3.52,2.3779-3.5195,5.3115-3.5195S1411.1,1013.1308,1411.1,1015.0742Z" transform="translate(-245.6155 -118.2468)"/><path class="cls-27" d="M1299.749,742.5107c-1.2636-4.03-9.2431-7.4189-12.99.95s5.7627,33.2862,11.0884,27.1992S1302.7925,752.2109,1299.749,742.5107Z" transform="translate(-245.6155 -118.2468)"/><path class="cls-31" d="M1209.7822,920.1162s-1.4834,34.2139-3.15,52.9228l-.0073-.0078c-3.751-6.5273-7.2353-12.6523-9.9746-17.4912v-.0078Z" transform="translate(-245.6155 -118.2468)"/><path class="cls-34" d="M1315.1509,829.1865s-.5591,4.3613-1.23,10.2012a48.2965,48.2965,0,0,1-27.1592-34.9551C1298.7276,827.1094,1315.1509,829.1865,1315.1509,829.1865Z" transform="translate(-245.6155 -118.2468)"/><path class="cls-35" d="M948.2407,859.749s48.3013,14.1807,45.3365,79.833S948.2407,859.749,948.2407,859.749Z" transform="translate(-245.6155 -118.2468)"/><path class="cls-35" d="M943.7935,859.749s3.727,5.0664-.9331,37.7354,4.17,46.3242,5.2226,59.9189,17.001,101.3984,17.4336,105.28,2.5728,50.6094,8.791,63.01,51.93,82.6836,52.542,86.1924,22.1968-12.2431,22.1968-12.2431-41.0425-85.3877-43.7031-93.8047c-3.3052-10.4561-13.41-36.3526-14.0313-49.9033-1.519-33.125,1.4917-110.0547.3272-126.8077C989.459,897.7539,964.73,864.7344,943.7935,859.749Z" transform="translate(-245.6155 -118.2468)"/><path class="cls-35" d="M1006.2769,1175.4394s-9.7715-16.7089-8.5391-24.0654,22.0606-7.083,22.0606-7.083l11.0512,8.7676Z" transform="translate(-245.6155 -118.2468)"/><path class="cls-36" d="M1005.3555,1140.082s7.1894,15.7969,11.4375,16.7774,9.3076,6.2519,12.9507,7.8662,15.101,2.4883,18.18,5.4824c1.2588,1.2246,6.085,11.7617,8.9082,13.9736s9.0738,6,7.1426,8.374-8.4311.5118-8.4311.5118,2.4511,2.1709,1.4009,4.7959c-2.0415,5.1045-5.4649,5.333-5.4649,5.333s1.0952,3.8349-.2886,5.7353c-3.0517,4.1914-6.3715,4.3145-6.3715,4.3145a8.7654,8.7654,0,0,1-2.9473,5.2754,7.8176,7.8176,0,0,1-7.6074,1.2695s-3.4024,4.7051-6.545,3.792-4.9716-3.2617-7.2158-4.6348-17.9326-19.4092-23.7246-36.289a129.4221,129.4221,0,0,0-15.84-30.5918Z" transform="translate(-245.6155 -118.2468)"/><rect class="cls-37" x="938.475" y="1023.8243" width="136.0714" height="227.075" transform="translate(1010.1873 -479.0536) rotate(50.9546)"/><path class="cls-38" d="M1054.67,1190.9775s-13.6816-15.19-20.4907-14.9013-2.168,6.0419-2.168,6.0419-4.4956-5.7646-9.3432-2.7089.9346,9.5058.9346,9.5058-4.55-3.4658-8.1358,1.335,2.3921,9.0683,2.3921,9.0683-9.0225-1.3271-7.0884,6.0362c3.2657,12.4336,16.5645,18.6347,16.5645,18.6347s4.08,1.1065,7.208-3.7627c0,0,8.4507,3.2413,10.7715-6.5341,0,0,9.9863-2.4229,6.8515-10.2969C1052.166,1203.3955,1062.3438,1199.5937,1054.67,1190.9775Z" transform="translate(-245.6155 -118.2468)"/><path class="cls-39" d="M904.0869,667.9424s-69.8427-5.8086-67.9331,67.664,13.5562,84.5244-.0385,136.4424,68.0927-29.4814,68.0927-29.4814Z" transform="translate(-245.6155 -118.2468)"/><path class="cls-36" d="M827.9854,1121.9619s-25.72,32.78-34.7979,54.4648-24.2065,69.2168-22.1894,106.0313,14.1206,105.9053,10.5908,121.5391-7.0557,47.9091-10.8408,59.0039-18.9136,43.37-20.4268,76.6552,21.1812,179.5342,20.1729,193.15,25.72,5.5469,25.72,5.5469,9.0771-132.1289,14.12-154.8223,11.0952-99.8535,15.6338-105.4013,16.9492-63.0381,15.0308-72.1162S890.52,1260.7724,893.5454,1233.54s78.8736-111.5781,78.8736-111.5781S906.1533,1096.62,827.9854,1121.9619Z" transform="translate(-245.6155 -118.2468)"/><path class="cls-36" d="M950.7334,1121.9619s1.3115,13.7422,2.8247,18.7852,36.3106,133.6416,39.84,183.0644,12.6079,91.3418,14.1206,101.9014-1.5127,45.8613-4.5386,54.9385,15.1294,223.4091,16.6421,228.4521-12.1035,6.5566-21.6851,5.043-57.9956-157.3438-54.97-183.5684,6.0517-82.14-2.5215-104.8652-85.7329-187.13-86.2373-197.2158S820.8228,1044.6758,950.7334,1121.9619Z" transform="translate(-245.6155 -118.2468)"/><path class="cls-36" d="M795.7359,1722.2734s2.4873,17.41,5.2006,22.1592,10.1748,28.9414,13.5664,33.4639,10.8531,38.4384,0,42.5078-36.4033,10.8535-44.9956-2.7129a55.788,55.788,0,0,1-8.3657-37.5342c1.3565-10.4014,11.6729-58.1357,11.5313-62.8574S795.7359,1722.2734,795.7359,1722.2734Z" transform="translate(-245.6155 -118.2468)"/><path class="cls-30" d="M810.1729,1768.5s1.164,26.3545-18.7329,26.3545-28.7139-23.98-28.7139-23.98-6.7813,11.7705,0,36.8682,35.0444,19.8984,41.376,18.9931S840.4375,1817.8926,810.1729,1768.5Z" transform="translate(-245.6155 -118.2468)"/><path class="cls-30" d="M1017.4722,1698.6045s14.0659,25.1592,22.418,30.2558c10.41,6.3516,30.6113,26.7315,37.6684,27.6719s32.4214,5.4424,27.5239,19.7608c-4.0136,11.7353-64.5171,10.0517-71.3393,4.1709s-27.2285-26.9893-35.4619-26.52-5.1753,30.4453-5.1753,30.4453h-8.9395s-3.1235-29.166-3.501-34.1806c-1.1157-14.8409,9.47-25.76,9.941-34.2285s.9555-14.7881.9555-14.7881Z" transform="translate(-245.6155 -118.2468)"/><path class="cls-36" d="M1075.5352,1755.8437s-19.9424,6.8916-35.292-1.93-44.8076-22.2177-55.22-22.3125c0,0,5.6787-17.373,5.7973-19.3164s.7417-11.0927.7417-11.0927l25.7525-4.127s16.7046,24.5254,24.0669,30.2969S1067.6011,1747.541,1075.5352,1755.8437Z" transform="translate(-245.6155 -118.2468)"/><path class="cls-30" d="M972.8482,1119.6924s7.186,29.88,9.8339,38.5791,19.6436,143.66,23.8287,228.0742c0,0-101.7447,38.58-241.6905,32.15,0,0-3.4043-155.0762,9.4561-198.95s36.1411-84.9278,53.709-97.584C843.6187,1110.6992,972.8482,1119.6924,972.8482,1119.6924Z" transform="translate(-245.6155 -118.2468)"/><path class="cls-40" d="M990.334,943.0234c-1.1348,17.7774-8.4082,29.1582-9.9214,35.5879s0,21.1817-1.8911,35.9326-7.5645,85.1026-5.6733,105.1485-137.5933,10.9912-148.1841,4.9394c0,0,23.4961-42.0058,24.124-59.4053.2192-5.9755,3.7822-24.5849-6.0518-38.2011-5.1894-7.1865-14.8173-30.0615-24.4321-46.7871h0c-3.73-6.49-7.6294-12.96-10.3525-17.77h0a67.0987,67.0987,0,0,1-5.5318-13.7334s-6.206-77.1621,10.8145-85.8614,26.0976-10.2129,42.74-10.9687,27.6109-4.1612,27.6109-4.1612l38.958,4.1612s13.7461,6.4414,23.58,7.1972,21.8491,22.1143,27.7973,37.5928C978.8213,909.4492,991.4688,925.2471,990.334,943.0234Z" transform="translate(-245.6155 -118.2468)"/><path class="cls-35" d="M834.3784,854.8183s-30.8286,2.56-42.4218,30.8975-10.6206,57.1084-13.1314,67.5762-6.1919,71.0947-8.833,80.0556-11.7168,50.5079-13.7441,84.0928,2.97,104.4141,2.97,104.4141l17.09-8.3028s15.209-105.0283,21.8047-127.2343c5.6382-18.9825,5.6333-51.2813,8.8-62.9453s22.5269-81.84,25.646-88.9463C837.3447,923.5205,860.877,854.4687,834.3784,854.8183Z" transform="translate(-245.6155 -118.2468)"/><path class="cls-35" d="M897.2549,675.3867c17.3125-2.833,56.9229,1.5068,68.1494,46.9609a144.5651,144.5651,0,0,1-1.8706,22.7149c-1.9,10.1162,10.15,37.9277,8.0278,39.6094s-11.3564,4.5781-11.3564,4.5781-6.5552,32.6387-17.6362,33.6328-53.9-2.8584-78.0811-39.7647S827.3506,686.8291,897.2549,675.3867Z" transform="translate(-245.6155 -118.2468)"/><path class="cls-35" d="M925.9986,810.2324s-.855,4.5674-1.65,11.292c-.4073,3.4355-.7989,7.4307-1.0518,11.6631-.6914,11.7158-.333,25.2724,3.6645,33.87,0,0-21.7255,13.2139-44.977-19.1064,0,0,2.2988-40.1045-11.0527-61.43C857.5811,765.2051,925.9986,810.2324,925.9986,810.2324Z" transform="translate(-245.6155 -118.2468)"/><path class="cls-39" d="M965.4043,722.3476s-26.0547,22.4981-53.6557,29.5957-42.2105,38.0987-42.2105,38.0987-48.8311-48.7061-19.3623-95.9766S965.3589,667.8779,965.4043,722.3476Z" transform="translate(-245.6155 -118.2468)"/><path class="cls-41" d="M924.3487,821.5244c-.4073,3.4355-.7989,7.4307-1.0518,11.6631-24.3384-11.8106-37.7573-27.999-37.7573-27.999C899.85,815.4326,924.3487,821.5244,924.3487,821.5244Z" transform="translate(-245.6155 -118.2468)"/><path class="cls-39" d="M906.6709,753.5625s-28.23,75.91-24.8476,94.1806c0,0-14.94-2.5722-41.55,5.5645C840.273,853.3076,853.1367,717.875,906.6709,753.5625Z" transform="translate(-245.6155 -118.2468)"/><path class="cls-35" d="M872.3945,850.1933s9.3,56.9327,43.7188,50.503,8.3125-48.1485,8.3125-48.1485S909.1426,839.7373,872.3945,850.1933Z" transform="translate(-245.6155 -118.2468)"/><path class="cls-35" d="M776.7154,1210.6758a150.5405,150.5405,0,0,0,6.9624,18.0849c2.0737,4.4248,5.1757,34.251,5.2915,38.1319.0971,3.2548-2.1993,1.498-3.4581-.5567-.7221-1.1787-3.4575-11.3642-5.7822-16.7138-1.9521-4.4932-3.4678-6.1143-4.1689-4.5577-.7012,1.5547-.732,20.875,1.644,28.9493s1.9639,27.123-2.5625,24.7148-17.2046-35.8516-17.3227-48.7959,3.2739-29.4365,3.2739-29.4365Z" transform="translate(-245.6155 -118.2468)"/></g></g></svg>