<svg xmlns="http://www.w3.org/2000/svg" xmlns:xlink="http://www.w3.org/1999/xlink" width="452.2099" height="278.8728" viewBox="0 0 452.2099 278.8728"><defs><style>.cls-1{mask:url(#mask);}.cls-2,.cls-4,.cls-6,.cls-8{mix-blend-mode:multiply;}.cls-2{fill:url(#Áåçûìÿííûé_ãðàäèåíò_28);}.cls-3{mask:url(#mask-2);}.cls-4{fill:url(#Áåçûìÿííûé_ãðàäèåíò_27);}.cls-5{mask:url(#mask-3);}.cls-6{fill:url(#Áåçûìÿííûé_ãðàäèåíò_26);}.cls-7{isolation:isolate;}.cls-8{opacity:0.61;}.cls-10,.cls-11,.cls-12,.cls-13,.cls-14,.cls-15,.cls-16,.cls-17,.cls-18,.cls-19,.cls-20,.cls-21,.cls-22,.cls-23,.cls-24,.cls-25,.cls-26,.cls-27,.cls-28,.cls-29,.cls-30,.cls-31,.cls-32,.cls-33,.cls-34,.cls-35,.cls-36,.cls-37,.cls-38,.cls-39,.cls-40,.cls-41,.cls-42,.cls-43,.cls-44,.cls-45,.cls-46,.cls-47,.cls-48,.cls-49,.cls-50,.cls-51,.cls-52,.cls-53,.cls-54,.cls-55,.cls-56,.cls-57,.cls-58,.cls-59,.cls-60,.cls-61,.cls-62,.cls-63,.cls-64,.cls-65,.cls-66,.cls-67,.cls-68,.cls-69,.cls-70,.cls-71,.cls-72,.cls-73,.cls-74,.cls-75,.cls-76,.cls-77,.cls-78,.cls-79,.cls-80,.cls-9{fill:#381451;}.cls-9{opacity:0;}.cls-10{opacity:0.0141;}.cls-11{opacity:0.0282;}.cls-12{opacity:0.0423;}.cls-13{opacity:0.0563;}.cls-14{opacity:0.0704;}.cls-15{opacity:0.0845;}.cls-16{opacity:0.0986;}.cls-17{opacity:0.1127;}.cls-18{opacity:0.1268;}.cls-19{opacity:0.1408;}.cls-20{opacity:0.1549;}.cls-21{opacity:0.169;}.cls-22{opacity:0.1831;}.cls-23{opacity:0.1972;}.cls-24{opacity:0.2113;}.cls-25{opacity:0.2254;}.cls-26{opacity:0.2394;}.cls-27{opacity:0.2535;}.cls-28{opacity:0.2676;}.cls-29{opacity:0.2817;}.cls-30{opacity:0.2958;}.cls-31{opacity:0.3099;}.cls-32{opacity:0.3239;}.cls-33{opacity:0.338;}.cls-34{opacity:0.3521;}.cls-35{opacity:0.3662;}.cls-36{opacity:0.3803;}.cls-37{opacity:0.3944;}.cls-38{opacity:0.4085;}.cls-39{opacity:0.4225;}.cls-40{opacity:0.4366;}.cls-41{opacity:0.4507;}.cls-42{opacity:0.4648;}.cls-43{opacity:0.4789;}.cls-44{opacity:0.493;}.cls-45{opacity:0.507;}.cls-46{opacity:0.5211;}.cls-47{opacity:0.5352;}.cls-48{opacity:0.5493;}.cls-49{opacity:0.5634;}.cls-50{opacity:0.5775;}.cls-51{opacity:0.5915;}.cls-52{opacity:0.6056;}.cls-53{opacity:0.6197;}.cls-54{opacity:0.6338;}.cls-55{opacity:0.6479;}.cls-56{opacity:0.662;}.cls-57{opacity:0.6761;}.cls-58{opacity:0.6901;}.cls-59{opacity:0.7042;}.cls-60{opacity:0.7183;}.cls-61{opacity:0.7324;}.cls-62{opacity:0.7465;}.cls-63{opacity:0.7606;}.cls-64{opacity:0.7746;}.cls-65{opacity:0.7887;}.cls-66{opacity:0.8028;}.cls-67{opacity:0.8169;}.cls-68{opacity:0.831;}.cls-69{opacity:0.8451;}.cls-70{opacity:0.8592;}.cls-71{opacity:0.8732;}.cls-72{opacity:0.8873;}.cls-73{opacity:0.9014;}.cls-74{opacity:0.9155;}.cls-75{opacity:0.9296;}.cls-76{opacity:0.9437;}.cls-77{opacity:0.9577;}.cls-78{opacity:0.9718;}.cls-79{opacity:0.9859;}.cls-81{fill:#fff;}.cls-106,.cls-82{fill:#091868;}.cls-83{fill:url(#Áåçûìÿííûé_ãðàäèåíò_160);}.cls-84{fill:url(#Áåçûìÿííûé_ãðàäèåíò_60);}.cls-85{fill:#f0f0fc;}.cls-86{fill:#232f6d;}.cls-87{fill:#101f47;}.cls-88{fill:url(#Áåçûìÿííûé_ãðàäèåíò_19);}.cls-89{fill:url(#Áåçûìÿííûé_ãðàäèåíò_160-2);}.cls-90{fill:#ff768f;}.cls-91{mask:url(#mask-4);}.cls-92{fill:url(#Áåçûìÿííûé_ãðàäèåíò_127);}.cls-93{fill:#626fa6;}.cls-94{fill:url(#Áåçûìÿííûé_ãðàäèåíò_160-3);}.cls-95{fill:#0e0638;}.cls-96{fill:url(#Áåçûìÿííûé_ãðàäèåíò_47);}.cls-97{fill:#ff024c;}.cls-98{fill:url(#Áåçûìÿííûé_ãðàäèåíò_19-2);}.cls-99{fill:#0c25ba;opacity:0.43;}.cls-100{fill:url(#Áåçûìÿííûé_ãðàäèåíò_35);}.cls-101{mask:url(#mask-5);}.cls-102{fill:url(#Áåçûìÿííûé_ãðàäèåíò_155);}.cls-103{fill:url(#Áåçûìÿííûé_ãðàäèåíò_35-2);}.cls-104{mask:url(#mask-6);}.cls-105{fill:url(#Áåçûìÿííûé_ãðàäèåíò_155-2);}.cls-106{font-size:13.1513px;font-family:FiraCode-Bold, Fira Code;font-weight:700;}.cls-107{filter:url(#luminosity-noclip-6);}.cls-108{filter:url(#luminosity-noclip-5);}.cls-109{filter:url(#luminosity-noclip-4);}.cls-110{filter:url(#luminosity-noclip-3);}.cls-111{filter:url(#luminosity-noclip-2);}.cls-112{filter:url(#luminosity-noclip);}</style><filter id="luminosity-noclip" x="271.7874" y="-8359" width="23.2211" height="32766" filterUnits="userSpaceOnUse" color-interpolation-filters="sRGB"><feFlood flood-color="#fff" result="bg"/><feBlend in="SourceGraphic" in2="bg"/></filter><mask id="mask" x="271.7874" y="-8359" width="23.2211" height="32766" maskUnits="userSpaceOnUse"><g class="cls-112"/></mask><linearGradient id="Áåçûìÿííûé_ãðàäèåíò_28" x1="295.4655" y1="148.7501" x2="271.603" y2="148.7501" gradientUnits="userSpaceOnUse"><stop offset="0.0162" stop-color="#fff"/><stop offset="0.0258" stop-color="#fafafa"/><stop offset="0.1426" stop-color="silver"/><stop offset="0.2625" stop-color="#8d8d8d"/><stop offset="0.3827" stop-color="#626262"/><stop offset="0.5034" stop-color="#3e3e3e"/><stop offset="0.6249" stop-color="#232323"/><stop offset="0.7474" stop-color="#0f0f0f"/><stop offset="0.8715" stop-color="#040404"/><stop offset="1"/></linearGradient><filter id="luminosity-noclip-2" x="390.8094" y="-8359" width="28.5709" height="32766" filterUnits="userSpaceOnUse" color-interpolation-filters="sRGB"><feFlood flood-color="#fff" result="bg"/><feBlend in="SourceGraphic" in2="bg"/></filter><mask id="mask-2" x="390.8094" y="-8359" width="28.5709" height="32766" maskUnits="userSpaceOnUse"><g class="cls-111"/></mask><linearGradient id="Áåçûìÿííûé_ãðàäèåíò_27" x1="405.0949" y1="224.9611" x2="405.0949" y2="151.7908" gradientUnits="userSpaceOnUse"><stop offset="0.0162" stop-color="#fff"/><stop offset="0.0577" stop-color="#f2f2f2"/><stop offset="0.2096" stop-color="#c7c7c7"/><stop offset="0.3641" stop-color="#a4a4a4"/><stop offset="0.5196" stop-color="#898989"/><stop offset="0.6764" stop-color="#757575"/><stop offset="0.8354" stop-color="#6a6a6a"/><stop offset="1" stop-color="#666"/></linearGradient><filter id="luminosity-noclip-3" x="222.7291" y="-8359" width="13.668" height="32766" filterUnits="userSpaceOnUse" color-interpolation-filters="sRGB"><feFlood flood-color="#fff" result="bg"/><feBlend in="SourceGraphic" in2="bg"/></filter><mask id="mask-3" x="222.7291" y="-8359" width="13.668" height="32766" maskUnits="userSpaceOnUse"><g class="cls-110"/></mask><linearGradient id="Áåçûìÿííûé_ãðàäèåíò_26" x1="229.5631" y1="172.7486" x2="229.5631" y2="137.7446" xlink:href="#Áåçûìÿííûé_ãðàäèåíò_27"/><linearGradient id="Áåçûìÿííûé_ãðàäèåíò_160" x1="436.4154" y1="49.7375" x2="454.6713" y2="49.7375" gradientUnits="userSpaceOnUse"><stop offset="0.0162" stop-color="#fc31d3"/><stop offset="0.1172" stop-color="#d950d9"/><stop offset="0.2594" stop-color="#af76df"/><stop offset="0.4042" stop-color="#8b95e5"/><stop offset="0.5499" stop-color="#70ade9"/><stop offset="0.6969" stop-color="#5cbeed"/><stop offset="0.8458" stop-color="#51c9ee"/><stop offset="1" stop-color="#4dccef"/></linearGradient><linearGradient id="Áåçûìÿííûé_ãðàäèåíò_60" x1="315.9274" y1="60.494" x2="373.0005" y2="163.39" gradientUnits="userSpaceOnUse"><stop offset="0.2162" stop-color="#eaeaf9"/><stop offset="0.3416" stop-color="#e8e8f8"/><stop offset="0.3956" stop-color="#e1e1f6"/><stop offset="0.4356" stop-color="#d4d4f3"/><stop offset="0.4688" stop-color="#c3c3ee"/><stop offset="0.4757" stop-color="#bebeed"/></linearGradient><linearGradient id="Áåçûìÿííûé_ãðàäèåíò_19" x1="334.5669" y1="205.9896" x2="336.2733" y2="156.8444" gradientUnits="userSpaceOnUse"><stop offset="0.0108" stop-color="#9faffc"/><stop offset="1" stop-color="#e6f6ff"/></linearGradient><linearGradient id="Áåçûìÿííûé_ãðàäèåíò_160-2" x1="314.345" y1="123.5917" x2="348.9164" y2="123.5917" xlink:href="#Áåçûìÿííûé_ãðàäèåíò_160"/><filter id="luminosity-noclip-4" x="271.7874" y="142.049" width="23.2211" height="13.4022" filterUnits="userSpaceOnUse" color-interpolation-filters="sRGB"><feFlood flood-color="#fff" result="bg"/><feBlend in="SourceGraphic" in2="bg"/></filter><mask id="mask-4" x="248.8927" y="117.9155" width="23.2211" height="13.4022" maskUnits="userSpaceOnUse"><g class="cls-109"><g transform="translate(-22.8947 -24.1335)"><g class="cls-1"><path class="cls-2" d="M294.97,149.456l.0038-.0059-.0113-.0054a.2.2,0,0,0-.1592-.0817l-.0112.0021L279.6006,142.27c-.5635-.5567-.6758-.2525-6.6058,3.2013a2.9174,2.9174,0,0,0-1.2074,2.3167c0,8.1049.6867,7.6593,1.7677,7.6593l21.1909-5.6823a.1981.1981,0,0,0,.0576.0117.2058.2058,0,0,0,.2049-.2067A.2015.2015,0,0,0,294.97,149.456Z"/></g></g></g></mask><linearGradient id="Áåçûìÿííûé_ãðàäèåíò_127" x1="295.4655" y1="148.7501" x2="271.603" y2="148.7501" xlink:href="#Áåçûìÿííûé_ãðàäèåíò_160"/><linearGradient id="Áåçûìÿííûé_ãðàäèåíò_160-3" x1="267.4369" y1="142.5897" x2="282.6242" y2="154.9182" xlink:href="#Áåçûìÿííûé_ãðàäèåíò_160"/><linearGradient id="Áåçûìÿííûé_ãðàäèåíò_47" x1="269.8948" y1="198.1366" x2="269.1165" y2="256.3119" gradientUnits="userSpaceOnUse"><stop offset="0.0108" stop-color="#120a9d"/><stop offset="0.0508" stop-color="#160a97"/><stop offset="0.3169" stop-color="#2a0776"/><stop offset="0.5707" stop-color="#39055e"/><stop offset="0.8046" stop-color="#42044f"/><stop offset="1" stop-color="#45044a"/></linearGradient><linearGradient id="Áåçûìÿííûé_ãðàäèåíò_19-2" x1="269.934" y1="211.7476" x2="269.934" y2="163.4883" xlink:href="#Áåçûìÿííûé_ãðàäèåíò_19"/><linearGradient id="Áåçûìÿííûé_ãðàäèåíò_35" x1="375.9739" y1="262.6769" x2="427.2573" y2="262.6769" gradientTransform="translate(1.5)" gradientUnits="userSpaceOnUse"><stop offset="0.2919" stop-color="#eaeaf9"/><stop offset="0.388" stop-color="#e3e3f7"/><stop offset="0.5253" stop-color="#d0d0f2"/><stop offset="0.627" stop-color="#bebeed"/></linearGradient><filter id="luminosity-noclip-5" x="390.8094" y="157.2459" width="28.5709" height="80.041" filterUnits="userSpaceOnUse" color-interpolation-filters="sRGB"><feFlood flood-color="#fff" result="bg"/><feBlend in="SourceGraphic" in2="bg"/></filter><mask id="mask-5" x="367.9147" y="133.1124" width="28.5709" height="80.041" maskUnits="userSpaceOnUse"><g class="cls-108"><g transform="translate(-22.8947 -24.1335)"><g class="cls-3"><path class="cls-4" d="M415.656,201.2481a18.9672,18.9672,0,0,1-1.5747-9.22,23.8181,23.8181,0,0,0,.1882-3.0595,32.4321,32.4321,0,0,0-2.4-11.9626,20.5928,20.5928,0,0,1-1.6491-8.1335c.0021-.0947.0038-.19.0038-.2871,0-4.3063-2.2963-9.1347-5.1291-10.7845s-5.1287.5036-5.1287,4.81q0,.1452.0038.2909a9.7047,9.7047,0,0,1-1.6491,6.2129c-1.4908,1.9171-2.4,5.095-2.4,9.1663a29.38,29.38,0,0,0,.1879,3.2785c.348,3.0944-.2488,5.6747-1.5744,7.386-2.3139,2.987-3.7246,7.93-3.7246,14.2566,0,13.4721,6.3958,28.1187,14.2854,32.7142.2758.16.5447.2729.8164.4047.0972-3.1539.0751-6.3768-.0376-9.6472q-2.655-4.5582-5.3891-9.1629l.7484-.4518c1.5484,2.6077,3.0668,5.1977,4.5781,7.7847q-.0412-.9618-.0923-1.9264-2.84-4.8153-5.7513-9.6715l.7467-.4556q2.4741,4.1337,4.8991,8.2394c-.04-.6842-.071-1.3655-.1148-2.0514q-2.826-4.7427-5.6934-9.51l.7458-.456q2.42,4.0278,4.8123,8.0378c-.1923-2.7857-.404-5.5745-.62-8.3443-.2676-3.4136-.5364-6.8563-.7572-10.2881q-2.89-4.8562-5.7046-9.666l.7508-.4468c1.5906,2.7226,3.2163,5.4655,4.8474,8.2117-.0476-.81-.0952-1.619-.1352-2.4258l-.2125.1272q-2.858-4.8519-5.6157-9.6463l.755-.4409c1.6348,2.8464,3.3135,5.72,5.0073,8.6-.0293-.667-.0443-1.3272-.0677-1.9917-1.6971-2.9192-3.632-6.3055-5.5961-9.7945l.7583-.4354c1.6578,2.945,3.2852,5.7978,4.7752,8.3764a100.5189,100.5189,0,0,1,1.2008-20.189l.8577.16a81.146,81.146,0,0,0-1.1324,11.2717c1.7263-.9306,3.6182-1.8528,5.32-2.6768l.3773.7929c-1.8406.8922-3.9117,1.8978-5.7326,2.9-.0255.86-.0572,1.7154-.0647,2.5854,1.8773-1.1074,3.531-2.04,5.01-2.8213l.4041.78c-1.5815.8346-3.3582,1.8393-5.41,3.0579-.0012.9019-.0038,1.803.0117,2.7141,1.3076-.8,2.7028-1.6017,4.0789-2.38l.8778-.4977.4278.7671-.8789.4981c-1.5214.8607-3.0811,1.7488-4.49,2.6287.1123,4.9334.4328,9.9753.8084,15.0012,1.488-1.075,2.9813-2.1462,4.4969-3.2048l.4971.7242q-2.4855,1.7345-4.9147,3.5017l-.0008-.0009q.102,1.3422.2066,2.68c1.4424-1.051,2.8849-2.1008,4.3407-3.142l.505.7171q-2.3978,1.7174-4.7663,3.45c.0112.144.022.2893.0333.4333.0664.8476.131,1.7.1966,2.5508l4.4376-3.2308.51.7149-4.8636,3.54-.005-.0072c.1661,2.1652.3259,4.3333.4666,6.5l.0563.0939-.0475.0295q.246,3.8162.3756,7.5919c.0647.1111.1327.224.197.3355l-.1819.108c.1113,3.3373.1273,6.6275.0175,9.8466,7.0986,2.7164,12.61-4.364,12.61-16.8659A50.5029,50.5029,0,0,0,415.656,201.2481Z"/></g></g></g></mask><linearGradient id="Áåçûìÿííûé_ãðàäèåíò_155" x1="405.0949" y1="224.9611" x2="405.0949" y2="151.7908" xlink:href="#Áåçûìÿííûé_ãðàäèåíò_160"/><linearGradient id="Áåçûìÿííûé_ãðàäèåíò_35-2" x1="214.8496" y1="190.7914" x2="239.383" y2="190.7914" xlink:href="#Áåçûìÿííûé_ãðàäèåíò_35"/><filter id="luminosity-noclip-6" x="222.7291" y="140.3543" width="13.668" height="38.2909" filterUnits="userSpaceOnUse" color-interpolation-filters="sRGB"><feFlood flood-color="#fff" result="bg"/><feBlend in="SourceGraphic" in2="bg"/></filter><mask id="mask-6" x="199.8344" y="116.2208" width="13.668" height="38.2909" maskUnits="userSpaceOnUse"><g class="cls-107"><g transform="translate(-22.8947 -24.1335)"><g class="cls-5"><path class="cls-6" d="M234.6154,161.4045a9.0743,9.0743,0,0,1-.7533-4.4108,11.3731,11.3731,0,0,0,.09-1.4637,15.5154,15.5154,0,0,0-1.1482-5.7228,9.85,9.85,0,0,1-.7888-3.8909c.001-.0453.0018-.0911.0018-.1374,0-2.06-1.0986-4.37-2.4538-5.1592s-2.4535.241-2.4535,2.301c0,.0463,0,.0927.0018.1392a4.6424,4.6424,0,0,1-.7889,2.9722,7.2556,7.2556,0,0,0-1.1484,4.3851,14.04,14.04,0,0,0,.09,1.5683,4.853,4.853,0,0,1-.7532,3.5335c-1.107,1.4289-1.7818,3.7934-1.7818,6.82,0,6.445,3.06,13.4518,6.834,15.65.132.0767.2606.1305.3905.1935.0466-1.5087.036-3.05-.018-4.6151q-1.27-2.1806-2.578-4.3834l.358-.2162c.7407,1.2475,1.4671,2.4865,2.19,3.7242q-.02-.46-.0441-.9216-1.3589-2.3036-2.7515-4.6268l.3573-.2179q1.1835,1.9776,2.3437,3.9417c-.019-.3274-.034-.6533-.055-.9814q-1.3518-2.269-2.7236-4.5495l.3568-.2181q1.1579,1.9269,2.3022,3.8453c-.0921-1.3328-.1934-2.6669-.2969-3.9919-.128-1.6331-.2566-3.28-.3622-4.9217q-1.3825-2.3234-2.729-4.6242l.3591-.2137c.7609,1.3025,1.5386,2.6146,2.319,3.9284-.0228-.3874-.0455-.7745-.0648-1.16l-.1016.0609q-1.3672-2.3214-2.6865-4.6148l.3613-.2109c.782,1.3617,1.585,2.7364,2.3954,4.1144-.0141-.3191-.0213-.635-.0324-.9529-.8118-1.3965-1.7375-3.0164-2.6772-4.6856l.3629-.2082c.793,1.4088,1.5715,2.7736,2.2843,4.0072a48.0824,48.0824,0,0,1,.5745-9.6583l.41.0763a38.8575,38.8575,0,0,0-.5416,5.3922c.8258-.4451,1.7309-.8862,2.5452-1.2805l.18.3794c-.8805.4268-1.8712.9078-2.7424,1.3874-.0121.4113-.0273.8207-.031,1.2369.8982-.53,1.6892-.9762,2.3971-1.35l.1933.3731c-.7566.3993-1.6065.88-2.5882,1.4629-.0005.4314-.0018.8625.0057,1.2984.6255-.3829,1.293-.7663,1.9513-1.1387l.42-.2381.2047.367-.4206.2383c-.7278.4117-1.4739.8365-2.148,1.2576.0537,2.36.2071,4.772.3868,7.1764.7118-.5143,1.4262-1.0268,2.1512-1.5332l.2378.3465q-1.1889.83-2.3511,1.6751l0,0q.0489.642.0989,1.2819c.69-.5028,1.38-1.005,2.0765-1.5031l.2416.3431q-1.1471.8216-2.28,1.6506l.016.2072c.0317.4055.0627.8134.0941,1.22l2.1228-1.5456.2438.3421-2.3268,1.6934-.0023-.0034c.0795,1.0358.1559,2.0729.2232,3.11l.0269.0449-.0227.0141q.1176,1.8255.18,3.6319c.0309.0531.0635.1072.0942.16l-.087.0516c.0533,1.5966.0608,3.1706.0083,4.7106,3.396,1.2994,6.0324-2.0878,6.0324-8.0686A24.159,24.159,0,0,0,234.6154,161.4045Z"/></g></g></g></mask><linearGradient id="Áåçûìÿííûé_ãðàäèåíò_155-2" x1="229.5631" y1="172.7486" x2="229.5631" y2="137.7446" xlink:href="#Áåçûìÿííûé_ãðàäèåíò_160"/></defs><g class="cls-7"><g id="Ñëîé_1" data-name="Ñëîé 1"><g class="cls-8"><path class="cls-9" d="M456.3682,303.0063H39.927a17.1082,17.1082,0,0,1-17.0323-17.183V45.8787a10.8366,10.8366,0,0,1,10.7884-10.884H464.6618A10.4893,10.4893,0,0,1,475.1046,45.53V284.1041A18.82,18.82,0,0,1,456.3682,303.0063Z" transform="translate(-22.8947 -24.1335)"/><path class="cls-10" d="M456.3459,302.8577H40.026a17.0258,17.0258,0,0,1-16.95-17.1V45.9078A10.7745,10.7745,0,0,1,33.8025,35.0861H464.5746a10.4323,10.4323,0,0,1,10.386,10.478v238.514A18.6978,18.6978,0,0,1,456.3459,302.8577Z" transform="translate(-22.8947 -24.1335)"/><path class="cls-11" d="M456.3237,302.709H40.1249a16.9434,16.9434,0,0,1-16.8682-17.0176V45.937a10.7126,10.7126,0,0,1,10.6652-10.76H464.4873a10.3754,10.3754,0,0,1,10.3293,10.4208V284.0523A18.5754,18.5754,0,0,1,456.3237,302.709Z" transform="translate(-22.8947 -24.1335)"/><path class="cls-12" d="M456.3014,302.56H40.2239a16.861,16.861,0,0,1-16.7861-16.9349V45.9661A10.6507,10.6507,0,0,1,34.0412,35.2687H464.4a10.3182,10.3182,0,0,1,10.2724,10.3635V284.0264A18.4531,18.4531,0,0,1,456.3014,302.56Z" transform="translate(-22.8947 -24.1335)"/><path class="cls-13" d="M456.2791,302.4114H40.3229A16.7785,16.7785,0,0,1,23.6187,285.56V45.9953A10.589,10.589,0,0,1,34.1606,35.36H464.3128a10.2615,10.2615,0,0,1,10.2158,10.3064V284.0005A18.3307,18.3307,0,0,1,456.2791,302.4114Z" transform="translate(-22.8947 -24.1335)"/><path class="cls-14" d="M456.2569,302.2628H40.4219A16.696,16.696,0,0,1,23.8,285.4936V46.0244A10.5269,10.5269,0,0,1,34.28,35.4513H464.2256A10.2043,10.2043,0,0,1,474.3845,45.7V283.9745A18.2084,18.2084,0,0,1,456.2569,302.2628Z" transform="translate(-22.8947 -24.1335)"/><path class="cls-15" d="M456.2346,302.1141H40.5208a16.6137,16.6137,0,0,1-16.54-16.6865V46.0536a10.465,10.465,0,0,1,10.4186-10.511H464.1383a10.1473,10.1473,0,0,1,10.1022,10.1917V283.9487A18.0862,18.0862,0,0,1,456.2346,302.1141Z" transform="translate(-22.8947 -24.1335)"/><path class="cls-16" d="M456.2124,301.9653H40.62a16.5312,16.5312,0,0,1-16.4579-16.6037V46.0827A10.4031,10.4031,0,0,1,34.5188,35.634H464.051a10.09,10.09,0,0,1,10.0456,10.1344V283.9227A17.9639,17.9639,0,0,1,456.2124,301.9653Z" transform="translate(-22.8947 -24.1335)"/><path class="cls-17" d="M456.19,301.8166H40.7186a16.4489,16.4489,0,0,1-16.3759-16.5209V46.1118A10.3413,10.3413,0,0,1,34.6381,35.7252H463.9638a10.0333,10.0333,0,0,1,9.9887,10.0772V283.8969A17.8416,17.8416,0,0,1,456.19,301.8166Z" transform="translate(-22.8947 -24.1335)"/><path class="cls-18" d="M456.1679,301.6679H40.8176A16.3665,16.3665,0,0,1,24.5238,285.23V46.141A10.2793,10.2793,0,0,1,34.7575,35.8165h429.119a9.9762,9.9762,0,0,1,9.932,10.02V283.871A17.7193,17.7193,0,0,1,456.1679,301.6679Z" transform="translate(-22.8947 -24.1335)"/><path class="cls-19" d="M456.1456,301.5192H40.9166a16.2842,16.2842,0,0,1-16.2119-16.3555V46.17A10.2175,10.2175,0,0,1,34.8769,35.9078H463.7893a9.9194,9.9194,0,0,1,9.8753,9.9627V283.8451A17.5971,17.5971,0,0,1,456.1456,301.5192Z" transform="translate(-22.8947 -24.1335)"/><path class="cls-20" d="M456.1234,301.3705H41.0155a16.2016,16.2016,0,0,1-16.13-16.2727V46.1992a10.1555,10.1555,0,0,1,10.11-10.2H463.702a9.8623,9.8623,0,0,1,9.8185,9.9055V283.8192A17.4748,17.4748,0,0,1,456.1234,301.3705Z" transform="translate(-22.8947 -24.1335)"/><path class="cls-21" d="M456.1011,301.2217H41.1144a16.1193,16.1193,0,0,1-16.0477-16.19V46.2283A10.0937,10.0937,0,0,1,35.1156,36.0905H463.6148a9.8051,9.8051,0,0,1,9.7617,9.8482V283.7933A17.3524,17.3524,0,0,1,456.1011,301.2217Z" transform="translate(-22.8947 -24.1335)"/><path class="cls-22" d="M456.0789,301.0731H41.2135a16.0369,16.0369,0,0,1-15.9657-16.1072V46.2575A10.0317,10.0317,0,0,1,35.235,36.1818H463.5276a9.7482,9.7482,0,0,1,9.7049,9.7909V283.7674A17.23,17.23,0,0,1,456.0789,301.0731Z" transform="translate(-22.8947 -24.1335)"/><path class="cls-23" d="M456.0566,300.9243H41.3124A15.9544,15.9544,0,0,1,25.4288,284.9V46.2866a9.97,9.97,0,0,1,9.9256-10.0135H463.44a9.6912,9.6912,0,0,1,9.6483,9.7336V283.7415A17.1078,17.1078,0,0,1,456.0566,300.9243Z" transform="translate(-22.8947 -24.1335)"/><path class="cls-24" d="M456.0343,300.7756H41.4114A15.872,15.872,0,0,1,25.61,284.8341V46.3158a9.908,9.908,0,0,1,9.864-9.9514H463.353a9.6342,9.6342,0,0,1,9.5915,9.6764V283.7156A16.9856,16.9856,0,0,1,456.0343,300.7756Z" transform="translate(-22.8947 -24.1335)"/><path class="cls-25" d="M456.012,300.6269H41.51a15.79,15.79,0,0,1-15.7195-15.8588V46.345a9.8461,9.8461,0,0,1,9.8023-9.8893H463.2657a9.5773,9.5773,0,0,1,9.5348,9.6192V283.69A16.8633,16.8633,0,0,1,456.012,300.6269Z" transform="translate(-22.8947 -24.1335)"/><path class="cls-26" d="M455.99,300.4782H41.6092a15.7073,15.7073,0,0,1-15.6375-15.776V46.3741a9.7843,9.7843,0,0,1,9.7409-9.8271h427.466a9.52,9.52,0,0,1,9.4778,9.562V283.6638A16.741,16.741,0,0,1,455.99,300.4782Z" transform="translate(-22.8947 -24.1335)"/><path class="cls-27" d="M455.9675,300.3294H41.7082a15.6248,15.6248,0,0,1-15.5555-15.6932V46.4032a9.7224,9.7224,0,0,1,9.6792-9.7649H463.0913a9.4632,9.4632,0,0,1,9.4212,9.5047V283.6379A16.6187,16.6187,0,0,1,455.9675,300.3294Z" transform="translate(-22.8947 -24.1335)"/><path class="cls-28" d="M455.9453,300.1807H41.8071a15.5424,15.5424,0,0,1-15.4734-15.61V46.4324A9.6605,9.6605,0,0,1,35.9513,36.73H463.0041a9.4062,9.4062,0,0,1,9.3644,9.4474V283.612A16.4964,16.4964,0,0,1,455.9453,300.1807Z" transform="translate(-22.8947 -24.1335)"/><path class="cls-29" d="M455.923,300.0321H41.9061a15.46,15.46,0,0,1-15.3914-15.5278V46.4615a9.5986,9.5986,0,0,1,9.556-9.6405h426.846a9.3491,9.3491,0,0,1,9.3077,9.39v237.375A16.3741,16.3741,0,0,1,455.923,300.0321Z" transform="translate(-22.8947 -24.1335)"/><path class="cls-30" d="M455.9008,299.8833H42.005a15.3776,15.3776,0,0,1-15.3093-15.4449V46.4907A9.5367,9.5367,0,0,1,36.19,36.9122H462.83a9.2922,9.2922,0,0,1,9.2509,9.333V283.56A16.2518,16.2518,0,0,1,455.9008,299.8833Z" transform="translate(-22.8947 -24.1335)"/><path class="cls-31" d="M455.8785,299.7346H42.1041a15.2951,15.2951,0,0,1-15.2273-15.3622V46.52a9.4747,9.4747,0,0,1,9.4326-9.5163H462.7423a9.2352,9.2352,0,0,1,9.1942,9.2757V283.5343A16.13,16.13,0,0,1,455.8785,299.7346Z" transform="translate(-22.8947 -24.1335)"/><path class="cls-32" d="M455.8562,299.5858H42.203a15.2128,15.2128,0,0,1-15.1453-15.2793V46.5489a9.4129,9.4129,0,0,1,9.3712-9.454H462.655a9.1781,9.1781,0,0,1,9.1374,9.2183V283.5085A16.0072,16.0072,0,0,1,455.8562,299.5858Z" transform="translate(-22.8947 -24.1335)"/><path class="cls-33" d="M455.8339,299.4372H42.3019a15.13,15.13,0,0,1-15.0631-15.1967V46.578a9.3509,9.3509,0,0,1,9.3094-9.3918h426.02a9.1211,9.1211,0,0,1,9.0806,9.1611V283.4826A15.8849,15.8849,0,0,1,455.8339,299.4372Z" transform="translate(-22.8947 -24.1335)"/><path class="cls-34" d="M455.8117,299.2884H42.4009A15.0479,15.0479,0,0,1,27.42,284.1745V46.6073a9.289,9.289,0,0,1,9.2478-9.33H462.4805a9.0643,9.0643,0,0,1,9.024,9.104V283.4567A15.7627,15.7627,0,0,1,455.8117,299.2884Z" transform="translate(-22.8947 -24.1335)"/><path class="cls-35" d="M455.7894,299.14H42.5a14.9656,14.9656,0,0,1-14.8991-15.031V46.6364a9.2272,9.2272,0,0,1,9.1862-9.2676H462.3933a9.0071,9.0071,0,0,1,8.9671,9.0466V283.4308A15.64,15.64,0,0,1,455.7894,299.14Z" transform="translate(-22.8947 -24.1335)"/><path class="cls-36" d="M455.7672,298.991H42.5988a14.8831,14.8831,0,0,1-14.8171-14.9483V46.6655A9.1653,9.1653,0,0,1,36.9064,37.46h425.4a8.95,8.95,0,0,1,8.91,8.9893V283.4049A15.5181,15.5181,0,0,1,455.7672,298.991Z" transform="translate(-22.8947 -24.1335)"/><path class="cls-37" d="M455.7449,298.8423H42.6977a14.8007,14.8007,0,0,1-14.735-14.8656V46.6947a9.1035,9.1035,0,0,1,9.063-9.1433h425.193a8.8932,8.8932,0,0,1,8.8538,8.932V283.379A15.3959,15.3959,0,0,1,455.7449,298.8423Z" transform="translate(-22.8947 -24.1335)"/><path class="cls-38" d="M455.7227,298.6936H42.7966a14.7183,14.7183,0,0,1-14.6529-14.7828V46.7238a9.0415,9.0415,0,0,1,9.0014-9.0811H462.1315a8.8361,8.8361,0,0,1,8.7969,8.8748V283.3531A15.2735,15.2735,0,0,1,455.7227,298.6936Z" transform="translate(-22.8947 -24.1335)"/><path class="cls-39" d="M455.7,298.5448H42.8956a14.6359,14.6359,0,0,1-14.5709-14.7V46.753a8.98,8.98,0,0,1,8.94-9.019h424.78a8.779,8.779,0,0,1,8.74,8.8176V283.3272A15.1512,15.1512,0,0,1,455.7,298.5448Z" transform="translate(-22.8947 -24.1335)"/><path class="cls-40" d="M455.6781,298.3962H42.9946a14.5536,14.5536,0,0,1-14.4889-14.6173V46.7821a8.9178,8.9178,0,0,1,8.8782-8.9568H461.957a8.7221,8.7221,0,0,1,8.6834,8.76V283.3013A15.029,15.029,0,0,1,455.6781,298.3962Z" transform="translate(-22.8947 -24.1335)"/><path class="cls-41" d="M455.6559,298.2474H43.0936a14.4711,14.4711,0,0,1-14.4068-14.5345V46.8112a8.8558,8.8558,0,0,1,8.8164-8.8946H461.87a8.6652,8.6652,0,0,1,8.6267,8.7031V283.2754A14.9067,14.9067,0,0,1,455.6559,298.2474Z" transform="translate(-22.8947 -24.1335)"/><path class="cls-42" d="M455.6336,298.0987H43.1925A14.3887,14.3887,0,0,1,28.8678,283.647V46.84a8.7938,8.7938,0,0,1,8.7548-8.8324h424.16a8.608,8.608,0,0,1,8.57,8.6459V283.25A14.7844,14.7844,0,0,1,455.6336,298.0987Z" transform="translate(-22.8947 -24.1335)"/><path class="cls-43" d="M455.6114,297.95H43.2914A14.3061,14.3061,0,0,1,29.0488,283.581V46.87a8.732,8.732,0,0,1,8.6932-8.77H461.6953a8.5511,8.5511,0,0,1,8.5131,8.5886V283.2236A14.662,14.662,0,0,1,455.6114,297.95Z" transform="translate(-22.8947 -24.1335)"/><path class="cls-44" d="M455.5891,297.8013H43.39A14.2239,14.2239,0,0,1,29.23,283.5152V46.8987a8.67,8.67,0,0,1,8.6317-8.7081H461.608a8.494,8.494,0,0,1,8.4564,8.5312V283.1977A14.54,14.54,0,0,1,455.5891,297.8013Z" transform="translate(-22.8947 -24.1335)"/><path class="cls-45" d="M455.5669,297.6525H43.4894a14.1414,14.1414,0,0,1-14.0787-14.2033V46.9278a8.6083,8.6083,0,0,1,8.57-8.6459h423.54a8.437,8.437,0,0,1,8.4,8.474v236.416A14.4175,14.4175,0,0,1,455.5669,297.6525Z" transform="translate(-22.8947 -24.1335)"/><path class="cls-46" d="M455.5446,297.5038H43.5883a14.059,14.059,0,0,1-13.9966-14.1206V46.957A8.5463,8.5463,0,0,1,38.1,38.3732H461.4334a8.38,8.38,0,0,1,8.343,8.4167V283.146A14.2952,14.2952,0,0,1,455.5446,297.5038Z" transform="translate(-22.8947 -24.1335)"/><path class="cls-47" d="M455.5224,297.3551H43.6872a13.9766,13.9766,0,0,1-13.9145-14.0378V46.9861A8.4845,8.4845,0,0,1,38.22,38.4644H461.3463a8.3231,8.3231,0,0,1,8.2861,8.36V283.12A14.1729,14.1729,0,0,1,455.5224,297.3551Z" transform="translate(-22.8947 -24.1335)"/><path class="cls-48" d="M455.5,297.2064H43.7862a13.8942,13.8942,0,0,1-13.8325-13.955V47.0152a8.4226,8.4226,0,0,1,8.3852-8.4594h422.92a8.266,8.266,0,0,1,8.2294,8.3022V283.0942A14.0507,14.0507,0,0,1,455.5,297.2064Z" transform="translate(-22.8947 -24.1335)"/><path class="cls-49" d="M455.4778,297.0577H43.8852a13.8118,13.8118,0,0,1-13.75-13.8723V47.0443a8.3607,8.3607,0,0,1,8.3236-8.3972H461.1718a8.2089,8.2089,0,0,1,8.1725,8.245V283.0683A13.9283,13.9283,0,0,1,455.4778,297.0577Z" transform="translate(-22.8947 -24.1335)"/><path class="cls-50" d="M455.4555,296.9089H43.9841A13.7292,13.7292,0,0,1,30.3158,283.12V47.0735a8.2986,8.2986,0,0,1,8.2618-8.3351H461.0845A8.1521,8.1521,0,0,1,469.2,46.9262V283.0424A13.8061,13.8061,0,0,1,455.4555,296.9089Z" transform="translate(-22.8947 -24.1335)"/><path class="cls-51" d="M455.4333,296.76H44.0831a13.6471,13.6471,0,0,1-13.5864-13.7068V47.1026a8.2368,8.2368,0,0,1,8.2-8.2729h422.3a8.095,8.095,0,0,1,8.0592,8.13V283.0164A13.6839,13.6839,0,0,1,455.4333,296.76Z" transform="translate(-22.8947 -24.1335)"/><path class="cls-52" d="M455.411,296.6115H44.1821a13.5644,13.5644,0,0,1-13.5043-13.624V47.1318a8.175,8.175,0,0,1,8.1386-8.2109H460.91a8.038,8.038,0,0,1,8.0023,8.0733V282.9906A13.5615,13.5615,0,0,1,455.411,296.6115Z" transform="translate(-22.8947 -24.1335)"/><path class="cls-53" d="M455.3888,296.4628H44.281a13.4822,13.4822,0,0,1-13.4223-13.5412V47.1609a8.1131,8.1131,0,0,1,8.0771-8.1486H460.8227a7.9811,7.9811,0,0,1,7.9457,8.016V282.9647A13.4393,13.4393,0,0,1,455.3888,296.4628Z" transform="translate(-22.8947 -24.1335)"/><path class="cls-54" d="M455.3665,296.3141H44.38a13.4,13.4,0,0,1-13.34-13.4585V47.19a8.0512,8.0512,0,0,1,8.0154-8.0864h421.68a7.9241,7.9241,0,0,1,7.8889,7.9588V282.9388A13.3171,13.3171,0,0,1,455.3665,296.3141Z" transform="translate(-22.8947 -24.1335)"/><path class="cls-55" d="M455.3443,296.1654H44.4789A13.3174,13.3174,0,0,1,31.2207,282.79V47.2192a7.9892,7.9892,0,0,1,7.9539-8.0242H460.6482a7.8669,7.8669,0,0,1,7.8321,7.9015V282.9129A13.1947,13.1947,0,0,1,455.3443,296.1654Z" transform="translate(-22.8947 -24.1335)"/><path class="cls-56" d="M455.3219,296.0167H44.5779a13.2349,13.2349,0,0,1-13.1762-13.2929V47.2483a7.9274,7.9274,0,0,1,7.8922-7.9621H460.561a7.81,7.81,0,0,1,7.7754,7.8443V282.887A13.0725,13.0725,0,0,1,455.3219,296.0167Z" transform="translate(-22.8947 -24.1335)"/><path class="cls-57" d="M455.3,295.8679H44.6768a13.1524,13.1524,0,0,1-13.0941-13.21V47.2775a7.8655,7.8655,0,0,1,7.8306-7.9h421.06a7.753,7.753,0,0,1,7.7187,7.7869V282.8611A12.95,12.95,0,0,1,455.3,295.8679Z" transform="translate(-22.8947 -24.1335)"/><path class="cls-58" d="M455.2774,295.7192H44.7758a13.07,13.07,0,0,1-13.0121-13.1274V47.3066a7.8036,7.8036,0,0,1,7.769-7.8378H460.3864a7.6961,7.6961,0,0,1,7.6619,7.73V282.8352A12.8278,12.8278,0,0,1,455.2774,295.7192Z" transform="translate(-22.8947 -24.1335)"/><path class="cls-59" d="M455.2552,295.5705H44.8748a12.9876,12.9876,0,0,1-12.93-13.0445V47.3358A7.7417,7.7417,0,0,1,39.6521,39.56H460.2992a7.639,7.639,0,0,1,7.6051,7.6724V282.8093A12.7055,12.7055,0,0,1,455.2552,295.5705Z" transform="translate(-22.8947 -24.1335)"/><path class="cls-60" d="M455.2329,295.4217H44.9737A12.9052,12.9052,0,0,1,32.1257,282.46V47.3649a7.68,7.68,0,0,1,7.6457-7.7134H460.2119a7.5821,7.5821,0,0,1,7.5485,7.6152V282.7834A12.5833,12.5833,0,0,1,455.2329,295.4217Z" transform="translate(-22.8947 -24.1335)"/><path class="cls-61" d="M455.2107,295.273H45.0726a12.8227,12.8227,0,0,1-12.7658-12.879v-235a7.6178,7.6178,0,0,1,7.5841-7.6513H460.1247a7.5249,7.5249,0,0,1,7.4916,7.5579V282.7575A12.4609,12.4609,0,0,1,455.2107,295.273Z" transform="translate(-22.8947 -24.1335)"/><path class="cls-62" d="M455.1884,295.1243H45.1716a12.74,12.74,0,0,1-12.6839-12.7962V47.4232A7.556,7.556,0,0,1,40.01,39.8341H460.0374a7.468,7.468,0,0,1,7.4349,7.5007V282.7316A12.3387,12.3387,0,0,1,455.1884,295.1243Z" transform="translate(-22.8947 -24.1335)"/><path class="cls-63" d="M455.1662,294.9756H45.2706a12.6581,12.6581,0,0,1-12.6019-12.7135V47.4524a7.4942,7.4942,0,0,1,7.4609-7.527H459.95a7.411,7.411,0,0,1,7.3781,7.4435V282.7057A12.2164,12.2164,0,0,1,455.1662,294.9756Z" transform="translate(-22.8947 -24.1335)"/><path class="cls-64" d="M455.1439,294.8269H45.37a12.5757,12.5757,0,0,1-12.52-12.6308V47.4815a7.4323,7.4323,0,0,1,7.3992-7.4648H459.863a7.354,7.354,0,0,1,7.3213,7.3862V282.68A12.0941,12.0941,0,0,1,455.1439,294.8269Z" transform="translate(-22.8947 -24.1335)"/><path class="cls-65" d="M455.1216,294.6782H45.4684A12.4932,12.4932,0,0,1,33.0307,282.13V47.5106a7.37,7.37,0,0,1,7.3377-7.4026H459.7757a7.2969,7.2969,0,0,1,7.2646,7.3289v235.217A11.9718,11.9718,0,0,1,455.1216,294.6782Z" transform="translate(-22.8947 -24.1335)"/><path class="cls-66" d="M455.0994,294.53H45.5674a12.4109,12.4109,0,0,1-12.3557-12.4652V47.54a7.3084,7.3084,0,0,1,7.276-7.34H459.6884a7.24,7.24,0,0,1,7.2079,7.2715V282.628A11.85,11.85,0,0,1,455.0994,294.53Z" transform="translate(-22.8947 -24.1335)"/><path class="cls-67" d="M455.0771,294.3808H45.6664a12.3286,12.3286,0,0,1-12.2737-12.3825V47.5689a7.2466,7.2466,0,0,1,7.2144-7.2783h418.994a7.1829,7.1829,0,0,1,7.1511,7.2144V282.6022A11.7272,11.7272,0,0,1,455.0771,294.3808Z" transform="translate(-22.8947 -24.1335)"/><path class="cls-68" d="M455.0549,294.232H45.7654a12.246,12.246,0,0,1-12.1917-12.3V47.5981a7.1847,7.1847,0,0,1,7.1528-7.2162H459.514a7.126,7.126,0,0,1,7.0943,7.1572V282.5762A11.6049,11.6049,0,0,1,455.0549,294.232Z" transform="translate(-22.8947 -24.1335)"/><path class="cls-69" d="M455.0326,294.0832H45.8643a12.1634,12.1634,0,0,1-12.1095-12.2167V47.6272a7.1228,7.1228,0,0,1,7.0911-7.154H459.4267a7.0691,7.0691,0,0,1,7.0376,7.1V282.55A11.4826,11.4826,0,0,1,455.0326,294.0832Z" transform="translate(-22.8947 -24.1335)"/><path class="cls-70" d="M455.01,293.9346H45.9633a12.0812,12.0812,0,0,1-12.0276-12.1341V47.6563a7.0609,7.0609,0,0,1,7.03-7.0918H459.34a7.0119,7.0119,0,0,1,6.9807,7.0427V282.5245A11.36,11.36,0,0,1,455.01,293.9346Z" transform="translate(-22.8947 -24.1335)"/><path class="cls-71" d="M454.9881,293.7859H46.0622a11.9988,11.9988,0,0,1-11.9455-12.0513V47.6855a6.999,6.999,0,0,1,6.9679-7.03H459.2522a6.9549,6.9549,0,0,1,6.9241,6.9854V282.4986A11.2381,11.2381,0,0,1,454.9881,293.7859Z" transform="translate(-22.8947 -24.1335)"/><path class="cls-72" d="M454.9658,293.6372H46.1611a11.9164,11.9164,0,0,1-11.8635-11.9686V47.7147a6.9372,6.9372,0,0,1,6.9064-6.9675H459.1649a6.898,6.898,0,0,1,6.8674,6.9281V282.4727A11.1159,11.1159,0,0,1,454.9658,293.6372Z" transform="translate(-22.8947 -24.1335)"/><path class="cls-73" d="M454.9436,293.4884H46.26a11.8339,11.8339,0,0,1-11.7814-11.8857V47.7438a6.8753,6.8753,0,0,1,6.8447-6.9054H459.0777a6.8409,6.8409,0,0,1,6.81,6.8709V282.4468A10.9934,10.9934,0,0,1,454.9436,293.4884Z" transform="translate(-22.8947 -24.1335)"/><path class="cls-74" d="M454.9213,293.34H46.3591A11.7516,11.7516,0,0,1,34.66,281.5367V47.7729A6.8134,6.8134,0,0,1,41.4428,40.93H458.99a6.784,6.784,0,0,1,6.7538,6.8137V282.4208A10.8713,10.8713,0,0,1,454.9213,293.34Z" transform="translate(-22.8947 -24.1335)"/><path class="cls-75" d="M454.8991,293.191H46.458a11.6691,11.6691,0,0,1-11.6173-11.72V47.8021a6.7514,6.7514,0,0,1,6.7214-6.781H458.9032a6.7268,6.7268,0,0,1,6.697,6.7563V282.395A10.7489,10.7489,0,0,1,454.8991,293.191Z" transform="translate(-22.8947 -24.1335)"/><path class="cls-76" d="M454.8768,293.0422H46.557a11.5866,11.5866,0,0,1-11.5353-11.6374V47.8312a6.69,6.69,0,0,1,6.66-6.7188H458.8159a6.67,6.67,0,0,1,6.64,6.6991V282.3691A10.6265,10.6265,0,0,1,454.8768,293.0422Z" transform="translate(-22.8947 -24.1335)"/><path class="cls-77" d="M454.8546,292.8936H46.6559a11.5043,11.5043,0,0,1-11.4532-11.5547V47.86a6.6277,6.6277,0,0,1,6.5982-6.6567H458.7287a6.6129,6.6129,0,0,1,6.5835,6.6418V282.3432A10.5044,10.5044,0,0,1,454.8546,292.8936Z" transform="translate(-22.8947 -24.1335)"/><path class="cls-78" d="M454.8323,292.7448H46.7549a11.4219,11.4219,0,0,1-11.3712-11.4719V47.89A6.5657,6.5657,0,0,1,41.92,41.295H458.6414a6.556,6.556,0,0,1,6.5268,6.5846V282.3173A10.3821,10.3821,0,0,1,454.8323,292.7448Z" transform="translate(-22.8947 -24.1335)"/><path class="cls-79" d="M454.81,292.5961H46.8539a11.34,11.34,0,0,1-11.2892-11.3892V47.9185A6.5038,6.5038,0,0,1,42.04,41.3863H458.5541a6.4989,6.4989,0,0,1,6.47,6.5273V282.2915A10.26,10.26,0,0,1,454.81,292.5961Z" transform="translate(-22.8947 -24.1335)"/><path class="cls-80" d="M454.7877,292.4474H46.9528a11.2571,11.2571,0,0,1-11.2072-11.3063V47.9477a6.442,6.442,0,0,1,6.4134-6.47H458.4669a6.4419,6.4419,0,0,1,6.4133,6.47V282.2655A10.1375,10.1375,0,0,1,454.7877,292.4474Z" transform="translate(-22.8947 -24.1335)"/></g><path class="cls-81" d="M455.9428,24.1335H42.9309A12.13,12.13,0,0,0,30.8889,36.35V282.8249a12.8091,12.8091,0,0,0,12.7158,12.9H454.7409c7.92,0,12.9537-6.0509,12.9537-14.0856V36.0562A11.8381,11.8381,0,0,0,455.9428,24.1335Z" transform="translate(-22.8947 -24.1335)"/><path class="cls-82" d="M58.8136,101.8919H54.8348V86.7246h8.8371v3.2887H58.8136v2.8944h4.48v3.2887h-4.48Z" transform="translate(-22.8947 -24.1335)"/><path class="cls-82" d="M75.3018,101.8919l-.7367-2.8426H69.7068l-.7569,2.8426H64.5108l4.8789-15.23h5.39l4.94,15.23Zm-1.5751-6.2038-.6445-2.49q-.225-.83-.5473-2.1475t-.4244-1.8883q-.0921.5292-.3631,1.743t-1.2018,4.7827Z" transform="translate(-22.8947 -24.1335)"/><path class="cls-82" d="M87.995,89.868a2.5657,2.5657,0,0,0-2.25,1.1981,5.8491,5.8491,0,0,0-.8082,3.3043q0,4.3783,3.2834,4.3781a6.634,6.634,0,0,0,1.9228-.28,19.0883,19.0883,0,0,0,1.8718-.6744v3.465a10.2291,10.2291,0,0,1-4.2344.84,6.6481,6.6481,0,0,1-5.1911-1.9921A8.292,8.292,0,0,1,80.7841,94.35a9.3,9.3,0,0,1,.8744-4.1394,6.3118,6.3118,0,0,1,2.5164-2.7437,7.5125,7.5125,0,0,1,3.8612-.96A10.5143,10.5143,0,0,1,92.67,87.5751l-1.2378,3.2265a13.7772,13.7772,0,0,0-1.657-.6638A5.7152,5.7152,0,0,0,87.995,89.868Z" transform="translate(-22.8947 -24.1335)"/><path class="cls-82" d="M103.8084,101.8919H94.93V86.7246h8.878v3.2887H98.9705v2.386h4.48v3.2888h-4.48v2.8634h4.8379Z" transform="translate(-22.8947 -24.1335)"/><path class="cls-82" d="M58.8749,117.5919v5.5193h-4.04V107.9438H59.734q6.0963,0,6.0961,4.4816a4.4848,4.4848,0,0,1-2.5365,4.0774l4.3572,6.6084H63.0686l-3.171-5.5193Zm0-3.0812h.7569q2.1173,0,2.1174-1.8985,0-1.5661-2.0766-1.5665h-.7977Z" transform="translate(-22.8947 -24.1335)"/><path class="cls-82" d="M77.8893,123.1112h-8.878V107.9438h8.878v3.2887H73.0515v2.3861h4.48v3.2888h-4.48v2.8634h4.8378Z" transform="translate(-22.8947 -24.1335)"/><path class="cls-82" d="M87.1666,111.0873a2.566,2.566,0,0,0-2.25,1.1981,5.85,5.85,0,0,0-.8081,3.3042q0,4.3785,3.2834,4.3782a6.6368,6.6368,0,0,0,1.9227-.28,19.0993,19.0993,0,0,0,1.8719-.6744v3.465a10.2315,10.2315,0,0,1-4.2345.84,6.6479,6.6479,0,0,1-5.191-1.9921,8.2918,8.2918,0,0,1-1.8053-5.7578A9.3,9.3,0,0,1,80.83,111.43a6.3131,6.3131,0,0,1,2.5165-2.7439,7.5132,7.5132,0,0,1,3.8612-.96,10.5146,10.5146,0,0,1,4.6335,1.0683l-1.2379,3.2265a13.7475,13.7475,0,0,0-1.657-.6638A5.7167,5.7167,0,0,0,87.1666,111.0873Z" transform="translate(-22.8947 -24.1335)"/><path class="cls-82" d="M108.0941,115.5066a8.257,8.257,0,0,1-1.8513,5.82,8.3216,8.3216,0,0,1-10.8169-.01,9.9443,9.9443,0,0,1-.01-11.6142,8.3742,8.3742,0,0,1,10.837-.0154A8.2615,8.2615,0,0,1,108.0941,115.5066Zm-10.29,0q0,4.3991,3.0172,4.3989a2.58,2.58,0,0,0,2.2761-1.0687,7.857,7.857,0,0,0-.01-6.6861,2.5527,2.5527,0,0,0-2.2451-1.0842Q97.804,111.0665,97.8042,115.5066Z" transform="translate(-22.8947 -24.1335)"/><path class="cls-82" d="M116.7987,114.2307h6.454v8.1752a17.518,17.518,0,0,1-5.7791.9129,6.9293,6.9293,0,0,1-5.3442-2.0337,8.2131,8.2131,0,0,1-1.8873-5.7993,7.6793,7.6793,0,0,1,2.0662-5.7162,7.8761,7.8761,0,0,1,5.7892-2.0435,12.6427,12.6427,0,0,1,2.6646.2695,11.1762,11.1762,0,0,1,2.1837.6848l-1.2786,3.2159a7.8171,7.8171,0,0,0-3.5491-.809,3.3524,3.3524,0,0,0-2.7361,1.1672,5.0976,5.0976,0,0,0-.9668,3.3351,5.1682,5.1682,0,0,0,.8747,3.2423,3.0137,3.0137,0,0,0,2.5213,1.1151,7.3071,7.3071,0,0,0,1.657-.1762v-2.3759h-2.6695Z" transform="translate(-22.8947 -24.1335)"/><path class="cls-82" d="M140.5386,123.1112H135.24l-5.4618-10.6858h-.0921q.1941,2.5212.1942,3.8491v6.8367h-3.58V107.9438h5.2777l5.4416,10.5405h.0613q-.1434-2.2926-.143-3.683v-6.8575h3.6Z" transform="translate(-22.8947 -24.1335)"/><path class="cls-82" d="M143.771,123.1112V107.9438h4.06v15.1674Z" transform="translate(-22.8947 -24.1335)"/><path class="cls-82" d="M157.6612,123.1112h-4.0405V111.2948h-3.6513v-3.351h11.333v3.351h-3.6412Z" transform="translate(-22.8947 -24.1335)"/><path class="cls-82" d="M163.44,123.1112V107.9438h4.06v15.1674Z" transform="translate(-22.8947 -24.1335)"/><path class="cls-82" d="M184.7253,115.5066a8.257,8.257,0,0,1-1.8513,5.82,8.3216,8.3216,0,0,1-10.8169-.01,9.9445,9.9445,0,0,1-.01-11.6142,8.3743,8.3743,0,0,1,10.8371-.0154A8.2615,8.2615,0,0,1,184.7253,115.5066Zm-10.29,0q0,4.3991,3.0172,4.3989a2.58,2.58,0,0,0,2.2761-1.0687,7.857,7.857,0,0,0-.01-6.6861,2.5527,2.5527,0,0,0-2.2451-1.0842Q174.4353,111.0665,174.4354,115.5066Z" transform="translate(-22.8947 -24.1335)"/><path class="cls-82" d="M201.6637,123.1112h-5.2985l-5.4618-10.6858h-.092q.194,2.5212.1942,3.8491v6.8367h-3.58V107.9438h5.2776l5.4416,10.5405h.0614q-.1434-2.2926-.143-3.683v-6.8575h3.6Z" transform="translate(-22.8947 -24.1335)"/><path class="cls-83" d="M454.3822,57.1189,449.4343,52.1a7.1428,7.1428,0,1,0-5.85,3.0834,7.0693,7.0693,0,0,0,4.4953-1.6154l4.9017,4.9719a.9836.9836,0,0,0,1.4011,0A1.0179,1.0179,0,0,0,454.3822,57.1189ZM438.164,47.9126a5.4206,5.4206,0,1,1,5.42,5.4975A5.4652,5.4652,0,0,1,438.164,47.9126Z" transform="translate(-22.8947 -24.1335)"/><path class="cls-84" d="M377.9807,83.6427A21.2223,21.2223,0,0,0,369.05,73.3848l-49.5819-28.88a5.849,5.849,0,0,0-6.4932.3751l-9.87,5.5789a5.8446,5.8446,0,0,1,5.8788.042L358.66,79.4356a21.4244,21.4244,0,0,1,10.5964,18.42l.3014,135.1612a7.8564,7.8564,0,0,1-3.6085,6.6782l9.1572-5.2372a7.9467,7.9467,0,0,0,4.4928-7.2091V91.8178A21.43,21.43,0,0,0,377.9807,83.6427Z" transform="translate(-22.8947 -24.1335)"/><path class="cls-85" d="M303.1048,50.4589c-.0317.0182-.0637.0353-.0951.0539-.16.0945-.3136.2-.4646.3093a5.8766,5.8766,0,0,0-2.4543,4.8318l.3116,139.6764a19.589,19.589,0,0,0,9.7083,16.877l47.5561,27.7a7.9223,7.9223,0,0,0,11.8906-6.89L369.256,97.8558a21.4232,21.4232,0,0,0-10.5964-18.42l-49.676-28.9348A5.8444,5.8444,0,0,0,303.1048,50.4589Zm7.48,6.6024L356.1144,83.58a19.5949,19.5949,0,0,1,9.7117,16.8827l.2765,123.8786a7.2469,7.2469,0,0,1-10.8983,6.3148L311.618,205.2688a17.9531,17.9531,0,0,1-8.8979-15.4681l-.2855-128.0168A5.42,5.42,0,0,1,310.5851,57.0613Z" transform="translate(-22.8947 -24.1335)"/><path class="cls-86" d="M366.6515,99.23a19.8924,19.8924,0,0,0-9.8593-17.1392L310.5709,55.1684a5.5019,5.5019,0,0,0-8.2745,4.7943l.29,129.9628a18.2259,18.2259,0,0,0,9.033,15.7032l44.2489,25.7735a7.357,7.357,0,0,0,11.0639-6.4108Z" transform="translate(-22.8947 -24.1335)"/><path class="cls-87" d="M339.3543,78.4031l-6.5777-3.8313a2.4668,2.4668,0,0,1-1.0147-1.956c0-.7507.4565-1.0989,1.0147-.7739l6.5777,3.8312a2.4673,2.4673,0,0,1,1.0147,1.9561C340.369,78.38,339.9124,78.7281,339.3543,78.4031Z" transform="translate(-22.8947 -24.1335)"/><path class="cls-88" d="M360.5205,173.0577c-3.5657-12.2663-16.1371-14.7888-31.7309-18.5526-7.1519-1.727-12.2092,3.28-15.6355,10.4282a65.5653,65.5653,0,0,0-3.6785,11.8028,8.4113,8.4113,0,0,0,4.2591,9.0082l33.6586,18.1a9.3986,9.3986,0,0,0,13.3383-8.0821C361.5406,180.7376,362.4082,179.5494,360.5205,173.0577Z" transform="translate(-22.8947 -24.1335)"/><path class="cls-89" d="M348.8231,124.1037c-.0413-.52-.0669-1.0518-.1519-1.5683-.0353-.2142-.097-.3232-.174-.3688.0063-2.1763-.9484-3.9006-3.2888-5.7561a21.1063,21.1063,0,0,0-12.73-4.7729c-1.3447-.3456-2.8385-.1112-4.192-.3922-2.0779-.4317-3.4335-1.9808-5.5105-2.4146a8.836,8.836,0,0,0-2.3172-.1085c-2.17.13-4.5154.7368-5.5053,2.1425a3.7319,3.7319,0,0,0-.5964,1.9883c-.1567,2.5922,1.1853,5.7716,3.4252,8.2777.0111.0236.0018.0532.0148.0762a6.4275,6.4275,0,0,0,2.5415,2.5c4.8132,2.6294,12.5427-1.0009,17.0118,3.5458a6.3017,6.3017,0,0,1,1.64,2.51c.43,1.4418.0983,3.22,1.4814,4.1741a2.4853,2.4853,0,0,0,.37.1907,5.16,5.16,0,0,1-.1646-1.2731c0-2.0411,1.1385-3.6948,2.5431-3.6948s2.543,1.6537,2.543,3.6948c0,1.87-.96,3.4-2.201,3.6445a2.5483,2.5483,0,0,1,.1557.8254q.012.5826.0241,1.1646a11.3865,11.3865,0,0,0,2.0059-2.3615,27.7781,27.7781,0,0,0,1.8789-3.8592c.2381-.5615.4763-1.1235.6652-1.6986a13.0192,13.0192,0,0,0,.6-3.4161A23.5185,23.5185,0,0,0,348.8231,124.1037Z" transform="translate(-22.8947 -24.1335)"/><path class="cls-90" d="M343.5636,136.4986c1.241-.245,2.201-1.7744,2.201-3.6445,0-2.0411-1.1386-3.6948-2.543-3.6948s-2.5431,1.6537-2.5431,3.6948a5.16,5.16,0,0,0,.1646,1.2731,2.4853,2.4853,0,0,1-.37-.1907c-1.3831-.9537-1.0517-2.7323-1.4814-4.1741a6.3017,6.3017,0,0,0-1.64-2.51c-4.4691-4.5467-12.1986-.9164-17.0118-3.5458v9.9171c0,6.0975,5.3137,11.0813,12.177,11.8651q.0987,4.7847.1975,9.57a9.9,9.9,0,0,0-3.308.854c-2.8433,1.4068-2.4836,3.8877.8,5.5125l4.1323,2.0449c3.2834,1.6247,8.2963,1.8028,11.14.3955s2.4836-3.8877-.8-5.5125l-.6487-.3209a2.5071,2.5071,0,0,0,.1027-.7456q-.1941-9.3984-.3881-18.798-.012-.5817-.0241-1.1646A2.5483,2.5483,0,0,0,343.5636,136.4986Z" transform="translate(-22.8947 -24.1335)"/><path class="cls-85" d="M336.1682,153.5175a2.9759,2.9759,0,0,1-1.4852-.4456L318.53,143.6631c-1.9238-1.12-3.4888-4.1232-3.4888-6.6933V114.1872a3.3182,3.3182,0,0,1,1.3252-3.0059,2.4414,2.4414,0,0,1,2.5155.1718l16.1534,9.4087c1.9235,1.12,3.4888,4.123,3.4888,6.6933v22.7828a3.3178,3.3178,0,0,1-1.3252,3.0057A2.0211,2.0211,0,0,1,336.1682,153.5175Zm-1.1332-1.06a1.7814,1.7814,0,0,0,1.8116.1716,2.6561,2.6561,0,0,0,.9733-2.3908V127.4551a7.7623,7.7623,0,0,0-3.1369-6.0785L318.53,111.968a1.782,1.782,0,0,0-1.8116-.1716,2.6558,2.6558,0,0,0-.9732,2.3908V136.97a7.7626,7.7626,0,0,0,3.1367,6.0784Z" transform="translate(-22.8947 -24.1335)"/><path class="cls-85" d="M333.4634,129.8533v1.3547h.4638v-1.3547a5.5863,5.5863,0,0,0-2.2986-4.431l-1.48-.8661v.5429l1.2478.73A5.146,5.146,0,0,1,333.4634,129.8533Z" transform="translate(-22.8947 -24.1335)"/><path class="cls-85" d="M333.4634,142.5462v2.3893a1.7617,1.7617,0,0,1-.6412,1.5828,1.1686,1.1686,0,0,1-1.1936-.1135l-1.1048-.6466v.5426l.8729.511a1.9548,1.9548,0,0,0,.9785.2949,1.3251,1.3251,0,0,0,.6789-.1814,2.2,2.2,0,0,0,.8731-1.99v-2.3893Z" transform="translate(-22.8947 -24.1335)"/><path class="cls-85" d="M321.8379,140.6747l-.8521-.4988a5.1459,5.1459,0,0,1-2.0667-4.0238v-1.84h-.4638v1.84a5.5865,5.5865,0,0,0,2.2986,4.431l1.084.6345Z" transform="translate(-22.8947 -24.1335)"/><path class="cls-85" d="M318.9191,122.34v-1.27a1.7618,1.7618,0,0,1,.6412-1.5825,1.1693,1.1693,0,0,1,1.1936.1136l1.8339,1.0734v-.543l-1.602-.9374a1.6026,1.6026,0,0,0-1.6574-.1138,2.2006,2.2006,0,0,0-.8731,1.99v1.27Z" transform="translate(-22.8947 -24.1335)"/><polygon class="cls-85" points="326.914 82.845 323.209 76.097 324.927 75.244 326.932 78.894 331.51 76.004 333.212 78.869 326.914 82.845"/><path class="cls-85" d="M351.0264,113.0827c-4.95-2.8833-8.9773-9.8842-8.9773-15.6063s4.0271-8.0318,8.9773-5.1485,8.9773,9.8841,8.9773,15.6064S355.9766,115.966,351.0264,113.0827Zm0-19.4867c-4.3452-2.5309-7.88-.5035-7.88,4.5193s3.5351,11.1684,7.88,13.6993,7.88.5036,7.88-4.5194S355.3716,96.1269,351.0264,93.596Z" transform="translate(-22.8947 -24.1335)"/><path class="cls-81" d="M374.4551,111.9374c-.6436.3748-1.17-.0267-1.17-.8926v-7.5607a2.8451,2.8451,0,0,1,1.17-2.2557c.6437-.375,1.17.0267,1.17.8924v7.5608A2.845,2.845,0,0,1,374.4551,111.9374Z" transform="translate(-22.8947 -24.1335)"/><path class="cls-81" d="M374.4128,125.1139c-.6436.3749-1.17-.0267-1.17-.8925v-7.5608a2.8452,2.8452,0,0,1,1.17-2.2557c.6436-.3749,1.17.0267,1.17.8925v7.5607A2.8453,2.8453,0,0,1,374.4128,125.1139Z" transform="translate(-22.8947 -24.1335)"/><path class="cls-90" d="M289.2769,161.7087c-.7354,3.2712-2.222,10.0743-2.7674,12.5733l.8616-.4663-.8616.4663c-.13.5959-.2071.95-.2071.95s-.119-.2536-.3147-.6672l-4.4137,2.3895q1.6464,2.88,3.2926,5.76c1.1564,2.0232,4.547,1.716,5.0835-.67,1.4249-6.3392,2.1895-12.71,3.6145-19.0493C294.3551,159.4782,290.07,158.1827,289.2769,161.7087Z" transform="translate(-22.8947 -24.1335)"/><path class="cls-90" d="M293.7519,156.7019a2.17,2.17,0,0,0-2.9608.8358l-1.4485,2.5968a2.21,2.21,0,0,0,.8286,2.9872,2.17,2.17,0,0,0,2.9608-.8359l1.4484-2.5968A2.21,2.21,0,0,0,293.7519,156.7019Z" transform="translate(-22.8947 -24.1335)"/><path class="cls-85" d="M292.3149,160.895l-3.2109-1.37c-.1977-.0844-.2339-.4841-.0809-.8927l3.8328-10.2386c.153-.4087.4372-.6717.6349-.5873l3.2109,1.37c.1977.0844.2339.484.0809.8927L292.95,160.3077C292.7969,160.7165,292.5126,160.9794,292.3149,160.895Z" transform="translate(-22.8947 -24.1335)"/><path class="cls-86" d="M292.377,160.2146l-2.8735-1.2261c-.1878-.08-.2222-.46-.0769-.8481l3.479-9.2936c.1453-.3883.4154-.638.6032-.5579l2.8734,1.2261c.1879.08.2223.46.0769.8481l-3.479,9.2935C292.8348,160.0449,292.5647,160.2948,292.377,160.2146Z" transform="translate(-22.8947 -24.1335)"/><g class="cls-91"><path class="cls-92" d="M294.97,149.456a.2056.2056,0,0,0-.1667-.093c-.0112.0021-15.203-7.0935-15.203-7.0935-.5635-.5567-.6758-.2525-6.6058,3.2013a2.9174,2.9174,0,0,0-1.2074,2.3167c0,8.1049.6867,7.6593,1.7677,7.6593l21.1909-5.6823a.1981.1981,0,0,0,.0576.0117.2058.2058,0,0,0,.2049-.2067A.2015.2015,0,0,0,294.97,149.456Z" transform="translate(-22.8947 -24.1335)"/></g><path class="cls-93" d="M331.3871,87.69a1.4011,1.4011,0,0,1-.6237-1.0982c.003-.4007.2872-.5585.6349-.3523a1.4009,1.4009,0,0,1,.6237,1.0982C332.0189,87.7385,331.7347,87.8962,331.3871,87.69Z" transform="translate(-22.8947 -24.1335)"/><path class="cls-93" d="M331.3584,91.4546a1.4009,1.4009,0,0,1-.6238-1.0983c.003-.4.2872-.5584.6349-.3522a1.4015,1.4015,0,0,1,.6237,1.0982C331.99,91.5029,331.706,91.6606,331.3584,91.4546Z" transform="translate(-22.8947 -24.1335)"/><path class="cls-93" d="M331.33,95.22a1.4011,1.4011,0,0,1-.6238-1.0983c.0031-.4007.2873-.5584.6349-.3523a1.4009,1.4009,0,0,1,.6237,1.0982C331.9614,95.2677,331.6773,95.4255,331.33,95.22Z" transform="translate(-22.8947 -24.1335)"/><path class="cls-93" d="M331.3009,98.9839a1.4011,1.4011,0,0,1-.6239-1.0984c.0031-.4006.2873-.5583.6349-.3522a1.4009,1.4009,0,0,1,.6238,1.0982C331.9327,99.0321,331.6485,99.19,331.3009,98.9839Z" transform="translate(-22.8947 -24.1335)"/><polygon class="cls-93" points="303.213 59.352 293.2 53.417 293.186 55.233 303.199 61.167 303.213 59.352"/><polygon class="cls-93" points="303.186 62.9 293.173 56.966 293.159 58.781 303.172 64.715 303.186 62.9"/><polygon class="cls-93" points="303.132 69.995 287.981 61.016 287.967 62.831 303.118 71.811 303.132 69.995"/><polygon class="cls-93" points="288.062 50.372 288.048 52.188 291.611 54.299 291.625 52.484 288.062 50.372"/><polygon class="cls-93" points="288.035 53.92 288.021 55.736 291.584 57.847 291.598 56.032 288.035 53.92"/><path class="cls-90" d="M277.2445,148.5833c-.3517.2154-.7154.4213-1.0775.6292v1.2215a.5344.5344,0,0,1-.5792.4691.6546.6546,0,0,1-.3386-.0971,2.3546,2.3546,0,0,0,.034-.3826c0-.8846-.4784-1.6013-1.0687-1.6013s-1.0688.7167-1.0688,1.6013a2.013,2.013,0,0,0,.3532,1.1819,18.138,18.138,0,0,1-1.0934,1.9689,2.6324,2.6324,0,0,1-2.942,1.091,2.486,2.486,0,0,1-.5169-.3318q.0754,3.0258.151,6.052c.038,1.5257,4.6188,1.53,4.5808,0l-.1233-4.9385c3.1708-.2363,5.6546-2.3943,5.6546-5.024V146.51A5.85,5.85,0,0,1,277.2445,148.5833Z" transform="translate(-22.8947 -24.1335)"/><path class="cls-94" d="M269.4635,154.6652a2.6324,2.6324,0,0,0,2.942-1.091,18.138,18.138,0,0,0,1.0934-1.9689,2.013,2.013,0,0,1-.3532-1.1819c0-.8846.4786-1.6013,1.0688-1.6013s1.0687.7167,1.0687,1.6013a2.3546,2.3546,0,0,1-.034.3826.6517.6517,0,0,0,.335.0971.5357.5357,0,0,0,.5828-.4691v-1.2215c.3621-.2079.7258-.4138,1.0775-.6292A5.85,5.85,0,0,0,279.21,146.51a3.5717,3.5717,0,0,0,.37-.9895,4.0043,4.0043,0,0,0,.7916-2.3779,1.295,1.295,0,0,0-.1963-.6747,2.4143,2.4143,0,0,0-1.8116-.727,2.8215,2.8215,0,0,0-.7625.0366,6.3852,6.3852,0,0,0-1.3695.6618c-3.1382-.6-7.7992-.3219-9.088,1.5944-2.2816,3.3922-.1642,8.7418,1.803,10.3A2.486,2.486,0,0,0,269.4635,154.6652Z" transform="translate(-22.8947 -24.1335)"/><path class="cls-90" d="M267.1479,195.7334q-5.5924-11.2641-11.1849-22.5287-.5953.6-1.19,1.2.3543-1.0857.7084-2.1709.2411.4857.4821.971.5388-.5427,1.0776-1.086l-4.0083-3.0412q-1.0776,1.0859-2.1553,2.1719a1.9668,1.9668,0,0,0-.7084,2.1707q5.8335,11.7493,11.667,23.4994C263.1418,199.5505,268.4726,198.4015,267.1479,195.7334Z" transform="translate(-22.8947 -24.1335)"/><path class="cls-81" d="M258.8758,170.2694l-3.8-3.2509-2.0431,2.059,4.0083,3.0412Q257.9582,171.1941,258.8758,170.2694Z" transform="translate(-22.8947 -24.1335)"/><path class="cls-90" d="M254.7725,174.4046q.5953-.6,1.19-1.2-.2411-.4851-.4821-.971Q255.1268,173.3194,254.7725,174.4046Z" transform="translate(-22.8947 -24.1335)"/><path class="cls-95" d="M283.1694,263.89a8.455,8.455,0,0,0-6.2562.21l-2.4316,1.1371c-1.844.8623-2.0461,2.1788-.4492,2.9255a8.4545,8.4545,0,0,0,6.2562-.21l2.4316-1.1371C284.5642,265.9535,284.7663,264.637,283.1694,263.89Z" transform="translate(-22.8947 -24.1335)"/><path class="cls-95" d="M273.1606,256.6024a8.4544,8.4544,0,0,0-6.256.21l-2.4317,1.1371c-1.8439.8623-2.0461,2.1787-.4492,2.9254a8.454,8.454,0,0,0,6.2562-.21l2.4316-1.1371C274.5554,258.6656,274.7576,257.3492,273.1606,256.6024Z" transform="translate(-22.8947 -24.1335)"/><path class="cls-96" d="M281.1671,203.552c.2906-4.592-8.5247-4.579-8.8146,0-.1136,1.7951-.1789,3.59-.2776,5.3839l-4.2607-1.9928c-.1508-2.6736-.2951-5.3474-.455-8.0211-.2736-4.5729-9.09-4.6-8.8146,0,1.1485,19.1978,2.0947,38.3918,2.4053,57.6116.0742,4.5905,8.8889,4.6026,8.8145,0-.238-14.7221-.8518-29.43-1.6407-44.1351l3.6839,1.7229c-.7744,16.5507-.934,33.0892-.3178,49.6627.17,4.5835,8.9855,4.6033,8.8143,0A599.5943,599.5943,0,0,1,281.1671,203.552Z" transform="translate(-22.8947 -24.1335)"/><path class="cls-97" d="M280.6343,211.8317h-.1609a.6127.6127,0,0,1-.6083-.6135V209.545a.6128.6128,0,0,1,.6083-.6135h.1609a.6126.6126,0,0,1,.6081.6135v1.6732A.6125.6125,0,0,1,280.6343,211.8317Z" transform="translate(-22.8947 -24.1335)"/><path class="cls-98" d="M281.6026,204.3171c-.041-.4885-.0242-19.3789-.0107-30.4854l3.2-1.7673c-1.0533-2.1812-2.4158-4.9418-3.26-6.42a3.0613,3.0613,0,0,0-.409-.5593c-.0579-.0591-.1183-.1142-.1735-.1782a12.7047,12.7047,0,0,0-6.1138-4.9922c.017-.0351.0511-.0609.0649-.0974a1.43,1.43,0,0,0-1.1952-1.8079l-4.0426-.9913a1.8965,1.8965,0,0,0-2.2323.9684,1.1058,1.1058,0,0,0-.0271.2348c-.4834-.0189-.9679-.0616-1.4484-.0448a6,6,0,0,0-4.7715,2.6866q-3.0539,3.0781-6.1079,6.1553l3.3044,2.8263v31.4841c.8326,3.5052,3.4139,5.2495,13.8282,9.6916a15.1789,15.1789,0,0,0,5.4238,1.22c1.882.0576,2.618-.94,3.6661-2.2415.698-.8674.4769-3.708.3059-5.6819Z" transform="translate(-22.8947 -24.1335)"/><path class="cls-81" d="M284.7924,172.0644l-4.57,2.5239q.676,1.1827,1.3521,2.3657l4.4137-2.3895C285.7157,173.99,285.2911,173.097,284.7924,172.0644Z" transform="translate(-22.8947 -24.1335)"/><path class="cls-99" d="M439.4151,258.215,418.08,245.7217a6.7546,6.7546,0,0,0-6.82-.0078L383.9341,261.63l24.0207,14.3811h10.329l21.1913-13.1659A2.71,2.71,0,0,0,439.4151,258.215Z" transform="translate(-22.8947 -24.1335)"/><path class="cls-100" d="M383.4024,249.2674v12.317a1.7772,1.7772,0,0,0,.8865,1.546l20.8165,12.1248a6.1014,6.1014,0,0,0,6.1487,0l20.7476-12.0847a1.7066,1.7066,0,0,0,.8462-1.5861h.1286v-12.317Z" transform="translate(-22.8947 -24.1335)"/><path class="cls-85" d="M405.2074,262.8069,384.3906,250.682a1.7927,1.7927,0,0,1,0-3.0911L405.32,235.4a5.5487,5.5487,0,0,1,5.5909,0l21.1922,12.3437a1.7273,1.7273,0,0,1,0,2.9785l-20.7476,12.0847A6.1016,6.1016,0,0,1,405.2074,262.8069Z" transform="translate(-22.8947 -24.1335)"/><g class="cls-101"><path class="cls-102" d="M415.656,201.2481a18.9672,18.9672,0,0,1-1.5747-9.22,23.8181,23.8181,0,0,0,.1882-3.0595,32.4321,32.4321,0,0,0-2.4-11.9626,20.5928,20.5928,0,0,1-1.6491-8.1335c.0021-.0947.0038-.19.0038-.2871,0-4.3063-2.2963-9.1347-5.1291-10.7845s-5.1287.5036-5.1287,4.81q0,.1452.0038.2909a9.7047,9.7047,0,0,1-1.6491,6.2129c-1.4908,1.9171-2.4,5.095-2.4,9.1663a29.38,29.38,0,0,0,.1879,3.2785c.348,3.0944-.2488,5.6747-1.5744,7.386-2.3139,2.987-3.7246,7.93-3.7246,14.2566,0,13.4721,6.3958,28.1187,14.2854,32.7142.2758.16.5447.2729.8164.4047.0972-3.1539.0751-6.3768-.0376-9.6472q-2.655-4.5582-5.3891-9.1629l.7484-.4518c1.5484,2.6077,3.0668,5.1977,4.5781,7.7847q-.0412-.9618-.0923-1.9264-2.84-4.8153-5.7513-9.6715l.7467-.4556q2.4741,4.1337,4.8991,8.2394c-.04-.6842-.071-1.3655-.1148-2.0514q-2.826-4.7427-5.6934-9.51l.7458-.456q2.42,4.0278,4.8123,8.0378c-.1923-2.7857-.404-5.5745-.62-8.3443-.2676-3.4136-.5364-6.8563-.7572-10.2881q-2.89-4.8562-5.7046-9.666l.7508-.4468c1.5906,2.7226,3.2163,5.4655,4.8474,8.2117-.0476-.81-.0952-1.619-.1352-2.4258l-.2125.1272q-2.858-4.8519-5.6157-9.6463l.755-.4409c1.6348,2.8464,3.3135,5.72,5.0073,8.6-.0293-.667-.0443-1.3272-.0677-1.9917-1.6971-2.9192-3.632-6.3055-5.5961-9.7945l.7583-.4354c1.6578,2.945,3.2852,5.7978,4.7752,8.3764a100.5189,100.5189,0,0,1,1.2008-20.189l.8577.16a81.146,81.146,0,0,0-1.1324,11.2717c1.7263-.9306,3.6182-1.8528,5.32-2.6768l.3773.7929c-1.8406.8922-3.9117,1.8978-5.7326,2.9-.0255.86-.0572,1.7154-.0647,2.5854,1.8773-1.1074,3.531-2.04,5.01-2.8213l.4041.78c-1.5815.8346-3.3582,1.8393-5.41,3.0579-.0012.9019-.0038,1.803.0117,2.7141,1.3076-.8,2.7028-1.6017,4.0789-2.38l.8778-.4977.4278.7671-.8789.4981c-1.5214.8607-3.0811,1.7488-4.49,2.6287.1123,4.9334.4328,9.9753.8084,15.0012,1.488-1.075,2.9813-2.1462,4.4969-3.2048l.4971.7242q-2.4855,1.7345-4.9147,3.5017.1008,1.3409.2058,2.6788c1.4424-1.051,2.8849-2.1008,4.3407-3.142l.505.7171q-2.3978,1.7174-4.7663,3.45c.0112.144.022.2893.0333.4333.0664.8476.131,1.7.1966,2.5508l4.4376-3.2308.51.7149-4.8636,3.54c.1611,2.158.3209,4.3261.4616,6.4933l.0563.0939-.0475.0295q.246,3.8162.3756,7.5919c.0647.1111.1327.224.197.3355l-.1819.108c.1113,3.3373.1273,6.6275.0175,9.8466,7.0986,2.7164,12.61-4.364,12.61-16.8659A50.5029,50.5029,0,0,0,415.656,201.2481Z" transform="translate(-22.8947 -24.1335)"/></g><path class="cls-81" d="M406.7531,226.8632l.1819-.108c-.0643-.1115-.1323-.2244-.197-.3355q-.1352-3.7752-.3756-7.5919l.0475-.0295-.0563-.0939c-.1407-2.1672-.3-4.3353-.4666-6.5.005.0072,4.8686-3.5328,4.8686-3.5328l-.51-.7149-4.4376,3.2308c-.0656-.8505-.13-1.7032-.1966-2.5508-.0113-.144-.0221-.2893-.0333-.4333q2.3745-1.7305,4.7663-3.45l-.505-.7171c-1.4558,1.0412-2.8983,2.091-4.3407,3.142q-.1038-1.3383-.2066-2.68c1.6248-1.1757,3.2585-2.3445,4.9155-3.5008l-.4971-.7242c-1.5156,1.0586-3.0089,2.13-4.4969,3.2048-.3756-5.0259-.6961-10.0678-.8084-15.0012,1.4091-.88,2.9688-1.768,4.49-2.6287l.8789-.4981-.4278-.7671-.8778.4977c-1.3761.7785-2.7713,1.58-4.0789,2.38-.0155-.9111-.0129-1.8122-.0117-2.7141,2.0518-1.2186,3.8285-2.2233,5.41-3.0579l-.4041-.78c-1.48.7808-3.1332,1.7139-5.01,2.8213.0075-.87.0392-1.7256.0647-2.5854,1.8209-1.0025,3.892-2.0081,5.7326-2.9l-.3773-.7929c-1.7021.824-3.594,1.7462-5.32,2.6768a81.146,81.146,0,0,1,1.1324-11.2717l-.8577-.16a100.5189,100.5189,0,0,0-1.2008,20.189c-1.49-2.5786-3.1174-5.4314-4.7752-8.3764l-.7583.4354c1.9641,3.489,3.899,6.8753,5.5961,9.7945.0234.6645.0384,1.3247.0677,1.9917-1.6938-2.8805-3.3725-5.754-5.0073-8.6l-.755.4409q2.7509,4.79,5.6157,9.6463l.2125-.1272c.04.8068.0876,1.6161.1352,2.4258-1.6311-2.7462-3.2568-5.4891-4.8474-8.2117l-.7508.4468q2.8077,4.8059,5.7046,9.666c.2208,3.4318.49,6.8745.7572,10.2881.2165,2.77.4282,5.5586.62,8.3443q-2.3946-4.0119-4.8123-8.0378l-.7458.456q2.8636,4.7661,5.6934,9.51c.0438.6859.0751,1.3672.1148,2.0514q-2.43-4.1085-4.8991-8.2394l-.7467.4556q2.9048,4.8525,5.7513,9.6715.05.9651.0923,1.9264c-1.5113-2.587-3.03-5.177-4.5781-7.7847l-.7484.4518q2.7339,4.6044,5.3891,9.1629c.1127,3.27.1348,6.4933.0376,9.6472a82.9288,82.9288,0,0,1-1.1628,12.1626l.8577.16a83.11,83.11,0,0,0,1.1645-11.9332C406.88,233.4907,406.8644,230.2005,406.7531,226.8632Z" transform="translate(-22.8947 -24.1335)"/><path class="cls-99" d="M245.9816,188.6569,235.775,182.68a3.231,3.231,0,0,0-3.2626-.0037L219.44,190.2907l11.4912,6.88h4.9413L246.01,190.872A1.2964,1.2964,0,0,0,245.9816,188.6569Z" transform="translate(-22.8947 -24.1335)"/><path class="cls-103" d="M219.1857,184.3765v5.8923a.85.85,0,0,0,.424.74l9.9585,5.8a2.919,2.919,0,0,0,2.9414,0l9.9255-5.7812a.8162.8162,0,0,0,.4048-.7588h.0615v-5.8923Z" transform="translate(-22.8947 -24.1335)"/><path class="cls-85" d="M229.6169,190.8537l-9.9585-5.8a.8575.8575,0,0,1,0-1.4787l10.0127-5.832a2.6543,2.6543,0,0,1,2.6746,0l10.1381,5.9051a.8263.8263,0,0,1,0,1.4248l-9.9255,5.7813A2.92,2.92,0,0,1,229.6169,190.8537Z" transform="translate(-22.8947 -24.1335)"/><g class="cls-104"><path class="cls-105" d="M234.6154,161.4045a9.0743,9.0743,0,0,1-.7533-4.4108,11.3731,11.3731,0,0,0,.09-1.4637,15.5154,15.5154,0,0,0-1.1482-5.7228,9.85,9.85,0,0,1-.7888-3.8909c.001-.0453.0018-.0911.0018-.1374,0-2.06-1.0986-4.37-2.4538-5.1592s-2.4535.241-2.4535,2.301c0,.0463,0,.0927.0018.1392a4.6424,4.6424,0,0,1-.7889,2.9722,7.2556,7.2556,0,0,0-1.1484,4.3851,14.04,14.04,0,0,0,.09,1.5683,4.853,4.853,0,0,1-.7532,3.5335c-1.107,1.4289-1.7818,3.7934-1.7818,6.82,0,6.445,3.06,13.4518,6.834,15.65.132.0767.2606.1305.3905.1935.0466-1.5087.036-3.05-.018-4.6151q-1.27-2.1806-2.578-4.3834l.358-.2162c.7407,1.2475,1.4671,2.4865,2.19,3.7242q-.02-.46-.0441-.9216-1.3589-2.3036-2.7515-4.6268l.3573-.2179q1.1835,1.9776,2.3437,3.9417c-.019-.3274-.034-.6533-.055-.9814q-1.3518-2.269-2.7236-4.5495l.3568-.2181q1.1579,1.9269,2.3022,3.8453c-.0921-1.3328-.1934-2.6669-.2969-3.9919-.128-1.6331-.2566-3.28-.3622-4.9217q-1.3825-2.3234-2.729-4.6242l.3591-.2137c.7609,1.3025,1.5386,2.6146,2.319,3.9284-.0228-.3874-.0455-.7745-.0648-1.16l-.1016.0609q-1.3672-2.3214-2.6865-4.6148l.3613-.2109c.782,1.3617,1.585,2.7364,2.3954,4.1144-.0141-.3191-.0213-.635-.0324-.9529-.8118-1.3965-1.7375-3.0164-2.6772-4.6856l.3629-.2082c.793,1.4088,1.5715,2.7736,2.2843,4.0072a48.0824,48.0824,0,0,1,.5745-9.6583l.41.0763a38.8575,38.8575,0,0,0-.5416,5.3922c.8258-.4451,1.7309-.8862,2.5452-1.2805l.18.3794c-.8805.4268-1.8712.9078-2.7424,1.3874-.0121.4113-.0273.8207-.031,1.2369.8982-.53,1.6892-.9762,2.3971-1.35l.1933.3731c-.7566.3993-1.6065.88-2.5882,1.4629-.0005.4314-.0018.8625.0057,1.2984.6255-.3829,1.293-.7663,1.9513-1.1387l.42-.2381.2047.367-.4206.2383c-.7278.4117-1.4739.8365-2.148,1.2576.0537,2.36.2071,4.772.3868,7.1764.7118-.5143,1.4262-1.0268,2.1512-1.5332l.2378.3465q-1.1889.83-2.3511,1.6751.0483.6414.0985,1.2815c.69-.5028,1.38-1.005,2.0765-1.5031l.2416.3431q-1.1471.8216-2.28,1.6506l.016.2072c.0317.4055.0627.8134.0941,1.22l2.1228-1.5456.2438.3421-2.3268,1.6934c.0772,1.0324.1536,2.07.2209,3.1064l.0269.0449c.0557,1.2311.1139,2.442.157,3.646.0309.0531.0635.1072.0942.16l-.087.0516c.0533,1.5966.0608,3.1706.0083,4.7106,3.396,1.2994,6.0324-2.0878,6.0324-8.0686A24.159,24.159,0,0,0,234.6154,161.4045Z" transform="translate(-22.8947 -24.1335)"/></g><path class="cls-81" d="M230.3564,173.6585l.087-.0516c-.0307-.0533-.0633-.1074-.0942-.16q-.0647-1.806-.18-3.6319a.0525.0525,0,0,0-.0042-.059c-.0673-1.0369-.1437-2.074-.2232-3.11l2.3291-1.69-.2438-.3421-2.1228,1.5456c-.0314-.4069-.0624-.8148-.0941-1.22l-.016-.2072q1.1361-.828,2.28-1.6506l-.2416-.3431c-.6965.4981-1.3865,1-2.0765,1.5031q-.05-.64-.0989-1.2819c.7774-.5624,1.5589-1.1216,2.3515-1.6747l-.2378-.3465c-.725.5064-1.4394,1.0189-2.1512,1.5332-.18-2.4044-.3331-4.8165-.3868-7.1764.6741-.4211,1.42-.8459,2.148-1.2576l.4206-.2383-.2047-.367-.42.2381c-.6583.3724-1.3258.7558-1.9513,1.1387-.0075-.4359-.0062-.867-.0057-1.2984.9817-.583,1.8316-1.0636,2.5882-1.4629l-.1933-.3731c-.7079.3735-1.4989.82-2.3971,1.35.0037-.4162.0189-.8256.031-1.2369.8712-.48,1.8619-.9606,2.7424-1.3874l-.18-.3794c-.8143.3943-1.7194.8354-2.5452,1.2805a38.8575,38.8575,0,0,1,.5416-5.3922l-.41-.0763a48.0824,48.0824,0,0,0-.5745,9.6583c-.7128-1.2336-1.4913-2.5984-2.2843-4.0072l-.3629.2082c.94,1.6692,1.8654,3.2891,2.6772,4.6856.0111.3179.0183.6338.0324.9529-.81-1.378-1.6134-2.7527-2.3954-4.1144l-.3613.2109q1.3159,2.2912,2.6865,4.6148l.1016-.0609c.0193.386.042.7731.0648,1.16-.78-1.3138-1.5581-2.6259-2.319-3.9284l-.3591.2137q1.3433,2.299,2.729,4.6242c.1056,1.6417.2342,3.2886.3622,4.9217.1035,1.325.2048,2.6591.2969,3.9919q-1.1455-1.9194-2.3022-3.8453l-.3568.2181q1.37,2.28,2.7236,4.5495c.021.3281.036.654.055.9814q-1.1624-1.9654-2.3437-3.9417l-.3573.2179q1.39,2.3216,2.7515,4.6268.0237.4617.0441.9216c-.723-1.2377-1.4494-2.4767-2.19-3.7242l-.358.2162q1.3079,2.2027,2.578,4.3834c.054,1.5646.0646,3.1064.018,4.6151a39.6622,39.6622,0,0,1-.5562,5.8186l.41.0762a39.7332,39.7332,0,0,0,.5571-5.7086C230.4172,176.8291,230.41,175.2551,230.3564,173.6585Z" transform="translate(-22.8947 -24.1335)"/><text class="cls-106" transform="translate(26.9012 202.0152)">ROZPOZNAWANIE OBIEKTÓW <tspan x="7.8906" y="15.7813">W OBRAZACH W PYTHONIE</tspan><tspan x="23.6719" y="31.5635" xml:space="preserve"> BACKEND W DJANGO</tspan><tspan x="-3.9453" y="47.3447">FRONTEND W REACT NEXT.JS</tspan></text></g></g></svg>