<svg id="Illustration" xmlns="http://www.w3.org/2000/svg" xmlns:xlink="http://www.w3.org/1999/xlink" width="1141.6109" height="718.4242" viewBox="0 0 1141.6109 718.4242"><defs><style>.cls-1{opacity:0.24;fill:url(#linear-gradient);}.cls-2{opacity:0.5;fill:url(#linear-gradient-2);}.cls-3{fill:url(#linear-gradient-3);}.cls-4{fill:url(#linear-gradient-4);}.cls-5{fill:#f0f0f0;}.cls-6{fill:url(#linear-gradient-5);}.cls-11,.cls-7,.cls-9{opacity:0.49;}.cls-7{fill:url(#linear-gradient-6);}.cls-8{fill:url(#linear-gradient-7);}.cls-9{fill:url(#linear-gradient-8);}.cls-10{fill:url(#linear-gradient-9);}.cls-11{fill:url(#linear-gradient-10);}.cls-12{fill:url(#linear-gradient-11);}.cls-13,.cls-15,.cls-28,.cls-29,.cls-36,.cls-58{fill:#fff;}.cls-13{opacity:0.86;}.cls-14{fill:url(#linear-gradient-12);}.cls-15{opacity:0.42;}.cls-16{fill:url(#linear-gradient-13);}.cls-17{fill:url(#linear-gradient-14);}.cls-18{fill:url(#linear-gradient-15);}.cls-19{fill:url(#linear-gradient-16);}.cls-20{fill:url(#linear-gradient-17);}.cls-21{fill:url(#linear-gradient-18);}.cls-22{fill:url(#linear-gradient-19);}.cls-23{fill:url(#linear-gradient-20);}.cls-24{fill:url(#linear-gradient-21);}.cls-25{fill:url(#linear-gradient-22);}.cls-26{fill:url(#linear-gradient-23);}.cls-27{fill:url(#linear-gradient-24);}.cls-29{opacity:0.72;}.cls-30{fill:url(#linear-gradient-25);}.cls-31{fill:url(#linear-gradient-26);}.cls-32{fill:url(#linear-gradient-27);}.cls-33{fill:url(#linear-gradient-28);}.cls-34{fill:url(#linear-gradient-29);}.cls-35{fill:url(#linear-gradient-30);}.cls-36{opacity:0.62;}.cls-37{fill:url(#linear-gradient-31);}.cls-38{fill:url(#linear-gradient-32);}.cls-39{fill:url(#linear-gradient-33);}.cls-40{fill:url(#linear-gradient-34);}.cls-41{fill:url(#linear-gradient-35);}.cls-42{fill:url(#linear-gradient-36);}.cls-43{fill:url(#linear-gradient-37);}.cls-44{fill:url(#linear-gradient-38);}.cls-45{fill:url(#linear-gradient-39);}.cls-46{fill:url(#linear-gradient-40);}.cls-47{fill:url(#linear-gradient-41);}.cls-48{fill:url(#linear-gradient-42);}.cls-49{fill:url(#linear-gradient-43);}.cls-50{fill:url(#linear-gradient-44);}.cls-51{fill:url(#linear-gradient-45);}.cls-52{fill:url(#linear-gradient-46);}.cls-53{fill:url(#linear-gradient-47);}.cls-54{fill:url(#linear-gradient-48);}.cls-55{fill:url(#linear-gradient-49);}.cls-56{fill:url(#linear-gradient-50);}.cls-57{fill:url(#linear-gradient-51);}.cls-58{opacity:0.71;}.cls-59{fill:url(#linear-gradient-52);}.cls-60{fill:url(#linear-gradient-53);}.cls-61{fill:url(#linear-gradient-54);}.cls-62{fill:url(#linear-gradient-55);}.cls-63{fill:url(#linear-gradient-56);}.cls-64{fill:url(#linear-gradient-57);}.cls-65{fill:url(#linear-gradient-58);}.cls-66{fill:url(#linear-gradient-59);}.cls-67{fill:url(#linear-gradient-60);}.cls-68{fill:url(#linear-gradient-61);}.cls-69{fill:url(#linear-gradient-62);}.cls-70{fill:url(#linear-gradient-63);}.cls-71{fill:url(#linear-gradient-64);}.cls-72{fill:url(#linear-gradient-65);}.cls-73{fill:url(#linear-gradient-66);}.cls-74{fill:url(#linear-gradient-67);}.cls-75{fill:url(#linear-gradient-68);}.cls-76{fill:url(#linear-gradient-69);}.cls-77{fill:url(#linear-gradient-70);}</style><linearGradient id="linear-gradient" x1="434.3523" y1="-60.0131" x2="779.7194" y2="918.8828" gradientUnits="userSpaceOnUse"><stop offset="0" stop-color="#b37cff"/><stop offset="1" stop-color="#f895e7"/></linearGradient><linearGradient id="linear-gradient-2" x1="73.7809" y1="406.9733" x2="1141.0163" y2="406.9733" xlink:href="#linear-gradient"/><linearGradient id="linear-gradient-3" x1="2061.6599" y1="448.3897" x2="1759.8578" y2="979.0298" gradientTransform="matrix(-1, 0, 0, 1, 2222.4984, 0)" gradientUnits="userSpaceOnUse"><stop offset="0" stop-color="#a737d5"/><stop offset="1" stop-color="#ef497a"/></linearGradient><linearGradient id="linear-gradient-4" x1="1972.2854" y1="528.0723" x2="1924.0541" y2="762.0605" gradientTransform="matrix(-1, 0, 0, 1, 2222.4984, 0)" gradientUnits="userSpaceOnUse"><stop offset="0" stop-color="#2b3582"/><stop offset="1" stop-color="#150e42"/></linearGradient><linearGradient id="linear-gradient-5" x1="111.4861" y1="418.783" x2="173.2761" y2="533.0225" gradientUnits="userSpaceOnUse"><stop offset="0" stop-color="#53d8ff"/><stop offset="1" stop-color="#3840f7"/></linearGradient><linearGradient id="linear-gradient-6" x1="167.0976" y1="529.2119" x2="138.358" y2="466.7033" xlink:href="#linear-gradient-5"/><linearGradient id="linear-gradient-7" x1="207.4861" y1="477.783" x2="269.2761" y2="592.0225" xlink:href="#linear-gradient-5"/><linearGradient id="linear-gradient-8" x1="263.0976" y1="588.2119" x2="234.358" y2="525.7033" xlink:href="#linear-gradient-5"/><linearGradient id="linear-gradient-9" x1="215.4861" y1="361.783" x2="277.2761" y2="476.0225" xlink:href="#linear-gradient-5"/><linearGradient id="linear-gradient-10" x1="271.0976" y1="472.2119" x2="242.358" y2="409.7033" xlink:href="#linear-gradient-5"/><linearGradient id="linear-gradient-11" x1="1946.211" y1="-6102.9482" x2="2273.493" y2="-6102.9482" gradientTransform="matrix(-0.0816, -0.9967, -0.9525, 0.078, -4728.9192, 3134.5235)" xlink:href="#linear-gradient"/><linearGradient id="linear-gradient-12" x1="1231.4046" y1="-4199.7114" x2="1634.7291" y2="-4199.7114" gradientTransform="matrix(-0.5606, -0.8281, -0.8281, 0.5606, -1823.9645, 3972.1043)" xlink:href="#linear-gradient-3"/><linearGradient id="linear-gradient-13" x1="694.1089" y1="-9.3399" x2="502.3001" y2="826.6595" gradientUnits="userSpaceOnUse"><stop offset="0" stop-color="#cb236d"/><stop offset="1" stop-color="#4c246d"/></linearGradient><linearGradient id="linear-gradient-14" x1="598.8755" y1="822.7443" x2="535.0714" y2="505.2791" gradientUnits="userSpaceOnUse"><stop offset="0" stop-color="#f9b776"/><stop offset="1" stop-color="#f47960"/></linearGradient><linearGradient id="linear-gradient-15" x1="580.1592" y1="700.6025" x2="594.1591" y2="932.6023" gradientUnits="userSpaceOnUse"><stop offset="0" stop-color="#fdf53f"/><stop offset="1" stop-color="#d93c65"/></linearGradient><linearGradient id="linear-gradient-16" x1="553.7637" y1="573.225" x2="607.2432" y2="44.3698" xlink:href="#linear-gradient-14"/><linearGradient id="linear-gradient-17" x1="693.034" y1="604.5705" x2="748.131" y2="59.7197" xlink:href="#linear-gradient-14"/><linearGradient id="linear-gradient-18" x1="-824.2865" y1="604.5705" x2="-769.1894" y2="59.7197" gradientTransform="matrix(-1, 0, 0, 1, -358.8115, 0)" xlink:href="#linear-gradient-14"/><linearGradient id="linear-gradient-19" x1="643.7767" y1="-5.1537" x2="484.7614" y2="687.9147" xlink:href="#linear-gradient-13"/><linearGradient id="linear-gradient-20" x1="-1120.5741" y1="-2163.4914" x2="-1032.1141" y2="-2163.4914" gradientTransform="matrix(-0.9964, -0.0848, 0.0848, -0.9964, -380.2011, -1921.3429)" xlink:href="#linear-gradient-13"/><linearGradient id="linear-gradient-21" x1="627.8263" y1="-2312.2914" x2="716.2862" y2="-2312.2914" gradientTransform="matrix(0.9964, -0.0848, -0.0848, -0.9964, -215.3988, -1921.3429)" xlink:href="#linear-gradient-13"/><linearGradient id="linear-gradient-22" x1="649.9839" y1="293.4539" x2="653.2333" y2="261.3205" xlink:href="#linear-gradient-13"/><linearGradient id="linear-gradient-23" x1="-882.5549" y1="293.4539" x2="-879.3055" y2="261.3205" gradientTransform="matrix(-1, 0, 0, 1, -373, 0)" xlink:href="#linear-gradient-13"/><linearGradient id="linear-gradient-24" x1="524.5421" y1="460.6892" x2="643.2198" y2="450.5921" xlink:href="#linear-gradient-13"/><linearGradient id="linear-gradient-25" x1="153.3402" y1="424.2902" x2="137.8227" y2="439.3906" gradientTransform="translate(762.521 -31.5622) rotate(0.3781)" xlink:href="#linear-gradient-5"/><linearGradient id="linear-gradient-26" x1="148.7909" y1="426.7228" x2="128.6562" y2="457.1405" gradientTransform="translate(762.521 -31.5622) rotate(0.3781)" xlink:href="#linear-gradient-5"/><linearGradient id="linear-gradient-27" x1="153.5433" y1="455.0634" x2="138.0259" y2="470.1638" gradientTransform="translate(762.521 -31.5622) rotate(0.3781)" xlink:href="#linear-gradient-5"/><linearGradient id="linear-gradient-28" x1="148.994" y1="457.4959" x2="128.8593" y2="487.9137" gradientTransform="translate(762.521 -31.5622) rotate(0.3781)" xlink:href="#linear-gradient-5"/><linearGradient id="linear-gradient-29" x1="153.7464" y1="485.8366" x2="138.229" y2="500.937" gradientTransform="translate(762.521 -31.5622) rotate(0.3781)" xlink:href="#linear-gradient-5"/><linearGradient id="linear-gradient-30" x1="149.1971" y1="488.2692" x2="129.0625" y2="518.6868" gradientTransform="translate(762.521 -31.5622) rotate(0.3781)" xlink:href="#linear-gradient-5"/><linearGradient id="linear-gradient-31" x1="-650.2518" y1="334.594" x2="-665.7692" y2="349.6943" gradientTransform="matrix(-1, 0.0066, 0.0066, 1, -422.5731, -31.5622)" xlink:href="#linear-gradient-5"/><linearGradient id="linear-gradient-32" x1="-654.8011" y1="337.0265" x2="-674.9358" y2="367.4443" gradientTransform="matrix(-1, 0.0066, 0.0066, 1, -422.5731, -31.5622)" xlink:href="#linear-gradient-5"/><linearGradient id="linear-gradient-33" x1="-650.0486" y1="365.3671" x2="-665.5661" y2="380.4675" gradientTransform="matrix(-1, 0.0066, 0.0066, 1, -422.5731, -31.5622)" xlink:href="#linear-gradient-5"/><linearGradient id="linear-gradient-34" x1="-654.598" y1="367.7997" x2="-674.7327" y2="398.2174" gradientTransform="matrix(-1, 0.0066, 0.0066, 1, -422.5731, -31.5622)" xlink:href="#linear-gradient-5"/><linearGradient id="linear-gradient-35" x1="-649.8456" y1="396.1404" x2="-665.363" y2="411.2407" gradientTransform="matrix(-1, 0.0066, 0.0066, 1, -422.5731, -31.5622)" xlink:href="#linear-gradient-5"/><linearGradient id="linear-gradient-36" x1="-654.3949" y1="398.5729" x2="-674.5295" y2="428.9905" gradientTransform="matrix(-1, 0.0066, 0.0066, 1, -422.5731, -31.5622)" xlink:href="#linear-gradient-5"/><linearGradient id="linear-gradient-37" x1="-4575.7281" y1="473.5329" x2="-4541.0858" y2="560.4325" gradientTransform="matrix(-1, 0, 0, 1, -4349.5073, 0)" xlink:href="#linear-gradient-4"/><linearGradient id="linear-gradient-38" x1="-4603.1868" y1="527.1013" x2="-4575.0656" y2="591.0834" gradientTransform="matrix(-1, 0, 0, 1, -4349.5073, 0)" gradientUnits="userSpaceOnUse"><stop offset="0" stop-color="#c4421b"/><stop offset="1" stop-color="#5c0e16"/></linearGradient><linearGradient id="linear-gradient-39" x1="-4516.1392" y1="749.4921" x2="-4503.232" y2="749.4921" gradientTransform="matrix(-1, 0, 0, 1, -4349.5073, 0)" xlink:href="#linear-gradient-3"/><linearGradient id="linear-gradient-40" x1="-2870.6791" y1="800.3911" x2="-2852.1046" y2="583.3019" gradientTransform="matrix(-1, 0, 0, 1, -2649.5073, 0)" xlink:href="#linear-gradient-38"/><linearGradient id="linear-gradient-41" x1="-4576.1053" y1="747.1356" x2="-4555.2203" y2="747.1356" gradientTransform="matrix(-1, 0, 0, 1, -4349.5073, 0)" xlink:href="#linear-gradient-3"/><linearGradient id="linear-gradient-42" x1="-2833.3153" y1="803.6215" x2="-2814.7359" y2="586.4748" gradientTransform="matrix(-1, 0, 0, 1, -2649.5073, 0)" xlink:href="#linear-gradient-38"/><linearGradient id="linear-gradient-43" x1="-4570.2202" y1="581.4699" x2="-4560.9325" y2="667.6395" gradientTransform="matrix(-1, 0, 0, 1, -4349.5073, 0)" xlink:href="#linear-gradient-15"/><linearGradient id="linear-gradient-44" x1="-4519.0591" y1="585.7001" x2="-4565.4979" y2="660.0022" gradientTransform="matrix(-1, 0, 0, 1, -4349.5073, 0)" xlink:href="#linear-gradient-13"/><linearGradient id="linear-gradient-45" x1="-2872.7161" y1="586.4061" x2="-2869.2269" y2="560.8802" gradientTransform="matrix(-1, 0, 0, 1, -2649.5073, 0)" xlink:href="#linear-gradient-38"/><linearGradient id="linear-gradient-46" x1="194.7808" y1="618.6765" x2="212.7808" y2="545.3431" gradientTransform="matrix(1, 0, 0, 1, 0, 0)" xlink:href="#linear-gradient-38"/><linearGradient id="linear-gradient-47" x1="-4581.5229" y1="553.4955" x2="-4551.0797" y2="499.317" xlink:href="#linear-gradient-38"/><linearGradient id="linear-gradient-48" x1="-4574.9761" y1="506.3145" x2="-4559.7546" y2="544.4973" gradientTransform="matrix(-1, 0, 0, 1, -4349.5073, 0)" xlink:href="#linear-gradient-4"/><linearGradient id="linear-gradient-49" x1="-4575.0427" y1="557.1368" x2="-4544.5995" y2="502.9582" xlink:href="#linear-gradient-38"/><linearGradient id="linear-gradient-50" x1="-4608.7437" y1="529.5437" x2="-4580.6225" y2="593.5258" xlink:href="#linear-gradient-38"/><linearGradient id="linear-gradient-51" x1="-4622.2221" y1="505.8945" x2="-4615.4409" y2="505.8945" xlink:href="#linear-gradient-38"/><linearGradient id="linear-gradient-52" x1="889.8539" y1="571.2168" x2="904.121" y2="602.3379" xlink:href="#linear-gradient-15"/><linearGradient id="linear-gradient-53" x1="-1015.9752" y1="734.103" x2="-1098.3213" y2="823.6725" gradientTransform="matrix(-1, 0, 0, 1, -131.3735, 0)" xlink:href="#linear-gradient-13"/><linearGradient id="linear-gradient-54" x1="-1042.7034" y1="740.7555" x2="-1035.3892" y2="740.7555" gradientTransform="matrix(-1, 0, 0, 1, -131.3735, 0)" xlink:href="#linear-gradient-14"/><linearGradient id="linear-gradient-55" x1="-1023.0102" y1="738.4706" x2="-1068.7091" y2="617.5301" gradientTransform="matrix(-1, 0, 0, 1, -131.3735, 0)" xlink:href="#linear-gradient-4"/><linearGradient id="linear-gradient-56" x1="-1034.4481" y1="717.1198" x2="-1116.7942" y2="806.6893" gradientTransform="matrix(-1, 0, 0, 1, -131.3735, 0)" xlink:href="#linear-gradient-13"/><linearGradient id="linear-gradient-57" x1="-1069.0645" y1="740.3804" x2="-1062.7492" y2="740.3804" gradientTransform="matrix(-1, 0, 0, 1, -131.3735, 0)" xlink:href="#linear-gradient-14"/><linearGradient id="linear-gradient-58" x1="-1075.8714" y1="684.0359" x2="-1041.5365" y2="684.0359" gradientTransform="matrix(-1, 0, 0, 1, -131.3735, 0)" xlink:href="#linear-gradient-4"/><linearGradient id="linear-gradient-59" x1="912.842" y1="568.9116" x2="956.3303" y2="663.7736" xlink:href="#linear-gradient-15"/><linearGradient id="linear-gradient-60" x1="934.5887" y1="555.2383" x2="980.0885" y2="654.4881" xlink:href="#linear-gradient-15"/><linearGradient id="linear-gradient-61" x1="-1094.3735" y1="602.8628" x2="-1047.0842" y2="602.8628" gradientTransform="matrix(-1, 0, 0, 1, -131.3735, 0)" xlink:href="#linear-gradient-14"/><linearGradient id="linear-gradient-62" x1="-1032.7774" y1="569.2415" x2="-1006.7747" y2="677.5865" gradientTransform="matrix(-1, 0, 0, 1, -131.3735, 0)" gradientUnits="userSpaceOnUse"><stop offset="0" stop-color="#9cfffb"/><stop offset="1" stop-color="#9bfffa"/></linearGradient><linearGradient id="linear-gradient-63" x1="-1016.4973" y1="552.1635" x2="-1022.0352" y2="576.4819" gradientTransform="matrix(-1, 0, 0, 1, -131.3735, 0)" xlink:href="#linear-gradient-5"/><linearGradient id="linear-gradient-64" x1="-1019.3955" y1="562.3643" x2="-1022.044" y2="578.2557" gradientTransform="matrix(-1, 0, 0, 1, -131.3735, 0)" xlink:href="#linear-gradient-5"/><linearGradient id="linear-gradient-65" x1="-1050.5951" y1="597.9046" x2="-1035.8626" y2="597.9046" gradientTransform="matrix(-1, 0, 0, 1, -131.3735, 0)" xlink:href="#linear-gradient-14"/><linearGradient id="linear-gradient-66" x1="-910.271" y1="681.4447" x2="-895.5382" y2="681.4447" gradientTransform="translate(804.9985 -540.8562) rotate(-56.7009)" xlink:href="#linear-gradient-14"/><linearGradient id="linear-gradient-67" x1="-1059.0618" y1="556.0835" x2="-1040.3652" y2="556.0835" gradientTransform="matrix(-1, 0, 0, 1, -131.3735, 0)" xlink:href="#linear-gradient-14"/><linearGradient id="linear-gradient-68" x1="-6782.2422" y1="-2632.2505" x2="-6789.2289" y2="-2655.2944" gradientTransform="matrix(-0.746, -0.6659, -0.6659, 0.746, -5907.8234, -2008.4472)" xlink:href="#linear-gradient-14"/><linearGradient id="linear-gradient-69" x1="-6788.5456" y1="-2672.401" x2="-6782.7012" y2="-2639.0666" gradientTransform="matrix(-0.746, -0.6659, -0.6659, 0.746, -5907.8234, -2008.4472)" xlink:href="#linear-gradient-4"/><linearGradient id="linear-gradient-70" x1="-6789.3843" y1="-2632.3578" x2="-6795.6704" y2="-2653.0907" gradientTransform="matrix(-0.746, -0.6659, -0.6659, 0.746, -5907.8234, -2008.4472)" xlink:href="#linear-gradient-14"/></defs><path class="cls-1" d="M1142.4534,184.4785c-28.7854-57.2779-91.99-100.3509-153.5094-87.136-36.835,7.9129-73.4457,34.4582-108.7642,21.1317-25.4575-9.6054-39.8261-36.845-61.2246-53.9361-32.9359-26.3062-79.6855-26-119.8247-14.2136s-76.8812,33.4609-116.5357,46.86a300.4765,300.4765,0,0,1-209.0275-6.87c-28.98-11.9527-56.1073-28.4486-85.61-38.9721s-62.9642-14.61-91.4419-1.4493-48.9127,47.5829-39.0295,77.96c1.9708,6.0569,5.0619,12.0249,4.6578,18.3964-.6475,10.217-10.2752,17.7-20.0141,19.9726s-19.8881.7886-29.8727,1.048c-44.8071,1.1646-84.849,43.0651-85.0613,89.01-.1764,38.1,22.7473,71.58,42.345,103.9537s37.2111,71.2183,25.5368,107.39c-6.9227,21.4493-23.1624,38.2286-33.8016,58.0146C33.6932,576.9341,48.4373,644.84,86.9519,688.1068s96.196,64.4378,153.1236,69.4776,114.02-4.4217,170.4264-13.7735,113.5431-18.6543,170.4429-13.2957l-3.0582-1.7032A906.1683,906.1683,0,0,0,918.889,748.634c23.7727-3.1589,51.0636-9.9514,61.1109-32.262,8.4827-18.836.8663-40.9151,2.612-61.584,2.5159-29.7855,24.3207-54.1848,48.0953-71.5025s50.7468-30.2059,72.1663-50.4966c41.9025-39.6948,56.1225-101.135,62.37-159.2693C1172.126,309.4756,1171.2386,241.7565,1142.4534,184.4785Z" transform="translate(-27.1945 -41.6167)"/><path class="cls-2" d="M1078.4335,203.8356c-17.9873-8.0291-41.3815-13.3594-47.0963-31.3132-3.1-9.7386.44-20.1116,1.0631-30.261,1.8529-30.2034-24.0445-57.6729-54.7575-66.5642s-64.4125-2.291-93.6061,10.3476-55.1049,30.9739-82.34,47.0271c-71.5074,42.1487-153.2528,68.7808-237.1276,77.3067-44.5189-.7722-81.5426-35.2649-117.67-61.6866-48.76-35.6616-106.77-60.0278-167.5275-70.3686-44.1969-7.5225-92.1048-7.144-131.2283,13.6252S82.4452,158.2719,96.5151,198.4318c17.7254,50.5952,90.7056,79.4324,87.3685,132.6162-1.4775,23.5547-18.7517,43.5742-37.66,59.0608s-40.4864,28.5225-55.7781,47.2165S67.43,482.9706,80.2438,503.2487c14.7814,23.3926,52.6826,32.6565,56.378,59.6528,3.1691,23.1472-21.8819,40.7608-29.0229,63.11-7.9059,24.7439,8.3187,51.8069,31.186,66.0933s50.9307,18.65,78.0847,22.395c235.593,32.4915,477.9132,43.4893,710.2594-5.5286,23.32-4.92,46.8982-10.5883,67.3571-22.2182s37.68-30.1763,41.6776-52.3613c5.1086-28.3587-11.67-56.2522-12.2491-85.011-.8925-44.3206,35.3041-80.1985,63.6891-115.5642,28.2041-35.14,51.0412-76.0889,53.2619-120.0848S1120.7033,222.7038,1078.4335,203.8356ZM568.086,210.3627l5.54-.2954C571.7659,210.2282,569.92,210.321,568.086,210.3627Z" transform="translate(-27.1945 -41.6167)"/><path class="cls-3" d="M328.7042,742.5322c38.2112-19.91,51.29-88.2776,29.57-110.4974-14.6763-15.0134-35.7227.778-56.0269-14.7849-25.9238-19.87-6.8539-57.2934-27.2353-105.8284-17.3449-41.3038-58.95-80.3875-83.2622-72.3679C166.3,447.448,152.8957,509.7322,174.63,547.2163c14.1343,24.3766,35.77,25.5737,40.4638,48.2455,5.4463,26.3069-20.8665,38.3039-21.01,63.8082C193.8265,705.0834,278.1538,768.8713,328.7042,742.5322Z" transform="translate(-27.1945 -41.6167)"/><path class="cls-4" d="M308.0843,760.0409a1.5571,1.5571,0,0,0,1.3991-2.236C258.8257,653.42,243.9713,532.3232,243.827,531.1123a1.5563,1.5563,0,0,0-3.0907.3678c.1449,1.2162,15.0631,122.8328,65.9468,227.6835A1.5563,1.5563,0,0,0,308.0843,760.0409Z" transform="translate(-27.1945 -41.6167)"/><path class="cls-5" d="M204.1533,562.4727a.7436.7436,0,0,0,.5865-1.2007c-15.99-20.5245-33.7117-51.36-27.3323-81.7042,3.799-18.072,14.4931-27.4976,14.6007-27.5906a.7435.7435,0,1,0-.9732-1.1242c-.4547.3929-11.1815,9.85-15.0832,28.4089-3.5859,17.0566-1.7056,45.289,27.6142,82.9239A.743.743,0,0,0,204.1533,562.4727Z" transform="translate(-27.1945 -41.6167)"/><path class="cls-5" d="M332.1492,733.4166a.7436.7436,0,0,0,.6142-.3232c24.5732-35.8635,32.953-63.5745,24.906-82.3626-7.1543-16.7042-25.2188-19.8128-25.4-19.8428a.7441.7441,0,0,0-.2387,1.4689c.1736.0281,17.4577,3.0243,24.2792,18.9775,7.82,18.29-.515,45.514-24.7731,80.9178a.7435.7435,0,0,0,.6126,1.1644Z" transform="translate(-27.1945 -41.6167)"/><path class="cls-6" d="M165.3734,426h-43.23a15.0121,15.0121,0,0,0-13.0006,7.5059L87.5285,470.9437a15.0125,15.0125,0,0,0,0,15.0119l21.6147,37.4378a15.0119,15.0119,0,0,0,13.0006,7.506h43.23a15.0116,15.0116,0,0,0,13.0006-7.506l21.6149-37.4378a15.0125,15.0125,0,0,0,0-15.0119L178.374,433.5059A15.0119,15.0119,0,0,0,165.3734,426Z" transform="translate(-27.1945 -41.6167)"/><path class="cls-7" d="M122.1438,523.7144a7.8481,7.8481,0,0,1-6.7781-3.9132l-21.615-37.4381a7.85,7.85,0,0,1,0-7.827l21.6146-37.4377a7.8485,7.8485,0,0,1,6.7783-3.9135h43.23a7.8478,7.8478,0,0,1,6.7781,3.9132l21.615,37.4382a7.8494,7.8494,0,0,1,0,7.827L172.1517,519.801a7.8479,7.8479,0,0,1-6.7783,3.9134Z" transform="translate(-27.1945 -41.6167)"/><path class="cls-8" d="M261.3734,485h-43.23a15.0121,15.0121,0,0,0-13.0006,7.5059l-21.6147,37.4378a15.0125,15.0125,0,0,0,0,15.0119l21.6147,37.4378a15.0119,15.0119,0,0,0,13.0006,7.506h43.23a15.0116,15.0116,0,0,0,13.0006-7.506l21.6149-37.4378a15.0125,15.0125,0,0,0,0-15.0119L274.374,492.5059A15.0119,15.0119,0,0,0,261.3734,485Z" transform="translate(-27.1945 -41.6167)"/><path class="cls-9" d="M218.1438,582.7144a7.8481,7.8481,0,0,1-6.7781-3.9132l-21.615-37.4381a7.85,7.85,0,0,1,0-7.827l21.6146-37.4377a7.8485,7.8485,0,0,1,6.7783-3.9135h43.23a7.8478,7.8478,0,0,1,6.7781,3.9132l21.615,37.4382a7.8494,7.8494,0,0,1,0,7.827L268.1517,578.801a7.8479,7.8479,0,0,1-6.7783,3.9134Z" transform="translate(-27.1945 -41.6167)"/><path class="cls-10" d="M269.3734,369h-43.23a15.0121,15.0121,0,0,0-13.0006,7.5059l-21.6147,37.4378a15.0125,15.0125,0,0,0,0,15.0119l21.6147,37.4378a15.0119,15.0119,0,0,0,13.0006,7.506h43.23a15.0116,15.0116,0,0,0,13.0006-7.506l21.6149-37.4378a15.0125,15.0125,0,0,0,0-15.0119L282.374,376.5059A15.0119,15.0119,0,0,0,269.3734,369Z" transform="translate(-27.1945 -41.6167)"/><path class="cls-11" d="M226.1438,466.7144a7.8481,7.8481,0,0,1-6.7781-3.9132l-21.615-37.4381a7.85,7.85,0,0,1,0-7.827l21.6146-37.4377a7.8485,7.8485,0,0,1,6.7783-3.9135h43.23a7.8478,7.8478,0,0,1,6.7781,3.9132l21.615,37.4382a7.8494,7.8494,0,0,1,0,7.827L276.1517,462.801a7.8479,7.8479,0,0,1-6.7783,3.9134Z" transform="translate(-27.1945 -41.6167)"/><path class="cls-12" d="M1127.5337,380.0376c-10.3882,55.4294-85.4406,375.166-431.2325,351.6657,0,0-10.7555-224.4718,424.1759-357.237C1124.2819,373.3046,1128.2123,376.4164,1127.5337,380.0376Z" transform="translate(-27.1945 -41.6167)"/><path class="cls-13" d="M1088.7178,434.45c-5.3347,8.34-11.02,16.3893-16.8282,24.37-2.89,3.9982-5.88,7.9209-8.8438,11.8644-3.0331,3.889-6.0016,7.83-9.1043,11.6646q-18.4264,23.1573-38.5177,44.9261a739.1225,739.1225,0,0,1-86.7314,80.454c-7.6971,6.1875-15.7232,11.9444-23.6616,17.8183-8.1438,5.5856-16.175,11.3427-24.5644,16.5649-8.2306,5.4694-16.8163,10.3681-25.2937,15.4442-4.3142,2.4071-8.6688,4.7439-13.0019,7.1192-2.1784,1.1653-4.3174,2.4063-6.5285,3.5094L829,671.478l-6.6426,3.2931c-2.2149,1.0963-4.415,2.2244-6.6912,3.1912l-13.5487,6.0337c-1.1322.4957-2.2518,1.0213-3.3943,1.4924l-3.45,1.36-6.9008,2.72c-4.605,1.8019-9.1736,3.7035-13.887,5.2137l-14.0409,4.8031c-4.7174,1.4849-9.4951,2.7808-14.24,4.18l-7.13,2.0622c-2.396.614-4.8131,1.1484-7.2188,1.7264l-14.4521,3.4052a2,2,0,0,1-.917-3.8925l.0093-.0022.1-.0231,14.3329-3.3045c2.3864-.5609,4.7842-1.078,7.1616-1.6748l7.0761-2.01c4.71-1.3645,9.4528-2.6249,14.1375-4.0743l13.9476-4.6959c4.6827-1.4739,9.2241-3.34,13.8021-5.1055l6.8613-2.6653,3.4309-1.3326c1.1364-.4621,2.25-.9787,3.3764-1.4654l13.4806-5.9247c2.265-.9484,4.4553-2.0586,6.66-3.1368l6.6138-3.239,6.6144-3.2389c2.2021-1.085,4.3334-2.3084,6.5038-3.4557,4.3172-2.34,8.6565-4.6406,12.9566-7.0121,8.4512-5.006,17.0126-9.8337,25.2256-15.235,8.37-5.1527,16.3884-10.8431,24.5207-16.3615,7.9289-5.8083,15.947-11.4993,23.6412-17.6236a736.544,736.544,0,0,0,86.82-79.7545q20.129-21.5847,38.6332-44.6189c3.1136-3.81,6.0929-7.7256,9.1376-11.59,2.9743-3.9183,5.9763-7.8166,8.8776-11.7893,5.8245-7.921,11.551-15.9479,16.8749-24.1825l.01-.0161a.8472.8472,0,0,1,1.4251.9165Z" transform="translate(-27.1945 -41.6167)"/><path class="cls-14" d="M970.9008,115.9252C996.6263,181.9419,1128.2172,571.4154,728.37,744c0,0-162.8492-237.0919,230.9475-630.07C962.7629,110.4916,969.22,111.6123,970.9008,115.9252Z" transform="translate(-27.1945 -41.6167)"/><path class="cls-15" d="M953.8388,219.1188c-3.274,22.1018-7.3317,44.044-11.7523,65.9233q-6.6555,32.81-14.6613,65.329c-10.6926,43.3383-23.1073,86.2775-37.84,128.4442-14.7678,42.1376-31.7973,83.5713-52.4687,123.238a597.2127,597.2127,0,0,1-34.1438,57.7392A415.9265,415.9265,0,0,1,761.32,712.47a2,2,0,1,1-2.9205-2.7331l.0059-.0063.0117-.0124a412.1064,412.1064,0,0,0,41.4826-52.0078,593.6973,593.6973,0,0,0,34.1852-57.2478c20.7427-39.3874,37.9021-80.62,52.8148-122.5932,14.8791-42.0028,27.4585-84.8156,38.3221-128.0461q8.1372-32.4283,14.9229-65.18c4.508-21.825,8.6589-43.7487,12.0169-65.7625l.0021-.0143a.8472.8472,0,0,1,1.6755.2519Z" transform="translate(-27.1945 -41.6167)"/><path class="cls-16" d="M845.2582,540.4257a84.617,84.617,0,0,0-15.0674-134.38c-12.3363-7.2858-27.4254-12.2795-34.2486-24.8777-5.5075-10.1688-3.9842-22.5307-2.4936-33.9989,7.2726-55.9588,9.83-114.6415-11.137-167.0308C751.16,102.3018,665.5958,50.0673,582.1432,57.7477c-83.4526-7.68-169.0175,44.5541-200.1685,122.39-20.9669,52.3893-18.41,111.072-11.137,167.0308,1.49,11.4682,3.0139,23.83-2.4936,33.9989-6.8232,12.5982-21.9124,17.5919-34.2488,24.8777a84.6171,84.6171,0,0,0-15.0672,134.38c6.1951,5.85,13.5923,11.2178,16.3115,19.2929,3.7919,11.2614-2.8272,23.0085-6.3681,34.3512-11.9,38.1186,13.25,79.91,47.5994,100.2743,32.1931,19.0858,70.4771,23.8165,107.9006,27.26,16.3005,4.9579,32.9163,9.6757,49.9189,9.3832,18.0253-.31,36.8872-7.191,47.2472-21.9448.1765-.2515.3349-.5123.5056-.7664.1707.2541.3289.5149.5054.7664,10.36,14.7538,29.222,21.6345,47.2473,21.9448,17.0025.2925,33.6183-4.4253,49.9188-9.3832,37.4236-3.4433,75.7076-8.174,107.9007-27.26,34.35-20.3643,59.499-62.1557,47.5993-100.2743-3.5408-11.3427-10.16-23.09-6.368-34.3512C831.6659,551.6435,839.0631,546.2757,845.2582,540.4257Z" transform="translate(-27.1945 -41.6167)"/><path class="cls-17" d="M794.52,662.4662c-48.9527,1.3987-113.29,25.1757-142.6621-13.9864s-18.1825-159.4459-18.1825-159.4459-36.0631-3.7564-54.7755-3.0094c-18.7124-.747-54.7757,3.0094-54.7757,3.0094S535.3133,609.3176,505.9417,648.48,412.2323,663.8649,363.28,662.4662c-38.7356-1.1067-52.3054,71.4494-46.6816,89.6791A11.1554,11.1554,0,0,0,327.2693,760H838.53a11.1556,11.1556,0,0,0,10.6714-7.8547C854.8253,733.9156,833.2555,661.36,794.52,662.4662Z" transform="translate(-27.1945 -41.6167)"/><path class="cls-18" d="M794.52,662.4662c-25.3541.7245-54.8342,7.45-81.4468,8.3266C688.7491,690.8652,642.5834,720.3286,584,717a249.8922,249.8922,0,0,1-130.87-46.1427c-28.685.5592-61.7938-7.59-89.8509-8.3911-38.7356-1.1067-52.3054,71.4493-46.6816,89.6791A11.1554,11.1554,0,0,0,327.2693,760H838.53a11.1556,11.1556,0,0,0,10.6714-7.8547C854.8253,733.9155,833.2555,661.36,794.52,662.4662Z" transform="translate(-27.1945 -41.6167)"/><path class="cls-19" d="M460.0077,210.9021a32.1122,32.1122,0,0,0-4.5951,15.8918c-.8181,37.4931-3.3345,191.7309,9.8033,222.049,16.3024,37.6209,58.2132,78.6854,110.962,86.2213S693.45,470.1614,700.9916,435.3564c3.9812-18.3727,3.5346-167.4359,3.343-207.1129a32.21,32.21,0,0,0-6.162-18.7845c-14.8434-20.4339-56.15-67.755-117.4636-62.7709C539,150.0786,495.0806,152.7922,460.0077,210.9021Z" transform="translate(-27.1945 -41.6167)"/><path class="cls-20" d="M696.1085,340.0692s0-67.82,37.6777-30.1427-37.6777,90.4265-37.6777,90.4265Z" transform="translate(-27.1945 -41.6167)"/><path class="cls-21" d="M462.4005,340.0692s0-67.82-37.6777-30.1427,37.6777,90.4265,37.6777,90.4265Z" transform="translate(-27.1945 -41.6167)"/><path class="cls-22" d="M447.3521,280.8026c.0917,2.3312,32.2665-22.3241,87.7823-32.6048,67.7177-12.54,91.3367-49.7073,106.5927-49.7073,7.5241,0,18.81,4.6654,17.5564,37.3235s33.8589,71.1478,61.4476,33.8243S696.9045,135.5072,579.0255,137.84,443.59,185.1612,447.3521,280.8026Z" transform="translate(-27.1945 -41.6167)"/><path class="cls-23" d="M470.9132,334.3383c6.1928-2.6838,10.8719-8.8866,17.2789-11.5553a32.982,32.982,0,0,1,23.2244-.6642c13.1889,4.2917,26.958,14.9351,41.1138,8.1762.4976-.2376.38-1.2569-.1787-1.2305-18.2234.856-31.7732-14.6578-49.4621-15.9084-6.6806-.4724-14.5947-.5888-20.7854,2.5315-5.5023,2.7732-17.8245,11.5275-17.8245,11.5275S469.5458,334.9308,470.9132,334.3383Z" transform="translate(-27.1945 -41.6167)"/><path class="cls-24" d="M688.2113,334.3383c-6.1928-2.6838-10.8719-8.8866-17.2789-11.5553a32.982,32.982,0,0,0-23.2244-.6642c-13.1889,4.2917-26.958,14.9351-41.1138,8.1762-.4976-.2376-.38-1.2569.1787-1.2305,18.2234.856,31.7732-14.6578,49.4621-15.9084,6.6806-.4724,14.5947-.5888,20.7854,2.5315,5.5023,2.7732,17.8245,11.5275,17.8245,11.5275S689.5787,334.9308,688.2113,334.3383Z" transform="translate(-27.1945 -41.6167)"/><path class="cls-25" d="M605.3528,282.0779h0a4.86,4.86,0,0,0,6.38,4.6249c15.236-5.0647,54.69-15.2935,84.5048,2.3244,0,0-16.6627-38.3243-87.7659-11.4942A4.8538,4.8538,0,0,0,605.3528,282.0779Z" transform="translate(-27.1945 -41.6167)"/><path class="cls-26" d="M554.186,282.0779h0a4.86,4.86,0,0,1-6.38,4.6249c-15.2361-5.0647-54.69-15.2935-84.5047,2.3244,0,0,16.6627-38.3243,87.7657-11.4942A4.8539,4.8539,0,0,1,554.186,282.0779Z" transform="translate(-27.1945 -41.6167)"/><path class="cls-27" d="M642.3934,440.8783s-23.0432-10.6849-38.8855-9.3493-20.8829,5.3425-20.8829,5.3425-5.0407-4.0069-20.8829-5.3425-38.8855,9.3493-38.8855,9.3493a63.9991,63.9991,0,0,0,119.5368,0Z" transform="translate(-27.1945 -41.6167)"/><path class="cls-28" d="M627.3679,448.2241S607.3358,462.248,582.625,462.248s-44.7429-14.0239-44.7429-14.0239a301.4489,301.4489,0,0,1,89.4858,0Z" transform="translate(-27.1945 -41.6167)"/><path class="cls-29" d="M405.3677,473.5713a22.6259,22.6259,0,0,1-4.7022-.4937,1,1,0,0,1,.4151-1.9565c10.2055,2.1655,24.3457-4.4819,29.3891-18.99,3.7217-10.707,2.2305-24.0942-4.1992-37.6967-3.7007-7.8291-8.6059-15.1992-13.35-22.3267-2.4585-3.6943-5.0015-7.5141-7.3564-11.3667-11.4405-18.7114-17.8013-37.2407-18.9058-55.0727-1.3-20.9908,5.0835-40.982,17.5137-54.8492,14.1953-15.8354,35.09-23.17,53.6582-28.2573,13.48-3.6933,27.3637-6.7031,40.7905-9.6138,16.7075-3.6215,33.9834-7.3667,50.5791-12.4536,35.69-10.9409,61.563-26.4194,79.0982-47.32A1,1,0,0,1,629.83,174.46c-17.791,21.2055-43.9737,36.8891-80.0445,47.9467-16.6757,5.1119-33.9936,8.8658-50.7412,12.4966-13.4008,2.9048-27.2578,5.9087-40.686,9.5874-18.2866,5.01-38.8481,12.2144-52.6973,27.6636-12.0752,13.4707-18.2739,32.9307-17.0068,53.39,1.0845,17.5035,7.3477,35.7232,18.6157,54.1538,2.3355,3.8194,4.8672,7.6231,7.3154,11.3018,4.7837,7.187,9.7305,14.6187,13.4937,22.58,6.6548,14.0791,8.1748,28.0029,4.2793,39.2075C428.6226,463.5342,417.6978,473.5713,405.3677,473.5713Z" transform="translate(-27.1945 -41.6167)"/><path class="cls-29" d="M395.9351,249.5591c-.0186,0-.0376-.001-.0567-.0029a.5008.5008,0,0,1-.4409-.5533c1.2075-10.7212,7.9424-21.06,18.4785-28.3647,10.2139-7.0816,22.4951-10.4693,32.0537-12.63,17.7032-4.001,36.0635-5.9238,53.8189-7.7832,4.5151-.4727,9.0288-.9453,13.5361-1.4512,21.773-2.4424,44.8574-5.8427,66.1572-14.1137,16.2945-6.3267,38.69-18.479,52.8457-40.4414a.5.5,0,1,1,.8409.5419c-14.3018,22.188-36.8921,34.4512-53.3243,40.8321-21.4067,8.312-44.5678,11.7251-66.4082,14.1753-4.5092.5058-9.0258.9785-13.5429,1.4516-17.7271,1.8565-36.0577,3.7759-53.7027,7.7642-9.47,2.1406-21.6323,5.4927-31.705,12.4765-10.2984,7.14-16.879,17.22-18.0538,27.6548A.5.5,0,0,1,395.9351,249.5591Z" transform="translate(-27.1945 -41.6167)"/><path class="cls-29" d="M761.32,640.4351a1,1,0,0,1-.31-1.9512c6.8247-2.2212,10.29-10.07,10.1851-16.6758-.1162-7.3789-3.5952-14.39-6.8467-20.3813l-1.1054-2.0235c-3.2007-5.84-6.5108-11.8789-7.78-18.5488-3.7935-19.9263,11.5044-36.8374,18.2578-43.1831a198.8249,198.8249,0,0,1,17.727-14.2671c6.6377-4.9346,13.502-10.0371,19.4288-15.937,13.207-13.1485,18.8769-28.8618,15.1665-42.0327-3.5254-12.5117-14.0206-20.4073-25.1324-28.7661a145.0892,145.0892,0,0,1-14.99-12.356c-13.335-13.2134-21.3784-33.1094-22.0684-54.5864-.5786-18,3.5191-37.0323,12.5274-58.1836a1,1,0,1,1,1.84.7832c-8.8916,20.8779-12.937,39.6328-12.3681,57.3359.6733,20.9712,8.5014,40.3731,21.4765,53.23A143.6255,143.6255,0,0,0,802.1133,435.07c10.8882,8.19,22.147,16.66,25.855,29.8223,3.91,13.8789-1.9517,30.3242-15.68,43.9917-6.0293,6.0019-12.9517,11.1484-19.6465,16.1255A197.2712,197.2712,0,0,0,775.09,539.1284c-6.5122,6.12-21.27,22.4-17.6621,41.3521,1.2105,6.36,4.4434,12.2578,7.5694,17.9619l1.1093,2.03c3.3648,6.2006,6.9654,13.4716,7.0889,21.3042.1162,7.3388-3.8193,16.0874-11.5659,18.6084A.996.996,0,0,1,761.32,640.4351Z" transform="translate(-27.1945 -41.6167)"/><path class="cls-28" d="M447.3755,232.5a6.5,6.5,0,0,1-6.5-6.5v-40.187A20.3353,20.3353,0,0,1,461.1875,165.5H489a6.5,6.5,0,0,1,0,13h-27.812a7.3206,7.3206,0,0,0-7.312,7.3125V226A6.5,6.5,0,0,1,447.3755,232.5Z" transform="translate(-27.1945 -41.6167)"/><path class="cls-28" d="M717,232.5a6.5,6.5,0,0,1-6.5-6.5v-40.187a7.3206,7.3206,0,0,0-7.312-7.3125h-27.812a6.5,6.5,0,0,1,0-13h27.812A20.3353,20.3353,0,0,1,723.5,185.8125V226A6.5,6.5,0,0,1,717,232.5Z" transform="translate(-27.1945 -41.6167)"/><path class="cls-28" d="M489,550.5h-27.812a20.3348,20.3348,0,0,1-20.312-20.312V490a6.5,6.5,0,0,1,13,0v40.1875a7.32,7.32,0,0,0,7.312,7.312H489a6.5,6.5,0,0,1,0,13Z" transform="translate(-27.1945 -41.6167)"/><path class="cls-28" d="M703.1875,550.5h-27.812a6.5,6.5,0,0,1,0-13h27.812a7.32,7.32,0,0,0,7.312-7.312V490a6.5,6.5,0,1,1,13,0v40.1875A20.3348,20.3348,0,0,1,703.1875,550.5Z" transform="translate(-27.1945 -41.6167)"/><path class="cls-28" d="M696.5,530.3267h-229a6.8345,6.8345,0,0,1-6.8267-6.8267v-332a6.8345,6.8345,0,0,1,6.8267-6.8267h229a6.8345,6.8345,0,0,1,6.8267,6.8267v332A6.8345,6.8345,0,0,1,696.5,530.3267Zm-229-343.6534a4.832,4.832,0,0,0-4.8267,4.8267v332a4.832,4.832,0,0,0,4.8267,4.8267h229a4.832,4.832,0,0,0,4.8267-4.8267v-332a4.832,4.832,0,0,0-4.8267-4.8267Z" transform="translate(-27.1945 -41.6167)"/><circle class="cls-28" cx="631.8055" cy="397.3833" r="8"/><path class="cls-28" d="M659.001,440a1,1,0,0,1-.584-1.8125l85-61A.9991.9991,0,0,1,744,377h287a1,1,0,0,1,0,2H744.3218L659.583,439.8125A.9961.9961,0,0,1,659.001,440Z" transform="translate(-27.1945 -41.6167)"/><circle class="cls-28" cx="447.8055" cy="302.3833" r="8"/><path class="cls-28" d="M474.999,345a.9972.9972,0,0,1-.582-.1875L389.6782,284H103a1,1,0,0,1,0-2H390a.9991.9991,0,0,1,.583.1875l85,61A1,1,0,0,1,474.999,345Z" transform="translate(-27.1945 -41.6167)"/><path class="cls-28" d="M1026,366H845a1,1,0,0,1-1-1V253a1,1,0,0,1,1-1h181a1,1,0,0,1,1,1V365A1,1,0,0,1,1026,366Zm-180-2h179V254H846Z" transform="translate(-27.1945 -41.6167)"/><path class="cls-28" d="M936.4175,340.5005c-.2666,0-.5274-.002-.7925-.0054-22.7549.2974-51.0137-12.9541-63.0234-43.33a3.5,3.5,0,0,1,1.7827-4.4624c.9751-.4516,24.0737-11.0547,40.6518-9.6621,11.3682.959,17.6187,3.28,20.5889,4.7759,2.97-1.4961,9.2207-3.8169,20.5889-4.7759,16.5737-1.3931,39.6762,9.21,40.6518,9.6621a3.5,3.5,0,0,1,1.7827,4.4624A67.73,67.73,0,0,1,936.4175,340.5005Zm-.7925-7.0059.0518,0c14.6381.1987,42.1626-7.18,55.1367-35.7788-6.6509-2.7422-22.5874-8.6636-34.0117-7.7-14.1851,1.1963-19.01,4.6055-19.0572,4.64a3.2662,3.2662,0,0,1-4.2973-.045h0c-.0035,0-4.8355-3.4-18.9991-4.5947-11.434-.9653-27.3613,4.9575-34.0117,7.7,12.9741,28.5991,40.4707,35.9966,55.1367,35.7788Z" transform="translate(-27.1945 -41.6167)"/><path class="cls-28" d="M980.3679,303.2241S960.3358,317.248,935.625,317.248s-44.7429-14.0239-44.7429-14.0239a301.4489,301.4489,0,0,1,89.4858,0Z" transform="translate(-27.1945 -41.6167)"/><path class="cls-30" d="M909.8249,401.7564a5.0766,5.0766,0,1,1-5.043-5.11A5.0763,5.0763,0,0,1,909.8249,401.7564Z" transform="translate(-27.1945 -41.6167)"/><path class="cls-31" d="M909.6561,401.7553a4.9078,4.9078,0,1,1-4.8753-4.94A4.9078,4.9078,0,0,1,909.6561,401.7553Z" transform="translate(-27.1945 -41.6167)"/><path class="cls-28" d="M900.2271,402.4526c-.02,0-.04-.0005-.0591-.0014a1.0009,1.0009,0,0,1-.9405-1.0567,5.59,5.59,0,0,1,.085-.6938,1,1,0,1,1,1.9658.3672,3.4822,3.4822,0,0,0-.0537.4428A1,1,0,0,1,900.2271,402.4526Z" transform="translate(-27.1945 -41.6167)"/><path class="cls-28" d="M900.7139,400.6577a1,1,0,0,1-.8887-1.4565,5.474,5.474,0,0,1,4.96-3.0088,5.6225,5.6225,0,0,1,.9956.0962,1,1,0,0,1-.37,1.9658,3.5864,3.5864,0,0,0-.6387-.062h-.023a3.518,3.518,0,0,0-3.144,1.9219A1,1,0,0,1,900.7139,400.6577Z" transform="translate(-27.1945 -41.6167)"/><path class="cls-32" d="M909.8249,432.5309a5.0766,5.0766,0,1,1-5.043-5.11A5.0764,5.0764,0,0,1,909.8249,432.5309Z" transform="translate(-27.1945 -41.6167)"/><path class="cls-33" d="M909.6561,432.53a4.9078,4.9078,0,1,1-4.8753-4.94A4.9078,4.9078,0,0,1,909.6561,432.53Z" transform="translate(-27.1945 -41.6167)"/><path class="cls-28" d="M900.2271,433.2275c-.02,0-.0391,0-.0591-.0014a1.0009,1.0009,0,0,1-.9405-1.0567,5.59,5.59,0,0,1,.085-.6938,1,1,0,1,1,1.9658.3662,3.4979,3.4979,0,0,0-.0537.4438A1,1,0,0,1,900.2271,433.2275Z" transform="translate(-27.1945 -41.6167)"/><path class="cls-28" d="M900.7139,431.4321a1,1,0,0,1-.8887-1.4565,5.5061,5.5061,0,0,1,4.9224-3.0083h.0376a5.6371,5.6371,0,0,1,.9951.0957,1,1,0,0,1-.37,1.9658,3.574,3.574,0,0,0-.6387-.0615h-.0239a3.5157,3.5157,0,0,0-3.1431,1.9214A1,1,0,0,1,900.7139,431.4321Z" transform="translate(-27.1945 -41.6167)"/><path class="cls-34" d="M909.8249,463.3055a5.0766,5.0766,0,1,1-5.043-5.11A5.0764,5.0764,0,0,1,909.8249,463.3055Z" transform="translate(-27.1945 -41.6167)"/><path class="cls-35" d="M909.6561,463.3044a4.9078,4.9078,0,1,1-4.8753-4.94A4.9077,4.9077,0,0,1,909.6561,463.3044Z" transform="translate(-27.1945 -41.6167)"/><path class="cls-28" d="M900.2271,464.002c-.02,0-.0391,0-.0591-.0015a1.0009,1.0009,0,0,1-.9405-1.0567,5.5927,5.5927,0,0,1,.085-.6938,1,1,0,1,1,1.9658.3662,3.4973,3.4973,0,0,0-.0537.4439A1.0005,1.0005,0,0,1,900.2271,464.002Z" transform="translate(-27.1945 -41.6167)"/><path class="cls-28" d="M900.7139,462.2065a1,1,0,0,1-.8887-1.4565,5.5061,5.5061,0,0,1,4.9224-3.0083h.0376a5.5428,5.5428,0,0,1,.9965.0967,1,1,0,0,1-.373,1.9648,3.54,3.54,0,0,0-.6372-.0615h-.0239a3.5157,3.5157,0,0,0-3.1431,1.9214A1,1,0,0,1,900.7139,462.2065Z" transform="translate(-27.1945 -41.6167)"/><path class="cls-36" d="M917.6344,401.4923l.0234.8646c.0633,2.3406,1.5253,4.1978,3.3118,4.2069l135.9665.206c1.8448.0094,3.3431-1.95,3.34-4.3688h0c-.0031-2.3715-1.451-4.3052-3.26-4.3532l-135.99-1.0706C919.1166,396.9266,917.5667,398.99,917.6344,401.4923Z" transform="translate(-27.1945 -41.6167)"/><path class="cls-36" d="M917.6344,432.1167l.0234.8646c.0633,2.3405,1.5253,4.1978,3.3118,4.2068l135.9665.2061c1.8448.01,3.3431-1.9505,3.34-4.3688h0c-.0031-2.3715-1.451-4.3053-3.26-4.3531l-135.99-1.0707C919.1166,427.5511,917.5667,429.6142,917.6344,432.1167Z" transform="translate(-27.1945 -41.6167)"/><path class="cls-36" d="M917.6344,462.7411l.0234.8646c.0633,2.3406,1.5253,4.1978,3.3118,4.2068l135.9665.2061c1.8448.0094,3.3431-1.95,3.34-4.3687h0c-.0031-2.3716-1.451-4.3053-3.26-4.3531l-135.99-1.0708C919.1166,458.1754,917.5667,460.2386,917.6344,462.7411Z" transform="translate(-27.1945 -41.6167)"/><path class="cls-37" d="M233.123,306.7564a5.0766,5.0766,0,1,0,5.043-5.11A5.0763,5.0763,0,0,0,233.123,306.7564Z" transform="translate(-27.1945 -41.6167)"/><path class="cls-38" d="M233.2918,306.7553a4.9078,4.9078,0,1,0,4.8753-4.94A4.9078,4.9078,0,0,0,233.2918,306.7553Z" transform="translate(-27.1945 -41.6167)"/><path class="cls-28" d="M242.7207,307.4526a1,1,0,0,1-.9976-.9419,3.4642,3.4642,0,0,0-.0537-.4428,1,1,0,0,1,1.9659-.3672,5.59,5.59,0,0,1,.0849.6938,1.0008,1.0008,0,0,1-.94,1.0567C242.76,307.4521,242.74,307.4526,242.7207,307.4526Z" transform="translate(-27.1945 -41.6167)"/><path class="cls-28" d="M242.2339,305.6577a1,1,0,0,1-.8906-.5434,3.5343,3.5343,0,0,0-3.1675-1.9219,3.599,3.599,0,0,0-.6387.062,1,1,0,1,1-.3691-1.9658,5.5373,5.5373,0,0,1,5.9546,2.9126,1,1,0,0,1-.8887,1.4565Z" transform="translate(-27.1945 -41.6167)"/><path class="cls-39" d="M233.123,337.5309a5.0766,5.0766,0,1,0,5.043-5.11A5.0764,5.0764,0,0,0,233.123,337.5309Z" transform="translate(-27.1945 -41.6167)"/><path class="cls-40" d="M233.2918,337.53a4.9078,4.9078,0,1,0,4.8753-4.94A4.9078,4.9078,0,0,0,233.2918,337.53Z" transform="translate(-27.1945 -41.6167)"/><path class="cls-28" d="M242.7207,338.2275a1,1,0,0,1-.9976-.9419,3.48,3.48,0,0,0-.0537-.4438,1,1,0,0,1,1.9659-.3662,5.59,5.59,0,0,1,.0849.6938,1.0008,1.0008,0,0,1-.94,1.0567C242.76,338.2271,242.74,338.2275,242.7207,338.2275Z" transform="translate(-27.1945 -41.6167)"/><path class="cls-28" d="M242.2339,336.4321a1,1,0,0,1-.8906-.5434,3.5162,3.5162,0,0,0-3.1431-1.9214h-.0239a3.5876,3.5876,0,0,0-.6392.0615,1,1,0,1,1-.3691-1.9658,5.64,5.64,0,0,1,.9946-.0957H238.2a5.5063,5.5063,0,0,1,4.9224,3.0083,1,1,0,0,1-.8887,1.4565Z" transform="translate(-27.1945 -41.6167)"/><path class="cls-41" d="M233.123,368.3055a5.0766,5.0766,0,1,0,5.043-5.11A5.0764,5.0764,0,0,0,233.123,368.3055Z" transform="translate(-27.1945 -41.6167)"/><path class="cls-42" d="M233.2918,368.3044a4.9078,4.9078,0,1,0,4.8753-4.94A4.9077,4.9077,0,0,0,233.2918,368.3044Z" transform="translate(-27.1945 -41.6167)"/><path class="cls-28" d="M242.7207,369.002a1,1,0,0,1-.9976-.9419,3.4792,3.4792,0,0,0-.0537-.4439,1,1,0,0,1,1.9659-.3662,5.5926,5.5926,0,0,1,.0849.6938,1.0007,1.0007,0,0,1-.94,1.0567C242.76,369.0015,242.74,369.002,242.7207,369.002Z" transform="translate(-27.1945 -41.6167)"/><path class="cls-28" d="M242.2339,367.2065a1,1,0,0,1-.8906-.5434,3.5162,3.5162,0,0,0-3.1431-1.9214h-.0239a3.5476,3.5476,0,0,0-.6372.0615,1,1,0,1,1-.3731-1.9648,5.5527,5.5527,0,0,1,.9966-.0967H238.2a5.5063,5.5063,0,0,1,4.9224,3.0083,1,1,0,0,1-.8887,1.4565Z" transform="translate(-27.1945 -41.6167)"/><path class="cls-36" d="M225.3135,306.4923l-.0234.8646c-.0633,2.3406-1.5253,4.1978-3.3118,4.2069l-135.9665.206c-1.8448.0094-3.3431-1.95-3.34-4.3688h0c.0031-2.3715,1.451-4.3052,3.26-4.3532l135.99-1.0706C223.8313,301.9266,225.3812,303.99,225.3135,306.4923Z" transform="translate(-27.1945 -41.6167)"/><path class="cls-36" d="M225.3135,337.1167l-.0234.8646c-.0633,2.3405-1.5253,4.1978-3.3118,4.2068l-135.9665.2061c-1.8448.01-3.3431-1.9505-3.34-4.3688h0c.0031-2.3715,1.451-4.3053,3.26-4.3531l135.99-1.0707C223.8313,332.5511,225.3812,334.6142,225.3135,337.1167Z" transform="translate(-27.1945 -41.6167)"/><path class="cls-36" d="M225.3135,367.7411l-.0234.8646c-.0633,2.3406-1.5253,4.1978-3.3118,4.2068l-135.9665.2061c-1.8448.0094-3.3431-1.95-3.34-4.3687h0c.0031-2.3716,1.451-4.3053,3.26-4.3531l135.99-1.0708C223.8313,363.1754,225.3812,365.2386,225.3135,367.7411Z" transform="translate(-27.1945 -41.6167)"/><path class="cls-28" d="M284,273H103a1,1,0,0,1-1-1V160a1,1,0,0,1,1-1H284a1,1,0,0,1,1,1V272A1,1,0,0,1,284,273Zm-180-2H283V161H104Z" transform="translate(-27.1945 -41.6167)"/><path class="cls-28" d="M189.1665,256.3335c-36.5381,0-65.4468-33.3071-66.66-34.7251a3.499,3.499,0,0,1,0-4.55c1.2129-1.418,30.1216-34.7251,66.66-34.7251s65.4468,33.3071,66.66,34.7251a3.499,3.499,0,0,1,0,4.55C254.6133,223.0264,225.7046,256.3335,189.1665,256.3335Zm-59.24-37A121.6706,121.6706,0,0,0,146.1,233.3467c10.1172,7.2929,25.8013,15.9868,43.0664,15.9868s32.9492-8.6939,43.0664-15.9868a121.668,121.668,0,0,0,16.1734-14.0132A121.668,121.668,0,0,0,232.2329,205.32c-10.1172-7.293-25.8013-15.9868-43.0664-15.9868S156.2173,198.0273,146.1,205.32A121.6589,121.6589,0,0,0,129.9268,219.3335Z" transform="translate(-27.1945 -41.6167)"/><path class="cls-28" d="M189.1665,249.3335a30,30,0,1,1,30-30A30.034,30.034,0,0,1,189.1665,249.3335Zm0-53a23,23,0,1,0,23,23A23.0262,23.0262,0,0,0,189.1665,196.3335Z" transform="translate(-27.1945 -41.6167)"/><circle class="cls-28" cx="161.9722" cy="177.7166" r="14.5"/><path class="cls-43" d="M210,522s-9,12-19.6108,15.2831c-5.0489,1.5622-14.0327,5.6672-15.2557,15.54a11.3287,11.3287,0,0,1-9.48,9.9578c-12.6448,1.9382-32.1316,8.5043-35.25,30.4584-2.38,16.7573,6.1629,23.1113,15.1283,25.3107a12.6989,12.6989,0,0,1,9.6287,14.6679c-1.2775,6.3763.6275,13.7478,11.6741,19.5766,24.7546,13.062,49.4758-30.9449,49.4758-30.9449l5.066-76.8394Z" transform="translate(-27.1945 -41.6167)"/><path class="cls-44" d="M266.6542,507.009s-14.5983,39.7964-39.4728,52.2344c0,0,8.2791,13.5084,12.6,14.3277,0,0,26.5724-34.01,29.2813-61.8728Z" transform="translate(-27.1945 -41.6167)"/><path class="cls-45" d="M166.6165,746.3965l-.7341,6.0354a2.4934,2.4934,0,0,1-2.1868,2.1812,38.5982,38.5982,0,0,1-8.0772.1264,2.1351,2.1351,0,0,1-1.7929-2.7689c.74-2.33,2.0953-5.8275,4.0486-7.8855h6.6951A2.0624,2.0624,0,0,1,166.6165,746.3965Z" transform="translate(-27.1945 -41.6167)"/><path class="cls-46" d="M219.0547,675.6964l1.13,6.6474s-3.7843,38.331-4.4574,53.6633a12.0138,12.0138,0,0,0,1.7781,6.8282l6.58,10.6855-16.7233-9.8682-.3329-2.0406,2.7376-3.7642-3.5858-42.94a13.1753,13.1753,0,0,1,1.4992-7.2869l3.4592-6.4984Z" transform="translate(-27.1945 -41.6167)"/><path class="cls-47" d="M225.1868,755.0688H219.85a3.2129,3.2129,0,0,1-2.55-1.25c-1.6637-2.1618-5.1106-6.3794-6.7589-6.4895-2.2188-.1482-1.935,7.74-1.935,7.74h-1.2437l-1.5753-9.8017a5.8018,5.8018,0,0,1,3.0446-6.0648h0s.5072,3.7509,3.2574,5.41,11.1914,7.6009,11.1914,7.6009a7.6242,7.6242,0,0,1,2.169.0578A1.4113,1.4113,0,0,1,225.1868,755.0688Z" transform="translate(-27.1945 -41.6167)"/><path class="cls-48" d="M196.1492,678.8536s-22.1691,42.0527-25.6932,51.654A92.2381,92.2381,0,0,0,165.65,748.877c-.0739,1.1852-1.548,2.322-5.6113,2.322-2.097,0-3.124-.8406-3.6269-1.6543a2.3684,2.3684,0,0,1-.09-2.2943c1.2824-2.5953,5.352-10.8892,6.8592-14.6508,1.7995-4.4913,5.67-24.8451,7.7933-31.9218s4.5225-14.7533,13.7672-21.8242C184.742,678.8536,191.088,672.6379,196.1492,678.8536Z" transform="translate(-27.1945 -41.6167)"/><path class="cls-49" d="M210.1538,609.948c5.7187-24.2321-8.7683-37.9375-8.7683-37.9375,9.141-8.7743,25.7959-12.7671,25.7959-12.7671s15.8923,11.6188,14.007,20.713c-1.105,5.33-11.1708,31.9266-11.1708,31.9266A22.1156,22.1156,0,0,1,210.1538,609.948Z" transform="translate(-27.1945 -41.6167)"/><path class="cls-50" d="M197.4748,621.9447c2.3273-7.0111,12.679-11.9967,12.679-11.9967a22.1156,22.1156,0,0,0,19.8638,1.935s2.0875,7.9786.6468,15.3934-10.48,55.0673-10.48,55.0673C205.9423,685.23,184.038,679.44,184.038,679.44,193.11,663.334,195.1476,628.9559,197.4748,621.9447Z" transform="translate(-27.1945 -41.6167)"/><path class="cls-51" d="M216.7918,543.23l-4.6493,20.884c-.4452,1.84,1.2318,1.5385,3.0915,1.1878,3.0457-.5741,6.9712-1.7567,8.2835-4.1268a2.2523,2.2523,0,0,0,.2379-.7869l1.9974-14.4815a2.6018,2.6018,0,0,0-1.5228-2.7341l-3.8546-1.7092A2.6019,2.6019,0,0,0,216.7918,543.23Z" transform="translate(-27.1945 -41.6167)"/><path class="cls-52" d="M201.3855,572.0105s-32.45,23.2166-4.15,47.6123a7.3114,7.3114,0,0,0,3.202,1.8553c1.0717.32,4.2421,2.719,5.8494,3.97a1.1008,1.1008,0,0,0,1.6107-.29h0a1.5049,1.5049,0,0,0,.0849-1.4421l-4.0173-8.4952a3.0987,3.0987,0,0,0-4.0247-.1741h0a1.5288,1.5288,0,0,1-2.3181-.525c-2.1877-4.4557-6.3186-17.56,10.5891-32.368a1.8323,1.8323,0,0,0,.4063-2.2268C207.43,577.6448,204.7129,573.113,201.3855,572.0105Z" transform="translate(-27.1945 -41.6167)"/><path class="cls-53" d="M222.2469,523.3455s5.5064,2.3251,9.25,10.2821.948,11.6308-2.5639,12.1352-8.7641.4275-14.32-4.7125S215.0889,520.5894,222.2469,523.3455Z" transform="translate(-27.1945 -41.6167)"/><path class="cls-54" d="M218.3483,536.8022s-4.1544-11.6413,6.1667-11.7789l2.4287,1.6975s3.7869-6.4544-2.4287-9.5354-13.49-.5361-16.1351,7.8379-3.0968,13.98,1.3038,17.9859,6.2141-.5362,6.2141-.5362-2.3964-3.7474-1.4208-5.7523,3.2256.4149,3.2256.4149Z" transform="translate(-27.1945 -41.6167)"/><path class="cls-55" d="M217.1908,538.0989s-2.1-5.9967-4.9026-3.6086,2.2774,5.5393,4.2659,6.56Z" transform="translate(-27.1945 -41.6167)"/><path class="cls-56" d="M268.0555,514.2525c.2227.7081-2.3564,1.7862-3.8751-1.11-.053-1.3879-.8971-7.3338-.0678-8.4645,4.417-6.0218,12.9806-13.57,12.9806-13.57a2.0379,2.0379,0,0,1,.2549,2.831l-4.1542,4.3277a20.1073,20.1073,0,0,1,2.4255,4.7949,5.8212,5.8212,0,0,1-.58,4.2846c-.7292,1.3137-1.724,3.0215-2.6646,4.358A5.748,5.748,0,0,1,268.0555,514.2525Z" transform="translate(-27.1945 -41.6167)"/><path class="cls-57" d="M270.27,511.3115l-.9844-.1758c.1182-.6586,1.1768-6.4746,2.045-7.8862a1.7027,1.7027,0,0,0,.3608-1.2021.7011.7011,0,0,0-.2671-.3575l-3.41,2.8907-1.1431,3.0727-.9375-.3486,1.2349-3.3179,4.1391-3.5093.2969.1514a1.871,1.871,0,0,1,1.05,1.1484,2.5242,2.5242,0,0,1-.4722,1.9956C271.5313,504.8325,270.5811,509.5742,270.27,511.3115Z" transform="translate(-27.1945 -41.6167)"/><path class="cls-58" d="M148.519,607.6333a11.7317,11.7317,0,0,1-10.5688-7.6318c-1.7534-4.7657-.6143-10.606,2.9741-15.2417,2.8819-3.7237,7.3042-6.7676,13.1441-9.0464,3.2319-1.2617,6.6274-2.2158,9.9106-3.1382,1.7983-.5054,3.6577-1.0278,5.4683-1.5942,4.2758-1.3384,8.998-3.2383,11.601-7.1822,1.5987-2.4214,2.2061-5.3593,2.793-8.2011.1323-.64.2647-1.2793.4072-1.9117.66-2.9267,1.92-7.059,5.2246-9.1445a15.9738,15.9738,0,0,1,4.9522-1.7607c.5493-.1294,1.1167-.2632,1.6655-.4131,2.8325-.773,4.668-2.0391,5.4556-3.7632a.125.125,0,1,1,.2275.1035c-.82,1.7949-2.71,3.1074-5.6176,3.9009-.5523.1509-1.1221.2851-1.6734.4155a15.7942,15.7942,0,0,0-4.876,1.728c-3.2265,2.0367-4.4643,6.105-5.1142,8.9883-.1426.6314-.2744,1.2691-.4063,1.9077-.5918,2.8648-1.2041,5.8267-2.8291,8.2881-2.6465,4.0093-7.4175,5.9312-11.7358,7.2827-1.8135.5679-3.6748,1.0909-5.4746,1.5967-3.2779.9209-6.667,1.8731-9.8877,3.13-5.7969,2.2627-10.1831,5.28-13.0376,8.9673-3.5357,4.5679-4.6612,10.3164-2.937,15.0024,1.92,5.2149,7.6821,8.5015,12.582,7.1743a.125.125,0,0,1,.0654.2413A8.8509,8.8509,0,0,1,148.519,607.6333Z" transform="translate(-27.1945 -41.6167)"/><path class="cls-58" d="M147.4741,603.3232l-.02-.0014a5.9739,5.9739,0,0,1-4.5674-4.5362,8.9977,8.9977,0,0,1,1.148-6.5087c2.5058-4.4078,7.687-7.3184,15.3994-8.65,1.4013-.2422,2.8437-.4439,4.2383-.6392,4.5439-.6357,9.2426-1.2935,13.3159-3.4536a19.8954,19.8954,0,0,0,9.4023-11.0122,39.7248,39.7248,0,0,0,1.5034-7.2095c.2041-1.4121.4151-2.8725.7129-4.2905,1.0093-4.7964,2.99-8.124,5.8872-9.8911a.1273.1273,0,0,1,.1719.042.1253.1253,0,0,1-.042.1718c-2.8359,1.73-4.7778,5.0025-5.7719,9.729-.2969,1.41-.5074,2.8663-.711,4.2745a39.8909,39.8909,0,0,1-1.5141,7.2548,20.1466,20.1466,0,0,1-9.5215,11.1519c-4.1123,2.1811-8.833,2.8418-13.3985,3.4805-1.3925.1948-2.833.3964-4.23.6377-7.6358,1.3193-12.7579,4.1879-15.2247,8.5278a8.75,8.75,0,0,0-1.1225,6.3267,5.717,5.717,0,0,0,4.3642,4.3476.125.125,0,0,1-.02.2485Z" transform="translate(-27.1945 -41.6167)"/><path class="cls-59" d="M899,563s-25.1245,28-9,28h14Z" transform="translate(-27.1945 -41.6167)"/><path class="cls-60" d="M910.6314,740.7753s.8528,4.8278,1.2709,9.6069a3.2926,3.2926,0,0,1-3.15,3.5674c-6.3643.2652-19.9776.7806-24.8627.5627a1.0712,1.0712,0,0,1-.9426-1.4676h0a2.3977,2.3977,0,0,1,1.2266-1.2923l22.4869-10.3349Z" transform="translate(-27.1945 -41.6167)"/><path class="cls-61" d="M911.33,737.9387l-.6851,5.7748s-3.939,1.8336-6.6291-.2313l1.6313-6.4352Z" transform="translate(-27.1945 -41.6167)"/><path class="cls-62" d="M910.8151,629.3721c.2959,1.5081,1.5886,75.2545-6.2945,108.3027a1.1218,1.1218,0,0,0,.6581,1.3048,19.5308,19.5308,0,0,0,6.42,1.3048,1.9319,1.9319,0,0,0,1.9165-1.3866c2.2534-7.6677,13.0509-46.0851,14.4595-82.7842,1.5738-41.0075,0-1.3962,0-1.3962l-.9232-25.3484Z" transform="translate(-27.1945 -41.6167)"/><path class="cls-63" d="M936.4986,743.2941s1.3576,2.4372,2.6718,8.9135a2.0089,2.0089,0,0,1-1.7676,2.4058c-2.1014.2066-5.3366.4724-7.928.4545a2.0028,2.0028,0,0,1-1.9831-2.2343,16.8942,16.8942,0,0,1,3.9439-9.2653Z" transform="translate(-27.1945 -41.6167)"/><path class="cls-64" d="M937.691,735.8664l-1.601,8.7329s-1.5829,1.1775-4.7143.3239l.7642-9.3961Z" transform="translate(-27.1945 -41.6167)"/><path class="cls-65" d="M942.016,631.6351c6.4471,38.9093-1.3985,96.1675-4.0446,107.3743a1.7478,1.7478,0,0,1-1.4112,1.3271,11.7368,11.7368,0,0,1-5.0427-.2013,1.6018,1.6018,0,0,1-1.1515-1.4749c-.355-9.06.284-64.6823-5.7233-86.6643a4.9947,4.9947,0,0,0-1.926-2.7547l-11.66-8.2891-.8939-13.3986Z" transform="translate(-27.1945 -41.6167)"/><path class="cls-66" d="M899,563c19-6,42.5738-.0172,42.5738-.0172,5.7592,33.6047,1.0072,72.3653,1.0072,72.3653C927.623,639.2707,910.75,632.95,910.75,632.95,908.2637,618.9039,893.3166,564.7948,899,563Z" transform="translate(-27.1945 -41.6167)"/><path class="cls-67" d="M934.1631,581.6912l7.4107-18.7084s18.0469,12.2621,21.0147,27.8091A42.71,42.71,0,0,0,946.9,594.9966C945.5655,587.6556,934.1631,581.6912,934.1631,581.6912Z" transform="translate(-27.1945 -41.6167)"/><path class="cls-68" d="M918.3921,599.2951s20.2621,11.4512,27.0989,1.6733a7.6854,7.6854,0,0,0,1.4091-5.9718,42.71,42.71,0,0,1,15.6884-4.2047,21.4565,21.4565,0,0,1-2.3323,14.71c-11.9756,21.9068-44.5455-1.2107-44.5455-1.2107Z" transform="translate(-27.1945 -41.6167)"/><path class="cls-69" d="M920.8266,613.7821,909.7683,575.164a1.126,1.126,0,0,0-.9523-.8109c-2.0037-.2337-7.8092-.89-14.5124-1.457-8.0741-.6829-17.45-1.2363-23.0536-.7655a1.13,1.13,0,0,0-.9237,1.626c3.1862,6.4462,16.2924,32.6676,22.8556,41.2576a1.1331,1.1331,0,0,0,.9119.4475l25.6571-.2386A1.13,1.13,0,0,0,920.8266,613.7821Z" transform="translate(-27.1945 -41.6167)"/><path class="cls-70" d="M893.1566,569.5481l-8.0175-1.3359a.5754.5754,0,0,0-.641.7479l.7937,2.4049a.5752.5752,0,0,0,.47.39l7.7152,1.0306a.5755.5755,0,0,0,.6365-.7015l-.4914-2.1A.5754.5754,0,0,0,893.1566,569.5481Z" transform="translate(-27.1945 -41.6167)"/><path class="cls-71" d="M899.16,576.3356l-.66-3.44a.7954.7954,0,0,0-.7007-.6413l-16.1934-1.6432a.7952.7952,0,0,0-.8535.9769l1.0295,4.287a.7953.7953,0,0,0,.7333.6085l15.8243.7966A.7951.7951,0,0,0,899.16,576.3356Z" transform="translate(-27.1945 -41.6167)"/><path class="cls-72" d="M918.1549,604.452s1.54-6.3342.9191-8.5814-1.8253-5.1366-5.8383-4.4945a58.7167,58.7167,0,0,0-8.7466,2.3325,2.2971,2.2971,0,0,0,3.289,1.9827l-1.8912,1.4634s.27,2.3438,2.8464,1.0917l-1.759,1.9408a2.05,2.05,0,0,0,3.0018.69C911.8713,599.6427,912.78,605.2147,918.1549,604.452Z" transform="translate(-27.1945 -41.6167)"/><path class="cls-73" d="M880.8694,596.7644s-6.14-2.19-7.6771-3.9431-3.2912-4.3456-.5514-7.3472a58.713,58.713,0,0,1,6.7515-6.03,2.2971,2.2971,0,0,1-.1485,3.8375l2.2615-.7773s1.8105,1.5127-.65,2.9784l2.5878-.4046a2.05,2.05,0,0,1-1.071,2.8878C880.2994,588.8721,884.4578,592.6905,880.8694,596.7644Z" transform="translate(-27.1945 -41.6167)"/><path class="cls-74" d="M921.5049,546l6.1476,17.7785a.6406.6406,0,0,1-.2918.7715c-1.676.9266-7.7134,3.6046-14.9892-1.0083a3.0165,3.0165,0,0,1-1.389-2.1543L908.9917,546Z" transform="translate(-27.1945 -41.6167)"/><path class="cls-75" d="M908.1285,529.5365s-6.7508,12.7076-5.8855,17.8408,9.2319,4.7647,16.5378.5956l5.1053-13.7213Z" transform="translate(-27.1945 -41.6167)"/><path class="cls-76" d="M918.4579,541.2344a.5236.5236,0,0,1-.2286-.7666,13.6748,13.6748,0,0,0,1.8782-3.9876s1.2135-.7772-3.0889-1.807-10.7183-2.6283-12.0669-6.29c-1.3149-3.57,2.14-12.55,7.6514-5.3952a.5236.5236,0,0,0,.83.0059c.9035-1.1761,3.2788-3.617,6.5769-2.1372,3.0862,1.3848,3.4339,3.6462,3.3915,4.7862a.5207.5207,0,0,0,.6169.5332c1.5605-.2976,5.3049-.5532,7.0526,3.288,1.44,3.164.504,4.955-.3482,5.8308a.5222.5222,0,0,0,.2234.8671c1.0256.3138,2.35,1.1835,2.2173,3.5861-.1834,3.3215-3.8969,3.0288-4.9543,2.8775a.5241.5241,0,0,0-.4651.1644c-.9066,1.0032-4.9912,5.2631-9.412,5.7766a.5281.5281,0,0,1-.5541-.6979l1.9133-5.5614a.5262.5262,0,0,0-.2845-.6522Z" transform="translate(-27.1945 -41.6167)"/><path class="cls-77" d="M917.6889,542.0238s4.8065-3.2978,5.1576-.5206-4.3283,4.0226-6.6461,2.9873Z" transform="translate(-27.1945 -41.6167)"/></svg>