<svg id="Illustration" xmlns="http://www.w3.org/2000/svg" xmlns:xlink="http://www.w3.org/1999/xlink" width="2773.4013" height="2772.3956" viewBox="0 0 2773.4013 2772.3956"><defs><style>.cls-1{fill:url(#linear-gradient);}.cls-2{fill:url(#linear-gradient-2);}.cls-3{fill:#fff;}.cls-4{fill:url(#linear-gradient-3);}.cls-5{fill:#91b3fa;}.cls-6{fill:url(#linear-gradient-4);}.cls-7{fill:url(#linear-gradient-5);}.cls-8{fill:url(#linear-gradient-6);}.cls-9{fill:url(#linear-gradient-7);}.cls-10{fill:url(#linear-gradient-8);}.cls-11{fill:url(#linear-gradient-9);}.cls-12{fill:url(#linear-gradient-10);}.cls-13{fill:url(#linear-gradient-11);}.cls-14{fill:url(#linear-gradient-12);}.cls-15{fill:url(#linear-gradient-13);}.cls-16{fill:url(#linear-gradient-14);}.cls-17{fill:url(#linear-gradient-15);}.cls-18{fill:url(#linear-gradient-16);}.cls-19{fill:url(#linear-gradient-17);}.cls-20{fill:url(#linear-gradient-18);}.cls-21{fill:url(#linear-gradient-19);}.cls-22{fill:url(#linear-gradient-20);}.cls-23{fill:url(#linear-gradient-21);}.cls-24{fill:url(#linear-gradient-22);}.cls-25{fill:url(#linear-gradient-23);}.cls-26{fill:url(#linear-gradient-24);}.cls-27{fill:url(#linear-gradient-25);}.cls-28{fill:url(#linear-gradient-26);}.cls-29{fill:url(#linear-gradient-27);}.cls-30{fill:url(#linear-gradient-28);}.cls-31{fill:#7d97f4;}.cls-32{fill:url(#linear-gradient-29);}</style><linearGradient id="linear-gradient" x1="3588.5452" y1="4030.9831" x2="1129.0286" y2="976.4178" gradientUnits="userSpaceOnUse"><stop offset="0" stop-color="#dae3fe"/><stop offset="1" stop-color="#e9effd"/></linearGradient><linearGradient id="linear-gradient-2" x1="2994.2618" y1="592.3303" x2="2813.9028" y2="2162.1171" gradientUnits="userSpaceOnUse"><stop offset="0" stop-color="#ff928e"/><stop offset="1" stop-color="#fe7062"/></linearGradient><linearGradient id="linear-gradient-3" x1="2933.5792" y1="585.3603" x2="2753.2202" y2="2155.1471" xlink:href="#linear-gradient-2"/><linearGradient id="linear-gradient-4" x1="3059.1943" y1="599.793" x2="2878.8353" y2="2169.5797" xlink:href="#linear-gradient-2"/><linearGradient id="linear-gradient-5" x1="1957.8846" y1="1996.5473" x2="1825.001" y2="3529.1537" gradientUnits="userSpaceOnUse"><stop offset="0" stop-color="#4f52ff"/><stop offset="1" stop-color="#4042e2"/></linearGradient><linearGradient id="linear-gradient-6" x1="1874.9462" y1="2467.0006" x2="1839.8788" y2="1685.4864" gradientUnits="userSpaceOnUse"><stop offset="0" stop-color="#febbba"/><stop offset="1" stop-color="#ff928e"/></linearGradient><linearGradient id="linear-gradient-7" x1="1833.2217" y1="1829.6821" x2="1843.2419" y2="401.9117" xlink:href="#linear-gradient-6"/><linearGradient id="linear-gradient-8" x1="2261.9397" y1="1832.6906" x2="2271.9599" y2="404.9226" xlink:href="#linear-gradient-6"/><linearGradient id="linear-gradient-9" x1="1440.1721" y1="1826.9245" x2="1450.1922" y2="399.1579" xlink:href="#linear-gradient-6"/><linearGradient id="linear-gradient-10" x1="2302.0993" y1="1562.8204" x2="1605.9129" y2="509.6161" gradientUnits="userSpaceOnUse"><stop offset="0" stop-color="#09005d"/><stop offset="1" stop-color="#1a0f91"/></linearGradient><linearGradient id="linear-gradient-11" x1="2058.9937" y1="1205.5889" x2="2068.3515" y2="1113.05" xlink:href="#linear-gradient-10"/><linearGradient id="linear-gradient-12" x1="482.4195" y1="1205.5888" x2="491.7773" y2="1113.05" gradientTransform="matrix(-1, 0, 0, 1, 2137, 0)" xlink:href="#linear-gradient-10"/><linearGradient id="linear-gradient-13" x1="-2128.2179" y1="1729.2795" x2="-2037.2697" y2="1957.4211" gradientTransform="matrix(-1, 0, 0, 1, -1165.4333, 0)" xlink:href="#linear-gradient-10"/><linearGradient id="linear-gradient-14" x1="-2469.3758" y1="1530.916" x2="-2301.3567" y2="1913.1974" gradientTransform="matrix(-0.9776, -0.2106, -0.2106, 0.9776, -915.0133, -113.5247)" xlink:href="#linear-gradient-6"/><linearGradient id="linear-gradient-15" x1="-1692.3552" y1="2138.8815" x2="-1742.4525" y2="2950.4567" gradientTransform="matrix(-1, 0, 0, 1, -1165.4333, 0)" xlink:href="#linear-gradient-10"/><linearGradient id="linear-gradient-16" x1="-2121.6245" y1="3493.9871" x2="-2010.6424" y2="2196.8832" gradientTransform="matrix(-1, 0, 0, 1, -1165.4333, 0)" xlink:href="#linear-gradient-6"/><linearGradient id="linear-gradient-17" x1="-2025.6673" y1="2118.3125" x2="-2075.7645" y2="2929.885" gradientTransform="matrix(-1, 0, 0, 1, -1165.4333, 0)" xlink:href="#linear-gradient-10"/><linearGradient id="linear-gradient-18" x1="-1898.3772" y1="3513.2874" x2="-1787.3659" y2="2215.8425" gradientTransform="matrix(-1, 0, 0, 1, -1165.4333, 0)" xlink:href="#linear-gradient-6"/><linearGradient id="linear-gradient-19" x1="1281.5993" y1="1210.9429" x2="1116.279" y2="1691.8751" xlink:href="#linear-gradient-2"/><linearGradient id="linear-gradient-20" x1="1153.8951" y1="2104.2207" x2="642.9034" y2="3051.0569" xlink:href="#linear-gradient-10"/><linearGradient id="linear-gradient-21" x1="-2133.7956" y1="2215.431" x2="-2112.9479" y2="2062.9149" gradientTransform="matrix(-1, 0, 0, 1, -1165.4333, 0)" xlink:href="#linear-gradient-6"/><linearGradient id="linear-gradient-22" x1="536.877" y1="2360.3678" x2="1007.5672" y2="2163.4603" xlink:href="#linear-gradient-6"/><linearGradient id="linear-gradient-23" x1="-2318.9827" y1="1713.1405" x2="-2137.0785" y2="1389.4121" gradientTransform="matrix(-0.9809, -0.1943, -0.1943, 0.9809, -936.3432, -99.2406)" xlink:href="#linear-gradient-6"/><linearGradient id="linear-gradient-24" x1="-2279.8626" y1="1431.2246" x2="-2188.9106" y2="1659.3756" gradientTransform="matrix(-0.9809, -0.1943, -0.1943, 0.9809, -936.3432, -99.2406)" xlink:href="#linear-gradient-10"/><linearGradient id="linear-gradient-25" x1="-2280.2629" y1="1734.9001" x2="-2098.3587" y2="1411.1719" gradientTransform="matrix(-0.9809, -0.1943, -0.1943, 0.9809, -936.3432, -99.2406)" xlink:href="#linear-gradient-6"/><linearGradient id="linear-gradient-26" x1="-2502.5795" y1="1545.51" x2="-2334.5604" y2="1927.7914" gradientTransform="matrix(-0.9776, -0.2106, -0.2106, 0.9776, -915.0133, -113.5247)" xlink:href="#linear-gradient-6"/><linearGradient id="linear-gradient-27" x1="1273.5777" y1="1801.0292" x2="1318.8206" y2="1801.0292" xlink:href="#linear-gradient-6"/><linearGradient id="linear-gradient-28" x1="1270.4773" y1="1407.0533" x2="1317.237" y2="1193.2951" xlink:href="#linear-gradient-10"/><linearGradient id="linear-gradient-29" x1="952.4372" y1="2250.4748" x2="1038.8901" y2="2250.4748" xlink:href="#linear-gradient-6"/></defs><path class="cls-1" d="M2920.226,2820.6033c-56.95,59.16-110.8346,97.3113-153.4086,127.4538-500.4448,354.3179-1092.6037,251.0361-1218.4545,225.8134-185.8416-37.2454-545.07-109.24-804.7849-410.6139C350.65,2307.303,411.835,1588.9608,716.6163,1114.7732c55.7492-86.737,350.2332-568.1475,948.77-645.35,362.2281-46.7224,784.47,47.5112,1090.2455,300.2968C3397.4827,1300.3394,3351.79,2372.2854,2920.226,2820.6033Z" transform="translate(-468.2993 -450.7912)"/><path class="cls-2" d="M3111.4516,1437.2931c0,5.7112-.2349,11.3894-.7356,17.0008-5.1094,61.5889-37.9416,116.9324-86.7055,153.2375a222.6349,222.6349,0,0,1-121.6089,43.8877c-120.4054,6.3456-220.7383-84.4012-220.7383-202.8369,0-61.1881,26.7866-116.3979,69.3044-155.4755a217.9842,217.9842,0,0,1,20.441-16.6664,223.5,223.5,0,0,1,130.9929-42.2846C3019.2337,1234.1557,3111.4516,1325.1035,3111.4516,1437.2931Z" transform="translate(-468.2993 -450.7912)"/><path class="cls-3" d="M2892.148,1590.43c-80.0342,0-145.1449-65.1113-145.1449-145.1441s65.1107-145.1437,145.1449-145.1437c80.0319,0,145.1426,65.1113,145.1426,145.1437S2972.18,1590.43,2892.148,1590.43Zm0-280.5231c-74.6488,0-135.38,60.7307-135.38,135.379s60.7314,135.3794,135.38,135.3794c74.6465,0,135.3779-60.7311,135.3779-135.3794S2966.7945,1309.9073,2892.148,1309.9073Z" transform="translate(-468.2993 -450.7912)"/><circle class="cls-3" cx="2821.8666" cy="1414.8779" r="18.7156" transform="translate(328.2054 3385.3921) rotate(-76.7174)"/><circle class="cls-3" cx="2961.0134" cy="1414.8779" r="18.7156" transform="translate(-601.5083 2057.3696) rotate(-45)"/><path class="cls-3" d="M2825.1831,1490.148a4.8828,4.8828,0,0,1,4.4437,2.8556c9.2212,20.1949,34.7271,33.7632,63.47,33.7632,28.96,0,53.7416-13.2549,63.1344-33.7679a4.8821,4.8821,0,1,1,8.8778,4.0652c-10.9781,23.9755-39.2447,39.4673-72.0122,39.4673-33.0035,0-61.4036-15.4936-72.3531-39.472a4.8839,4.8839,0,0,1,4.4389-6.9114Z" transform="translate(-468.2993 -450.7912)"/><path class="cls-4" d="M3109.0877,922.7356c0,5.7112-.2348,11.3894-.7355,17.0008-5.11,61.5889-37.9417,116.9324-86.7056,153.2375a222.6349,222.6349,0,0,1-121.6089,43.8877c-120.4054,6.3456-220.7383-84.4012-220.7383-202.8369,0-61.1881,26.7867-116.3979,69.3044-155.4755a217.9984,217.9984,0,0,1,20.4411-16.6664,223.4992,223.4992,0,0,1,130.9928-42.2846C3016.87,719.5982,3109.0877,810.546,3109.0877,922.7356Z" transform="translate(-468.2993 -450.7912)"/><path class="cls-3" d="M2886.29,1075.8729c-80.0343,0-145.1449-65.1113-145.1449-145.1441S2806.256,785.5851,2886.29,785.5851s145.1449,65.1113,145.1449,145.1437S2966.3245,1075.8729,2886.29,1075.8729Zm0-280.5231c-74.6489,0-135.38,60.7308-135.38,135.379s60.7313,135.3794,135.38,135.3794,135.38-60.7311,135.38-135.3794S2960.9392,795.35,2886.29,795.35Z" transform="translate(-468.2993 -450.7912)"/><circle class="cls-3" cx="2348.4175" cy="473.9409" r="18.7157"/><circle class="cls-3" cx="2487.5644" cy="473.9409" r="18.7157"/><path class="cls-3" d="M2911.8988,990.1278a4.8834,4.8834,0,0,1-4.8085-4.0679c-2.5556-15.0869-11.3023-26.037-20.8-26.037-9.4739,0-18.2158,10.92-20.7881,25.9658a4.8831,4.8831,0,0,1-9.6265-1.6461c3.4329-20.0685,15.9392-34.0844,30.4146-34.0844,14.5064,0,27.02,14.0517,30.4264,34.1711a4.8865,4.8865,0,0,1-4.8179,5.6985Z" transform="translate(-468.2993 -450.7912)"/><path class="cls-3" d="M2841.5863,907.39a4.8675,4.8675,0,0,1-3.452-1.43l-26.3952-26.3952a4.882,4.882,0,0,1,6.904-6.9045l26.3952,26.3952a4.8824,4.8824,0,0,1-3.452,8.3346Z" transform="translate(-468.2993 -450.7912)"/><path class="cls-3" d="M2925.0439,907.39a4.8824,4.8824,0,0,1-3.452-8.3346l26.3952-26.3952a4.882,4.882,0,0,1,6.904,6.9045L2928.4959,905.96A4.8675,4.8675,0,0,1,2925.0439,907.39Z" transform="translate(-468.2993 -450.7912)"/><path class="cls-3" d="M2624.9463,1455.8334h-.0978l-20.04-.2806a6.6806,6.6806,0,0,1,.1892-13.36l20.04.2805a6.68,6.68,0,0,1-.0914,13.36Z" transform="translate(-468.2993 -450.7912)"/><path class="cls-3" d="M2565.7858,1455.0049h-.0979l-39.1207-.548a6.68,6.68,0,0,1,.0913-13.36h.0978l39.1208.548a6.68,6.68,0,0,1-.0913,13.36Zm-78.2448-1.0959h-.0978l-39.1208-.55a6.681,6.681,0,0,1-6.5853-6.7746,6.8231,6.8231,0,0,1,6.7745-6.5853l39.1208.55a6.68,6.68,0,0,1-.0914,13.36Zm-78.2414-1.0976h-.0979l-39.1207-.548a6.68,6.68,0,0,1-6.5854-6.7729,6.7841,6.7841,0,0,1,6.7745-6.587l39.1208.548a6.68,6.68,0,0,1-.0913,13.36Z" transform="translate(-468.2993 -450.7912)"/><path class="cls-3" d="M2331.0581,1451.7138h-.0979l-20.04-.2805a6.6806,6.6806,0,1,1,.1892-13.36l20.04.2805a6.68,6.68,0,0,1-.0913,13.36Z" transform="translate(-468.2993 -450.7912)"/><path class="cls-5" d="M784.849,1312.2034a16.9556,16.9556,0,1,1-16.8435-17.0666A16.9549,16.9549,0,0,1,784.849,1312.2034Z" transform="translate(-468.2993 -450.7912)"/><path class="cls-5" d="M784.2852,1312.2a16.3918,16.3918,0,1,1-16.2834-16.4991A16.392,16.392,0,0,1,784.2852,1312.2Z" transform="translate(-468.2993 -450.7912)"/><path class="cls-5" d="M784.849,1414.9894a16.9556,16.9556,0,1,1-16.8435-17.0666A16.9552,16.9552,0,0,1,784.849,1414.9894Z" transform="translate(-468.2993 -450.7912)"/><path class="cls-5" d="M784.2852,1414.9857a16.3918,16.3918,0,1,1-16.2834-16.4991A16.392,16.392,0,0,1,784.2852,1414.9857Z" transform="translate(-468.2993 -450.7912)"/><path class="cls-5" d="M784.849,1517.7757a16.9556,16.9556,0,1,1-16.8435-17.0666A16.9551,16.9551,0,0,1,784.849,1517.7757Z" transform="translate(-468.2993 -450.7912)"/><path class="cls-5" d="M784.2852,1517.7721a16.3918,16.3918,0,1,1-16.2834-16.4992A16.3917,16.3917,0,0,1,784.2852,1517.7721Z" transform="translate(-468.2993 -450.7912)"/><path class="cls-3" d="M810.9325,1311.3213l.0781,2.8878c.2115,7.8175,5.0945,14.02,11.0614,14.0509l454.1244.688c6.1616.0314,11.1659-6.5146,11.1552-14.5916h0c-.01-7.9208-4.8463-14.3793-10.8873-14.54L822.262,1296.241C815.883,1296.072,810.7064,1302.9634,810.9325,1311.3213Z" transform="translate(-468.2993 -450.7912)"/><path class="cls-3" d="M810.9325,1413.606l.0781,2.8877c.2115,7.8172,5.0945,14.0206,11.0614,14.0506l454.1244.6884c6.1616.0317,11.1659-6.5146,11.1552-14.5917h0c-.01-7.9207-4.8463-14.38-10.8873-14.5392l-454.2023-3.5761C815.883,1398.357,810.7064,1405.2477,810.9325,1413.606Z" transform="translate(-468.2993 -450.7912)"/><path class="cls-3" d="M810.9325,1515.8907l.0781,2.8877c.2115,7.8175,5.0945,14.0205,11.0614,14.0506l454.1244.6884c6.1616.0314,11.1659-6.5147,11.1552-14.5914h0c-.01-7.9211-4.8463-14.38-10.8873-14.5392L822.262,1500.81C815.883,1500.6413,810.7064,1507.5324,810.9325,1515.8907Z" transform="translate(-468.2993 -450.7912)"/><path class="cls-6" d="M3115.4355,1975.2322c0,5.7113-.2349,11.3895-.7355,17.0008-5.11,61.5889-37.9417,116.9325-86.7056,153.2376a222.6356,222.6356,0,0,1-121.6089,43.8877c-120.4054,6.3456-220.7383-84.4012-220.7383-202.8369,0-61.1882,26.7866-116.398,69.3044-155.4755a217.9835,217.9835,0,0,1,20.4411-16.6665,223.5,223.5,0,0,1,130.9928-42.2845C3023.2177,1772.0949,3115.4355,1863.0427,3115.4355,1975.2322Z" transform="translate(-468.2993 -450.7912)"/><path class="cls-3" d="M2900.54,2134.4915c-84.7,0-153.6061-68.9081-153.6061-153.6082s68.9065-153.6081,153.6061-153.6081,153.6094,68.9085,153.6094,153.6081S2985.2393,2134.4915,2900.54,2134.4915Zm0-293.8565c-77.3315,0-140.2462,62.9152-140.2462,140.2483s62.9147,140.2483,140.2462,140.2483c77.3347,0,140.25-62.9148,140.25-140.2483S2977.8744,1840.635,2900.54,1840.635Z" transform="translate(-468.2993 -450.7912)"/><circle class="cls-3" cx="2826.9192" cy="1949.0295" r="19.6052" transform="translate(-1018.4858 2119.0001) rotate(-45)"/><circle class="cls-3" cx="2972.6799" cy="1949.0295" r="19.6052" transform="translate(-975.7935 2222.0685) rotate(-45)"/><path class="cls-3" d="M2976.5158,2005.8308c0,33.4-33.7256,58.8157-75.3281,58.8157s-75.3281-25.416-75.3281-58.8157Z" transform="translate(-468.2993 -450.7912)"/><path class="cls-7" d="M3020.8,2486.9764c-20.4328-62.5007-56.401-118.061-103.5378-163.0867-59.6131-56.9426-137.09-97.0377-223.5989-113.0146,0,0-112.2823-19.4081-235.473-51.1406-40.2471-10.3672-83.3188-1.6821-115.6013,23.1238-86.0672,66.1341-247.6815,152.23-501.5472,146.4244-229.9656-5.2588-362.1372-74.0909-433.788-133.3381-33.3444-27.5721-79.2717-37.3772-121.9425-25.6745-92.7541,25.4385-169.9007,40.605-169.9007,40.605-154.9148,28.61-351.8663,134.5594-398.1385,276.1013-44.3318,135.6051-89.5734,358.9151-94.399,545.7985-1.7545,67.946,56.171,124.0354,128.6584,124.0354H2986.54c72.4874,0,130.4129-56.0894,128.6584-124.0354C3110.3731,2845.8915,3065.1316,2622.5815,3020.8,2486.9764Z" transform="translate(-468.2993 -450.7912)"/><path class="cls-8" d="M1841.042,2340.8476c313.0312,7.6354,532.4953-117.9735,596.3193-184.7187-126.9122-39.3249-292.6572-106.801-294.6412-162.7523l-19.112-538.9579h-504.157l-19.1119,538.9579c-2.1182,59.7223-195.3253,137.7249-315.0277,177.88C1336.491,2236.6521,1544.355,2333.6116,1841.042,2340.8476Z" transform="translate(-468.2993 -450.7912)"/><path class="cls-9" d="M1429.359,976.462s72.5493,785.9117,284.4263,870.376c0,0,171.93,74.0509,315.5489-9.7287,0,0,236.8852-215.586,219.8579-854.6643,0,0,19.6127-370.2941-388.9687-400.94C1381.4873,545.6007,1429.359,976.462,1429.359,976.462Z" transform="translate(-468.2993 -450.7912)"/><path class="cls-10" d="M2207.3052,1252.78s35.9054-107.7167,95.7447-107.7167c59.8421,0-11.9664,287.2441-95.7447,287.2441Z" transform="translate(-468.2993 -450.7912)"/><path class="cls-11" d="M1508.0325,1228.2129s-49.3674-91.2207-108.6651-83.1493c-59.2946,8.0683,25.6518,298.044,108.6651,286.7487Z" transform="translate(-468.2993 -450.7912)"/><path class="cls-12" d="M1494.6636,1175.4264a43.3712,43.3712,0,0,1-58.381-24.8227c-15.102-41.5847-38.2938-104.7843-57.0751-153.0793-30.5833-78.643-192.2382-179.1311-21.8452-375.7384s266.89,16.7767,380.2961-39.671,248.8472-187.52,366.8116-104.5077,39.3214,161.6549,78.6429,183.5,100.4881-91.75,144.1786,61.1668c33.8034,118.3112-21.2584,336.1255-47.911,428.65a36.6039,36.6039,0,0,1-52.6081,22.0632h0a36.5557,36.5557,0,0,1-19.0565-29.08c-2.9521-34.8637-9.8911-112.1037-20.2335-198.8114-14.0744-117.9924-121.7606,45.4809-331.7612,68.6155s-192.5249-90.4608-293.013-90.4608c-42.3943,0-43.6792,147.8753-42.2636,211.62a43.3425,43.3425,0,0,1-25.78,40.5557Z" transform="translate(-468.2993 -450.7912)"/><path class="cls-5" d="M1432.6837,1065.631c-.0424.0073.5414-.3523,1.2264-.9708a8.4008,8.4008,0,0,0,2.0451-3.2331c1.2459-3.36,1.05-9.3468-1.51-16.5046a206.9483,206.9483,0,0,0-9.896-26.1881,321.6187,321.6187,0,0,0-16.85-32.2194c-6.6636-11.5847-14.3253-23.9188-22.4763-37.0431-8.1151-13.1433-16.6607-27.1307-24.4953-42.31-7.815-15.09-14.9418-31.7591-19.2668-49.1892a210.0976,210.0976,0,0,1-6.3016-54.74,219.8231,219.8231,0,0,1,8.3238-54.35,197.0852,197.0852,0,0,1,21.462-48.8019,194.34,194.34,0,0,1,31.2078-38.8455,200.0226,200.0226,0,0,1,35.2752-27.1234,210.5317,210.5317,0,0,1,33.6966-16.3839q3.9483-1.38,7.6323-2.67c2.4659-.8191,4.8991-1.45,7.2018-2.14,4.5925-1.4429,8.94-2.2922,12.8087-3.2168a151.1816,151.1816,0,0,1,18.2263-2.92l6.4843-.6527a1.6691,1.6691,0,0,1,.5088,3.2943l-.1044.0212s-2.1788.4477-6.2689,1.2867c-2.0386.424-4.5631.88-7.4726,1.71-2.9094.7995-6.3146,1.4392-9.9971,2.6631-3.6889,1.1869-7.8215,2.3179-12.153,4.0556-2.1756.837-4.4653,1.6178-6.7843,2.5881q-3.4493,1.51-7.1431,3.1267a219.1679,219.1679,0,0,0-31.4134,17.4228,206.716,206.716,0,0,0-32.5908,26.9428,196.61,196.61,0,0,0-48.7623,83.0789,207.6271,207.6271,0,0,0-8.0923,51.2078,205.4555,205.4555,0,0,0,5.235,51.4438c.9655,4.0853,2.3289,8.6447,3.4183,12.485,1.4123,4.0233,2.6974,8.0649,4.188,12.02,1.6211,3.9124,3.0432,7.8721,4.736,11.7083,1.7515,3.8137,3.3563,7.6543,5.1958,11.3727,7.1921,14.9393,15.2322,28.9744,22.9591,42.2907,7.7433,13.3093,15.1864,25.93,21.54,37.9114a327.894,327.894,0,0,1,15.6855,33.606,212.708,212.708,0,0,1,8.8979,27.1964c2.28,7.7584,2.3125,14.7559.3588,19.2518a11.7352,11.7352,0,0,1-3.3987,4.5659c-.9883.7588-1.3993.95-1.4156.9863a1.67,1.67,0,1,1-1.9211-2.7329Z" transform="translate(-468.2993 -450.7912)"/><path class="cls-5" d="M1454.09,1074.0082a1.7281,1.7281,0,0,1-.3164-.0293,1.6694,1.6694,0,0,1-1.3275-1.9538c9.0675-47.5081-14.4885-93.0919-37.2714-137.1769-22.0816-42.73-44.9167-86.916-39.2381-133.8028,7.9683-65.7932,69.07-110.9057,114.3353-139.1161a1.67,1.67,0,1,1,1.7679,2.8344c-44.6852,27.8467-104.9907,72.3117-112.7894,136.6829-5.5546,45.8659,17.0424,89.5872,38.8925,131.8686,23.0406,44.5889,46.87,90.6946,37.5844,139.3362A1.6711,1.6711,0,0,1,1454.09,1074.0082Z" transform="translate(-468.2993 -450.7912)"/><path class="cls-5" d="M1760.686,904.501s.212.5924.623,1.74c.4533,1.1085.9393,2.9383,1.908,4.9847a62.2744,62.2744,0,0,0,10.8126,16.3647,71.7834,71.7834,0,0,0,10.4308,9.4687,83.24,83.24,0,0,0,14.3287,8.4094,90.4264,90.4264,0,0,0,38.5532,8.2843c14.7363-.0041,30.4674-3.2825,46.316-9.2929,15.8518-5.9857,31.8047-14.4954,47.712-24.2935,8.1021-4.9211,16.103-10.0037,24.1985-15.2244q12.1286-7.959,24.41-16.3166c16.3607-11.13,32.9235-22.6333,49.8648-33.6957,16.9477-11.0437,34.2608-21.7046,52.1088-30.887,17.8512-9.136,36.1591-16.9747,54.6366-22.3744,4.5729-1.4825,9.27-2.4218,13.8328-3.6385,4.6023-1.2255,9.1034-2.1258,13.7937-2.9155a124.197,124.197,0,0,1,27.5417-1.74,77.074,77.074,0,0,1,25.9337,5.8327,32.3812,32.3812,0,0,1,2.9551,1.345l1.445.7254.7175.362.3588.1806.1794.0905.3719.2206q2.544,1.5938,5.0393,3.1594a60.6,60.6,0,0,1,5.01,3.8092,36.7263,36.7263,0,0,1,4.54,4.146,76.16,76.16,0,0,1,7.6161,8.871,91.9585,91.9585,0,0,1,5.7731,9.43,102.0259,102.0259,0,0,1,4.4555,9.4116c1.1644,3.1475,2.3158,6.2033,3.2128,9.2126a189.3263,189.3263,0,0,1,6.432,31.5977c1.1384,8.8233,1.4939,15.7776,1.7907,20.5087.2251,4.7319.3458,7.2552.3458,7.2552a1.67,1.67,0,0,1-3.327.2711l-.0032-.0277s-.2773-2.494-.8024-7.1708c-.6034-4.661-1.3993-11.513-2.8833-20.1149a183.6552,183.6552,0,0,0-7.6585-30.284,108.63,108.63,0,0,0-7.8378-17.1846,84.4276,84.4276,0,0,0-5.5123-8.4588,68.4123,68.4123,0,0,0-7.0355-7.7233,29.8328,29.8328,0,0,0-3.9923-3.4492,47.6192,47.6192,0,0,0-4.3478-3.1484q-2.5392-1.4922-5.1274-3.0121l-2.3321-1.0825a25.9848,25.9848,0,0,0-2.6061-1.0959,68.246,68.246,0,0,0-23.1515-4.4783,119.813,119.813,0,0,0-25.4608,2.0552c-4.26.7808-8.7576,1.7438-13.0957,2.98-4.3739,1.2419-8.8652,2.1963-13.2522,3.6959a308.9709,308.9709,0,0,0-52.8068,21.9756c-17.3979,8.9713-34.5511,19.2322-51.3912,30.0859-16.8532,10.84-33.4487,22.1979-49.9365,33.2509q-12.3634,8.3057-24.678,16.2518c-8.2717,5.2477-16.4781,10.44-24.6421,15.1045-16.4193,9.6473-32.9887,18.0742-49.6625,23.9828-16.6086,5.9285-33.4911,9.0867-48.9906,8.7674a95.3177,95.3177,0,0,1-41.0647-10.1826,88.5941,88.5941,0,0,1-14.9516-9.4715,76.7317,76.7317,0,0,1-10.79-10.4806,64.53,64.53,0,0,1-10.8223-18.1069c-.9361-2.2681-1.2982-3.9878-1.7091-5.1559-.3588-1.1653-.5447-1.7667-.5447-1.7667a1.67,1.67,0,0,1,3.1671-1.0567Z" transform="translate(-468.2993 -450.7912)"/><path class="cls-3" d="M1722.8338,1606.82c89.2038,117.0879,176.77,101.79,289.8523,0C1921.4528,1625.7952,1814.0671,1631.8269,1722.8338,1606.82Z" transform="translate(-468.2993 -450.7912)"/><path class="cls-13" d="M1930.4632,1172.8279h0a13.9973,13.9973,0,0,0,18.3745,13.319c43.8773-14.5856,157.4985-44.0429,243.36,6.6939,0,0-47.986-110.3679-252.7519-33.1015A13.9783,13.9783,0,0,0,1930.4632,1172.8279Z" transform="translate(-468.2993 -450.7912)"/><path class="cls-14" d="M1783.111,1172.8279h0a13.9975,13.9975,0,0,1-18.3749,13.319c-43.8775-14.5856-157.4982-44.0429-243.36,6.6939,0,0,47.9859-110.3679,252.7513-33.1015A13.9785,13.9785,0,0,1,1783.111,1172.8279Z" transform="translate(-468.2993 -450.7912)"/><path class="cls-3" d="M1441.05,1011.2256a16.7,16.7,0,0,1-16.7-16.7v-120.59a58.2113,58.2113,0,0,1,58.1461-58.1462h83.457a16.7,16.7,0,0,1,0,33.4h-83.457a24.7755,24.7755,0,0,0-24.7464,24.7465v120.59A16.7,16.7,0,0,1,1441.05,1011.2256Z" transform="translate(-468.2993 -450.7912)"/><path class="cls-3" d="M2250.1094,1011.2256a16.7,16.7,0,0,1-16.7-16.7v-120.59a24.7755,24.7755,0,0,0-24.7464-24.7465h-83.4569a16.7,16.7,0,1,1,0-33.4h83.4569a58.2114,58.2114,0,0,1,58.1462,58.1462v120.59A16.7,16.7,0,0,1,2250.1094,1011.2256Z" transform="translate(-468.2993 -450.7912)"/><path class="cls-3" d="M1565.9532,1965.445h-83.457a58.2113,58.2113,0,0,1-58.1461-58.1462v-120.59a16.7,16.7,0,1,1,33.4,0v120.59a24.7755,24.7755,0,0,0,24.7464,24.7465h83.457a16.7,16.7,0,0,1,0,33.4Z" transform="translate(-468.2993 -450.7912)"/><path class="cls-3" d="M2208.6631,1965.445h-83.4569a16.7,16.7,0,1,1,0-33.4h83.4569a24.7755,24.7755,0,0,0,24.7464-24.7465v-120.59a16.7,16.7,0,0,1,33.4,0v120.59A58.2114,58.2114,0,0,1,2208.6631,1965.445Z" transform="translate(-468.2993 -450.7912)"/><path class="cls-3" d="M2186.6206,1909.7272H1503.4135a24.4968,24.4968,0,0,1-24.4692-24.4709V892.9811a24.4981,24.4981,0,0,1,24.4692-24.4725h683.2071a24.4967,24.4967,0,0,1,24.4692,24.4708v992.2769A24.4968,24.4968,0,0,1,2186.6206,1909.7272ZM1503.4135,878.5285a14.4662,14.4662,0,0,0-14.4493,14.4526v992.2752a14.4659,14.4659,0,0,0,14.4493,14.451h683.2071a14.4659,14.4659,0,0,0,14.4493-14.451V892.9794a14.4658,14.4658,0,0,0-14.4493-14.4509Z" transform="translate(-468.2993 -450.7912)"/><path class="cls-15" d="M908.8577,1852.0012s-30.6611,14.9138-36.2984,32.0458c-4.5233,13.7464-38.4263,15.5184-41.7753,42.5535-1.7291,13.9584-12.0583,25.137-25.9609,27.2679-34.626,5.3073-87.9879,23.2879-96.526,83.4063-6.517,45.8878,16.8759,63.2878,41.4262,69.3105,18.0314,4.4234,30.0143,21.962,26.3671,40.1663-3.4983,17.4608,1.7185,37.646,31.9681,53.6077,67.7869,35.7688,135.4829-84.7391,135.4829-84.7391l13.8735-210.4145Z" transform="translate(-468.2993 -450.7912)"/><path class="cls-16" d="M1277.7064,1802.1183s-135.3458,214.08-296.2883,255.4292c0,0,31.36,89.32,55.5653,99.5421,0,0,198.0044-165.2121,248.8886-324.5513Z" transform="translate(-468.2993 -450.7912)"/><path class="cls-17" d="M630.2251,3171.37l-4.3868,36.0609a14.897,14.897,0,0,1-13.0652,13.0326c-11.56,1.3205-30.1115,2.6741-48.262.7553a12.757,12.757,0,0,1-10.7122-16.5444c4.4247-13.9209,12.5195-34.8183,24.19-47.1158h40.0029A12.3232,12.3232,0,0,1,630.2251,3171.37Z" transform="translate(-468.2993 -450.7912)"/><path class="cls-18" d="M943.5414,2748.9385l6.752,39.7177s-22.6107,229.0271-26.6325,320.6377a71.7785,71.7785,0,0,0,10.6236,40.7983l39.3161,63.8456L873.68,3154.9755l-1.9892-12.1936,16.3572-22.49-21.4253-256.567a78.717,78.717,0,0,1,8.9582-43.5388l20.668-38.8275Z" transform="translate(-468.2993 -450.7912)"/><path class="cls-19" d="M980.1807,3223.1868H948.2938a19.197,19.197,0,0,1-15.2375-7.47C923.1156,3202.8,902.52,3177.6,892.672,3176.9419c-13.2572-.8856-11.5613,46.2449-11.5613,46.2449H873.68l-9.413-58.5651a34.6679,34.6679,0,0,1,18.1917-36.237s3.0306,22.4117,19.4628,32.3251,66.8684,45.415,66.8684,45.415a45.56,45.56,0,0,1,12.96.3449C991.81,3208.288,990.4047,3223.1868,980.1807,3223.1868Z" transform="translate(-468.2993 -450.7912)"/><path class="cls-20" d="M806.6822,2767.8026s-132.46,251.2639-153.5162,308.6314-28.4323,105.2251-28.7148,109.7568c-.4413,7.0815-9.249,13.8735-33.5276,13.8735-12.53,0-18.6658-5.0226-21.67-9.8838a14.1547,14.1547,0,0,1-.5359-13.7089c7.6622-15.5067,31.9779-65.0619,40.9835-87.538,10.7522-26.8353,33.88-148.4486,46.5644-190.732s27.0218-88.15,82.2587-130.399C738.5238,2767.8026,776.4418,2730.6643,806.6822,2767.8026Z" transform="translate(-468.2993 -450.7912)"/><path class="cls-21" d="M890.36,2356.0939c34.1686-144.7864-52.3908-226.6759-52.3908-226.6759,54.6173-52.4264,154.13-76.2827,154.13-76.2827s94.9563,69.4216,83.6917,123.7594c-6.6023,31.8476-66.7453,190.7605-66.7453,190.7605S953.4313,2393.9751,890.36,2356.0939Z" transform="translate(-468.2993 -450.7912)"/><path class="cls-22" d="M814.6027,2427.7736c13.9054-41.8914,75.7569-71.68,75.7569-71.68,63.0717,37.8812,118.6853,11.5613,118.6853,11.5613s12.4721,47.672,3.8639,91.9751-62.6153,329.0256-62.6153,329.0256c-85.0973,17.2425-215.9755-17.3477-215.9755-17.3477C788.5218,2675.0733,800.6974,2469.6651,814.6027,2427.7736Z" transform="translate(-468.2993 -450.7912)"/><path class="cls-23" d="M930.0211,1957.4556l-27.78,124.7816c-2.66,10.9909,7.36,9.1923,18.4722,7.0973,18.1979-3.4308,41.6525-10.497,49.4931-24.6573a13.4381,13.4381,0,0,0,1.4217-4.7023l11.9347-86.5265a15.5464,15.5464,0,0,0-9.099-16.3363L951.4333,1946.9A15.5466,15.5466,0,0,0,930.0211,1957.4556Z" transform="translate(-468.2993 -450.7912)"/><path class="cls-24" d="M837.9688,2129.418s-268.1353,265.4328,120.7281,159.4783c0,0,4.4344-33.5521-1.3532-32.9747-126.1007,12.5806-178.8434,41.451-76.3367-57.947,3.6242-3.5142,2.504-16.779.1732-21.2569C874.0827,2163.0826,857.85,2136.0057,837.9688,2129.418Z" transform="translate(-468.2993 -450.7912)"/><path class="cls-25" d="M983.23,1843.7043s29.5748,20.02,42.2831,71.0024-7.9441,69.2705-29.1138,68.15-51.8642-7.6673-78.4591-44.2427S944.4749,1819.2413,983.23,1843.7043Z" transform="translate(-468.2993 -450.7912)"/><path class="cls-26" d="M944.76,1918.05s-10.8363-73.0537,49.8169-61.88l12.2642,12.7683s29.6879-33.4339-3.1661-58.7071-78.4452-18.801-103.6685,27.2094-34.3778,78.3411-13.2361,106.9315,37.0444,4.07,37.0444,4.07-9.6958-24.745-1.6508-35.3632,18.4246,6.175,18.4246,6.175Z" transform="translate(-468.2993 -450.7912)"/><path class="cls-27" d="M936.47,1924.3065s-5.35-37.5856-24.5458-26.841,6.9182,35.11,17.3884,43.4006Z" transform="translate(-468.2993 -450.7912)"/><path class="cls-28" d="M1276.7764,1846.19c.41,4.4159-16.0117,7.4679-21.2378-11.3579,1.4365-8.1735,3.9883-43.9656,10.255-49.526,33.3773-29.6156,92.8957-62.9313,92.8957-62.9313,6.6566,10.1627-2.0733,16.8564-2.0733,16.8564l-29.71,20.05c3.0992,10.265,7.622,19.34,8.1335,31.06a34.7821,34.7821,0,0,1-8.7816,24.2952c-5.9126,6.7561-13.8726,15.4791-21.0479,22.102C1291.6281,1849.2736,1276.7764,1846.19,1276.7764,1846.19Z" transform="translate(-468.2993 -450.7912)"/><path class="cls-29" d="M1292.9147,1831.6l-4.5407-1.8682c.6032-1.4693,14.8611-36.1151,21.7566-43.3219,2.6206-2.7341,3.8855-5.0759,3.7688-6.9635a4.9556,4.9556,0,0,0-1.5244-3.0585l-24.04,12.8567-10.6188,16.6256-4.1385-2.6466,11.3064-17.7088,28.159-15.0558,1.2714,1.0346c2.8477,2.3288,4.32,4.8294,4.4889,7.6512.2075,3.36-1.4661,6.8467-5.1181,10.6642C1308.4894,1795.2349,1296.93,1821.8144,1292.9147,1831.6Z" transform="translate(-468.2993 -450.7912)"/><path class="cls-30" d="M943.019,2343.647l64.8919-226.6173a6.6077,6.6077,0,0,1,5.589-4.7586c11.7574-1.3714,45.8253-5.2227,85.16-8.55,47.38-4.0077,102.4026-7.2551,135.2825-4.4926a6.63,6.63,0,0,1,5.42,9.5419c-18.6974,37.8274-95.6069,191.6992-134.1208,242.1061a6.65,6.65,0,0,1-5.3505,2.6265l-150.56-1.4007A6.6305,6.6305,0,0,1,943.019,2343.647Z" transform="translate(-468.2993 -450.7912)"/><path class="cls-31" d="M1105.3914,2084.0744l47.0479-7.8393a3.3767,3.3767,0,0,1,3.7616,4.3891l-4.6573,14.1127a3.3768,3.3768,0,0,1-2.7595,2.2888l-45.2738,6.0477a3.3767,3.3767,0,0,1-3.735-4.1164l2.8831-12.3212A3.3768,3.3768,0,0,1,1105.3914,2084.0744Z" transform="translate(-468.2993 -450.7912)"/><path class="cls-5" d="M1070.1633,2123.9041l3.8756-20.1885a4.6666,4.6666,0,0,1,4.1118-3.7629l95.0258-9.6428a4.6667,4.6667,0,0,1,5.0087,5.7326l-6.0421,25.1567a4.6665,4.6665,0,0,1-4.3029,3.5709l-92.8594,4.6745A4.6665,4.6665,0,0,1,1070.1633,2123.9041Z" transform="translate(-468.2993 -450.7912)"/><path class="cls-32" d="M958.6969,2288.8963s-9.0394-37.17-5.3931-50.3574,10.7109-30.1424,34.26-26.3746,51.3266,13.6877,51.3266,13.6877-1.4032,17.1772-19.3,11.6352l11.0981,8.5873s-1.5861,13.7536-16.7035,6.4058l10.3221,11.389s-6.4922,11.2957-17.6143,4.0506S990.2387,2293.372,958.6969,2288.8963Z" transform="translate(-468.2993 -450.7912)"/></svg>