<?xml version="1.0" encoding="utf-8"?>
<!-- Generator: Adobe Illustrator 24.2.3, SVG Export Plug-In . SVG Version: 6.00 Build 0)  -->
<svg version="1.1" id="Layer_1" xmlns="http://www.w3.org/2000/svg" xmlns:xlink="http://www.w3.org/1999/xlink" x="0px" y="0px"
	 viewBox="0 0 2500 2500" enable-background="new 0 0 2500 2500" xml:space="preserve">
<g>
	<path fill-rule="evenodd" clip-rule="evenodd" fill="#FFFFFF" d="M860.6,973.2c-75,43.9-98.1,47.4-178.9,96.1
		c47.1-51.3,63.5-73,93-116c-75.1,4-183.9,12.9-261.9,30.2c67.9-36,202.1-76.4,272.9-85.9c-16.4-22.6-149.3-94.8-182.4-108.4
		c105.1,8.1,233.8,47.2,296,85.5c25.1-7.6,50.2-8.2,95.7-12.1c-11.6,20-11.7,31.6-56.7,61.1c12.5,33.2-17.1,215.7-41.5,264.3
		C895.7,1111.5,888.9,1015,860.6,973.2L860.6,973.2z M313.2,1627.9c-43.2-15.9-74.2-34.5-108.1-66.3c10.2-28,21.8-50.2,40.9-78.1
		c-35.2,5-60.6,8.8-90.7,14.8c-24.7-43.1-35.5-84.3-48.1-141.6c-6.8,60.7-9.3,104.2-0.5,152.7c-27.6,7.5-47.2,14.3-69.8,24.5
		c31.7,19.6,57.4,34.8,93.2,51.2c18.9,40.9,38.7,68.8,70.6,100.1c-7.6-26.7-9.4-48.2-6.6-76.2C234,1620.7,267.9,1626.5,313.2,1627.9
		L313.2,1627.9z M425,1020.8c-13.6,17.4-29,49.8-33.1,64.8c110.5,15.3,199.7,71.9,199.7,71.9c-97.3-17.1-148-15-184.1-11.9
		c-36,3.6-43.3,7.9-43.3,7.9c-26.1,56.7-41.6,155.2-41.6,155.3c-17.7-42.4-43.2-127.4-43.2-127.5c-48.8,26.3-161,131.9-161.1,131.9
		c61.7-123.8,124.3-180.4,124.3-180.4c-21.6-21.5-78-32.3-119.3-34.2c21.5-8.8,76.6-19.2,118.9-21c42.2-1.3,67.7,1.3,67.8,1.3
		C347.8,1049,405,1023.9,425,1020.8L425,1020.8z M542.3,1551.4c-19.7,26.3-36.3,47.3-58.1,71.6c-37.3,10.1-66.9,13.9-103.2,14.1
		c22.2,11.5,43.9,18.6,66.9,23.2c-23.1,21.2-42.9,36.3-65.4,50.6c37.8-9.1,87.8-25.3,124.8-46.9c19.1,0.5,37.3-0.7,50.6-3
		c-3.2-11.5-5.6-19.8-8.4-34.6c35-27.1,60.4-51.5,89.2-80.7c-30.8,21.5-57.5,37.8-92.9,54.6C544.2,1584,543,1567.7,542.3,1551.4
		L542.3,1551.4z"/>
	<path fill-rule="evenodd" clip-rule="evenodd" fill="#FFFFFF" d="M493.4,1311.3c1.5,16.2,2.5,56.5,2.5,71.3c0,13.6-0.2,59-2.7,78.6
		l-0.3,1.6l88.9,0c43.4,0,89.8-11.1,89.8-42c0-19.4-17.5-33.8-50.4-41.7c24.1-5.1,40.6-18.5,40.6-34c0-25.2-36.4-34.8-70.3-35.4
		l-98.1-0.1L493.4,1311.3z M562,1326.8c37.1,0.1,50.9,6.3,50.9,22.4c0,4.4-1.6,8.2-4.9,11.3c-7.1,6.8-21.3,10.2-38.8,9.6h-0.9
		l-10.2,21.5h10.4c20.5-0.6,38.2,4.6,47.3,13.5c4.2,4.1,6.3,8.8,6.3,13.8c0,17.1-18.6,25.8-55.2,25.8c-6.2,0-16.1,0-22.5-0.4
		c-1.3-22.4-1.4-52.9-1.4-61.9c0-10.6,0.6-34.4,1.5-54.7C550.3,1327.1,556.2,1326.8,562,1326.8L562,1326.8z M876.4,1309.7h-43.1
		l1.8,38.6c0.8,19.2,1.5,38.8,3.2,57.7c-2.9-5.8-5.4-9-18.3-24.2c-0.4-0.6-45.2-55.9-60.8-71.6l-0.5-0.5h-50.3l0.1,1.5
		c1.5,16.1,2.5,56.5,2.5,71.3c0,13.5-0.2,59-2.8,78.6l-0.2,1.5h44.6l-0.1-1.4c-2.6-37.5-2.6-75.2-2.6-111.5v-0.1
		c1.5,4.3,3.6,8.4,10.6,16.7c0.8,0.9,77.4,90.5,81.4,95.9l0.4,0.5h35.9l-0.2-1.5c-2.7-19.7-2.9-65.1-2.9-78.6
		c0-14.9,1.1-55.3,2.5-71.3l0.2-1.5L876.4,1309.7L876.4,1309.7z M928.3,1311.2c1.4,16.2,2.5,56.5,2.5,71.4c0,13.5-0.2,59-2.9,78.6
		l-0.2,1.6H981l-0.2-1.6c-1.9-14-2.5-40.9-2.7-61.6c2.2,0.1,9.8,0.4,9.8,0.4l7.4,0.3c70.2,0,104.2-15.1,104.2-46.1
		c0-35.4-47.8-43.6-87.8-44.4h-83.6L928.3,1311.2z M993.5,1328.1c24.9-0.4,42.5,3.7,50.9,12.1c3.7,3.7,5.7,8.4,5.7,13.9
		c0,22.2-31,26.8-57,26.8l-10.5-0.2c0,0-2.6-0.3-4.2-0.5c-0.2-5.1-0.3-11.7-0.3-19.4c0-9.8,0.1-20.9,0.6-31.7
		C983.7,1328.6,988.6,1328.2,993.5,1328.1L993.5,1328.1z M1201.2,1311.2c1.5,16.2,2.6,56.5,2.6,71.4c0,13.5-0.2,59-2.8,78.6
		l-0.2,1.6h53.2l-0.2-1.6c-1.8-14-2.5-40.9-2.7-61.6l9.7,0.4l7.5,0.3c70.1,0,104.2-15.1,104.2-46.1c0-35.4-47.8-43.6-87.8-44.4
		h-83.5L1201.2,1311.2L1201.2,1311.2z M1266.4,1328.1c24.9-0.4,42.5,3.7,50.8,12.1c3.8,3.7,5.8,8.4,5.8,13.9
		c0,22.2-31,26.8-57.1,26.8l-10.5-0.2c0,0-2.6-0.3-4.2-0.5c-0.2-5.1-0.3-11.8-0.3-19.4c0-9.8,0.2-20.9,0.6-31.7
		C1254.9,1328.7,1260.7,1328.3,1266.4,1328.1L1266.4,1328.1z M1443.8,1309.8h-0.9l-0.4,0.9c-9.9,21.7-73.6,133-83.5,150l-1.2,2.2
		h45.7l0.3-0.9c4-10.4,9.1-22.3,15.1-35l37.8-0.5l31.1,0.3c0,0,5.5,0.1,6.8,0.1c8.3,16.5,14.3,28.9,17,35.1l0.3,0.9h52.9l-85.2-153
		L1443.8,1309.8L1443.8,1309.8L1443.8,1309.8z M1456.8,1354.8c4.2,7.2,15.1,27.7,27.5,51.8l-4.1,0.1l-23.4,0.3c0,0-24.2-0.3-28-0.4
		C1437.7,1389.1,1447,1371.9,1456.8,1354.8z M1585.8,1311.2c1.4,16.1,2.6,56.5,2.6,71.3c0,13.5-0.3,59-2.9,78.6l-0.2,1.6h53.2
		l-0.2-1.5c-2.7-19.7-2.9-65.1-2.9-78.6c0-10.6,0.6-34.4,1.5-53.4c4.8-0.4,9.6-0.7,14.5-0.9c24.8-0.4,42.4,3.7,50.8,12
		c3.9,3.7,5.8,8.4,5.8,13.8c0,17.7-20.8,26.6-40.1,27.4c-3.8,0.2-7.6,0-11.3-0.5l-3.6-0.5l2.4,2.8c18.6,22.1,47,60.5,58.9,78.9
		l0.5,0.6h57l-1.7-2.3c-1.9-2.5-39.3-46.3-55.2-65c0,0-0.6-0.7-1-1.2c28.9-7,43.2-20.2,43.2-40.3c0-35.4-47.8-43.6-87.9-44.3
		l-83.5-0.1L1585.8,1311.2L1585.8,1311.2z M1847.3,1309.6h-51l0.2,1.5c1.5,16.2,2.5,56.5,2.5,71.4c0,13.4-0.2,58.9-2.8,78.6
		l-0.2,1.6h53.2l-0.3-1.6c-2.6-19.6-2.8-65.1-2.8-78.6c0-14.9,1.1-55.3,2.5-71.4l0.1-1.5H1847.3z M1897.1,1311.3
		c1.5,16.1,2.6,56.4,2.6,71.3c0,13.6-0.2,59-2.8,78.6l-0.2,1.6l88.8,0c43.4,0,89.9-11.1,89.9-42c0-19.4-17.6-33.8-50.6-41.7
		c24.1-5.1,40.6-18.5,40.6-34c0-25.2-36.3-34.8-70.3-35.4l-98-0.1L1897.1,1311.3z M1965.7,1326.8c37.2,0.1,51,6.3,51,22.4
		c0,4.4-1.7,8.2-5,11.3c-7,6.8-21.2,10.2-38.8,9.6h-0.9l-10.2,21.5h10.4c20.5-0.6,38.1,4.6,47.3,13.5c4.2,4.1,6.3,8.8,6.3,13.8
		c0,17.1-18.5,25.8-55.1,25.8c-6.2,0-16.2,0-22.5-0.4c-1.3-22.4-1.3-52.9-1.3-61.9c0-10.8,0.5-34.4,1.5-54.7
		C1954.1,1327.1,1959.9,1326.7,1965.7,1326.8L1965.7,1326.8z M2207.7,1309.6h-35.8l-0.4,0.8c-10.5,23.1-77.9,140.4-83.5,150.1
		l-1.2,2.1h45.7l0.3-1c4.6-11.9,9.6-23.5,15.1-35c1.6,0,37.7-0.5,37.7-0.5l31.1,0.4c0,0,5.4,0.1,6.8,0.1c8.3,16.4,14.3,28.9,17,35.1
		l0.4,0.9h52.8l-85.1-153.1L2207.7,1309.6L2207.7,1309.6L2207.7,1309.6z M2185.7,1354.7c4.3,7.2,15.1,27.7,27.5,51.8l-4,0.1
		l-23.5,0.3l-27.9-0.5C2166.7,1389,2176,1371.7,2185.7,1354.7z M2306.9,1349.3c0,26.9,33.8,37.8,63.7,47.4
		c23.2,7.5,47.1,15.3,47.1,28.1c0,3.9-1.2,7-3.8,9.5c-5.4,5.3-16.9,7.5-34.8,6.8c-17.5-0.7-37.7-5.2-59.9-13.5l-9.4-3.5l0,5.9v27.5
		l6.1,1.1l3.7,0.6c11.2,2.2,32.4,6.2,53.9,6.2c56.1,0,89.6-17.8,89.6-47.4c0-27.6-34.6-38.6-65.1-48.3
		c-22.5-7.2-45.8-14.6-45.8-26.4c0-3.4,0-13.6,28.8-13.6c21.6,0,42.7,7,54.1,10.8l11.1,3.5l-0.2-5.7v-27.8l-10.9-1.5
		c-10.8-1.7-28.9-4.5-47.7-4.5C2339.3,1304.3,2306.9,1322.4,2306.9,1349.3z"/>
</g>
</svg>
