<svg id="Layer_1" data-name="Layer 1" xmlns="http://www.w3.org/2000/svg" width="200" height="200" viewBox="0 0 200 200"><defs><style>.cls-1,.cls-2{fill:#fff;}.cls-2{stroke:#fff;stroke-miterlimit:10;stroke-width:3px;}</style></defs><path class="cls-1" d="M23.6691,116.589V7.7607H69.0142V26.6078h19.65V7.7607h45.3451V26.6069h19.65V7.7607h22.6725V53.1058H135.0348V71.2439h41.2961V116.589H153.2518V96.38H134.15v19.8926H87.9484V96.2662H69.1092V116.589ZM90.9537,71.3237v21.697H109.03V31.4H90.9049c-.1428,2.0574-.3114,3.5407-.3388,5.0267-.3523,19.0975,3.6226,16.841-18.1984,17.1119-5.476.0679-7.016-2.4689-6.7949-7.3979.2208-4.9229.0485-9.8636.0485-14.8534H47.358V92.99H65.8138V71.3237Z"/><path class="cls-2" d="M27.6509,156.9092a14.7842,14.7842,0,0,1-6.961,1.4765,11.2257,11.2257,0,0,1-8.6132-3.4628,12.7776,12.7776,0,0,1-3.2344-9.0879,13.3927,13.3927,0,0,1,3.6387-9.7735A12.35,12.35,0,0,1,21.71,132.335a14.7962,14.7962,0,0,1,5.9414,1.0371v3.1465a12.0479,12.0479,0,0,0-5.9766-1.5118,9.1708,9.1708,0,0,0-7.04,2.9,10.9264,10.9264,0,0,0-2.6983,7.752,10.3963,10.3963,0,0,0,2.5225,7.3388,8.5829,8.5829,0,0,0,6.6182,2.7334,12.4159,12.4159,0,0,0,6.5742-1.6875Z"/><path class="cls-2" d="M54.4331,157.9639H51.48V146.4678H38.437v11.4961H35.4839V132.7568H38.437v11.0567H51.48V132.7568h2.9531Z"/><path class="cls-2" d="M77.1011,157.9639H63.7422V132.7568H76.5386v2.6719H66.6948v8.3848H75.8v2.6543H66.6948v8.8242H77.1011Z"/><path class="cls-2" d="M97.731,157.9639H84.6528v-9.6153l-2.7246,1.7051v-2.6719l2.7246-1.6875V132.7568H87.606v11.0918l5.7656-3.5683v2.707l-5.7656,3.5156v8.7891H97.731Z"/><path class="cls-2" d="M129.998,157.9639h-2.9355v-16.91q0-2.0038.2461-4.9043h-.07a15.681,15.681,0,0,1-.7559,2.4434l-8.6133,19.3711h-1.4414l-8.5957-19.2305a15.0644,15.0644,0,0,1-.7558-2.584h-.07q.1405,1.5117.1406,4.9395v16.875h-2.8477V132.7568h3.9024l7.7343,17.5782a22.5008,22.5008,0,0,1,1.16,3.0234h.1055q.7559-2.0742,1.2129-3.0938l7.8925-17.5078h3.6914Z"/><path class="cls-2" d="M138.1475,156.9443v-3.48a6.7611,6.7611,0,0,0,1.4326.9492,11.6159,11.6159,0,0,0,1.7578.7119,13.9747,13.9747,0,0,0,1.8545.4482,10.3361,10.3361,0,0,0,1.7226.1582,6.7481,6.7481,0,0,0,4.0694-1.0107,3.7915,3.7915,0,0,0,.8965-4.6846,5.0511,5.0511,0,0,0-1.2393-1.38,12.2919,12.2919,0,0,0-1.8721-1.1954q-1.0811-.5712-2.3291-1.2041-1.3184-.668-2.4609-1.3535a10.6621,10.6621,0,0,1-1.9863-1.5117,6.3065,6.3065,0,0,1-1.3272-1.8721,6.3817,6.3817,0,0,1,.2725-5.4492,6.4833,6.4833,0,0,1,1.9863-2.1006,9.0039,9.0039,0,0,1,2.8037-1.23,12.8345,12.8345,0,0,1,3.208-.4043,12.295,12.295,0,0,1,5.4317.8964v3.3223a9.8462,9.8462,0,0,0-5.7305-1.5469,9.4223,9.4223,0,0,0-1.9336.2022,5.4638,5.4638,0,0,0-1.7227.6592,3.8156,3.8156,0,0,0-1.23,1.1777,3.1261,3.1261,0,0,0-.4746,1.7578,3.6192,3.6192,0,0,0,.36,1.67,4.0925,4.0925,0,0,0,1.0635,1.2832,10.5766,10.5766,0,0,0,1.7139,1.125q1.0107.545,2.3291,1.1953,1.3535.6681,2.5664,1.4063a11.7294,11.7294,0,0,1,2.1269,1.6348,7.2621,7.2621,0,0,1,1.45,1.9863,5.5841,5.5841,0,0,1,.5362,2.4961,6.33,6.33,0,0,1-.73,3.1553,5.987,5.987,0,0,1-1.9688,2.1005,8.5972,8.5972,0,0,1-2.8564,1.169,15.6467,15.6467,0,0,1-3.41.36,13.91,13.91,0,0,1-1.4766-.0966q-.8788-.0967-1.7929-.2813a14.6327,14.6327,0,0,1-1.7315-.457A5.3875,5.3875,0,0,1,138.1475,156.9443Z"/><path class="cls-2" d="M178.6934,157.9639H174.58l-9.7383-11.5313a7.0315,7.0315,0,0,1-.668-.8789h-.07v12.41H161.15V132.7568h2.9531v11.8477h.07a6.9494,6.9494,0,0,1,.668-.8613l9.4219-10.9864h3.6738l-10.81,12.0938Z"/><path class="cls-2" d="M187.6865,157.9639h-2.9531V132.7568h2.9531Z"/><path class="cls-2" d="M10.2769,188.2939V171.4893h4.6406q8.8829,0,8.8828,8.1914a8.2548,8.2548,0,0,1-2.4668,6.2519,9.1507,9.1507,0,0,1-6.6035,2.3613Zm1.9687-15.0234v13.2422h2.5078a7.1171,7.1171,0,0,0,5.1445-1.7695,6.6333,6.6333,0,0,0,1.84-5.0157q0-6.4569-6.8672-6.457Z"/><path class="cls-2" d="M36.2783,188.5752a7.3765,7.3765,0,0,1-5.7246-2.3555,8.7365,8.7365,0,0,1-2.15-6.1289,9.2567,9.2567,0,0,1,2.1914-6.4687A7.6538,7.6538,0,0,1,36.56,171.208a7.21,7.21,0,0,1,5.6074,2.3438,8.7679,8.7679,0,0,1,2.1269,6.1289,9.2871,9.2871,0,0,1-2.18,6.5039A7.5125,7.5125,0,0,1,36.2783,188.5752Zm.1406-15.5859a5.4177,5.4177,0,0,0-4.3007,1.91,8.4972,8.4972,0,0,0-.0411,10.0137,5.2554,5.2554,0,0,0,4.2012,1.8926,5.5172,5.5172,0,0,0,4.3594-1.8047,7.3753,7.3753,0,0,0,1.5937-5.0508,7.7066,7.7066,0,0,0-1.5468-5.1445A5.3042,5.3042,0,0,0,36.4189,172.9893Z"/><path class="cls-2" d="M67.1309,188.2939H65.1738V177.0205q0-1.3359.1641-3.2695H65.291a10.4566,10.4566,0,0,1-.5039,1.6289l-5.7422,12.914H58.084l-5.7305-12.82a10.0523,10.0523,0,0,1-.5039-1.7226h-.0469q.0938,1.0078.0938,3.2929v11.25H49.998V171.4893H52.6l5.1563,11.7187a15.009,15.009,0,0,1,.7734,2.0156h.07q.5038-1.3827.8086-2.0625L64.67,171.4893h2.461Z"/><path class="cls-2" d="M94.6191,188.2939H91.877l-6.4922-7.6875a4.6677,4.6677,0,0,1-.4453-.5859h-.0469v8.2734H82.9238V171.4893h1.9688v7.8984H84.94a4.6209,4.6209,0,0,1,.4453-.5742l6.2812-7.3242h2.4492l-7.207,8.0625Z"/><path class="cls-2" d="M111.5391,181.4971q0,7.0781-6.3868,7.0781-6.1171,0-6.1171-6.8086V171.4893h1.9687v10.1484q0,5.168,4.3594,5.168,4.2071,0,4.207-4.9922V171.4893h1.9688Z"/><path class="cls-2" d="M126.8525,188.2939h-8.7187V171.4893h1.9687v15.0234h6.75Z"/><path class="cls-2" d="M140.4443,173.2705h-4.8515v15.0234H133.624V173.2705h-4.84v-1.7812h11.66Z"/><path class="cls-2" d="M157.7734,181.4971q0,7.0781-6.3867,7.0781-6.1171,0-6.1172-6.8086V171.4893h1.9688v10.1484q0,5.168,4.3594,5.168,4.2069,0,4.207-4.9922V171.4893h1.9687Z"/><path class="cls-2" d="M176.416,188.2939h-2.3437L171.26,183.583a10.2565,10.2565,0,0,0-.75-1.1191,4.276,4.276,0,0,0-.7442-.7559,2.5762,2.5762,0,0,0-.82-.4277,3.3711,3.3711,0,0,0-.99-.1348h-1.6172v7.1484h-1.9688V171.4893h5.0157a7.1517,7.1517,0,0,1,2.0332.2753,4.55,4.55,0,0,1,1.6172.8379,3.8937,3.8937,0,0,1,1.0722,1.4,4.644,4.644,0,0,1,.3867,1.9629,4.7255,4.7255,0,0,1-.2636,1.6113,4.2089,4.2089,0,0,1-.75,1.3067,4.5462,4.5462,0,0,1-1.1719.9785,5.9856,5.9856,0,0,1-1.541.627v.0468a3.5428,3.5428,0,0,1,.7324.4278,4.0315,4.0315,0,0,1,.5918.5683,7.53,7.53,0,0,1,.5566.7442q.2754.4159.6153.9668Zm-10.0781-15.0234v6.0938H169.01a4.053,4.053,0,0,0,1.3652-.2227,3.1591,3.1591,0,0,0,1.084-.6387,2.8949,2.8949,0,0,0,.7148-1.02,3.4125,3.4125,0,0,0,.2578-1.3535,2.6343,2.6343,0,0,0-.873-2.1035,3.75,3.75,0,0,0-2.5254-.7559Z"/><path class="cls-2" d="M191.59,171.4893l-5.5429,10.5937v6.2109h-1.9688V182.13l-5.4023-10.6406h2.2383l3.7617,7.5937q.07.1407.41,1.0313h.0352a6.1652,6.1652,0,0,1,.4453-1.0313l3.9375-7.5937Z"/></svg>