<?xml version="1.0" encoding="utf-8"?>
<!-- Generator: Adobe Illustrator 24.2.3, SVG Export Plug-In . SVG Version: 6.00 Build 0)  -->
<svg version="1.1" id="Layer_1" xmlns="http://www.w3.org/2000/svg" xmlns:xlink="http://www.w3.org/1999/xlink" x="0px" y="0px"
	 viewBox="0 0 200 200" enable-background="new 0 0 200 200" xml:space="preserve">
<path fill="#FFFFFF" stroke="#4D4D4D" stroke-width="1.2288" d="M75.4,88.3c24.5-21.2,33.2-72.9,33.2-72.9s3.1,2.2,8.1,5.9
	c-2.8,17.3-8.4,38.4-21.7,59.9c9.9-8.7,17.6-27.3,24.6-42.9c0,7.2-2.2,19.8-7.5,32.5c-5.3,12.7-11.1,18.9-17.6,20.4
	c-6.3,1.4-12.8,8.6-12.8,8.6s7.7-2.1,21.4,6.6c18,13.1,19.4,40.9,25.4,56.4c6,15.5,19.6,20.5,23.1,20.5c3.5,0,16.1,0,20.7,0
	s6.9-0.7,6.9-2.8c0-3.8-3.5-4.2-11.6-4.2c-8.1,0-13-4.9-13-10c0-5.1,6.2-12,14.8-12c6.3,0,22.2,0,22.2,0v7.6c0,0-3.2,0-9.7,0
	c-6.5,0-8.8,1.4-8.8,3.5c0,2.1,2.5,3.2,8.3,3.2c9,0,13.4,5.3,13.4,11.6c0,6.3-5.3,10.4-14.1,10.4c-8.8,0-37.3,0-53.3,0
	c-16,0-25-7.6-33.1-24.6c-8.1-16.9-12.7-48-19.2-48c0.5,12,1.2,73.4,1.2,73.4s-10.9,0-21.3,0c0-6.5-1.4-14.4,3.9-18.5
	c-0.9,12.3,4.9,11.4,4.9,3.7c0-7.6,0-39.4,0-49.6c0-10.2,5.3-14.4,2.3-19.7c-5.8,6-8.6,19-11.1,41.2c-2.5,22.2-8.1,45.4-8.1,45.4
	s-7.2-3.2-14.1-6c6.7-12,16.9-56.3,16.9-56.3l-22.9,53.8c0,0-5.8,0-11.8,0c8.3-12,25-51.4,25-51.4s-19.7,34.1-24.6,40.8
	c-4.9,6.7-6.7,6.7-8.1,5.1c6.3-9-0.7-11.4-0.7-11.4s12.7-17.4,19-25.3c6.3-7.9,2.8-11.4,2.8-11.4s-0.2,5.6-8.1,5.6
	s-14.4-9.5-7.4-23.4c4.2,17.8,15.1,13.7,20.9,9c5.8-4.6,6.5-6,3.7-9c-9.5,8.1-13.2,5.1-16,1.2c-2.8-3.9-0.7-9,3-10.9
	c3.7-1.9,9-6.3,9-6.3L23.1,85.3l1.6-8.1c0,0,1.4,1.4,5.8,5.3c1.6-4.9-3.9-11.8-1.4-19c5.6,5.3,7.9,23.9,7.9,23.9s0-13.7,0-20.6
	c0-7-4.2-17.1-4.2-17.1s5.6,9,7.2,8.1c1.6-0.9-0.5-11.1-0.5-11.1s3.2,7.2,4.9,11.4c1.6,4.2-0.2,25.9-0.2,31.5s0,6.5-2.8,8.8
	c-2.8,2.3,0.5,8.8,0.5,8.8s1.4-1.4,6-4.2c2.3-14.8-3.5-77.8-3.5-77.8L55.5,17c0,0,0,74.8,0,79.2c0,4.4,6.7,0.2,6.7,0.2V11.2
	l13.2-5.6C75.4,5.6,75.4,63.3,75.4,88.3z M135.3,96.1c0-6.5,4.7-6.3,4.7,1c0,0,9.4,0,15.3,0c0-18.9-5-18.9-10-18.9
	c-5.1,0-7.4,5.9-10.3,5.9c0-2.5,0-5.7,0-5.7H119v37.2h16.2C135.2,115.6,135.3,102.7,135.3,96.1z M157.7,117.1c0,0,0,21.1,0,26.1
	s-7.3,5-7.3,0s0-26.1,0-26.1l-13.4,0.1c0,0,0,21.8,0,27.5c0,5.7,3,9.1,17.1,9.1c14.1,0,17.1-3.4,17.1-9.1c0-5.7,0-27.5,0-27.5
	L157.7,117.1z"/>
</svg>
