<?xml version="1.0" encoding="utf-8"?>
<!-- Generator: Adobe Illustrator 24.2.3, SVG Export Plug-In . SVG Version: 6.00 Build 0)  -->
<svg version="1.1" id="Layer_1" xmlns="http://www.w3.org/2000/svg" xmlns:xlink="http://www.w3.org/1999/xlink" x="0px" y="0px"
	 viewBox="0 0 2500 2500" enable-background="new 0 0 2500 2500" xml:space="preserve">
<g>
	<path fill-rule="evenodd" clip-rule="evenodd" fill="#FFFFFF" d="M1248.4,632.1c48.4,0,87.8,36.9,87.8,85
		c0,48.4-39.4,87.5-87.8,87.5c-45.3,0-84.4-39.1-84.4-87.5C1164.1,669,1203.1,632.1,1248.4,632.1z"/>
	<path fill-rule="evenodd" clip-rule="evenodd" fill="#FFFFFF" d="M1353.7,923c7.5,0,13.7,6.2,13.7,13.7s-6.2,13.7-13.7,13.7h-207.2
		c-7.5,0-13.7-6.3-13.7-13.7c0-7.5,6.2-13.7,13.7-13.7H1353.7z M1250,829.6c60.9,0,122.8,9.4,169,25
		c61.2,20.9,100.6,52.8,100.6,88.1c0,38.7-47.8,74.7-116.5,93.4c-68.7,18.7-119.7,22.5-180.6,19.7c-56.2-2.5-112.2-11.6-163.7-33.4
		V1366c-45.9-30.3-78.1-70.6-78.1-126.9V961.1c0-68.7,63.1-95.6,113.4-110.6C1144.4,835.5,1189.1,829.6,1250,829.6L1250,829.6z
		 M1430.6,1302v-181.2c0-17.5-27.2-12.8-27.2,8.4v183.7C1403.4,1329.2,1430.6,1325.7,1430.6,1302z M1317.5,1369.5v-260
		c0-18.1,9.7-30.9,27.5-33.4c24.5-3.3,48.7-8.4,72.5-15.3c23.5-6.8,46.3-15.8,68.1-26.9c10.6-5.9,23.1-1.6,23.1,12.5v188.1
		c0,24.7-0.3,50.9-11.6,73.7c-11.2,23.1-30.9,41.5-53.4,56.2c-25,16.6-56.9,29.4-85.3,36.5C1332.2,1407,1317.5,1393.8,1317.5,1369.5
		L1317.5,1369.5z M1290,1111.7v91.5c0,22.8-21.5,37.5-39.7,38.7v0.3c17.8,2.5,39.7,15.3,39.7,39.4v88.1c0,16.3,0,27.8,6.9,39.4
		c-16.2,1.9-31.6,2.5-46.6,2.5c-14.9,0.1-29.9-0.7-44.7-2.5c-7.2-14.4-6.2-24.7-6.2-40v-70c0-18.7-8.1-34.1-27.5-35.3V1406
		c-15.2-2.4-30.3-5.8-45-10.3c-14-4.2-27.7-9.5-40.9-15.9V1062c14.1,4.4,28.1,7.5,42.5,10.3c14.4,2.5,29.1,4.4,43.4,6.3v141.5
		c18.1,3.8,27.5-8.4,27.5-26.6v-83.1c0-9.4,0.3-21.2,5.9-29.4c14.7,0.9,28.4,1.2,43.4,1.2c15.3,0.3,31.3-0.3,47.2-0.9
		C1291.2,1091.1,1290,1099.8,1290,1111.7L1290,1111.7z M2396,1789.7l-75.3-95.6l73.1-91.2h-62.5l-59,77.2v-77.2h-54.4v186.8h54.4
		v-76.2l59,76.2H2396L2396,1789.7z M1426.5,1789.7l-75.3-95.6l73.1-91.2h-62.5l-59.1,77.2v-77.2h-54.7v186.8h54.7v-76.2l58.7,76.2
		H1426.5z M376.7,1789.7l-75.3-95.6l73.1-91.2H312l-59,77.2v-77.2h-54.4v186.8H253v-76.2l59,76.2H376.7z M2480.1,1789.7v-186.8
		h-55.9v186.8H2480.1z M2186.7,1731.6c0-20-7.8-32.5-25.3-43.7c-8.1-5-21.9-8.7-40.9-13.7c-26.9-6.9-40.6-10.3-40.6-20.3
		c0-8.4,7.5-14.1,21.9-14.1c16.6,0,24.1,6.2,24.4,20.6h54.4c-1-38.1-28.4-60.9-77.5-60.9c-50,0-78.4,22.5-78.4,58.1
		c0,29.7,19.4,47.5,60.9,58.4c29.7,7.8,45.6,10.3,45.6,22.5c0,9.7-9,15.6-25.6,15.6c-17.5,0-26-8.7-26-26.6v-0.6h-56.8
		c1.6,46.6,29.4,68.7,84,68.7C2158,1795.6,2186.7,1771.6,2186.7,1731.6L2186.7,1731.6z M2013.3,1789.7v-47.5h-62.2v-139.4h-55.3
		v186.8H2013.3z M1200.6,1789.7v-186.8h-52.5V1706l-52.2-103.1H1040v186.8h52.5v-100.9l52.8,100.9H1200.6z M1813.6,1696.9
		c0,33.7-14.3,53.4-33.7,53.4c-22.2,0-35.6-18.4-35.6-52.2c0-33.7,14.1-53.4,33.4-53.4C1799.9,1644.7,1813.6,1663.2,1813.6,1696.9
		L1813.6,1696.9z M1870.5,1698.5c0-30.3-9.7-55-27.8-73.1c-16.9-16.9-39.4-25.9-65.3-25.9c-26.2,0-48.4,9.4-64.4,26.6
		c-17.5,19.4-25.6,42.2-25.6,70.9c0,30,9.4,54,28.1,72.8c16.6,16.9,38.4,25.9,64.4,25.9c26.6,0,48.7-9.4,64.7-27.2
		C1861.8,1750,1870.5,1726.6,1870.5,1698.5L1870.5,1698.5z M1617.1,1667.8c0,13.4-7.5,20.9-21.9,20.9h-23.1v-42.8h22.2
		C1609.3,1646,1617.1,1653.5,1617.1,1667.8L1617.1,1667.8z M1672.4,1670c0-42.8-26.5-67.2-76.2-67.2h-78.7v186.8h55.3v-57.5h36.5
		C1646.5,1732.2,1672.4,1706.3,1672.4,1670z M757,1728.8c0,12.2-7.8,17.8-23.4,17.8H702v-35.3h31.2
		C749.2,1711.3,757,1716.6,757,1728.8L757,1728.8z M750.7,1660.3c0,11.3-7.2,15.3-22.2,15.3H702v-30.3h26.2
		C743.5,1645.3,750.7,1649.4,750.7,1660.3z M812.9,1731.9c0-21.6-11.3-37.2-30.3-45c15-7.8,22.2-20,22.2-36.2
		c0-17.8-8.4-31.6-25.9-41.6c-7.5-4.4-20.6-6.3-39.7-6.3h-91.9v186.8h86.6c29.7,0,50-2.8,65.3-20
		C808.2,1759.4,812.9,1746.6,812.9,1731.9L812.9,1731.9z M939.4,1726h-36.5l18.4-65L939.4,1726z M1014.4,1789.7l-63.7-186.8H892
		l-63.7,186.8h57.2l6.9-24.7h57.8l6.9,24.7H1014.4L1014.4,1789.7z M499.8,1696.9c0,33.7-14.4,53.4-33.7,53.4
		c-22.2,0-35.9-18.4-35.9-52.2c0-33.7,14.4-53.4,33.7-53.4C486.1,1644.7,499.8,1663.2,499.8,1696.9z M556.7,1698.5
		c0-30.3-9.7-55-28.1-73.1c-16.6-16.9-39.1-25.9-65-25.9c-26.2,0-48.4,9.4-64.4,26.6c-17.5,19.4-25.6,42.2-25.6,70.9
		c0,30,9.4,54,27.8,72.8c16.9,16.9,38.7,25.9,64.7,25.9c26.6,0,48.7-9.4,64.7-27.2C547.9,1750,556.7,1726.6,556.7,1698.5
		L556.7,1698.5z M119.9,1667.8c0,13.4-7.5,20.9-22.2,20.9H74.9v-42.8h21.9C112.1,1646,119.9,1653.5,119.9,1667.8L119.9,1667.8z
		 M175.2,1670c0-42.8-26.6-67.2-76.2-67.2h-79v186.8h55.6v-57.5h36.5C149,1732.2,175.2,1706.3,175.2,1670L175.2,1670z"/>
</g>
</svg>
