<?xml version="1.0" encoding="utf-8"?>
<!-- Generator: Adobe Illustrator 24.2.3, SVG Export Plug-In . SVG Version: 6.00 Build 0)  -->
<svg version="1.1" id="Warstwa_1" xmlns="http://www.w3.org/2000/svg" xmlns:xlink="http://www.w3.org/1999/xlink" x="0px" y="0px"
	 viewBox="0 0 233.7 224.6" enable-background="new 0 0 233.7 224.6" xml:space="preserve">
<g>
	<g>
		<path fill="#FFFFFF" d="M115.9,123.9c-24.2,0-43.8-19.7-43.8-43.8c0-4.7,3.8-8.4,8.4-8.4s8.4,3.8,8.4,8.4
			c0,14.8,12.1,26.9,26.9,26.9c14.8,0,26.9-12.1,26.9-26.9c0-4.7,3.8-8.4,8.4-8.4s8.4,3.8,8.4,8.4
			C159.7,104.2,140.1,123.9,115.9,123.9z"/>
	</g>
	<g>
		<path fill="#FFFFFF" d="M80.6,23.6c-4.7,0-8.4-3.8-8.4-8.4V8.4c0-4.7,3.8-8.4,8.4-8.4S89,3.8,89,8.4v6.7
			C89,19.8,85.2,23.6,80.6,23.6z"/>
	</g>
	<g>
		<path fill="#FFFFFF" d="M174.7,78.2c-2.2,0-4.3-0.8-6-2.5l-52.8-52.8L63.1,75.7c-3.3,3.3-8.6,3.3-11.9,0c-3.3-3.3-3.3-8.6,0-11.9
			L110,5c1.6-1.6,3.7-2.5,6-2.5c2.2,0,4.4,0.9,6,2.5l58.8,58.8c3.3,3.3,3.3,8.6,0,11.9C179,77.4,176.9,78.2,174.7,78.2z"/>
	</g>
	<g>
		<g>
			<path fill="#FFFFFF" d="M13.5,190.5c-1.2,0.4-2.4,0.6-3.6,0.6c-2.3,0-4.1-0.7-5.4-2.1c-1.1-1.2-1.7-2.7-1.7-4.5v-12H0v-3.9h3.3
				l0.8-6h4v6h4.6v3.9H8v11.5c0,1.5,0.6,2.3,1.9,2.3c0.4,0,1.4-0.1,3-0.4L13.5,190.5z"/>
			<path fill="#FFFFFF" d="M34.1,190.8h-4.5l-0.2-1.1c-2.1,0.9-3.7,1.4-5.1,1.4c-2.3,0-4.1-0.8-5.5-2.4c-1.3-1.5-2-3.5-2-5.9v-13.3
				c0-0.6,0.3-0.9,0.9-0.9h4.3v13.8c0,2.6,0.9,4,2.7,4c1.2,0,2.5-0.3,4-0.9v-16.9h5.2C34.1,168.7,34.1,190.8,34.1,190.8z"/>
			<g>
				<g>
					<path fill="#FFFFFF" d="M67.5,190.2c0,0.4-0.2,0.6-0.6,0.6h-4.6v-13.2c0-3-1.1-4.5-3.1-4.5c-2.1,0-3.2,1.6-3.2,4.8v13h-5.2v-13
						c0-3.2-1.1-4.8-3.1-4.8c-2.1,0-3.1,1.5-3.1,4.5v13.2h-5.2v-13.5c0-2.5,0.7-4.7,2.1-6.3c1.5-1.8,3.4-2.7,5.8-2.7
						c2.7,0,4.8,1.1,6.2,3.4c1.5-2.2,3.5-3.4,6.2-3.4c2.4,0,4.4,0.9,5.9,2.7c1.4,1.7,2.1,3.8,2.1,6.3L67.5,190.2L67.5,190.2z"/>
				</g>
			</g>
			<g>
				<g>
					<path fill="#FFFFFF" d="M78.9,190.2c0,0.4-0.2,0.6-0.6,0.6h-4.6v-18.2l-2.4-0.2v-3.7h7.6L78.9,190.2L78.9,190.2z M79.6,162.6
						c0,0.9-0.3,1.7-1,2.3c-0.6,0.6-1.4,1-2.4,1c-0.9,0-1.7-0.3-2.3-1c-0.6-0.6-1-1.4-1-2.3c0-0.9,0.3-1.7,1-2.4
						c0.6-0.6,1.4-1,2.3-1c0.9,0,1.7,0.3,2.4,1C79.3,160.9,79.6,161.7,79.6,162.6z"/>
				</g>
			</g>
			<g>
				<g>
					<path fill="#FFFFFF" d="M100.9,180.5c0,0.6-0.3,0.9-0.9,0.9H88.6v0.7c0,2.9,1.5,4.3,4.5,4.3c1.4,0,3.5-0.4,6.1-1.3l1.1,4.4
						c-3,1.1-5.4,1.6-7.2,1.6c-3.1,0-5.5-0.9-7.3-2.8c-1.6-1.7-2.4-3.7-2.4-6.2v-4.7c0-2.5,0.8-4.6,2.3-6.3c1.7-1.8,3.8-2.8,6.5-2.8
						c2.6,0,4.8,0.9,6.5,2.8c1.5,1.7,2.3,3.8,2.3,6.3L100.9,180.5L100.9,180.5z M95.7,177.6c-0.2-3-1.4-4.5-3.6-4.5
						c-2.2,0-3.4,1.5-3.6,4.5H95.7z"/>
				</g>
			</g>
			<g>
				<g>
					<path fill="#FFFFFF" d="M119.2,184.6c0,2-0.7,3.6-2.1,4.8c-1.4,1.2-3.2,1.8-5.5,1.8c-1.6,0-4-0.5-7.1-1.4l1-4.6
						c2.7,0.8,4.7,1.3,6,1.3c1.6,0,2.4-0.6,2.4-1.9c0-0.9-0.8-1.7-2.3-2.4c-2.3-1-3.7-1.8-4.2-2.2c-1.5-1.2-2.3-3-2.3-5.2
						c0-2,0.7-3.6,2.2-4.7c1.4-1.1,3.1-1.7,5.1-1.7c1.8,0,3.9,0.4,6.1,1.3l-1.3,4.4c-1.9-0.7-3.5-1-4.8-1c-1.4,0-2.1,0.6-2.1,1.7
						c0,0.8,0.8,1.5,2.3,2.1c2.2,0.9,3.6,1.7,4.2,2.2C118.4,180.4,119.2,182.2,119.2,184.6z"/>
				</g>
			</g>
			<g>
				<g>
					<path fill="#FFFFFF" d="M138.9,190.8h-15.4l-0.7-4l7.6-11.2l1.9-2.3h-9.1v-4.8H138l0.6,4l-7.6,11.2l-1.9,2.2h9.8L138.9,190.8
						L138.9,190.8z"/>
				</g>
			</g>
			<g>
				<g>
					<path fill="#FFFFFF" d="M160.7,190.8h-5.5l-5-9.6l-1.7,0.5v8.5c0,0.4-0.2,0.6-0.6,0.6h-4.6v-30.4h5.2v16.7l2.3-0.6
						c0.5-0.1,0.9-0.6,1.2-1.3l2.6-6.5h5.2l-3.4,8.4c-0.4,1.1-1,1.9-1.8,2.5L160.7,190.8z"/>
				</g>
			</g>
			<g>
				<g>
					<path fill="#FFFFFF" d="M179.4,190.8H175l-0.2-1.2c-1.1,1-2.6,1.5-4.4,1.5c-2.1,0-3.8-0.6-5.2-1.7c-1.5-1.2-2.2-2.9-2.2-5
						c0-2.3,0.8-4,2.5-5.1c1.4-1,3.3-1.5,5.5-1.5h3.3c0-1.8-0.2-3-0.6-3.7c-0.4-0.7-1.2-1-2.2-1c-1.7,0-3.7,0.3-6.1,1l-1.1-4.5
						c2.6-0.8,5-1.3,7.2-1.3c2.5,0,4.5,0.7,5.9,2.2c1.4,1.5,2.1,3.4,2.1,5.8L179.4,190.8L179.4,190.8z M174.2,186.3v-4.9h-3.1
						c-1,0-1.7,0.3-2.3,0.8c-0.5,0.5-0.8,1.1-0.8,1.9c0,0.8,0.2,1.4,0.7,1.9c0.5,0.6,1.2,0.9,2,0.9
						C171.9,186.9,173,186.7,174.2,186.3z"/>
				</g>
			</g>
			<g>
				<g>
					<path fill="#FFFFFF" d="M212.5,190.2c0,0.4-0.2,0.6-0.6,0.6h-4.6v-13.2c0-3-1.1-4.5-3.1-4.5c-2.1,0-3.2,1.6-3.2,4.8v13h-5.2
						v-13c0-3.2-1.1-4.8-3.1-4.8c-2.1,0-3.1,1.5-3.1,4.5v13.2h-5.2v-13.5c0-2.5,0.7-4.7,2.1-6.3c1.5-1.8,3.4-2.7,5.8-2.7
						c2.7,0,4.8,1.1,6.2,3.4c1.5-2.2,3.5-3.4,6.2-3.4c2.4,0,4.4,0.9,5.9,2.7c1.4,1.7,2.1,3.8,2.1,6.3L212.5,190.2L212.5,190.2z"/>
				</g>
			</g>
			<g>
				<g>
					<path fill="#FFFFFF" d="M233.7,168.7l-1,22.3c-0.1,2.3-0.8,4.1-2,5.4c-1.3,1.4-3.1,2.1-5.5,2.1h-3.9l-0.3-4.2h4.4
						c1.5,0,2.2-1.3,2.3-3.8c-1,0.3-1.8,0.4-2.4,0.4c-4.5,0-7-2.6-7.5-7.8l-1.5-14.4h5.1l1.4,13.6c0.1,1.4,0.4,2.4,0.8,3
						c0.4,0.6,1.1,0.9,2,0.9c0.7,0,1.4-0.1,2.2-0.3l0.8-17.1L233.7,168.7L233.7,168.7z"/>
				</g>
			</g>
		</g>
	</g>
</g>
</svg>
