<?xml version="1.0" encoding="utf-8"?>
<!-- Generator: Adobe Illustrator 24.2.3, SVG Export Plug-In . SVG Version: 6.00 Build 0)  -->
<svg version="1.1" id="Layer_1" xmlns="http://www.w3.org/2000/svg" xmlns:xlink="http://www.w3.org/1999/xlink" x="0px" y="0px"
	 viewBox="0 0 2500 2500" enable-background="new 0 0 2500 2500" xml:space="preserve">
<g>
	<path fill-rule="evenodd" clip-rule="evenodd" fill="#FFFFFF" d="M964.4,607.1h5l-5,10V607.1z M2462.2,1620.3
		c-5.5-51.8-22.9-108.5-53.7-168.2c-92.5-149.8-184.6-299.1-277.2-448.9c-106.5-164.7,10.5-206,155.8-196.6c20.9,1,35.3,2,56.2,3
		c-25.9-68.7-45.8-137.3-71.7-206h-205.5c-59.2,0-105.5,8-161.7,31.9c-163.2,69.2-178.7,191.1-78.6,380.2
		c71.8,113.2,143.4,226.5,214.9,339.9c68.2,129.9,23.9,255.8-130.4,255.8h-946v330.4h1109.2c48.3,0,89.1,0.5,136.4-10.5
		c149.8-33.3,238.8-122.4,252.3-243.3V1620.3z M964.4,1281.9c21.9,143.3,113,260.3,342.4,276.2c125.4,9,252.3-2,378.7-3v-948
		l-236.9,3v739c-57.7-2-115.4,0-170.7-21.9c-96.5-38.3-91.1-123.4-52.8-271.2c46.8-150.8,93.1-301.6,139.8-452.3h-249.3l-109,330.9
		c-18.4,58.2-34.3,122.4-42.3,186.1V1281.9z M595.6,607.1h368.7v10l-354.8,732h337.9l-80.6,206H595.6L595.6,607.1L595.6,607.1
		L595.6,607.1z M964.4,1120.7c-6.5,54.7-7.5,110,0,161.2V1120.7z M964.4,1611.3v330.4H595.6v-330.4L964.4,1611.3L964.4,1611.3z
		 M350.3,607.1h245.3v948H221.4l358.3-739l-329.9,3L350.3,607.1L350.3,607.1z M595.6,1611.3v330.4H37.8l158.7-330.4H595.6z"/>
</g>
</svg>
