<svg id="OBJECTS" xmlns="http://www.w3.org/2000/svg" width="253.3663" height="494.7362" viewBox="0 0 253.3663 494.7362"><defs><style>.cls-1{fill:#fff;opacity:0.27;}.cls-2{fill:#2074fa;}.cls-3{fill:#ccdafd;}.cls-4{fill:#e8f1f5;}.cls-5{fill:#5065fc;}.cls-6{fill:#81a0fb;}.cls-7,.cls-8{fill:none;stroke:#e8f1f5;stroke-miterlimit:10;}.cls-7{stroke-width:4px;}</style></defs><path class="cls-1" d="M45.2215,5.2828H211.4108a41.9554,41.9554,0,0,1,41.9554,41.9554V452.7806a41.9556,41.9556,0,0,1-41.9556,41.9556H45.2215A41.9554,41.9554,0,0,1,3.2661,452.7807V47.2382A41.9554,41.9554,0,0,1,45.2215,5.2828Z"/><path class="cls-2" d="M41.9555,0h166.189A41.9554,41.9554,0,0,1,250.1,41.9554V447.4981a41.9557,41.9557,0,0,1-41.9557,41.9557H41.9555A41.9555,41.9555,0,0,1,0,447.4984V41.9555A41.9555,41.9555,0,0,1,41.9555,0Z"/><rect class="cls-3" x="10.2581" y="41.0322" width="229.584" height="401.2784"/><rect class="cls-4" x="96.7184" y="20.5188" width="56.6634" height="4.8848"/><circle class="cls-4" cx="264.0763" cy="469.5212" r="15.4269" transform="translate(-373.7377 667.7207) rotate(-82.8363)"/><polygon class="cls-5" points="92.452 384.324 10.258 414.139 10.258 442.311 239.842 442.311 239.842 413.318 151.821 384.324 92.452 384.324"/><path class="cls-6" d="M235.7448,362.8l-4.2661,36.1056s28.6881,21.4293,60.9294,0L286.361,362.8Z" transform="translate(-139.0263 -5.2638)"/><path class="cls-6" d="M332.0629,256.4457q.3543-5.2878.5764-10.8389a68.6035,68.6035,0,0,0,.4147-7.4554c0-1.4162-.0573-2.8184-.1428-4.2133l.0013-.1194-.01,0c-2.2563-35.7934-32.2357-64.1356-68.9064-64.1356-38.14,0-69.0583,30.6541-69.0583,68.4679a68.4163,68.4163,0,0,0,.67,9.4472c.1962,2.5129.4394,5.4657.731,8.7563-2.9492,1.0609-16.4555,6.7879-7.0256,19.9132,0,0,3.0084,2.9771,2.3824,6.416s-2.6879,9.9931,1.94,13.4115c2.5562,1.8882,5.1483.2212,6.9582-1.6493,1.2045,8.7679,2.6277,17.82,4.2954,26.5654,0,0,33.869,49.2316,59.1071,50.2572,0,0,21.0471,4.1027,58.7667-51.7958,0,0,2.448-9.4675,4.94-24.8813,1.802,1.8093,4.3262,3.343,6.8159,1.5038,4.6276-3.4184,2.5656-9.9727,1.94-13.4115s2.3824-6.416,2.3824-6.416C348.0236,263.4866,335.4514,257.7189,332.0629,256.4457Z" transform="translate(-139.0263 -5.2638)"/><path class="cls-5" d="M328.4871,242.4065s-9.6029,79.9424-34.4844,75.43V316.63a10.686,10.686,0,0,0-10.686-10.6861H244.6749A10.6861,10.6861,0,0,0,233.9887,316.63v1.9326c0,.0262.0038.0515.0041.0778-12.4551-.6362-32.1329-11.9618-34.173-76.2336l-4.7844.863,6.2884,79.2108s30.9691,51.5125,62.673,53.0164c0,0,33.6442-2.5612,62.9726-57.0817L333.1,242.4065ZM286.361,332.3943a11.1458,11.1458,0,0,1-11.1131,11.1131h-.3262a4.2408,4.2408,0,0,1-4.1846-3.5533l-1.3339-8.1215a4.2407,4.2407,0,0,0-4.1846-3.5534h-3.1338a4.2406,4.2406,0,0,0-4.21,3.7335l-.9347,7.7611a4.2408,4.2408,0,0,1-4.21,3.7336,11.1458,11.1458,0,0,1-11.113-11.1131v-8.23a11.1457,11.1457,0,0,1,11.113-11.1129h20.4241a13.246,13.246,0,0,1,13.2073,13.2072Z" transform="translate(-139.0263 -5.2638)"/><path class="cls-5" d="M195.0354,244.2763s-1.656-15.0449.09-38.357,15.2824-26.32,15.2824-26.32-2.9657-1.7939-7.1018,1.966-.0422-4.125,8.9818-5.8655,13.5363-23.1728,38.3525-19.0367c0,0-11.28.3759-15.04,4.8881,0,0,9.4-3.76,9.7761-1.88,0,0-8.6481,4.5122-6.392,6.0161,0,0,16.5441-11.6561,29.7041-11.6561,0,0,12.4083-6.7681,22.1843-4.512a19.9253,19.9253,0,0,1,10.9041,16.5442s4.512-1.1281,6.0161-4.1361,4.512,6.0161,3.384,7.8961,3.948,7.144,6.4861,3.76c0,0,1.7859,7.52-3.102,7.52,0,0,14.0488-1.88,18.3045,10.152s-.2363,57.1175-.2363,57.1175l-4.2028-.6352s.7986-33.5461-3.3375-35.05-14.194-15.7921-28.3411-6.7681-8.8832-2.2561-10.3871-4.512-5.0761,9.4-10.6221,9.4-10.4341-3.8295-15.3222-12.0668-3.384,8.6829-1.504,8.6829,2.256,10.152-15.04-2.6321-41.7363,8.2721-41.7363,8.2721-3.2054,25.8442-2.2714,30.6674Z" transform="translate(-139.0263 -5.2638)"/><polyline class="cls-7" points="153.382 169.849 208.916 169.849 208.916 224.384"/><polyline class="cls-7" points="97.111 169.849 41.577 169.849 41.577 224.384"/><polyline class="cls-7" points="153.382 350.164 208.916 350.164 208.916 295.63"/><polyline class="cls-7" points="97.111 350.164 41.577 350.164 41.577 295.63"/><polygon class="cls-8" points="90.646 191.178 157.263 191.178 197.592 241.956 185.657 297.621 126.971 330.002 66.422 295.063 53.378 241.49 90.646 191.178"/><polyline class="cls-8" points="197.592 241.956 147.335 255.466 157.263 191.178 125.485 216.8 90.646 191.178 102.59 255.466 53.378 241.49"/><polygon class="cls-8" points="125.485 216.8 102.59 255.466 123.955 298.79 147.335 255.466 125.485 216.8"/><polyline class="cls-8" points="126.971 330.002 123.955 298.79 99.608 314.213 102.59 255.466 66.422 295.063"/><polyline class="cls-8" points="123.955 298.79 150.15 317.213 147.335 255.466 183.736 297.621"/><path class="cls-4" d="M229.6728,199.3323a2.8907,2.8907,0,1,1,2.8907-2.8907A2.8905,2.8905,0,0,1,229.6728,199.3323Z" transform="translate(-139.0263 -5.2638)"/><path class="cls-4" d="M296.9886,199.3323a2.8907,2.8907,0,1,1,2.8906-2.8907A2.8907,2.8907,0,0,1,296.9886,199.3323Z" transform="translate(-139.0263 -5.2638)"/><path class="cls-4" d="M263.9887,224.9542a2.8907,2.8907,0,1,1,2.8907-2.8906A2.89,2.89,0,0,1,263.9887,224.9542Z" transform="translate(-139.0263 -5.2638)"/><path class="cls-4" d="M241.0938,263.62a2.8907,2.8907,0,1,1,2.8905-2.8907A2.8906,2.8906,0,0,1,241.0938,263.62Z" transform="translate(-139.0263 -5.2638)"/><path class="cls-4" d="M286.361,263.62a2.8907,2.8907,0,1,1,2.8906-2.8907A2.8906,2.8906,0,0,1,286.361,263.62Z" transform="translate(-139.0263 -5.2638)"/><path class="cls-4" d="M262.9812,306.9444a2.8907,2.8907,0,1,1,2.8907-2.8907A2.8905,2.8905,0,0,1,262.9812,306.9444Z" transform="translate(-139.0263 -5.2638)"/><path class="cls-4" d="M238.6348,322.3673a2.8906,2.8906,0,1,1,2.8907-2.89A2.89,2.89,0,0,1,238.6348,322.3673Z" transform="translate(-139.0263 -5.2638)"/><path class="cls-4" d="M289.1761,325.3673a2.8906,2.8906,0,1,1,2.8907-2.8907A2.8907,2.8907,0,0,1,289.1761,325.3673Z" transform="translate(-139.0263 -5.2638)"/><path class="cls-4" d="M323.0657,305.4513a2.8907,2.8907,0,1,1,2.8907-2.8906A2.8906,2.8906,0,0,1,323.0657,305.4513Z" transform="translate(-139.0263 -5.2638)"/><path class="cls-4" d="M205.4484,302.5607a2.8907,2.8907,0,1,1,2.8906-2.8907A2.8907,2.8907,0,0,1,205.4484,302.5607Z" transform="translate(-139.0263 -5.2638)"/><path class="cls-4" d="M195.2893,246.57a2.8906,2.8906,0,1,1-3.069-2.7005A2.8906,2.8906,0,0,1,195.2893,246.57Z" transform="translate(-139.0263 -5.2638)"/><path class="cls-4" d="M339.5034,246.57a2.8906,2.8906,0,1,1-3.0691-2.7005A2.89,2.89,0,0,1,339.5034,246.57Z" transform="translate(-139.0263 -5.2638)"/></svg>